<svg width="49" height="49" viewBox="0 0 49 49" fill="none" xmlns="http://www.w3.org/2000/svg">
    <path d="M47.5625 22.6875C48.7812 23.8125 48.7812 25.7812 47.5625 26.9062L35.5625 38.9062C34.4375 40.125 32.4688 40.125 31.3438 38.9062C30.125 37.7812 30.125 35.8125 31.3438 34.6875L41.1875 24.75L31.3438 14.9062C30.125 13.7812 30.125 11.8125 31.3438 10.6875C32.4688 9.46875 34.4375 9.46875 35.5625 10.6875L47.5625 22.6875Z" fill="#ECEDFF"/>
    <path d="M38.1875 21.75L41.1875 24.75L38.1875 27.75H3.5C1.8125 27.75 0.5 26.4375 0.5 24.75C0.5 23.1562 1.8125 21.75 3.5 21.75H38.1875Z" fill="#ECEDFF"/>
</svg>
