<svg width="24" height="25" viewBox="0 0 24 25" fill="none" xmlns="http://www.w3.org/2000/svg">
    <path d="M12 0.5C12.7969 0.5 13.5 1.20312 13.5 2V10.3906L15.4219 8.46875C15.9844 7.85938 16.9688 7.85938 17.5312 8.46875C18.1406 9.03125 18.1406 10.0156 17.5312 10.5781L13.0312 15.0781C12.4688 15.6875 11.4844 15.6875 10.9219 15.0781L6.42188 10.5781C5.8125 10.0156 5.8125 9.03125 6.42188 8.46875C6.98438 7.85938 7.96875 7.85938 8.53125 8.46875L10.5 10.3906V2C10.5 1.20312 11.1562 0.5 12 0.5Z" fill="#4D3E9E"/>
    <path opacity="0.4" d="M5.8125 15.5C6.375 15.5 6.89062 15.8281 7.125 16.3438L7.82812 17.7031C8.0625 18.2188 8.57812 18.5 9.14062 18.5H14.8125C15.375 18.5 15.8906 18.2188 16.125 17.7031L16.8281 16.3438C17.0625 15.8281 17.5781 15.5 18.1406 15.5H21.75C22.9688 15.5 24 16.5312 24 17.75V22.25C24 23.5156 22.9688 24.5 21.75 24.5H2.25C0.984375 24.5 0 23.5156 0 22.25V17.75C0 16.5312 0.984375 15.5 2.25 15.5H5.8125Z" fill="#4D3E9E"/>
</svg>
