<svg width="48" height="49" viewBox="0 0 48 49" fill="none" xmlns="http://www.w3.org/2000/svg">
    <path d="M4.5 13C1.96875 13 0 11.0312 0 8.59375C0 6.71875 2.625 2.96875 3.84375 1.375C4.125 0.90625 4.78125 0.90625 5.0625 1.375C6.28125 2.96875 9 6.71875 9 8.59375C9 11.0312 6.9375 13 4.5 13ZM9 26.5C9 25.75 9.65625 25 10.5 25H19.5C20.25 25 21 25.75 21 26.5C21 27.3438 20.25 28 19.5 28H10.5C9.65625 28 9 27.3438 9 26.5ZM27 26.5C27 25.75 27.6562 25 28.5 25H37.5C38.25 25 39 25.75 39 26.5C39 27.3438 38.25 28 37.5 28H28.5C27.6562 28 27 27.3438 27 26.5Z"
          fill="white"/>
    <path opacity="0.4"
          d="M24 1C37.2188 1 48 11.7812 48 25C48 38.3125 37.2188 49 24 49C10.6875 49 0 38.3125 0 25C0 21.7188 0.65625 18.5312 1.875 15.625C2.71875 15.9062 3.5625 16 4.5 16C8.53125 16 12 12.8125 12 8.59375C12 7.5625 11.625 6.53125 11.25 5.78125C11.1562 5.5 11.0625 5.21875 10.875 4.9375C14.625 2.5 19.125 1 24 1ZM18.2812 39.5312C19.4062 38.3125 21.2812 37 24 37C26.625 37 28.5 38.3125 29.625 39.5312C30.1875 40.1875 31.125 40.1875 31.6875 39.625C32.3438 39.0625 32.3438 38.125 31.7812 37.5625C30.2812 35.875 27.6562 34 24 34C20.25 34 17.625 35.875 16.125 37.5625C15.5625 38.125 15.5625 39.0625 16.2188 39.625C16.7812 40.1875 17.8125 40.1875 18.2812 39.5312Z"
          fill="white"/>
</svg>
