<svg width="98" height="98" viewBox="0 0 98 98" fill="none" xmlns="http://www.w3.org/2000/svg">
    <path d="M49.25 94C33.0781 94 18.3125 85.5625 10.2266 71.5C2.14062 57.6133 2.14062 40.5625 10.2266 26.5C18.3125 12.6133 33.0781 4 49.25 4C65.2461 4 80.0117 12.6133 88.0977 26.5C96.1836 40.5625 96.1836 57.6133 88.0977 71.5C80.0117 85.5625 65.2461 94 49.25 94Z" fill="#918EF5" fill-opacity="0.25"/>
    <path d="M10.2266 71.5L12.2584 70.3317L12.252 70.3206L10.2266 71.5ZM10.2266 26.5L8.20112 25.3206L8.19475 25.3317L10.2266 26.5ZM88.0977 26.5L90.1295 25.3317L90.1231 25.3206L88.0977 26.5ZM88.0977 71.5L86.0722 70.3206L86.0658 70.3317L88.0977 71.5ZM49.25 91.6562C33.9078 91.6562 19.9217 83.6591 12.2584 70.3317L8.19475 72.6683C16.7033 87.4659 32.2484 96.3438 49.25 96.3438V91.6562ZM12.252 70.3206C4.59313 57.1674 4.58571 41.0121 12.2584 27.6683L8.19475 25.3317C-0.304462 40.1129 -0.311881 58.0591 8.20115 72.6794L12.252 70.3206ZM12.252 27.6794C19.9229 14.5053 33.9219 6.34375 49.25 6.34375V1.65625C32.2343 1.65625 16.7021 10.7213 8.20115 25.3206L12.252 27.6794ZM49.25 6.34375C64.3972 6.34375 78.3987 14.5008 86.0722 27.6794L90.1231 25.3206C81.6248 10.7257 66.095 1.65625 49.25 1.65625V6.34375ZM86.0658 27.6683C93.7385 41.0121 93.7311 57.1674 86.0722 70.3206L90.1231 72.6794C98.6361 58.0591 98.6287 40.1129 90.1295 25.3317L86.0658 27.6683ZM86.0658 70.3317C78.4 83.6636 64.4113 91.6562 49.25 91.6562V96.3438C66.0809 96.3438 81.6234 87.4614 90.1295 72.6683L86.0658 70.3317Z" fill="#CDC9FD"/>
    <g clip-path="url(#clip0_6114_12468)">
        <path d="M44.8056 55.4829C44.8056 54.5138 44.0174 53.7256 43.0483 53.7256C42.0792 53.7256 41.291 54.5138 41.291 55.4829C41.291 56.452 42.0792 57.2401 43.0483 57.2401C44.0174 57.2401 44.8056 56.452 44.8056 55.4829Z" fill="#CDC9FD"/>
        <path d="M43.0483 62.6465C42.0792 62.6465 41.291 63.4347 41.291 64.4038C41.291 65.3729 42.0792 66.161 43.0483 66.161C44.0174 66.161 44.8056 65.3729 44.8056 64.4038C44.8056 63.4347 44.0174 62.6465 43.0483 62.6465Z" fill="#CDC9FD"/>
        <path d="M45.2788 58.1855C44.3097 58.1855 43.5215 58.9737 43.5215 59.9428C43.5215 60.9119 44.3097 61.7001 45.2788 61.7001C46.2479 61.7001 47.036 60.9119 47.036 59.9428C47.036 58.9737 46.2479 58.1855 45.2788 58.1855Z" fill="#CDC9FD"/>
        <path d="M42.5751 59.9428C42.5751 58.9737 41.7869 58.1855 40.8178 58.1855C39.8487 58.1855 39.0605 58.9737 39.0605 59.9428C39.0605 60.9119 39.8487 61.7001 40.8178 61.7001C41.7869 61.7001 42.5751 60.9119 42.5751 59.9428Z" fill="#CDC9FD"/>
        <path d="M40.8178 67.1084C39.8487 67.1084 39.0605 67.8966 39.0605 68.8657C39.0605 69.8348 39.8487 70.623 40.8178 70.623C41.7869 70.623 42.5751 69.8348 42.5751 68.8657C42.5751 67.8966 41.7869 67.1084 40.8178 67.1084Z" fill="#CDC9FD"/>
        <path d="M37.0898 55.4829C37.0898 56.3086 37.7617 56.9805 38.5874 56.9805C39.4131 56.9805 40.085 56.3086 40.085 55.4829C40.085 54.6573 39.4131 53.9854 38.5874 53.9854C37.7617 53.9854 37.0898 54.6573 37.0898 55.4829Z" fill="#CDC9FD"/>
        <path d="M38.5874 66.161C39.5564 66.161 40.3446 65.3728 40.3446 64.4038C40.3446 63.4347 39.5564 62.6465 38.5874 62.6465C37.6183 62.6465 36.8301 63.4347 36.8301 64.4038C36.8301 65.3728 37.6183 66.161 38.5874 66.161Z" fill="#CDC9FD"/>
        <path d="M36.3579 61.4404C37.1836 61.4404 37.8555 60.7685 37.8555 59.9429C37.8555 59.1172 37.1836 58.4453 36.3579 58.4453C35.5323 58.4453 34.8604 59.1172 34.8604 59.9429C34.8604 60.7685 35.5323 61.4404 36.3579 61.4404Z" fill="#CDC9FD"/>
        <path d="M37.8555 68.8657C37.8555 68.0401 37.1836 67.3682 36.3579 67.3682C35.5323 67.3682 34.8604 68.0401 34.8604 68.8657C34.8604 69.6914 35.5323 70.3633 36.3579 70.3633C37.1836 70.3633 37.8555 69.6914 37.8555 68.8657Z" fill="#CDC9FD"/>
        <path d="M31.8981 67.9707C31.4045 67.9707 31.0039 68.3713 31.0039 68.8648C31.0039 69.3584 31.4045 69.759 31.8981 69.759C32.3916 69.759 32.7922 69.3584 32.7922 68.8648C32.7922 68.3713 32.3916 67.9707 31.8981 67.9707Z" fill="#CDC9FD"/>
        <path d="M47.769 53.7256C46.7999 53.7256 46.0117 54.5138 46.0117 55.4829C46.0117 56.452 46.7999 57.2401 47.769 57.2401C48.7381 57.2401 49.5263 56.452 49.5263 55.4829C49.5263 54.5138 48.7381 53.7256 47.769 53.7256Z" fill="#CDC9FD"/>
        <path d="M34.1272 65.5571C34.7629 65.5571 35.2797 65.0402 35.2797 64.4045C35.2797 63.7688 34.7629 63.252 34.1272 63.252C33.4915 63.252 32.9746 63.7688 32.9746 64.4045C32.9746 65.0402 33.4915 65.5571 34.1272 65.5571Z" fill="#CDC9FD"/>
        <path d="M38.5874 71.4844C37.6183 71.4844 36.8301 72.2726 36.8301 73.2417C36.8301 74.2107 37.6183 74.9989 38.5874 74.9989C39.5564 74.9989 40.3446 74.2107 40.3446 73.2417C40.3446 72.2726 39.5564 71.4844 38.5874 71.4844Z" fill="#CDC9FD"/>
        <path d="M34.1272 72.0908C33.4915 72.0908 32.9746 72.6077 32.9746 73.2434C32.9746 73.8791 33.4915 74.396 34.1272 74.396C34.7629 74.396 35.2797 73.8791 35.2797 73.2434C35.2797 72.6077 34.7629 72.0908 34.1272 72.0908Z" fill="#CDC9FD"/>
        <path d="M29.7034 72.5234C29.3055 72.5234 28.9824 72.8465 28.9824 73.2444C28.9824 73.6424 29.3055 73.9654 29.7034 73.9654C30.1014 73.9654 30.4244 73.6424 30.4244 73.2444C30.4244 72.8465 30.1014 72.5234 29.7034 72.5234Z" fill="#CDC9FD"/>
        <path d="M69.9897 35.8818C69.0206 35.8818 68.2324 36.67 68.2324 37.6391C68.2324 38.6082 69.0206 39.3964 69.9897 39.3964C70.9588 39.3964 71.747 38.6082 71.747 37.6391C71.747 36.67 70.9588 35.8818 69.9897 35.8818Z" fill="#CDC9FD"/>
        <path d="M69.5175 33.1767C69.5175 32.2076 68.7293 31.4194 67.7602 31.4194C66.7911 31.4194 66.0029 32.2076 66.0029 33.1767C66.0029 34.1458 66.7911 34.934 67.7602 34.934C68.7293 34.934 69.5175 34.1458 69.5175 33.1767Z" fill="#CDC9FD"/>
        <path d="M67.7602 40.3438C66.7911 40.3438 66.0029 41.1319 66.0029 42.101C66.0029 43.0701 66.7911 43.8583 67.7602 43.8583C68.7293 43.8583 69.5175 43.0701 69.5175 42.101C69.5175 41.1319 68.7293 40.3438 67.7602 40.3438Z" fill="#CDC9FD"/>
        <path d="M62.8271 28.7182C62.8271 27.7491 62.0389 26.9609 61.0698 26.9609C60.1007 26.9609 59.3125 27.7491 59.3125 28.7182C59.3125 29.6873 60.1007 30.4755 61.0698 30.4755C62.0389 30.4755 62.8271 29.6873 62.8271 28.7182Z" fill="#CDC9FD"/>
        <path d="M63.2993 26.015C64.2698 26.015 65.0565 25.2283 65.0565 24.2578C65.0565 23.2872 64.2698 22.5005 63.2993 22.5005C62.3288 22.5005 61.542 23.2872 61.542 24.2578C61.542 25.2283 62.3288 26.015 63.2993 26.015Z" fill="#CDC9FD"/>
        <path d="M58.8393 26.0131C59.8084 26.0131 60.5966 25.2249 60.5966 24.2558C60.5966 23.2867 59.8084 22.4985 58.8393 22.4985C57.8702 22.4985 57.082 23.2867 57.082 24.2558C57.082 25.2249 57.8702 26.0131 58.8393 26.0131Z" fill="#CDC9FD"/>
        <path d="M67.287 37.6391C67.287 36.67 66.4988 35.8818 65.5297 35.8818C64.5607 35.8818 63.7725 36.67 63.7725 37.6391C63.7725 38.6082 64.5607 39.3964 65.5297 39.3964C66.4988 39.3964 67.287 38.6082 67.287 37.6391Z" fill="#CDC9FD"/>
        <path d="M62.8271 37.6391C62.8271 36.67 62.0389 35.8818 61.0698 35.8818C60.1007 35.8818 59.3125 36.67 59.3125 37.6391C59.3125 38.6082 60.1007 39.3964 61.0698 39.3964C62.0389 39.3964 62.8271 38.6082 62.8271 37.6391Z" fill="#CDC9FD"/>
        <path d="M63.2993 34.934C64.2684 34.934 65.0565 34.1458 65.0565 33.1767C65.0565 32.2076 64.2684 31.4194 63.2993 31.4194C62.3302 31.4194 61.542 32.2076 61.542 33.1767C61.542 34.1458 62.3302 34.934 63.2993 34.934Z" fill="#CDC9FD"/>
        <path d="M57.082 33.1767C57.082 34.1458 57.8702 34.934 58.8393 34.934C59.8084 34.934 60.5966 34.1458 60.5966 33.1767C60.5966 32.2076 59.8084 31.4194 58.8393 31.4194C57.8702 31.4194 57.082 32.2076 57.082 33.1767Z" fill="#CDC9FD"/>
        <path d="M65.5297 44.8047C64.5606 44.8047 63.7725 45.5929 63.7725 46.562C63.7725 47.5311 64.5606 48.3192 65.5297 48.3192C66.4988 48.3192 67.287 47.5311 67.287 46.562C67.287 45.5929 66.4988 44.8047 65.5297 44.8047Z" fill="#CDC9FD"/>
        <path d="M62.8271 46.562C62.8271 45.5929 62.0389 44.8047 61.0698 44.8047C60.1007 44.8047 59.3125 45.5929 59.3125 46.562C59.3125 47.5311 60.1007 48.3192 61.0698 48.3192C62.0389 48.3192 62.8271 47.5311 62.8271 46.562Z" fill="#CDC9FD"/>
        <path d="M63.2993 43.8583C64.2684 43.8583 65.0565 43.0701 65.0565 42.101C65.0565 41.1319 64.2684 40.3438 63.2993 40.3438C62.3302 40.3438 61.542 41.1319 61.542 42.101C61.542 43.0701 62.3302 43.8583 63.2993 43.8583Z" fill="#CDC9FD"/>
        <path d="M58.8393 43.8583C59.8084 43.8583 60.5966 43.0701 60.5966 42.101C60.5966 41.1319 59.8084 40.3438 58.8393 40.3438C57.8702 40.3438 57.082 41.1319 57.082 42.101C57.082 43.0701 57.8702 43.8583 58.8393 43.8583Z" fill="#CDC9FD"/>
        <path d="M63.2993 49.2646C62.3302 49.2646 61.542 50.0528 61.542 51.0219C61.542 51.991 62.3302 52.7792 63.2993 52.7792C64.2684 52.7792 65.0565 51.991 65.0565 51.0219C65.0565 50.0528 64.2684 49.2646 63.2993 49.2646Z" fill="#CDC9FD"/>
        <path d="M58.8393 49.2646C57.8702 49.2646 57.082 50.0528 57.082 51.0219C57.082 51.991 57.8702 52.7792 58.8393 52.7792C59.8084 52.7792 60.5966 51.991 60.5966 51.0219C60.5966 50.0528 59.8084 49.2646 58.8393 49.2646Z" fill="#CDC9FD"/>
        <path d="M56.6088 30.4755C57.5779 30.4755 58.3661 29.6873 58.3661 28.7182C58.3661 27.7491 57.5779 26.9609 56.6088 26.9609C55.6398 26.9609 54.8516 27.7491 54.8516 28.7182C54.8516 29.6873 55.6398 30.4755 56.6088 30.4755Z" fill="#CDC9FD"/>
        <path d="M52.1479 30.4755C53.117 30.4755 53.9052 29.6873 53.9052 28.7182C53.9052 27.7491 53.117 26.9609 52.1479 26.9609C51.1788 26.9609 50.3906 27.7491 50.3906 28.7182C50.3906 29.6873 51.1788 30.4755 52.1479 30.4755Z" fill="#CDC9FD"/>
        <path d="M56.1357 24.2578C56.1357 23.2887 55.3475 22.5005 54.3784 22.5005C53.4093 22.5005 52.6211 23.2887 52.6211 24.2578C52.6211 25.2269 53.4093 26.015 54.3784 26.015C55.3475 26.015 56.1357 25.2269 56.1357 24.2578Z" fill="#CDC9FD"/>
        <path d="M51.6757 24.2578C51.6757 23.2887 50.8875 22.5005 49.9184 22.5005C48.9493 22.5005 48.1611 23.2887 48.1611 24.2578C48.1611 25.2269 48.9493 26.015 49.9184 26.015C50.8875 26.015 51.6757 25.2269 51.6757 24.2578Z" fill="#CDC9FD"/>
        <path d="M58.3661 46.562C58.3661 45.5929 57.5779 44.8047 56.6088 44.8047C55.6398 44.8047 54.8516 45.5929 54.8516 46.562C54.8516 47.5311 55.6398 48.3192 56.6088 48.3192C57.5779 48.3192 58.3661 47.5311 58.3661 46.562Z" fill="#CDC9FD"/>
        <path d="M53.9052 46.562C53.9052 45.5929 53.117 44.8047 52.1479 44.8047C51.1788 44.8047 50.3906 45.5929 50.3906 46.562C50.3906 47.5311 51.1788 48.3192 52.1479 48.3192C53.117 48.3192 53.9052 47.5311 53.9052 46.562Z" fill="#CDC9FD"/>
        <path d="M54.3784 49.2646C53.4093 49.2646 52.6211 50.0528 52.6211 51.0219C52.6211 51.991 53.4093 52.7792 54.3784 52.7792C55.3475 52.7792 56.1357 51.991 56.1357 51.0219C56.1357 50.0528 55.3475 49.2646 54.3784 49.2646Z" fill="#CDC9FD"/>
        <path d="M49.9184 49.2646C48.9493 49.2646 48.1611 50.0528 48.1611 51.0219C48.1611 51.991 48.9493 52.7792 49.9184 52.7792C50.8875 52.7792 51.6757 51.991 51.6757 51.0219C51.6757 50.0528 50.8875 49.2646 49.9184 49.2646Z" fill="#CDC9FD"/>
        <path d="M47.6879 26.9609C46.7189 26.9609 45.9307 27.7491 45.9307 28.7182C45.9307 29.6873 46.7189 30.4755 47.6879 30.4755C48.657 30.4755 49.4452 29.6873 49.4452 28.7182C49.4452 27.7491 48.657 26.9609 47.6879 26.9609Z" fill="#CDC9FD"/>
        <path d="M43.2241 27.2188C42.3985 27.2188 41.7266 27.8907 41.7266 28.7163C41.7266 29.542 42.3985 30.2139 43.2241 30.2139C44.0498 30.2139 44.7217 29.542 44.7217 28.7163C44.7217 27.8907 44.0498 27.2188 43.2241 27.2188Z" fill="#CDC9FD"/>
        <path d="M45.4575 26.015C46.428 26.015 47.2148 25.2283 47.2148 24.2578C47.2148 23.2872 46.428 22.5005 45.4575 22.5005C44.487 22.5005 43.7002 23.2872 43.7002 24.2578C43.7002 25.2283 44.487 26.015 45.4575 26.015Z" fill="#CDC9FD"/>
        <path d="M40.9976 25.7539C41.8232 25.7539 42.4951 25.082 42.4951 24.2564C42.4951 23.4307 41.8232 22.7588 40.9976 22.7588C40.1719 22.7588 39.5 23.4307 39.5 24.2564C39.5 25.082 40.1719 25.7539 40.9976 25.7539Z" fill="#CDC9FD"/>
        <path d="M49.4452 46.562C49.4452 45.5929 48.657 44.8047 47.6879 44.8047C46.7189 44.8047 45.9307 45.5929 45.9307 46.562C45.9307 47.5311 46.7189 48.3192 47.6879 48.3192C48.657 48.3192 49.4452 47.5311 49.4452 46.562Z" fill="#CDC9FD"/>
        <path d="M44.7217 46.5601C44.7217 45.7344 44.0498 45.0625 43.2241 45.0625C42.3985 45.0625 41.7266 45.7344 41.7266 46.5601C41.7266 47.3857 42.3985 48.0576 43.2241 48.0576C44.0498 48.0576 44.7217 47.3857 44.7217 46.5601Z" fill="#CDC9FD"/>
        <path d="M47.2148 51.0219C47.2148 50.0528 46.4266 49.2646 45.4575 49.2646C44.4884 49.2646 43.7002 50.0528 43.7002 51.0219C43.7002 51.991 44.4884 52.7792 45.4575 52.7792C46.4266 52.7792 47.2148 51.991 47.2148 51.0219Z" fill="#CDC9FD"/>
        <path d="M42.4951 51.023C42.4951 50.1973 41.8232 49.5254 40.9976 49.5254C40.1719 49.5254 39.5 50.1973 39.5 51.023C39.5 51.8486 40.1719 52.5205 40.9976 52.5205C41.8232 52.5205 42.4951 51.8486 42.4951 51.023Z" fill="#CDC9FD"/>
        <path d="M34.3043 29.6115C34.7979 29.6115 35.1984 29.211 35.1984 28.7174C35.1984 28.2238 34.7979 27.8232 34.3043 27.8232C33.8107 27.8232 33.4102 28.2238 33.4102 28.7174C33.4102 29.211 33.8107 29.6115 34.3043 29.6115Z" fill="#CDC9FD"/>
        <path d="M32.0738 23.3628C31.5802 23.3628 31.1797 23.7633 31.1797 24.2569C31.1797 24.7505 31.5802 25.1511 32.0738 25.1511C32.5674 25.1511 32.968 24.7505 32.968 24.2569C32.968 23.7633 32.5674 23.3628 32.0738 23.3628Z" fill="#CDC9FD"/>
        <path d="M67.287 28.7182C67.287 27.7491 66.4988 26.9609 65.5297 26.9609C64.5607 26.9609 63.7725 27.7491 63.7725 28.7182C63.7725 29.6873 64.5607 30.4755 65.5297 30.4755C66.4988 30.4755 67.287 29.6873 67.287 28.7182Z" fill="#CDC9FD"/>
        <path d="M38.7668 29.8701C39.4025 29.8701 39.9194 29.3532 39.9194 28.7175C39.9194 28.0818 39.4025 27.5649 38.7668 27.5649C38.1311 27.5649 37.6143 28.0818 37.6143 28.7175C37.6143 29.3532 38.1311 29.8701 38.7668 29.8701Z" fill="#CDC9FD"/>
        <path d="M36.5364 25.4096C37.1729 25.4096 37.6889 24.8936 37.6889 24.2571C37.6889 23.6205 37.1729 23.1045 36.5364 23.1045C35.8998 23.1045 35.3838 23.6205 35.3838 24.2571C35.3838 24.8936 35.8998 25.4096 36.5364 25.4096Z" fill="#CDC9FD"/>
    </g>
    <path d="M57.6348 75L54.2748 64.682H56.1368L58.7688 73.334H59.1048L61.7508 64.682H63.6128L60.2528 75H57.6348ZM64.6841 75V72.858L69.9621 68.098V66.838L69.3461 66.222H66.7561L65.7341 67.244L64.5861 66.082L65.9861 64.682H70.1581L71.7121 66.236V68.826L66.6721 73.404H71.8101V75H64.6841Z" fill="#CDC9FD"/>
    <defs>
        <clipPath id="clip0_6114_12468">
            <rect width="42.7665" height="52.5" fill="white" transform="translate(28.9834 22.5)"/>
        </clipPath>
    </defs>
</svg>
