<svg width="98" height="98" viewBox="0 0 98 98" fill="none" xmlns="http://www.w3.org/2000/svg">
    <path d="M48.75 94C32.5781 94 17.8125 85.5625 9.72656 71.5C1.64062 57.6133 1.64062 40.5625 9.72656 26.5C17.8125 12.6133 32.5781 4 48.75 4C64.7461 4 79.5117 12.6133 87.5977 26.5C95.6836 40.5625 95.6836 57.6133 87.5977 71.5C79.5117 85.5625 64.7461 94 48.75 94Z"
          fill="#ECEDFF" fill-opacity="0.3"/>
    <path d="M9.72656 71.5L11.7584 70.3317L11.752 70.3206L9.72656 71.5ZM9.72656 26.5L7.70112 25.3206L7.69475 25.3317L9.72656 26.5ZM87.5977 26.5L89.6295 25.3317L89.6231 25.3206L87.5977 26.5ZM87.5977 71.5L85.5722 70.3206L85.5658 70.3317L87.5977 71.5ZM48.75 91.6562C33.4078 91.6562 19.4217 83.6591 11.7584 70.3317L7.69475 72.6683C16.2033 87.4659 31.7484 96.3438 48.75 96.3438V91.6562ZM11.752 70.3206C4.09313 57.1674 4.08571 41.0121 11.7584 27.6683L7.69475 25.3317C-0.804462 40.1129 -0.811881 58.0591 7.70115 72.6794L11.752 70.3206ZM11.752 27.6794C19.4229 14.5053 33.4219 6.34375 48.75 6.34375V1.65625C31.7343 1.65625 16.2021 10.7213 7.70115 25.3206L11.752 27.6794ZM48.75 6.34375C63.8972 6.34375 77.8987 14.5008 85.5722 27.6794L89.6231 25.3206C81.1248 10.7257 65.595 1.65625 48.75 1.65625V6.34375ZM85.5658 27.6683C93.2385 41.0121 93.2311 57.1674 85.5722 70.3206L89.6231 72.6794C98.1361 58.0591 98.1287 40.1129 89.6295 25.3317L85.5658 27.6683ZM85.5658 70.3317C77.9 83.6636 63.9113 91.6562 48.75 91.6562V96.3438C65.5809 96.3438 81.1234 87.4614 89.6295 72.6683L85.5658 70.3317Z"
          fill="white"/>
    <g clip-path="url(#clip0_6114_11736)">
        <path d="M44.3056 55.4829C44.3056 54.5138 43.5174 53.7256 42.5483 53.7256C41.5792 53.7256 40.791 54.5138 40.791 55.4829C40.791 56.452 41.5792 57.2401 42.5483 57.2401C43.5174 57.2401 44.3056 56.452 44.3056 55.4829Z"
              fill="white"/>
        <path d="M42.5483 62.6465C41.5792 62.6465 40.791 63.4347 40.791 64.4038C40.791 65.3729 41.5792 66.161 42.5483 66.161C43.5174 66.161 44.3056 65.3729 44.3056 64.4038C44.3056 63.4347 43.5174 62.6465 42.5483 62.6465Z"
              fill="white"/>
        <path d="M44.7788 58.1855C43.8097 58.1855 43.0215 58.9737 43.0215 59.9428C43.0215 60.9119 43.8097 61.7001 44.7788 61.7001C45.7479 61.7001 46.536 60.9119 46.536 59.9428C46.536 58.9737 45.7479 58.1855 44.7788 58.1855Z"
              fill="white"/>
        <path d="M42.0751 59.9428C42.0751 58.9737 41.2869 58.1855 40.3178 58.1855C39.3487 58.1855 38.5605 58.9737 38.5605 59.9428C38.5605 60.9119 39.3487 61.7001 40.3178 61.7001C41.2869 61.7001 42.0751 60.9119 42.0751 59.9428Z"
              fill="white"/>
        <path d="M40.3178 67.1084C39.3487 67.1084 38.5605 67.8966 38.5605 68.8657C38.5605 69.8348 39.3487 70.623 40.3178 70.623C41.2869 70.623 42.0751 69.8348 42.0751 68.8657C42.0751 67.8966 41.2869 67.1084 40.3178 67.1084Z"
              fill="white"/>
        <path d="M36.5898 55.4829C36.5898 56.3086 37.2617 56.9805 38.0874 56.9805C38.9131 56.9805 39.585 56.3086 39.585 55.4829C39.585 54.6573 38.9131 53.9854 38.0874 53.9854C37.2617 53.9854 36.5898 54.6573 36.5898 55.4829Z"
              fill="white"/>
        <path d="M38.0874 66.161C39.0564 66.161 39.8446 65.3728 39.8446 64.4038C39.8446 63.4347 39.0564 62.6465 38.0874 62.6465C37.1183 62.6465 36.3301 63.4347 36.3301 64.4038C36.3301 65.3728 37.1183 66.161 38.0874 66.161Z"
              fill="white"/>
        <path d="M35.8579 61.4404C36.6836 61.4404 37.3555 60.7685 37.3555 59.9429C37.3555 59.1172 36.6836 58.4453 35.8579 58.4453C35.0323 58.4453 34.3604 59.1172 34.3604 59.9429C34.3604 60.7685 35.0323 61.4404 35.8579 61.4404Z"
              fill="white"/>
        <path d="M37.3555 68.8657C37.3555 68.0401 36.6836 67.3682 35.8579 67.3682C35.0323 67.3682 34.3604 68.0401 34.3604 68.8657C34.3604 69.6914 35.0323 70.3633 35.8579 70.3633C36.6836 70.3633 37.3555 69.6914 37.3555 68.8657Z"
              fill="white"/>
        <path d="M31.3981 67.9707C30.9045 67.9707 30.5039 68.3713 30.5039 68.8648C30.5039 69.3584 30.9045 69.759 31.3981 69.759C31.8916 69.759 32.2922 69.3584 32.2922 68.8648C32.2922 68.3713 31.8916 67.9707 31.3981 67.9707Z"
              fill="white"/>
        <path d="M47.269 53.7256C46.2999 53.7256 45.5117 54.5138 45.5117 55.4829C45.5117 56.452 46.2999 57.2401 47.269 57.2401C48.2381 57.2401 49.0263 56.452 49.0263 55.4829C49.0263 54.5138 48.2381 53.7256 47.269 53.7256Z"
              fill="white"/>
        <path d="M33.6272 65.5571C34.2629 65.5571 34.7797 65.0402 34.7797 64.4045C34.7797 63.7688 34.2629 63.252 33.6272 63.252C32.9915 63.252 32.4746 63.7688 32.4746 64.4045C32.4746 65.0402 32.9915 65.5571 33.6272 65.5571Z"
              fill="white"/>
        <path d="M38.0874 71.4844C37.1183 71.4844 36.3301 72.2726 36.3301 73.2417C36.3301 74.2107 37.1183 74.9989 38.0874 74.9989C39.0564 74.9989 39.8446 74.2107 39.8446 73.2417C39.8446 72.2726 39.0564 71.4844 38.0874 71.4844Z"
              fill="white"/>
        <path d="M33.6272 72.0908C32.9915 72.0908 32.4746 72.6077 32.4746 73.2434C32.4746 73.8791 32.9915 74.396 33.6272 74.396C34.2629 74.396 34.7797 73.8791 34.7797 73.2434C34.7797 72.6077 34.2629 72.0908 33.6272 72.0908Z"
              fill="white"/>
        <path d="M29.2034 72.5234C28.8055 72.5234 28.4824 72.8465 28.4824 73.2444C28.4824 73.6424 28.8055 73.9654 29.2034 73.9654C29.6014 73.9654 29.9244 73.6424 29.9244 73.2444C29.9244 72.8465 29.6014 72.5234 29.2034 72.5234Z"
              fill="white"/>
        <path d="M69.4897 35.8818C68.5206 35.8818 67.7324 36.67 67.7324 37.6391C67.7324 38.6082 68.5206 39.3964 69.4897 39.3964C70.4588 39.3964 71.247 38.6082 71.247 37.6391C71.247 36.67 70.4588 35.8818 69.4897 35.8818Z"
              fill="white"/>
        <path d="M69.0175 33.1767C69.0175 32.2076 68.2293 31.4194 67.2602 31.4194C66.2911 31.4194 65.5029 32.2076 65.5029 33.1767C65.5029 34.1458 66.2911 34.934 67.2602 34.934C68.2293 34.934 69.0175 34.1458 69.0175 33.1767Z"
              fill="white"/>
        <path d="M67.2602 40.3438C66.2911 40.3438 65.5029 41.1319 65.5029 42.101C65.5029 43.0701 66.2911 43.8583 67.2602 43.8583C68.2293 43.8583 69.0175 43.0701 69.0175 42.101C69.0175 41.1319 68.2293 40.3438 67.2602 40.3438Z"
              fill="white"/>
        <path d="M62.3271 28.7182C62.3271 27.7491 61.5389 26.9609 60.5698 26.9609C59.6007 26.9609 58.8125 27.7491 58.8125 28.7182C58.8125 29.6873 59.6007 30.4755 60.5698 30.4755C61.5389 30.4755 62.3271 29.6873 62.3271 28.7182Z"
              fill="white"/>
        <path d="M62.7993 26.015C63.7698 26.015 64.5565 25.2283 64.5565 24.2578C64.5565 23.2872 63.7698 22.5005 62.7993 22.5005C61.8288 22.5005 61.042 23.2872 61.042 24.2578C61.042 25.2283 61.8288 26.015 62.7993 26.015Z"
              fill="white"/>
        <path d="M58.3393 26.0131C59.3084 26.0131 60.0966 25.2249 60.0966 24.2558C60.0966 23.2867 59.3084 22.4985 58.3393 22.4985C57.3702 22.4985 56.582 23.2867 56.582 24.2558C56.582 25.2249 57.3702 26.0131 58.3393 26.0131Z"
              fill="white"/>
        <path d="M66.787 37.6391C66.787 36.67 65.9988 35.8818 65.0297 35.8818C64.0607 35.8818 63.2725 36.67 63.2725 37.6391C63.2725 38.6082 64.0607 39.3964 65.0297 39.3964C65.9988 39.3964 66.787 38.6082 66.787 37.6391Z"
              fill="white"/>
        <path d="M62.3271 37.6391C62.3271 36.67 61.5389 35.8818 60.5698 35.8818C59.6007 35.8818 58.8125 36.67 58.8125 37.6391C58.8125 38.6082 59.6007 39.3964 60.5698 39.3964C61.5389 39.3964 62.3271 38.6082 62.3271 37.6391Z"
              fill="white"/>
        <path d="M62.7993 34.934C63.7684 34.934 64.5565 34.1458 64.5565 33.1767C64.5565 32.2076 63.7684 31.4194 62.7993 31.4194C61.8302 31.4194 61.042 32.2076 61.042 33.1767C61.042 34.1458 61.8302 34.934 62.7993 34.934Z"
              fill="white"/>
        <path d="M56.582 33.1767C56.582 34.1458 57.3702 34.934 58.3393 34.934C59.3084 34.934 60.0966 34.1458 60.0966 33.1767C60.0966 32.2076 59.3084 31.4194 58.3393 31.4194C57.3702 31.4194 56.582 32.2076 56.582 33.1767Z"
              fill="white"/>
        <path d="M65.0297 44.8047C64.0606 44.8047 63.2725 45.5929 63.2725 46.562C63.2725 47.5311 64.0606 48.3192 65.0297 48.3192C65.9988 48.3192 66.787 47.5311 66.787 46.562C66.787 45.5929 65.9988 44.8047 65.0297 44.8047Z"
              fill="white"/>
        <path d="M62.3271 46.562C62.3271 45.5929 61.5389 44.8047 60.5698 44.8047C59.6007 44.8047 58.8125 45.5929 58.8125 46.562C58.8125 47.5311 59.6007 48.3192 60.5698 48.3192C61.5389 48.3192 62.3271 47.5311 62.3271 46.562Z"
              fill="white"/>
        <path d="M62.7993 43.8583C63.7684 43.8583 64.5565 43.0701 64.5565 42.101C64.5565 41.1319 63.7684 40.3438 62.7993 40.3438C61.8302 40.3438 61.042 41.1319 61.042 42.101C61.042 43.0701 61.8302 43.8583 62.7993 43.8583Z"
              fill="white"/>
        <path d="M58.3393 43.8583C59.3084 43.8583 60.0966 43.0701 60.0966 42.101C60.0966 41.1319 59.3084 40.3438 58.3393 40.3438C57.3702 40.3438 56.582 41.1319 56.582 42.101C56.582 43.0701 57.3702 43.8583 58.3393 43.8583Z"
              fill="white"/>
        <path d="M62.7993 49.2646C61.8302 49.2646 61.042 50.0528 61.042 51.0219C61.042 51.991 61.8302 52.7792 62.7993 52.7792C63.7684 52.7792 64.5565 51.991 64.5565 51.0219C64.5565 50.0528 63.7684 49.2646 62.7993 49.2646Z"
              fill="white"/>
        <path d="M58.3393 49.2646C57.3702 49.2646 56.582 50.0528 56.582 51.0219C56.582 51.991 57.3702 52.7792 58.3393 52.7792C59.3084 52.7792 60.0966 51.991 60.0966 51.0219C60.0966 50.0528 59.3084 49.2646 58.3393 49.2646Z"
              fill="white"/>
        <path d="M56.1088 30.4755C57.0779 30.4755 57.8661 29.6873 57.8661 28.7182C57.8661 27.7491 57.0779 26.9609 56.1088 26.9609C55.1398 26.9609 54.3516 27.7491 54.3516 28.7182C54.3516 29.6873 55.1398 30.4755 56.1088 30.4755Z"
              fill="white"/>
        <path d="M51.6479 30.4755C52.617 30.4755 53.4052 29.6873 53.4052 28.7182C53.4052 27.7491 52.617 26.9609 51.6479 26.9609C50.6788 26.9609 49.8906 27.7491 49.8906 28.7182C49.8906 29.6873 50.6788 30.4755 51.6479 30.4755Z"
              fill="white"/>
        <path d="M55.6357 24.2578C55.6357 23.2887 54.8475 22.5005 53.8784 22.5005C52.9093 22.5005 52.1211 23.2887 52.1211 24.2578C52.1211 25.2269 52.9093 26.015 53.8784 26.015C54.8475 26.015 55.6357 25.2269 55.6357 24.2578Z"
              fill="white"/>
        <path d="M51.1757 24.2578C51.1757 23.2887 50.3875 22.5005 49.4184 22.5005C48.4493 22.5005 47.6611 23.2887 47.6611 24.2578C47.6611 25.2269 48.4493 26.015 49.4184 26.015C50.3875 26.015 51.1757 25.2269 51.1757 24.2578Z"
              fill="white"/>
        <path d="M57.8661 46.562C57.8661 45.5929 57.0779 44.8047 56.1088 44.8047C55.1398 44.8047 54.3516 45.5929 54.3516 46.562C54.3516 47.5311 55.1398 48.3192 56.1088 48.3192C57.0779 48.3192 57.8661 47.5311 57.8661 46.562Z"
              fill="white"/>
        <path d="M53.4052 46.562C53.4052 45.5929 52.617 44.8047 51.6479 44.8047C50.6788 44.8047 49.8906 45.5929 49.8906 46.562C49.8906 47.5311 50.6788 48.3192 51.6479 48.3192C52.617 48.3192 53.4052 47.5311 53.4052 46.562Z"
              fill="white"/>
        <path d="M53.8784 49.2646C52.9093 49.2646 52.1211 50.0528 52.1211 51.0219C52.1211 51.991 52.9093 52.7792 53.8784 52.7792C54.8475 52.7792 55.6357 51.991 55.6357 51.0219C55.6357 50.0528 54.8475 49.2646 53.8784 49.2646Z"
              fill="white"/>
        <path d="M49.4184 49.2646C48.4493 49.2646 47.6611 50.0528 47.6611 51.0219C47.6611 51.991 48.4493 52.7792 49.4184 52.7792C50.3875 52.7792 51.1757 51.991 51.1757 51.0219C51.1757 50.0528 50.3875 49.2646 49.4184 49.2646Z"
              fill="white"/>
        <path d="M47.1879 26.9609C46.2189 26.9609 45.4307 27.7491 45.4307 28.7182C45.4307 29.6873 46.2189 30.4755 47.1879 30.4755C48.157 30.4755 48.9452 29.6873 48.9452 28.7182C48.9452 27.7491 48.157 26.9609 47.1879 26.9609Z"
              fill="white"/>
        <path d="M42.7241 27.2188C41.8985 27.2188 41.2266 27.8907 41.2266 28.7163C41.2266 29.542 41.8985 30.2139 42.7241 30.2139C43.5498 30.2139 44.2217 29.542 44.2217 28.7163C44.2217 27.8907 43.5498 27.2188 42.7241 27.2188Z"
              fill="white"/>
        <path d="M44.9575 26.015C45.928 26.015 46.7148 25.2283 46.7148 24.2578C46.7148 23.2872 45.928 22.5005 44.9575 22.5005C43.987 22.5005 43.2002 23.2872 43.2002 24.2578C43.2002 25.2283 43.987 26.015 44.9575 26.015Z"
              fill="white"/>
        <path d="M40.4976 25.7539C41.3232 25.7539 41.9951 25.082 41.9951 24.2564C41.9951 23.4307 41.3232 22.7588 40.4976 22.7588C39.6719 22.7588 39 23.4307 39 24.2564C39 25.082 39.6719 25.7539 40.4976 25.7539Z"
              fill="white"/>
        <path d="M48.9452 46.562C48.9452 45.5929 48.157 44.8047 47.1879 44.8047C46.2189 44.8047 45.4307 45.5929 45.4307 46.562C45.4307 47.5311 46.2189 48.3192 47.1879 48.3192C48.157 48.3192 48.9452 47.5311 48.9452 46.562Z"
              fill="white"/>
        <path d="M44.2217 46.5601C44.2217 45.7344 43.5498 45.0625 42.7241 45.0625C41.8985 45.0625 41.2266 45.7344 41.2266 46.5601C41.2266 47.3857 41.8985 48.0576 42.7241 48.0576C43.5498 48.0576 44.2217 47.3857 44.2217 46.5601Z"
              fill="white"/>
        <path d="M46.7148 51.0219C46.7148 50.0528 45.9266 49.2646 44.9575 49.2646C43.9884 49.2646 43.2002 50.0528 43.2002 51.0219C43.2002 51.991 43.9884 52.7792 44.9575 52.7792C45.9266 52.7792 46.7148 51.991 46.7148 51.0219Z"
              fill="white"/>
        <path d="M41.9951 51.023C41.9951 50.1973 41.3232 49.5254 40.4976 49.5254C39.6719 49.5254 39 50.1973 39 51.023C39 51.8486 39.6719 52.5205 40.4976 52.5205C41.3232 52.5205 41.9951 51.8486 41.9951 51.023Z"
              fill="white"/>
        <path d="M33.8043 29.6115C34.2979 29.6115 34.6984 29.211 34.6984 28.7174C34.6984 28.2238 34.2979 27.8232 33.8043 27.8232C33.3107 27.8232 32.9102 28.2238 32.9102 28.7174C32.9102 29.211 33.3107 29.6115 33.8043 29.6115Z"
              fill="white"/>
        <path d="M31.5738 23.3628C31.0802 23.3628 30.6797 23.7633 30.6797 24.2569C30.6797 24.7505 31.0802 25.1511 31.5738 25.1511C32.0674 25.1511 32.468 24.7505 32.468 24.2569C32.468 23.7633 32.0674 23.3628 31.5738 23.3628Z"
              fill="white"/>
        <path d="M66.787 28.7182C66.787 27.7491 65.9988 26.9609 65.0297 26.9609C64.0607 26.9609 63.2725 27.7491 63.2725 28.7182C63.2725 29.6873 64.0607 30.4755 65.0297 30.4755C65.9988 30.4755 66.787 29.6873 66.787 28.7182Z"
              fill="white"/>
        <path d="M38.2668 29.8701C38.9025 29.8701 39.4194 29.3532 39.4194 28.7175C39.4194 28.0818 38.9025 27.5649 38.2668 27.5649C37.6311 27.5649 37.1143 28.0818 37.1143 28.7175C37.1143 29.3532 37.6311 29.8701 38.2668 29.8701Z"
              fill="white"/>
        <path d="M36.0364 25.4096C36.6729 25.4096 37.1889 24.8936 37.1889 24.2571C37.1889 23.6205 36.6729 23.1045 36.0364 23.1045C35.3998 23.1045 34.8838 23.6205 34.8838 24.2571C34.8838 24.8936 35.3998 25.4096 36.0364 25.4096Z"
              fill="white"/>
    </g>
    <defs>
        <clipPath id="clip0_6114_11736">
            <rect width="42.7665" height="52.5" fill="white" transform="translate(28.4834 22.5)"/>
        </clipPath>
    </defs>
</svg>
