<svg width="36" height="33" viewBox="0 0 36 33" fill="none" xmlns="http://www.w3.org/2000/svg">
    <path d="M25.962 0.625C32.0408 0.625 35.6328 4.11507 35.6328 10.0404V10.1061H28.1634C24.6873 10.1122 21.8714 12.8578 21.8651 16.247C21.8604 19.6438 24.6795 22.4016 28.1634 22.4062H35.6391V22.9459C35.6391 28.8712 32.047 32.375 25.9683 32.375H10.0337C3.95339 32.375 0.361328 28.8712 0.361328 22.9459V10.0404C0.361328 4.11507 3.95339 0.625 10.0337 0.625H25.962ZM18.676 7.4599H8.72138C7.98133 7.46297 7.38082 8.04847 7.37767 8.77155C7.37455 9.49769 7.97662 10.0893 8.72138 10.0924H18.6885C19.4333 10.0893 20.0354 9.49769 20.0322 8.77002C20.0291 8.04388 19.4207 7.45685 18.676 7.4599Z" fill="#4D3E9E"/>
    <path opacity="0.4" d="M25.1217 17.0234C25.4905 18.7011 26.9615 19.8816 28.6409 19.8509H34.3734C35.0722 19.8509 35.639 19.2722 35.639 18.5568V14.0915C35.6375 13.3777 35.0722 12.7974 34.3734 12.7959H28.506C26.5956 12.802 25.0527 14.3877 25.0557 16.3418C25.0557 16.5705 25.0782 16.7992 25.1217 17.0234Z" fill="#4D3E9E"/>
    <path d="M28.5832 18.0873C29.5574 18.0873 30.3471 17.2976 30.3471 16.3235C30.3471 15.3493 29.5574 14.5596 28.5832 14.5596C27.6091 14.5596 26.8193 15.3493 26.8193 16.3235C26.8193 17.2976 27.6091 18.0873 28.5832 18.0873Z" fill="#4D3E9E"/>
</svg>
