<svg width="49" height="30" viewBox="0 0 49 30" fill="none" xmlns="http://www.w3.org/2000/svg">
    <path d="M2.64205 12.5H0.392045L4.48864 0.863636H7.09091L11.1932 12.5H8.94318L5.83523 3.25H5.74432L2.64205 12.5ZM2.71591 7.9375H8.85227V9.63068H2.71591V7.9375ZM14.6918 0.863636V12.5H12.6349V0.863636H14.6918ZM16.8068 12.5V3.77273H18.8636V12.5H16.8068ZM17.8409 2.53409C17.5152 2.53409 17.2348 2.42614 17 2.21023C16.7652 1.99053 16.6477 1.72727 16.6477 1.42045C16.6477 1.10985 16.7652 0.84659 17 0.630681C17.2348 0.410984 17.5152 0.301136 17.8409 0.301136C18.1705 0.301136 18.4508 0.410984 18.6818 0.630681C18.9167 0.84659 19.0341 1.10985 19.0341 1.42045C19.0341 1.72727 18.9167 1.99053 18.6818 2.21023C18.4508 2.42614 18.1705 2.53409 17.8409 2.53409ZM24.7855 12.6705C23.9143 12.6705 23.1662 12.4792 22.5412 12.0966C21.92 11.714 21.4408 11.1856 21.1037 10.5114C20.7704 9.83333 20.6037 9.05303 20.6037 8.17045C20.6037 7.28409 20.7741 6.50189 21.1151 5.82386C21.456 5.14205 21.937 4.61174 22.5582 4.23295C23.1832 3.85038 23.9219 3.65909 24.7741 3.65909C25.4825 3.65909 26.1094 3.78977 26.6548 4.05114C27.2041 4.30871 27.6416 4.67424 27.9673 5.14773C28.2931 5.61742 28.4787 6.16667 28.5241 6.79545H26.5582C26.4787 6.375 26.2893 6.02462 25.9901 5.74432C25.6946 5.46023 25.2988 5.31818 24.8026 5.31818C24.3821 5.31818 24.0128 5.43182 23.6946 5.65909C23.3764 5.88258 23.1283 6.20455 22.9503 6.625C22.776 7.04545 22.6889 7.54924 22.6889 8.13636C22.6889 8.73106 22.776 9.24242 22.9503 9.67045C23.1245 10.0947 23.3688 10.4223 23.6832 10.6534C24.0014 10.8807 24.3745 10.9943 24.8026 10.9943C25.1056 10.9943 25.3764 10.9375 25.6151 10.8239C25.8575 10.7064 26.0601 10.5379 26.223 10.3182C26.3859 10.0985 26.4976 9.83144 26.5582 9.51705H28.5241C28.4749 10.1345 28.2931 10.6818 27.9787 11.1591C27.6643 11.6326 27.2363 12.0038 26.6946 12.2727C26.1529 12.5379 25.5166 12.6705 24.7855 12.6705ZM34.0767 12.6705C33.2017 12.6705 32.446 12.4886 31.8097 12.125C31.1771 11.7576 30.6903 11.2386 30.3494 10.5682C30.0085 9.89394 29.8381 9.10038 29.8381 8.1875C29.8381 7.28977 30.0085 6.50189 30.3494 5.82386C30.6941 5.14205 31.1752 4.61174 31.7926 4.23295C32.41 3.85038 33.1354 3.65909 33.9688 3.65909C34.5066 3.65909 35.0142 3.74621 35.4915 3.92045C35.9725 4.09091 36.3968 4.35606 36.7642 4.71591C37.1354 5.07576 37.4271 5.53409 37.6392 6.09091C37.8513 6.64394 37.9574 7.30303 37.9574 8.06818V8.69886H30.804V7.3125H35.9858C35.982 6.91856 35.8968 6.56818 35.7301 6.26136C35.5634 5.95076 35.3305 5.70644 35.0312 5.52841C34.7358 5.35038 34.3911 5.26136 33.9972 5.26136C33.5767 5.26136 33.2074 5.36364 32.8892 5.56818C32.571 5.76894 32.3229 6.03409 32.1449 6.36364C31.9706 6.68939 31.8816 7.04735 31.8778 7.4375V8.64773C31.8778 9.1553 31.9706 9.59091 32.1562 9.95455C32.3419 10.3144 32.6013 10.5909 32.9347 10.7841C33.268 10.9735 33.6581 11.0682 34.1051 11.0682C34.4044 11.0682 34.6752 11.0265 34.9176 10.9432C35.16 10.8561 35.3703 10.7292 35.5483 10.5625C35.7263 10.3958 35.8608 10.1894 35.9517 9.94318L37.8722 10.1591C37.7509 10.6667 37.5199 11.1098 37.179 11.4886C36.8419 11.8636 36.41 12.1553 35.8835 12.3636C35.357 12.5682 34.7547 12.6705 34.0767 12.6705ZM0.735795 20.1534V19.3182H8.11861V20.1534H4.89205V29.5H3.96236V20.1534H0.735795ZM12.0076 29.6591C11.295 29.6591 10.6786 29.4934 10.1582 29.1619C9.63784 28.8272 9.23514 28.3648 8.95011 27.7749C8.66838 27.1816 8.52752 26.4988 8.52752 25.7266C8.52752 24.9576 8.66838 24.2749 8.95011 23.6783C9.23514 23.0784 9.6279 22.6094 10.1284 22.2713C10.6322 21.9299 11.2138 21.7592 11.8734 21.7592C12.2877 21.7592 12.6871 21.8355 13.0716 21.9879C13.456 22.1371 13.8007 22.3674 14.1056 22.679C14.4139 22.9872 14.6575 23.3767 14.8365 23.8473C15.0154 24.3146 15.1049 24.8681 15.1049 25.5078V25.9453H9.13903V25.1648H14.2001C14.2001 24.6742 14.1007 24.2334 13.9018 23.8423C13.7063 23.4479 13.4328 23.1364 13.0815 22.9077C12.7335 22.679 12.3308 22.5646 11.8734 22.5646C11.3895 22.5646 10.9636 22.6939 10.5957 22.9524C10.2278 23.2109 9.93945 23.5523 9.73065 23.9766C9.52515 24.4008 9.42075 24.8648 9.41744 25.3686V25.8359C9.41744 26.4425 9.52184 26.9728 9.73065 27.4268C9.94277 27.8776 10.2427 28.2273 10.6305 28.4759C11.0183 28.7244 11.4773 28.8487 12.0076 28.8487C12.3689 28.8487 12.6854 28.7924 12.9572 28.6797C13.2323 28.567 13.4627 28.4162 13.6483 28.2273C13.8372 28.035 13.9797 27.8246 14.0758 27.5959L14.916 27.8693C14.8 28.1908 14.6094 28.4875 14.3443 28.7592C14.0824 29.031 13.7543 29.2498 13.3599 29.4155C12.9688 29.5779 12.5181 29.6591 12.0076 29.6591ZM22.1857 23.5391L21.3754 23.7678C21.2958 23.5391 21.1831 23.3319 21.0373 23.1463C20.8915 22.9607 20.7009 22.8132 20.4656 22.7038C20.2335 22.5945 19.9452 22.5398 19.6005 22.5398C19.0835 22.5398 18.6592 22.6624 18.3278 22.9077C17.9963 23.1529 17.8306 23.4695 17.8306 23.8572C17.8306 24.1854 17.9433 24.4522 18.1687 24.6577C18.3974 24.8598 18.7487 25.0206 19.2227 25.1399L20.3761 25.4233C21.0157 25.5791 21.4947 25.826 21.8129 26.1641C22.1344 26.5021 22.2951 26.9264 22.2951 27.4368C22.2951 27.8677 22.1758 28.2505 21.9371 28.5852C21.6985 28.92 21.3654 29.1835 20.9379 29.3757C20.5136 29.5646 20.0214 29.6591 19.4613 29.6591C18.7156 29.6591 18.1007 29.4917 17.6168 29.157C17.1329 28.8189 16.823 28.3317 16.6871 27.6953L17.5373 27.4865C17.6467 27.9406 17.8604 28.2836 18.1786 28.5156C18.5001 28.7476 18.9227 28.8636 19.4464 28.8636C20.033 28.8636 20.502 28.7327 20.8533 28.4709C21.2047 28.2057 21.3803 27.8743 21.3803 27.4766C21.3803 27.1683 21.2776 26.9098 21.0721 26.701C20.8666 26.4889 20.555 26.3331 20.1374 26.2337L18.8896 25.9354C18.2267 25.7763 17.7362 25.5244 17.418 25.1797C17.0998 24.835 16.9407 24.4074 16.9407 23.897C16.9407 23.4761 17.055 23.1065 17.2837 22.7884C17.5124 22.4669 17.8273 22.215 18.2283 22.0327C18.6294 21.8504 19.0868 21.7592 19.6005 21.7592C20.2998 21.7592 20.8583 21.9183 21.2759 22.2365C21.6969 22.5514 22.0001 22.9856 22.1857 23.5391ZM27.2406 21.8636V22.6342H23.5964V21.8636H27.2406ZM24.7349 20.0341H25.6248V27.5064C25.6248 27.8246 25.6795 28.0748 25.7889 28.2571C25.8983 28.4361 26.0408 28.5637 26.2164 28.6399C26.3921 28.7128 26.5794 28.7493 26.7782 28.7493C26.8942 28.7493 26.9937 28.7427 27.0765 28.7294C27.1594 28.7128 27.2323 28.6963 27.2953 28.6797L27.4842 29.4801C27.398 29.5133 27.292 29.5431 27.166 29.5696C27.0401 29.5994 26.8843 29.6143 26.6987 29.6143C26.3739 29.6143 26.0607 29.5431 25.7591 29.4006C25.4608 29.258 25.2155 29.0459 25.0233 28.7642C24.831 28.4825 24.7349 28.1328 24.7349 27.7152V20.0341ZM30.1353 24.7273V29.5H29.2504V21.8636H30.1104V23.0618H30.19C30.369 22.6707 30.6474 22.3575 31.0252 22.1222C31.4064 21.8835 31.877 21.7642 32.4371 21.7642C32.9509 21.7642 33.4016 21.8719 33.7894 22.0874C34.1805 22.2995 34.4838 22.6127 34.6992 23.027C34.918 23.4413 35.0273 23.95 35.0273 24.5533V29.5H34.1424V24.608C34.1424 23.9815 33.9667 23.486 33.6154 23.1214C33.2674 22.7569 32.8001 22.5746 32.2134 22.5746C31.8124 22.5746 31.4561 22.6607 31.1445 22.8331C30.833 23.0054 30.5861 23.254 30.4038 23.5788C30.2248 23.9003 30.1353 24.2831 30.1353 24.7273ZM40.4451 29.6591C39.7325 29.6591 39.1161 29.4934 38.5957 29.1619C38.0753 28.8272 37.6726 28.3648 37.3876 27.7749C37.1059 27.1816 36.965 26.4988 36.965 25.7266C36.965 24.9576 37.1059 24.2749 37.3876 23.6783C37.6726 23.0784 38.0654 22.6094 38.5659 22.2713C39.0697 21.9299 39.6513 21.7592 40.3109 21.7592C40.7252 21.7592 41.1246 21.8355 41.5091 21.9879C41.8935 22.1371 42.2382 22.3674 42.5431 22.679C42.8514 22.9872 43.095 23.3767 43.274 23.8473C43.4529 24.3146 43.5424 24.8681 43.5424 25.5078V25.9453H37.5765V25.1648H42.6376C42.6376 24.6742 42.5382 24.2334 42.3393 23.8423C42.1438 23.4479 41.8703 23.1364 41.519 22.9077C41.171 22.679 40.7683 22.5646 40.3109 22.5646C39.827 22.5646 39.4011 22.6939 39.0332 22.9524C38.6653 23.2109 38.377 23.5523 38.1681 23.9766C37.9627 24.4008 37.8583 24.8648 37.8549 25.3686V25.8359C37.8549 26.4425 37.9593 26.9728 38.1681 27.4268C38.3803 27.8776 38.6802 28.2273 39.068 28.4759C39.4558 28.7244 39.9148 28.8487 40.4451 28.8487C40.8064 28.8487 41.1229 28.7924 41.3947 28.6797C41.6698 28.567 41.9002 28.4162 42.0858 28.2273C42.2747 28.035 42.4172 27.8246 42.5133 27.5959L43.3535 27.8693C43.2375 28.1908 43.0469 28.4875 42.7818 28.7592C42.5199 29.031 42.1918 29.2498 41.7974 29.4155C41.4063 29.5779 40.9556 29.6591 40.4451 29.6591ZM48.5004 21.8636V22.6342H44.8562V21.8636H48.5004ZM45.9947 20.0341H46.8846V27.5064C46.8846 27.8246 46.9393 28.0748 47.0487 28.2571C47.158 28.4361 47.3005 28.5637 47.4762 28.6399C47.6519 28.7128 47.8391 28.7493 48.038 28.7493C48.154 28.7493 48.2534 28.7427 48.3363 28.7294C48.4192 28.7128 48.4921 28.6963 48.555 28.6797L48.744 29.4801C48.6578 29.5133 48.5517 29.5431 48.4258 29.5696C48.2998 29.5994 48.1441 29.6143 47.9585 29.6143C47.6336 29.6143 47.3204 29.5431 47.0188 29.4006C46.7205 29.258 46.4753 29.0459 46.283 28.7642C46.0908 28.4825 45.9947 28.1328 45.9947 27.7152V20.0341Z"
          fill="#5158F6"/>
</svg>
