<svg width="24" height="25" viewBox="0 0 24 25" fill="none" xmlns="http://www.w3.org/2000/svg">
    <path d="M16.1719 12.1621C16.5938 12.6309 16.5938 13.334 16.1719 13.7559L11.2969 18.6309C10.8281 19.0996 10.125 19.0996 9.70312 18.6309C9.23438 18.209 9.23438 17.5059 9.70312 17.084L13.7812 13.0059L9.70312 8.92773C9.23438 8.45898 9.23438 7.75586 9.70312 7.33398C10.125 6.86523 10.8281 6.86523 11.2969 7.33398L16.1719 12.1621Z" fill="#918EF5"/>
    <path d="M22.5 5.45898V20.459C22.5 22.1465 21.1406 23.459 19.5 23.459H4.5C2.8125 23.459 1.5 22.1465 1.5 20.459V5.45898C1.5 3.81836 2.8125 2.45898 4.5 2.45898H19.5C21.1406 2.45898 22.5 3.81836 22.5 5.45898ZM16.1719 13.7559C16.5938 13.334 16.5938 12.6309 16.1719 12.1621L11.2969 7.33398C10.8281 6.86523 10.125 6.86523 9.70312 7.33398C9.23438 7.75586 9.23438 8.45898 9.70312 8.92773L13.7812 13.0059L9.70312 17.084C9.23438 17.5059 9.23438 18.209 9.70312 18.6309C10.125 19.0996 10.8281 19.0996 11.2969 18.6309L16.1719 13.7559Z" fill="#ECEDFF"/>
</svg>
