<svg width="32" height="32" viewBox="0 0 32 32" fill="none" xmlns="http://www.w3.org/2000/svg">
    <path d="M2 10.5C2 9.125 3.0625 8 4.5 8H7.5C8.875 8 10 9.125 10 10.5V13.5C10 14.9375 8.875 16 7.5 16H4.5C3.0625 16 2 14.9375 2 13.5V10.5ZM12 20.5C12 19.125 13.0625 18 14.5 18H17.5C18.875 18 20 19.125 20 20.5V23.5C20 24.9375 18.875 26 17.5 26H14.5C13.0625 26 12 24.9375 12 23.5V20.5ZM30 10.5V13.5C30 14.9375 28.875 16 27.5 16H24.5C23.0625 16 22 14.9375 22 13.5V10.5C22 9.125 23.0625 8 24.5 8H27.5C28.875 8 30 9.125 30 10.5Z"
          fill="#ECEDFF"/>
    <path opacity="0.4"
          d="M12 10.5C12 9.125 13.0625 8 14.5 8H17.5C18.875 8 20 9.125 20 10.5V13.5C20 14.9375 18.875 16 17.5 16H14.5C13.0625 16 12 14.9375 12 13.5V10.5ZM2 20.5C2 19.125 3.0625 18 4.5 18H7.5C8.875 18 10 19.125 10 20.5V23.5C10 24.9375 8.875 26 7.5 26H4.5C3.0625 26 2 24.9375 2 23.5V20.5ZM24.5 18H27.5C28.875 18 30 19.125 30 20.5V23.5C30 24.9375 28.875 26 27.5 26H24.5C23.0625 26 22 24.9375 22 23.5V20.5C22 19.125 23.0625 18 24.5 18Z"
          fill="#ECEDFF"/>
</svg>
