<svg width="33" height="33" viewBox="0 0 33 33" fill="none" xmlns="http://www.w3.org/2000/svg">
    <path d="M14.3125 9.875L17.1875 15.75L23.6875 16.6875C24.875 16.875 25.375 18.375 24.5 19.25L19.8125 23.8125L20.9375 30.25C21.125 31.5 19.875 32.4375 18.75 31.875L12.9375 28.8125L7.1875 31.875C6.0625 32.4375 4.8125 31.5 5 30.25L6.125 23.8125L1.4375 19.25C0.5625 18.375 1 16.875 2.25 16.6875L8.75 15.75L11.625 9.875C12.1875 8.75 13.75 8.75 14.3125 9.875Z"
          fill="#ECEDFF"/>
    <path opacity="0.4"
          d="M20.5 6.5L17.4375 5.6875C17.1875 5.5625 17 5.3125 17 5C17 4.75 17.1875 4.5 17.4375 4.375L20.5 3.5L21.3125 0.5C21.4375 0.25 21.6875 0 22 0C22.25 0 22.5 0.25 22.625 0.5L23.5 3.5L26.5 4.375C26.75 4.5 27 4.75 27 5C27 5.3125 26.75 5.5625 26.5 5.6875L23.5 6.5L22.625 9.5625C22.5 9.8125 22.25 10 22 10C21.6875 10 21.4375 9.8125 21.3125 9.5625L20.5 6.5ZM27.75 15.25L25.375 14.5625C25.125 14.5 25 14.25 25 14C25 13.8125 25.125 13.5625 25.375 13.5L27.75 12.8125L28.4375 10.4375C28.5 10.1875 28.75 10 29 10C29.1875 10 29.4375 10.1875 29.5 10.4375L30.1875 12.8125L32.5625 13.5C32.8125 13.5625 33 13.8125 33 14C33 14.25 32.8125 14.5 32.5625 14.5625L30.1875 15.25L29.5 17.625C29.4375 17.875 29.1875 18 29 18C28.75 18 28.5 17.875 28.4375 17.625L27.75 15.25Z"
          fill="#ECEDFF"/>
</svg>
