<svg width="76" height="27" viewBox="0 0 76 27" fill="none" xmlns="http://www.w3.org/2000/svg">
    <path d="M0.316 10V0.199999H4.348C5.216 0.199999 5.958 0.339999 6.574 0.62C7.19933 0.899999 7.68 1.30133 8.016 1.824C8.352 2.34667 8.52 2.96733 8.52 3.686C8.52 4.40467 8.352 5.02533 8.016 5.548C7.68 6.07067 7.19933 6.472 6.574 6.752C5.958 7.032 5.216 7.172 4.348 7.172H1.324L2.136 6.318V10H0.316ZM2.136 6.514L1.324 5.632H4.264C5.06667 5.632 5.66867 5.464 6.07 5.128C6.48067 4.78267 6.686 4.302 6.686 3.686C6.686 3.06067 6.48067 2.58 6.07 2.244C5.66867 1.908 5.06667 1.74 4.264 1.74H1.324L2.136 0.843999V6.514ZM10.3375 10V0.199999H12.1575V10H10.3375ZM19.4002 10.14C18.6349 10.14 17.9302 10.014 17.2862 9.762C16.6422 9.51 16.0822 9.16 15.6062 8.712C15.1302 8.25467 14.7615 7.72267 14.5002 7.116C14.2389 6.5 14.1082 5.828 14.1082 5.1C14.1082 4.372 14.2389 3.70467 14.5002 3.098C14.7615 2.482 15.1302 1.95 15.6062 1.502C16.0822 1.04467 16.6422 0.69 17.2862 0.438C17.9302 0.186 18.6302 0.0599995 19.3862 0.0599995C20.1515 0.0599995 20.8515 0.186 21.4862 0.438C22.1302 0.69 22.6902 1.04467 23.1662 1.502C23.6422 1.95 24.0109 2.482 24.2722 3.098C24.5335 3.70467 24.6642 4.372 24.6642 5.1C24.6642 5.828 24.5335 6.5 24.2722 7.116C24.0109 7.732 23.6422 8.264 23.1662 8.712C22.6902 9.16 22.1302 9.51 21.4862 9.762C20.8515 10.014 20.1562 10.14 19.4002 10.14ZM19.3862 8.544C19.8809 8.544 20.3382 8.46 20.7582 8.292C21.1782 8.124 21.5422 7.886 21.8502 7.578C22.1582 7.26067 22.3962 6.89667 22.5642 6.486C22.7415 6.066 22.8302 5.604 22.8302 5.1C22.8302 4.596 22.7415 4.13867 22.5642 3.728C22.3962 3.308 22.1582 2.944 21.8502 2.636C21.5422 2.31867 21.1782 2.076 20.7582 1.908C20.3382 1.74 19.8809 1.656 19.3862 1.656C18.8915 1.656 18.4342 1.74 18.0142 1.908C17.6035 2.076 17.2395 2.31867 16.9222 2.636C16.6142 2.944 16.3715 3.308 16.1942 3.728C16.0262 4.13867 15.9422 4.596 15.9422 5.1C15.9422 5.59467 16.0262 6.052 16.1942 6.472C16.3715 6.892 16.6142 7.26067 16.9222 7.578C17.2302 7.886 17.5942 8.124 18.0142 8.292C18.4342 8.46 18.8915 8.544 19.3862 8.544ZM26.5933 10V0.199999H28.0913L34.2373 7.746H33.4953V0.199999H35.3013V10H33.8033L27.6573 2.454H28.3993V10H26.5933ZM0.316 26V16.2H1.814L7.96 23.746H7.218V16.2H9.024V26H7.526L1.38 18.454H2.122V26H0.316ZM13.33 20.274H18.202V21.772H13.33V20.274ZM13.47 24.474H19V26H11.65V16.2H18.804V17.726H13.47V24.474ZM23.0169 26V17.74H19.7689V16.2H28.0849V17.74H24.8369V26H23.0169ZM31.6104 26L28.3624 16.2H30.2524L33.1504 25.062H32.2124L35.2224 16.2H36.9024L39.8284 25.062H38.9184L41.8864 16.2H43.6224L40.3744 26H38.4424L35.7684 18.006H36.2724L33.5564 26H31.6104ZM49.6014 26.14C48.836 26.14 48.1314 26.014 47.4874 25.762C46.8434 25.51 46.2834 25.16 45.8074 24.712C45.3314 24.2547 44.9627 23.7227 44.7014 23.116C44.44 22.5 44.3094 21.828 44.3094 21.1C44.3094 20.372 44.44 19.7047 44.7014 19.098C44.9627 18.482 45.3314 17.95 45.8074 17.502C46.2834 17.0447 46.8434 16.69 47.4874 16.438C48.1314 16.186 48.8314 16.06 49.5874 16.06C50.3527 16.06 51.0527 16.186 51.6874 16.438C52.3314 16.69 52.8914 17.0447 53.3674 17.502C53.8434 17.95 54.212 18.482 54.4734 19.098C54.7347 19.7047 54.8654 20.372 54.8654 21.1C54.8654 21.828 54.7347 22.5 54.4734 23.116C54.212 23.732 53.8434 24.264 53.3674 24.712C52.8914 25.16 52.3314 25.51 51.6874 25.762C51.0527 26.014 50.3574 26.14 49.6014 26.14ZM49.5874 24.544C50.082 24.544 50.5394 24.46 50.9594 24.292C51.3794 24.124 51.7434 23.886 52.0514 23.578C52.3594 23.2607 52.5974 22.8967 52.7654 22.486C52.9427 22.066 53.0314 21.604 53.0314 21.1C53.0314 20.596 52.9427 20.1387 52.7654 19.728C52.5974 19.308 52.3594 18.944 52.0514 18.636C51.7434 18.3187 51.3794 18.076 50.9594 17.908C50.5394 17.74 50.082 17.656 49.5874 17.656C49.0927 17.656 48.6354 17.74 48.2154 17.908C47.8047 18.076 47.4407 18.3187 47.1234 18.636C46.8154 18.944 46.5727 19.308 46.3954 19.728C46.2274 20.1387 46.1434 20.596 46.1434 21.1C46.1434 21.5947 46.2274 22.052 46.3954 22.472C46.5727 22.892 46.8154 23.2607 47.1234 23.578C47.4314 23.886 47.7954 24.124 48.2154 24.292C48.6354 24.46 49.0927 24.544 49.5874 24.544ZM56.7945 26V16.2H60.8265C61.6945 16.2 62.4365 16.34 63.0525 16.62C63.6778 16.9 64.1585 17.3013 64.4945 17.824C64.8305 18.3467 64.9985 18.9673 64.9985 19.686C64.9985 20.4047 64.8305 21.0253 64.4945 21.548C64.1585 22.0613 63.6778 22.458 63.0525 22.738C62.4365 23.0087 61.6945 23.144 60.8265 23.144H57.8025L58.6145 22.318V26H56.7945ZM63.2065 26L60.7285 22.444H62.6745L65.1665 26H63.2065ZM58.6145 22.514L57.8025 21.646H60.7425C61.5452 21.646 62.1472 21.4733 62.5485 21.128C62.9592 20.7827 63.1645 20.302 63.1645 19.686C63.1645 19.0607 62.9592 18.58 62.5485 18.244C62.1472 17.908 61.5452 17.74 60.7425 17.74H57.8025L58.6145 16.844V22.514ZM68.6588 23.69L68.5608 21.534L73.6988 16.2H75.7428L71.4728 20.736L70.4648 21.842L68.6588 23.69ZM67.0348 26V16.2H68.8548V26H67.0348ZM73.8668 26L70.1148 21.534L71.3188 20.204L75.9948 26H73.8668Z"
          fill="url(#paint0_linear_5855_6284)"/>
    <defs>
        <linearGradient id="paint0_linear_5855_6284" x1="-11.1935" y1="26.0172" x2="62.5643" y2="-25.5066"
                        gradientUnits="userSpaceOnUse">
            <stop stop-color="#5B4FEC"/>
            <stop offset="1" stop-color="#DFA891"/>
        </linearGradient>
    </defs>
</svg>
