<svg width="26" height="24" viewBox="0 0 26 24" fill="none" xmlns="http://www.w3.org/2000/svg">
<path d="M1.79688 10.3125L5.92188 3.1875C6.53125 2.10938 7.65625 1.5 8.82812 1.5H17.125C18.3438 1.5 19.4219 2.10938 20.0312 3.1875L24.1562 10.3125C24.7656 11.3906 24.7656 12.6562 24.1562 13.6875L20.0312 20.8594C19.4219 21.9375 18.3438 22.5469 17.125 22.5469H8.82812C7.65625 22.5469 6.53125 21.9375 5.92188 20.8594L1.79688 13.6875C1.1875 12.6562 1.1875 11.3906 1.79688 10.3125Z" fill="#ECEDFF" fill-opacity="0.3"/>
<path d="M1.79688 10.3125L1.25595 9.99934L1.25277 10.005L1.79688 10.3125ZM5.92188 3.1875L6.4628 3.50066L6.46598 3.49504L5.92188 3.1875ZM20.0312 3.1875L19.4871 3.49505L19.4904 3.50065L20.0312 3.1875ZM24.1562 10.3125L24.7004 10.0049L24.6971 9.99935L24.1562 10.3125ZM24.1562 13.6875L23.6181 13.3695L23.6145 13.3759L24.1562 13.6875ZM20.0312 20.8594L19.4895 20.5478L19.4871 20.5518L20.0312 20.8594ZM5.92188 20.8594L6.46599 20.5518L6.46365 20.5478L5.92188 20.8594ZM1.79688 13.6875L2.33869 13.3759L2.33495 13.3695L1.79688 13.6875ZM2.33777 10.6256L6.46277 3.50065L5.38098 2.87435L1.25598 9.99935L2.33777 10.6256ZM6.46598 3.49504C6.95964 2.62164 7.87158 2.125 8.82812 2.125V0.875C7.44092 0.875 6.10286 1.59711 5.37777 2.87996L6.46598 3.49504ZM8.82812 2.125H17.125V0.875H8.82812V2.125ZM17.125 2.125C18.1235 2.125 18.9911 2.61746 19.4871 3.49504L20.5754 2.87996C19.8526 1.60129 18.564 0.875 17.125 0.875V2.125ZM19.4904 3.50065L23.6154 10.6256L24.6971 9.99935L20.5721 2.87435L19.4904 3.50065ZM23.6121 10.62C24.1161 11.5117 24.1092 12.5386 23.6182 13.3695L24.6943 14.0055C25.4221 12.7739 25.4151 11.2695 24.7004 10.005L23.6121 10.62ZM23.6145 13.3759L19.4895 20.5478L20.573 21.171L24.698 13.9991L23.6145 13.3759ZM19.4871 20.5518C18.9911 21.4294 18.1235 21.9219 17.125 21.9219V23.1719C18.564 23.1719 19.8526 22.4456 20.5754 21.1669L19.4871 20.5518ZM17.125 21.9219H8.82812V23.1719H17.125V21.9219ZM8.82812 21.9219C7.87158 21.9219 6.95964 21.4252 6.46598 20.5518L5.37777 21.1669C6.10286 22.4498 7.44092 23.1719 8.82812 23.1719V21.9219ZM6.46365 20.5478L2.33865 13.3759L1.2551 13.9991L5.3801 21.171L6.46365 20.5478ZM2.33495 13.3695C1.84396 12.5386 1.83698 11.5117 2.34098 10.62L1.25277 10.005C0.538019 11.2695 0.531042 12.7739 1.2588 14.0055L2.33495 13.3695Z" fill="white"/>
<g clip-path="url(#clip0_3958_5069)">
<path d="M11.94 14.5234C11.94 14.2514 11.7189 14.0303 11.4469 14.0303C11.175 14.0303 10.9539 14.2514 10.9539 14.5234C10.9539 14.7953 11.175 15.0164 11.4469 15.0164C11.7189 15.0164 11.94 14.7953 11.94 14.5234Z" fill="white"/>
<path d="M11.4469 16.5337C11.175 16.5337 10.9539 16.7549 10.9539 17.0268C10.9539 17.2987 11.175 17.5199 11.4469 17.5199C11.7189 17.5199 11.94 17.2987 11.94 17.0268C11.94 16.7549 11.7189 16.5337 11.4469 16.5337Z" fill="white"/>
<path d="M12.0732 15.2817C11.8012 15.2817 11.5801 15.5029 11.5801 15.7748C11.5801 16.0467 11.8012 16.2679 12.0732 16.2679C12.3451 16.2679 12.5662 16.0467 12.5662 15.7748C12.5662 15.5029 12.3451 15.2817 12.0732 15.2817Z" fill="white"/>
<path d="M11.3143 15.7748C11.3143 15.5029 11.0931 15.2817 10.8212 15.2817C10.5493 15.2817 10.3281 15.5029 10.3281 15.7748C10.3281 16.0467 10.5493 16.2679 10.8212 16.2679C11.0931 16.2679 11.3143 16.0467 11.3143 15.7748Z" fill="white"/>
<path d="M10.8212 17.7856C10.5493 17.7856 10.3281 18.0068 10.3281 18.2787C10.3281 18.5507 10.5493 18.7718 10.8212 18.7718C11.0931 18.7718 11.3143 18.5507 11.3143 18.2787C11.3143 18.0068 11.0931 17.7856 10.8212 17.7856Z" fill="white"/>
<path d="M9.77539 14.5237C9.77539 14.7554 9.96392 14.9439 10.1956 14.9439C10.4273 14.9439 10.6158 14.7554 10.6158 14.5237C10.6158 14.292 10.4273 14.1035 10.1956 14.1035C9.96392 14.1035 9.77539 14.292 9.77539 14.5237Z" fill="white"/>
<path d="M10.1957 17.5199C10.4676 17.5199 10.6888 17.2987 10.6888 17.0268C10.6888 16.7549 10.4676 16.5337 10.1957 16.5337C9.9238 16.5337 9.70264 16.7549 9.70264 17.0268C9.70264 17.2987 9.9238 17.5199 10.1957 17.5199Z" fill="white"/>
<path d="M9.56962 16.1954C9.8013 16.1954 9.98983 16.0069 9.98983 15.7752C9.98983 15.5435 9.8013 15.355 9.56962 15.355C9.33795 15.355 9.14941 15.5435 9.14941 15.7752C9.14941 16.0069 9.33795 16.1954 9.56962 16.1954Z" fill="white"/>
<path d="M9.98983 18.2786C9.98983 18.0469 9.8013 17.8584 9.56962 17.8584C9.33795 17.8584 9.14941 18.0469 9.14941 18.2786C9.14941 18.5103 9.33795 18.6988 9.56962 18.6988C9.8013 18.6988 9.98983 18.5103 9.98983 18.2786Z" fill="white"/>
<path d="M8.31828 18.0273C8.17978 18.0273 8.06738 18.1397 8.06738 18.2782C8.06738 18.4167 8.17978 18.5291 8.31828 18.5291C8.45678 18.5291 8.56917 18.4167 8.56917 18.2782C8.56917 18.1397 8.45678 18.0273 8.31828 18.0273Z" fill="white"/>
<path d="M12.7716 14.0303C12.4997 14.0303 12.2786 14.2514 12.2786 14.5234C12.2786 14.7953 12.4997 15.0164 12.7716 15.0164C13.0436 15.0164 13.2647 14.7953 13.2647 14.5234C13.2647 14.2514 13.0436 14.0303 12.7716 14.0303Z" fill="white"/>
<path d="M8.94377 17.3504C9.12215 17.3504 9.26717 17.2054 9.26717 17.027C9.26717 16.8486 9.12215 16.7036 8.94377 16.7036C8.76539 16.7036 8.62036 16.8486 8.62036 17.027C8.62036 17.2054 8.76539 17.3504 8.94377 17.3504Z" fill="white"/>
<path d="M10.1957 19.0137C9.9238 19.0137 9.70264 19.2348 9.70264 19.5068C9.70264 19.7787 9.9238 19.9998 10.1957 19.9998C10.4676 19.9998 10.6888 19.7787 10.6888 19.5068C10.6888 19.2348 10.4676 19.0137 10.1957 19.0137Z" fill="white"/>
<path d="M8.94377 19.1836C8.76539 19.1836 8.62036 19.3286 8.62036 19.507C8.62036 19.6854 8.76539 19.8304 8.94377 19.8304C9.12215 19.8304 9.26717 19.6854 9.26717 19.507C9.26717 19.3286 9.12215 19.1836 8.94377 19.1836Z" fill="white"/>
<path d="M7.70231 19.3047C7.59064 19.3047 7.5 19.3953 7.5 19.507C7.5 19.6187 7.59064 19.7093 7.70231 19.7093C7.81398 19.7093 7.90462 19.6187 7.90462 19.507C7.90462 19.3953 7.81398 19.3047 7.70231 19.3047Z" fill="white"/>
<path d="M19.0068 9.02344C18.7348 9.02344 18.5137 9.2446 18.5137 9.51652C18.5137 9.78844 18.7348 10.0096 19.0068 10.0096C19.2787 10.0096 19.4998 9.78844 19.4998 9.51652C19.4998 9.2446 19.2787 9.02344 19.0068 9.02344Z" fill="white"/>
<path d="M18.8739 8.26457C18.8739 7.99265 18.6527 7.77148 18.3808 7.77148C18.1089 7.77148 17.8877 7.99265 17.8877 8.26457C17.8877 8.53649 18.1089 8.75765 18.3808 8.75765C18.6527 8.75765 18.8739 8.53649 18.8739 8.26457Z" fill="white"/>
<path d="M18.3813 10.2754C18.1093 10.2754 17.8882 10.4966 17.8882 10.7685C17.8882 11.0404 18.1093 11.2616 18.3813 11.2616C18.6532 11.2616 18.8744 11.0404 18.8744 10.7685C18.8744 10.4966 18.6532 10.2754 18.3813 10.2754Z" fill="white"/>
<path d="M16.9964 7.01359C16.9964 6.74167 16.7753 6.52051 16.5033 6.52051C16.2314 6.52051 16.0103 6.74167 16.0103 7.01359C16.0103 7.28551 16.2314 7.50668 16.5033 7.50668C16.7753 7.50668 16.9964 7.28551 16.9964 7.01359Z" fill="white"/>
<path d="M17.1293 6.25473C17.4016 6.25473 17.6224 6.03396 17.6224 5.76164C17.6224 5.48932 17.4016 5.26855 17.1293 5.26855C16.857 5.26855 16.6362 5.48932 16.6362 5.76164C16.6362 6.03396 16.857 6.25473 17.1293 6.25473Z" fill="white"/>
<path d="M15.8774 6.25424C16.1493 6.25424 16.3704 6.03307 16.3704 5.76115C16.3704 5.48923 16.1493 5.26807 15.8774 5.26807C15.6054 5.26807 15.3843 5.48923 15.3843 5.76115C15.3843 6.03307 15.6054 6.25424 15.8774 6.25424Z" fill="white"/>
<path d="M18.2481 9.51652C18.2481 9.2446 18.027 9.02344 17.755 9.02344C17.4831 9.02344 17.262 9.2446 17.262 9.51652C17.262 9.78844 17.4831 10.0096 17.755 10.0096C18.027 10.0096 18.2481 9.78844 18.2481 9.51652Z" fill="white"/>
<path d="M16.9964 9.51652C16.9964 9.2446 16.7753 9.02344 16.5033 9.02344C16.2314 9.02344 16.0103 9.2446 16.0103 9.51652C16.0103 9.78844 16.2314 10.0096 16.5033 10.0096C16.7753 10.0096 16.9964 9.78844 16.9964 9.51652Z" fill="white"/>
<path d="M17.1293 8.75765C17.4012 8.75765 17.6224 8.53649 17.6224 8.26457C17.6224 7.99265 17.4012 7.77148 17.1293 7.77148C16.8574 7.77148 16.6362 7.99265 16.6362 8.26457C16.6362 8.53649 16.8574 8.75765 17.1293 8.75765Z" fill="white"/>
<path d="M15.3843 8.26457C15.3843 8.53649 15.6054 8.75765 15.8774 8.75765C16.1493 8.75765 16.3704 8.53649 16.3704 8.26457C16.3704 7.99265 16.1493 7.77148 15.8774 7.77148C15.6054 7.77148 15.3843 7.99265 15.3843 8.26457Z" fill="white"/>
<path d="M17.7553 11.5273C17.4834 11.5273 17.2622 11.7485 17.2622 12.0204C17.2622 12.2924 17.4834 12.5135 17.7553 12.5135C18.0272 12.5135 18.2484 12.2924 18.2484 12.0204C18.2484 11.7485 18.0272 11.5273 17.7553 11.5273Z" fill="white"/>
<path d="M16.9964 12.0204C16.9964 11.7485 16.7753 11.5273 16.5033 11.5273C16.2314 11.5273 16.0103 11.7485 16.0103 12.0204C16.0103 12.2924 16.2314 12.5135 16.5033 12.5135C16.7753 12.5135 16.9964 12.2924 16.9964 12.0204Z" fill="white"/>
<path d="M17.1293 11.2616C17.4012 11.2616 17.6224 11.0404 17.6224 10.7685C17.6224 10.4966 17.4012 10.2754 17.1293 10.2754C16.8574 10.2754 16.6362 10.4966 16.6362 10.7685C16.6362 11.0404 16.8574 11.2616 17.1293 11.2616Z" fill="white"/>
<path d="M15.8774 11.2616C16.1493 11.2616 16.3704 11.0404 16.3704 10.7685C16.3704 10.4966 16.1493 10.2754 15.8774 10.2754C15.6054 10.2754 15.3843 10.4966 15.3843 10.7685C15.3843 11.0404 15.6054 11.2616 15.8774 11.2616Z" fill="white"/>
<path d="M17.1293 12.7788C16.8574 12.7788 16.6362 13 16.6362 13.2719C16.6362 13.5438 16.8574 13.765 17.1293 13.765C17.4012 13.765 17.6224 13.5438 17.6224 13.2719C17.6224 13 17.4012 12.7788 17.1293 12.7788Z" fill="white"/>
<path d="M15.8774 12.7788C15.6054 12.7788 15.3843 13 15.3843 13.2719C15.3843 13.5438 15.6054 13.765 15.8774 13.765C16.1493 13.765 16.3704 13.5438 16.3704 13.2719C16.3704 13 16.1493 12.7788 15.8774 12.7788Z" fill="white"/>
<path d="M15.2519 7.50668C15.5238 7.50668 15.745 7.28551 15.745 7.01359C15.745 6.74167 15.5238 6.52051 15.2519 6.52051C14.98 6.52051 14.7588 6.74167 14.7588 7.01359C14.7588 7.28551 14.98 7.50668 15.2519 7.50668Z" fill="white"/>
<path d="M14.0002 7.50668C14.2721 7.50668 14.4933 7.28551 14.4933 7.01359C14.4933 6.74167 14.2721 6.52051 14.0002 6.52051C13.7282 6.52051 13.5071 6.74167 13.5071 7.01359C13.5071 7.28551 13.7282 7.50668 14.0002 7.50668Z" fill="white"/>
<path d="M15.1192 5.76164C15.1192 5.48972 14.8981 5.26855 14.6261 5.26855C14.3542 5.26855 14.1331 5.48972 14.1331 5.76164C14.1331 6.03356 14.3542 6.25473 14.6261 6.25473C14.8981 6.25473 15.1192 6.03356 15.1192 5.76164Z" fill="white"/>
<path d="M13.8673 5.76164C13.8673 5.48972 13.6461 5.26855 13.3742 5.26855C13.1023 5.26855 12.8811 5.48972 12.8811 5.76164C12.8811 6.03356 13.1023 6.25473 13.3742 6.25473C13.6461 6.25473 13.8673 6.03356 13.8673 5.76164Z" fill="white"/>
<path d="M15.745 12.0204C15.745 11.7485 15.5238 11.5273 15.2519 11.5273C14.98 11.5273 14.7588 11.7485 14.7588 12.0204C14.7588 12.2924 14.98 12.5135 15.2519 12.5135C15.5238 12.5135 15.745 12.2924 15.745 12.0204Z" fill="white"/>
<path d="M14.4928 12.0204C14.4928 11.7485 14.2716 11.5273 13.9997 11.5273C13.7278 11.5273 13.5066 11.7485 13.5066 12.0204C13.5066 12.2924 13.7278 12.5135 13.9997 12.5135C14.2716 12.5135 14.4928 12.2924 14.4928 12.0204Z" fill="white"/>
<path d="M14.6261 12.7788C14.3542 12.7788 14.1331 13 14.1331 13.2719C14.1331 13.5438 14.3542 13.765 14.6261 13.765C14.8981 13.765 15.1192 13.5438 15.1192 13.2719C15.1192 13 14.8981 12.7788 14.6261 12.7788Z" fill="white"/>
<path d="M13.3747 12.7788C13.1028 12.7788 12.8816 13 12.8816 13.2719C12.8816 13.5438 13.1028 13.765 13.3747 13.765C13.6466 13.765 13.8678 13.5438 13.8678 13.2719C13.8678 13 13.6466 12.7788 13.3747 12.7788Z" fill="white"/>
<path d="M12.7485 6.52051C12.4765 6.52051 12.2554 6.74167 12.2554 7.01359C12.2554 7.28551 12.4765 7.50668 12.7485 7.50668C13.0204 7.50668 13.2415 7.28551 13.2415 7.01359C13.2415 6.74167 13.0204 6.52051 12.7485 6.52051Z" fill="white"/>
<path d="M11.4966 6.59277C11.2649 6.59277 11.0764 6.78131 11.0764 7.01298C11.0764 7.24466 11.2649 7.43319 11.4966 7.43319C11.7283 7.43319 11.9168 7.24466 11.9168 7.01298C11.9168 6.78131 11.7283 6.59277 11.4966 6.59277Z" fill="white"/>
<path d="M12.1227 6.25473C12.395 6.25473 12.6158 6.03396 12.6158 5.76164C12.6158 5.48932 12.395 5.26855 12.1227 5.26855C11.8504 5.26855 11.6296 5.48932 11.6296 5.76164C11.6296 6.03396 11.8504 6.25473 12.1227 6.25473Z" fill="white"/>
<path d="M10.8709 6.18173C11.1026 6.18173 11.2911 5.9932 11.2911 5.76152C11.2911 5.52984 11.1026 5.34131 10.8709 5.34131C10.6392 5.34131 10.4507 5.52984 10.4507 5.76152C10.4507 5.9932 10.6392 6.18173 10.8709 6.18173Z" fill="white"/>
<path d="M13.2415 12.0204C13.2415 11.7485 13.0204 11.5273 12.7485 11.5273C12.4765 11.5273 12.2554 11.7485 12.2554 12.0204C12.2554 12.2924 12.4765 12.5135 12.7485 12.5135C13.0204 12.5135 13.2415 12.2924 13.2415 12.0204Z" fill="white"/>
<path d="M11.9168 12.0198C11.9168 11.7881 11.7283 11.5996 11.4966 11.5996C11.2649 11.5996 11.0764 11.7881 11.0764 12.0198C11.0764 12.2515 11.2649 12.44 11.4966 12.44C11.7283 12.44 11.9168 12.2515 11.9168 12.0198Z" fill="white"/>
<path d="M12.6158 13.2719C12.6158 13 12.3946 12.7788 12.1227 12.7788C11.8508 12.7788 11.6296 13 11.6296 13.2719C11.6296 13.5438 11.8508 13.765 12.1227 13.765C12.3946 13.765 12.6158 13.5438 12.6158 13.2719Z" fill="white"/>
<path d="M11.2911 13.2718C11.2911 13.0401 11.1026 12.8516 10.8709 12.8516C10.6392 12.8516 10.4507 13.0401 10.4507 13.2718C10.4507 13.5035 10.6392 13.692 10.8709 13.692C11.1026 13.692 11.2911 13.5035 11.2911 13.2718Z" fill="white"/>
<path d="M8.99357 7.26399C9.13207 7.26399 9.24446 7.1516 9.24446 7.0131C9.24446 6.8746 9.13207 6.76221 8.99357 6.76221C8.85507 6.76221 8.74268 6.8746 8.74268 7.0131C8.74268 7.1516 8.85507 7.26399 8.99357 7.26399Z" fill="white"/>
<path d="M8.36735 5.51074C8.22885 5.51074 8.11646 5.62314 8.11646 5.76164C8.11646 5.90013 8.22885 6.01253 8.36735 6.01253C8.50585 6.01253 8.61824 5.90013 8.61824 5.76164C8.61824 5.62314 8.50585 5.51074 8.36735 5.51074Z" fill="white"/>
<path d="M18.2481 7.01359C18.2481 6.74167 18.027 6.52051 17.755 6.52051C17.4831 6.52051 17.262 6.74167 17.262 7.01359C17.262 7.28551 17.4831 7.50668 17.755 7.50668C18.027 7.50668 18.2481 7.28551 18.2481 7.01359Z" fill="white"/>
<path d="M10.245 7.33675C10.4234 7.33675 10.5684 7.19173 10.5684 7.01335C10.5684 6.83497 10.4234 6.68994 10.245 6.68994C10.0667 6.68994 9.92163 6.83497 9.92163 7.01335C9.92163 7.19173 10.0667 7.33675 10.245 7.33675Z" fill="white"/>
<path d="M9.6193 6.08529C9.79792 6.08529 9.94271 5.94049 9.94271 5.76188C9.94271 5.58327 9.79792 5.43848 9.6193 5.43848C9.44069 5.43848 9.2959 5.58327 9.2959 5.76188C9.2959 5.94049 9.44069 6.08529 9.6193 6.08529Z" fill="white"/>
</g>
<defs>
<clipPath id="clip0_3958_5069">
<rect width="12.0001" height="14.7313" fill="white" transform="translate(7.5 5.26855)"/>
</clipPath>
</defs>
</svg>
