<svg width="17" height="22" viewBox="0 0 17 22" fill="none" xmlns="http://www.w3.org/2000/svg">
    <path d="M8.44904 21.2784C6.96419 21.2784 5.64175 21.0232 4.48171 20.5128C3.3283 19.9957 2.41684 19.2865 1.74734 18.3849C1.08446 17.4768 0.743075 16.4295 0.723189 15.2429H5.05842C5.08493 15.7401 5.24734 16.1776 5.54563 16.5554C5.85056 16.9266 6.25491 17.215 6.7587 17.4205C7.26249 17.6259 7.82925 17.7287 8.45898 17.7287C9.11523 17.7287 9.69525 17.6127 10.199 17.3807C10.7028 17.1487 11.0972 16.8272 11.3823 16.4162C11.6673 16.0052 11.8098 15.5312 11.8098 14.9943C11.8098 14.4508 11.6574 13.9702 11.3525 13.5526C11.0542 13.1283 10.6233 12.7969 10.0598 12.5582C9.50302 12.3196 8.84014 12.2003 8.0712 12.2003H6.17205V9.03835H8.0712C8.72082 9.03835 9.29421 8.92566 9.79137 8.70028C10.2952 8.4749 10.6863 8.16335 10.9647 7.76562C11.2431 7.36127 11.3823 6.89062 11.3823 6.35369C11.3823 5.84328 11.2596 5.39583 11.0144 5.01136C10.7757 4.62026 10.4377 4.31534 10.0002 4.09659C9.56931 3.87784 9.06552 3.76847 8.48881 3.76847C7.90548 3.76847 7.37186 3.87453 6.88796 4.08665C6.40406 4.29214 6.01628 4.58712 5.72461 4.97159C5.43294 5.35606 5.27717 5.80682 5.25728 6.32386H1.13086C1.15075 5.15057 1.4855 4.11648 2.13512 3.22159C2.78474 2.3267 3.65974 1.62737 4.76012 1.12358C5.86713 0.613162 7.11666 0.357954 8.5087 0.357954C9.914 0.357954 11.1436 0.613162 12.1976 1.12358C13.2516 1.634 14.0703 2.32339 14.6536 3.19176C15.2435 4.0535 15.5352 5.02131 15.5286 6.09517C15.5352 7.23532 15.1806 8.18655 14.4647 8.94886C13.7554 9.71117 12.8307 10.1951 11.6905 10.4006V10.5597C13.1886 10.7519 14.3288 11.2723 15.111 12.1207C15.8998 12.9626 16.2909 14.0166 16.2843 15.2827C16.2909 16.4427 15.9561 17.4735 15.28 18.375C14.6105 19.2765 13.6858 19.9858 12.5059 20.5028C11.3259 21.0199 9.97366 21.2784 8.44904 21.2784Z" fill="white"/>
</svg>
