<svg width="16" height="21" viewBox="0 0 16 21" fill="none" xmlns="http://www.w3.org/2000/svg">
    <path d="M0.832209 21V17.8977L8.08079 11.1861C8.69727 10.5895 9.21431 10.0526 9.63192 9.57528C10.0562 9.09801 10.3777 8.63068 10.5964 8.1733C10.8152 7.70928 10.9245 7.20881 10.9245 6.67188C10.9245 6.07528 10.7886 5.56155 10.5169 5.13068C10.2451 4.69318 9.87388 4.35843 9.40323 4.12642C8.93259 3.88778 8.39897 3.76847 7.80238 3.76847C7.17927 3.76847 6.63571 3.89441 6.1717 4.14631C5.70768 4.3982 5.34973 4.75947 5.09783 5.23011C4.84594 5.70076 4.71999 6.26089 4.71999 6.91051H0.633345C0.633345 5.57812 0.934955 4.4214 1.53817 3.44034C2.14139 2.45928 2.98656 1.70028 4.07369 1.16335C5.16081 0.62642 6.41365 0.357954 7.83221 0.357954C9.29054 0.357954 10.56 0.616477 11.6404 1.13352C12.7276 1.64394 13.5727 2.35322 14.176 3.26136C14.7792 4.16951 15.0808 5.21023 15.0808 6.38352C15.0808 7.15246 14.9283 7.91146 14.6234 8.66051C14.3251 9.40956 13.7915 10.2415 13.0225 11.1562C12.2536 12.0644 11.1698 13.1548 9.77113 14.4276L6.79812 17.3409V17.4801H15.3493V21H0.832209Z" fill="white"/>
</svg>
