<svg width="32" height="32" viewBox="0 0 32 32" fill="none" xmlns="http://www.w3.org/2000/svg">
<g clip-path="url(#clip0_1056_385)">
<circle cx="16" cy="16" r="16" fill="#313144"/>
<path d="M14.4074 18.3058C14.4074 17.9738 14.1364 17.7021 13.8053 17.7021C13.4741 17.7021 13.2031 17.9738 13.2031 18.3058C13.2031 18.6378 13.4741 18.9094 13.8053 18.9094C14.1364 18.9094 14.4074 18.6378 14.4074 18.3058Z" fill="white"/>
<path d="M13.8114 20.7626C13.4802 20.7626 13.2092 21.0342 13.2092 21.3662C13.2092 21.6982 13.4802 21.9698 13.8114 21.9698C14.1425 21.9698 14.4135 21.6982 14.4135 21.3662C14.4075 21.0282 14.1425 20.7626 13.8114 20.7626Z" fill="white"/>
<path d="M14.5699 19.2295C14.2387 19.2295 13.9678 19.5011 13.9678 19.8331C13.9678 20.1651 14.2387 20.4367 14.5699 20.4367C14.9011 20.4367 15.1721 20.1651 15.1721 19.8331C15.1721 19.5011 14.9011 19.2295 14.5699 19.2295Z" fill="white"/>
<path d="M13.6487 19.8331C13.6487 19.5011 13.3778 19.2295 13.0466 19.2295C12.7154 19.2295 12.4445 19.5011 12.4445 19.8331C12.4445 20.1651 12.7154 20.4367 13.0466 20.4367C13.3778 20.4367 13.6487 20.1651 13.6487 19.8331Z" fill="white"/>
<path d="M13.0466 22.2897C12.7154 22.2897 12.4445 22.5613 12.4445 22.8933C12.4445 23.2253 12.7154 23.4969 13.0466 23.4969C13.3778 23.4969 13.6487 23.2253 13.6487 22.8933C13.6487 22.5613 13.3778 22.2897 13.0466 22.2897Z" fill="white"/>
<path d="M11.7701 18.3058C11.7701 18.5895 11.999 18.8189 12.282 18.8189C12.565 18.8189 12.7938 18.5895 12.7938 18.3058C12.7938 18.0221 12.565 17.7927 12.282 17.7927C11.999 17.7927 11.7701 18.0221 11.7701 18.3058Z" fill="white"/>
<path d="M12.2819 21.9638C12.6131 21.9638 12.8841 21.6922 12.8841 21.3602C12.8841 21.0282 12.6131 20.7566 12.2819 20.7566C11.9508 20.7566 11.6798 21.0282 11.6798 21.3602C11.6858 21.6922 11.9508 21.9638 12.2819 21.9638Z" fill="white"/>
<path d="M11.5232 20.346C11.8062 20.346 12.035 20.1166 12.035 19.8329C12.035 19.5492 11.8062 19.3198 11.5232 19.3198C11.2402 19.3198 11.0114 19.5492 11.0114 19.8329C11.0114 20.1166 11.2402 20.346 11.5232 20.346Z" fill="white"/>
<path d="M12.035 22.8934C12.035 22.6097 11.8062 22.3804 11.5232 22.3804C11.2402 22.3804 11.0114 22.6097 11.0114 22.8934C11.0114 23.1772 11.2402 23.4065 11.5232 23.4065C11.8062 23.4065 12.035 23.1772 12.035 22.8934Z" fill="white"/>
<path d="M9.99374 22.5854C9.82514 22.5854 9.68665 22.7243 9.68665 22.8933C9.68665 23.0623 9.82514 23.2011 9.99374 23.2011C10.1623 23.2011 10.3008 23.0623 10.3008 22.8933C10.3008 22.7243 10.1623 22.5854 9.99374 22.5854Z" fill="white"/>
<path d="M15.4251 17.7021C15.094 17.7021 14.823 17.9738 14.823 18.3058C14.823 18.6378 15.094 18.9094 15.4251 18.9094C15.7563 18.9094 16.0273 18.6378 16.0273 18.3058C16.0213 17.9738 15.7563 17.7021 15.4251 17.7021Z" fill="white"/>
<path d="M10.7585 21.7585C10.9752 21.7585 11.1498 21.5834 11.1498 21.3661C11.1498 21.1488 10.9752 20.9738 10.7585 20.9738C10.5417 20.9738 10.3671 21.1488 10.3671 21.3661C10.3671 21.5834 10.5417 21.7585 10.7585 21.7585Z" fill="white"/>
<path d="M12.2819 23.7927C11.9508 23.7927 11.6798 24.0644 11.6798 24.3963C11.6798 24.7283 11.9508 25 12.2819 25C12.6131 25 12.8841 24.7283 12.8841 24.3963C12.8841 24.0583 12.6131 23.7927 12.2819 23.7927Z" fill="white"/>
<path d="M10.7585 23.998C10.5417 23.998 10.3671 24.1731 10.3671 24.3904C10.3671 24.6077 10.5417 24.7828 10.7585 24.7828C10.9752 24.7828 11.1498 24.6077 11.1498 24.3904C11.1498 24.1731 10.9752 23.998 10.7585 23.998Z" fill="white"/>
<path d="M9.24712 24.1427C9.10863 24.1427 9.00024 24.2514 9.00024 24.3902C9.00024 24.529 9.10863 24.6377 9.24712 24.6377C9.38561 24.6377 9.494 24.529 9.494 24.3902C9.494 24.2574 9.37959 24.1427 9.24712 24.1427Z" fill="white"/>
<path d="M23.018 11.5875C22.6869 11.5875 22.4159 11.8592 22.4159 12.1911C22.4159 12.5231 22.6869 12.7948 23.018 12.7948C23.3492 12.7948 23.6202 12.5231 23.6202 12.1911C23.6202 11.8592 23.3492 11.5875 23.018 11.5875Z" fill="white"/>
<path d="M22.8614 10.6579C22.8614 10.326 22.5904 10.0543 22.2592 10.0543C21.9281 10.0543 21.6571 10.326 21.6571 10.6579C21.6571 10.9899 21.9281 11.2616 22.2592 11.2616C22.5904 11.2616 22.8614 10.9899 22.8614 10.6579Z" fill="white"/>
<path d="M22.2592 13.1146C21.9281 13.1146 21.6571 13.3863 21.6571 13.7182C21.6571 14.0502 21.9281 14.3219 22.2592 14.3219C22.5904 14.3219 22.8614 14.0502 22.8614 13.7182C22.8614 13.3863 22.5904 13.1146 22.2592 13.1146Z" fill="white"/>
<path d="M20.5734 9.13072C20.5734 8.79873 20.3025 8.5271 19.9713 8.5271C19.6401 8.5271 19.3691 8.79873 19.3691 9.13072C19.3691 9.46271 19.6401 9.73434 19.9713 9.73434C20.3025 9.73434 20.5734 9.46271 20.5734 9.13072Z" fill="white"/>
<path d="M20.7299 8.20724C21.0625 8.20724 21.3321 7.93699 21.3321 7.60362C21.3321 7.27025 21.0625 7 20.7299 7C20.3974 7 20.1278 7.27025 20.1278 7.60362C20.1278 7.93699 20.3974 8.20724 20.7299 8.20724Z" fill="white"/>
<path d="M19.2064 8.20724C19.5376 8.20724 19.8085 7.93561 19.8085 7.60362C19.8085 7.27163 19.5376 7 19.2064 7C18.8752 7 18.6042 7.27163 18.6042 7.60362C18.6042 7.93561 18.8752 8.20724 19.2064 8.20724Z" fill="white"/>
<path d="M22.0967 12.1911C22.0967 11.8592 21.8258 11.5875 21.4946 11.5875C21.1634 11.5875 20.8925 11.8592 20.8925 12.1911C20.8925 12.5231 21.1634 12.7948 21.4946 12.7948C21.8258 12.7887 22.0967 12.5231 22.0967 12.1911Z" fill="white"/>
<path d="M20.5734 12.1911C20.5734 11.8592 20.3025 11.5875 19.9713 11.5875C19.6401 11.5875 19.3691 11.8592 19.3691 12.1911C19.3691 12.5231 19.6401 12.7948 19.9713 12.7948C20.3025 12.7887 20.5734 12.5231 20.5734 12.1911Z" fill="white"/>
<path d="M20.7299 11.2616C21.0611 11.2616 21.3321 10.9899 21.3321 10.6579C21.3321 10.326 21.0611 10.0543 20.7299 10.0543C20.3988 10.0543 20.1278 10.326 20.1278 10.6579C20.1278 10.9899 20.3988 11.2616 20.7299 11.2616Z" fill="white"/>
<path d="M18.6042 10.6579C18.6042 10.9899 18.8752 11.2616 19.2064 11.2616C19.5376 11.2616 19.8085 10.9899 19.8085 10.6579C19.8085 10.326 19.5376 10.0543 19.2064 10.0543C18.8752 10.0604 18.6042 10.326 18.6042 10.6579Z" fill="white"/>
<path d="M21.4946 14.6479C21.1634 14.6479 20.8925 14.9196 20.8925 15.2516C20.8925 15.5836 21.1634 15.8552 21.4946 15.8552C21.8258 15.8552 22.0967 15.5836 22.0967 15.2516C22.0967 14.9135 21.8258 14.6479 21.4946 14.6479Z" fill="white"/>
<path d="M20.5734 15.2453C20.5734 14.9134 20.3025 14.6417 19.9713 14.6417C19.6401 14.6417 19.3691 14.9134 19.3691 15.2453C19.3691 15.5773 19.6401 15.849 19.9713 15.849C20.3025 15.849 20.5734 15.5773 20.5734 15.2453Z" fill="white"/>
<path d="M20.7298 14.3219C21.061 14.3219 21.332 14.0502 21.332 13.7182C21.332 13.3863 21.061 13.1146 20.7298 13.1146C20.3986 13.1146 20.1277 13.3863 20.1277 13.7182C20.1337 14.0502 20.3986 14.3219 20.7298 14.3219Z" fill="white"/>
<path d="M19.2065 14.3219C19.5377 14.3219 19.8086 14.0502 19.8086 13.7182C19.8086 13.3863 19.5377 13.1146 19.2065 13.1146C18.8753 13.1146 18.6044 13.3863 18.6044 13.7182C18.6044 14.0502 18.8753 14.3219 19.2065 14.3219Z" fill="white"/>
<path d="M20.7298 16.175C20.3986 16.175 20.1277 16.4467 20.1277 16.7787C20.1277 17.1107 20.3986 17.3823 20.7298 17.3823C21.061 17.3823 21.332 17.1107 21.332 16.7787C21.332 16.4467 21.061 16.175 20.7298 16.175Z" fill="white"/>
<path d="M19.2065 16.175C18.8753 16.175 18.6044 16.4467 18.6044 16.7787C18.6044 17.1107 18.8753 17.3823 19.2065 17.3823C19.5377 17.3823 19.8086 17.1107 19.8086 16.7787C19.8086 16.4467 19.5377 16.175 19.2065 16.175Z" fill="white"/>
<path d="M18.4478 9.73434C18.779 9.73434 19.05 9.46271 19.05 9.13072C19.05 8.79873 18.779 8.5271 18.4478 8.5271C18.1167 8.5271 17.8457 8.79873 17.8457 9.13072C17.8457 9.46271 18.1167 9.73434 18.4478 9.73434Z" fill="white"/>
<path d="M16.9183 9.73434C17.2495 9.73434 17.5204 9.46271 17.5204 9.13072C17.5204 8.79873 17.2495 8.5271 16.9183 8.5271C16.5871 8.5271 16.3162 8.79873 16.3162 9.13072C16.3162 9.46271 16.5871 9.73434 16.9183 9.73434Z" fill="white"/>
<path d="M18.2853 7.60362C18.2853 7.27163 18.0144 7 17.6832 7C17.352 7 17.0811 7.27163 17.0811 7.60362C17.0811 7.93561 17.352 8.20724 17.6832 8.20724C18.0144 8.20724 18.2853 7.93561 18.2853 7.60362Z" fill="white"/>
<path d="M16.7558 7.60362C16.7558 7.27163 16.4848 7 16.1537 7C15.8225 7 15.5515 7.27163 15.5515 7.60362C15.5515 7.93561 15.8225 8.20724 16.1537 8.20724C16.4848 8.20724 16.7558 7.93561 16.7558 7.60362Z" fill="white"/>
<path d="M19.0439 15.2455C19.0439 14.9135 18.7729 14.6418 18.4417 14.6418C18.1106 14.6418 17.8396 14.9135 17.8396 15.2455C17.8396 15.5775 18.1106 15.8491 18.4417 15.8491C18.7789 15.8491 19.0439 15.5775 19.0439 15.2455Z" fill="white"/>
<path d="M17.5204 15.2453C17.5204 14.9134 17.2495 14.6417 16.9183 14.6417C16.5871 14.6417 16.3162 14.9134 16.3162 15.2453C16.3162 15.5773 16.5871 15.849 16.9183 15.849C17.2495 15.849 17.5204 15.5773 17.5204 15.2453Z" fill="white"/>
<path d="M17.6832 16.175C17.352 16.175 17.0811 16.4467 17.0811 16.7787C17.0811 17.1107 17.352 17.3823 17.6832 17.3823C18.0144 17.3823 18.2853 17.1107 18.2853 16.7787C18.2853 16.4467 18.0144 16.175 17.6832 16.175Z" fill="white"/>
<path d="M16.1596 16.175C15.8285 16.175 15.5575 16.4467 15.5575 16.7787C15.5575 17.1107 15.8285 17.3823 16.1596 17.3823C16.4908 17.3823 16.7618 17.1107 16.7618 16.7787C16.7618 16.4467 16.4908 16.175 16.1596 16.175Z" fill="white"/>
<path d="M15.395 8.5271C15.0638 8.5271 14.7928 8.79873 14.7928 9.13072C14.7928 9.46271 15.0638 9.73434 15.395 9.73434C15.7262 9.73434 15.9971 9.46271 15.9971 9.13072C15.9971 8.79873 15.7262 8.5271 15.395 8.5271Z" fill="white"/>
<path d="M13.8716 8.61755C13.5886 8.61755 13.3597 8.84693 13.3597 9.13063C13.3597 9.41433 13.5886 9.64371 13.8716 9.64371C14.1546 9.64371 14.3834 9.41433 14.3834 9.13063C14.3834 8.84693 14.1546 8.61755 13.8716 8.61755Z" fill="white"/>
<path d="M14.6302 8.20724C14.9628 8.20724 15.2324 7.93699 15.2324 7.60362C15.2324 7.27025 14.9628 7 14.6302 7C14.2977 7 14.0281 7.27025 14.0281 7.60362C14.0281 7.93699 14.2977 8.20724 14.6302 8.20724Z" fill="white"/>
<path d="M13.1068 8.11661C13.3898 8.11661 13.6186 7.88723 13.6186 7.60353C13.6186 7.31983 13.3898 7.09045 13.1068 7.09045C12.8238 7.09045 12.595 7.31983 12.595 7.60353C12.595 7.88723 12.8238 8.11661 13.1068 8.11661Z" fill="white"/>
<path d="M15.9971 15.2455C15.9971 14.9135 15.7262 14.6418 15.395 14.6418C15.0638 14.6418 14.7928 14.9135 14.7928 15.2455C14.7928 15.5775 15.0638 15.8491 15.395 15.8491C15.7262 15.8491 15.9971 15.5775 15.9971 15.2455Z" fill="white"/>
<path d="M14.3834 15.2454C14.3834 14.9617 14.1546 14.7323 13.8716 14.7323C13.5886 14.7323 13.3597 14.9617 13.3597 15.2454C13.3597 15.5291 13.5886 15.7585 13.8716 15.7585C14.1546 15.7585 14.3834 15.5291 14.3834 15.2454Z" fill="white"/>
<path d="M15.2324 16.7787C15.2324 16.4467 14.9614 16.175 14.6302 16.175C14.299 16.175 14.0281 16.4467 14.0281 16.7787C14.0281 17.1107 14.299 17.3823 14.6302 17.3823C14.9614 17.3823 15.2324 17.1107 15.2324 16.7787Z" fill="white"/>
<path d="M13.6186 16.7786C13.6186 16.4949 13.3898 16.2655 13.1068 16.2655C12.8238 16.2655 12.595 16.4949 12.595 16.7786C12.595 17.0623 12.8238 17.2917 13.1068 17.2917C13.3898 17.2917 13.6186 17.0562 13.6186 16.7786Z" fill="white"/>
<path d="M10.8187 9.43857C10.9873 9.43857 11.1258 9.29974 11.1258 9.13072C11.1258 8.96171 10.9873 8.82288 10.8187 8.82288C10.6501 8.82288 10.5116 8.96171 10.5116 9.13072C10.5116 9.29974 10.6501 9.43857 10.8187 9.43857Z" fill="white"/>
<path d="M10.054 7.29565C9.88544 7.29565 9.74695 7.43449 9.74695 7.6035C9.74695 7.77251 9.88544 7.91135 10.054 7.91135C10.2226 7.91135 10.3611 7.77251 10.3611 7.6035C10.3611 7.43449 10.2226 7.29565 10.054 7.29565Z" fill="white"/>
<path d="M22.0967 9.13072C22.0967 8.79873 21.8258 8.5271 21.4946 8.5271C21.1634 8.5271 20.8925 8.79873 20.8925 9.13072C20.8925 9.46271 21.1634 9.73434 21.4946 9.73434C21.8258 9.73434 22.0967 9.46271 22.0967 9.13072Z" fill="white"/>
<path d="M12.3422 9.52921C12.559 9.52921 12.7336 9.35416 12.7336 9.13686C12.7336 8.91956 12.559 8.74451 12.3422 8.74451C12.1254 8.74451 11.9508 8.91956 11.9508 9.13686C11.9508 9.34813 12.1254 9.52921 12.3422 9.52921Z" fill="white"/>
<path d="M11.5834 7.99601C11.7996 7.99601 11.9748 7.82035 11.9748 7.60366C11.9748 7.38697 11.7996 7.2113 11.5834 7.2113C11.3672 7.2113 11.192 7.38697 11.192 7.60366C11.192 7.82035 11.3672 7.99601 11.5834 7.99601Z" fill="white"/>
</g>
<defs>
<clipPath id="clip0_1056_385">
<rect width="32" height="32" fill="white"/>
</clipPath>
</defs>
</svg>
