<svg width="177" height="22" viewBox="0 0 177 22" fill="none" xmlns="http://www.w3.org/2000/svg">
<path d="M2.14288 16V6.2H5.81088C6.64154 6.2 7.35554 6.33533 7.95288 6.606C8.55021 6.86733 9.00754 7.25 9.32488 7.754C9.65154 8.24867 9.81488 8.85067 9.81488 9.56C9.81488 10.2507 9.65154 10.848 9.32488 11.352C9.00754 11.8467 8.55021 12.2293 7.95288 12.5C7.35554 12.7707 6.64154 12.906 5.81088 12.906H2.71688L3.17888 12.416V16H2.14288ZM3.17888 12.5L2.71688 11.996H5.78288C6.76288 11.996 7.50488 11.786 8.00888 11.366C8.52221 10.9367 8.77887 10.3347 8.77887 9.56C8.77887 8.776 8.52221 8.16933 8.00888 7.74C7.50488 7.31067 6.76288 7.096 5.78288 7.096H2.71688L3.17888 6.606V12.5ZM14.8 16.07C14.0906 16.07 13.4513 15.9113 12.882 15.594C12.322 15.2673 11.8786 14.824 11.552 14.264C11.2253 13.6947 11.062 13.046 11.062 12.318C11.062 11.5807 11.2253 10.932 11.552 10.372C11.8786 9.812 12.322 9.37333 12.882 9.056C13.442 8.73867 14.0813 8.58 14.8 8.58C15.528 8.58 16.172 8.73867 16.732 9.056C17.3013 9.37333 17.7446 9.812 18.062 10.372C18.3886 10.932 18.552 11.5807 18.552 12.318C18.552 13.046 18.3886 13.6947 18.062 14.264C17.7446 14.824 17.3013 15.2673 16.732 15.594C16.1626 15.9113 15.5186 16.07 14.8 16.07ZM14.8 15.188C15.332 15.188 15.8033 15.0713 16.214 14.838C16.6246 14.5953 16.9466 14.2593 17.18 13.83C17.4226 13.3913 17.544 12.8873 17.544 12.318C17.544 11.7393 17.4226 11.2353 17.18 10.806C16.9466 10.3767 16.6246 10.0453 16.214 9.812C15.8033 9.56933 15.3366 9.448 14.814 9.448C14.2913 9.448 13.8246 9.56933 13.414 9.812C13.0033 10.0453 12.6766 10.3767 12.434 10.806C12.1913 11.2353 12.07 11.7393 12.07 12.318C12.07 12.8873 12.1913 13.3913 12.434 13.83C12.6766 14.2593 13.0033 14.5953 13.414 14.838C13.8246 15.0713 14.2866 15.188 14.8 15.188ZM21.8742 16L19.1022 8.65H20.0542L22.5742 15.468H22.1402L24.7302 8.65H25.5842L28.1462 15.468H27.7122L30.2742 8.65H31.1842L28.3982 16H27.4602L24.9962 9.588H25.2902L22.8122 16H21.8742ZM35.5978 16.07C34.8325 16.07 34.1605 15.9113 33.5818 15.594C33.0032 15.2673 32.5505 14.824 32.2238 14.264C31.8972 13.6947 31.7338 13.046 31.7338 12.318C31.7338 11.59 31.8878 10.946 32.1958 10.386C32.5132 9.826 32.9425 9.38733 33.4838 9.07C34.0345 8.74333 34.6505 8.58 35.3318 8.58C36.0225 8.58 36.6338 8.73867 37.1658 9.056C37.7072 9.364 38.1318 9.80267 38.4398 10.372C38.7478 10.932 38.9018 11.5807 38.9018 12.318C38.9018 12.3647 38.8972 12.416 38.8878 12.472C38.8878 12.5187 38.8878 12.57 38.8878 12.626H32.4898V11.884H38.3558L37.9638 12.178C37.9638 11.646 37.8472 11.1747 37.6138 10.764C37.3898 10.344 37.0818 10.0173 36.6898 9.784C36.2978 9.55067 35.8452 9.434 35.3318 9.434C34.8278 9.434 34.3752 9.55067 33.9738 9.784C33.5725 10.0173 33.2598 10.344 33.0358 10.764C32.8118 11.184 32.6998 11.6647 32.6998 12.206V12.36C32.6998 12.92 32.8212 13.4147 33.0638 13.844C33.3158 14.264 33.6612 14.5953 34.0998 14.838C34.5478 15.0713 35.0565 15.188 35.6258 15.188C36.0738 15.188 36.4892 15.1087 36.8718 14.95C37.2638 14.7913 37.5998 14.5487 37.8798 14.222L38.4398 14.866C38.1132 15.258 37.7025 15.5567 37.2078 15.762C36.7225 15.9673 36.1858 16.07 35.5978 16.07ZM40.9251 16V8.65H41.8771V10.652L41.7791 10.302C41.9844 9.742 42.3297 9.31733 42.8151 9.028C43.3004 8.72933 43.9024 8.58 44.6211 8.58V9.546C44.5837 9.546 44.5464 9.546 44.5091 9.546C44.4717 9.53667 44.4344 9.532 44.3971 9.532C43.6224 9.532 43.0157 9.77 42.5771 10.246C42.1384 10.7127 41.9191 11.38 41.9191 12.248V16H40.9251ZM49.4885 16.07C48.7231 16.07 48.0511 15.9113 47.4725 15.594C46.8938 15.2673 46.4411 14.824 46.1145 14.264C45.7878 13.6947 45.6245 13.046 45.6245 12.318C45.6245 11.59 45.7785 10.946 46.0865 10.386C46.4038 9.826 46.8331 9.38733 47.3745 9.07C47.9251 8.74333 48.5411 8.58 49.2225 8.58C49.9131 8.58 50.5245 8.73867 51.0565 9.056C51.5978 9.364 52.0225 9.80267 52.3305 10.372C52.6385 10.932 52.7925 11.5807 52.7925 12.318C52.7925 12.3647 52.7878 12.416 52.7785 12.472C52.7785 12.5187 52.7785 12.57 52.7785 12.626H46.3805V11.884H52.2465L51.8545 12.178C51.8545 11.646 51.7378 11.1747 51.5045 10.764C51.2805 10.344 50.9725 10.0173 50.5805 9.784C50.1885 9.55067 49.7358 9.434 49.2225 9.434C48.7185 9.434 48.2658 9.55067 47.8645 9.784C47.4631 10.0173 47.1505 10.344 46.9265 10.764C46.7025 11.184 46.5905 11.6647 46.5905 12.206V12.36C46.5905 12.92 46.7118 13.4147 46.9545 13.844C47.2065 14.264 47.5518 14.5953 47.9905 14.838C48.4385 15.0713 48.9471 15.188 49.5165 15.188C49.9645 15.188 50.3798 15.1087 50.7625 14.95C51.1545 14.7913 51.4905 14.5487 51.7705 14.222L52.3305 14.866C52.0038 15.258 51.5931 15.5567 51.0985 15.762C50.6131 15.9673 50.0765 16.07 49.4885 16.07ZM57.7417 16.07C57.0417 16.07 56.4117 15.9113 55.8517 15.594C55.301 15.2767 54.867 14.838 54.5497 14.278C54.2324 13.7087 54.0737 13.0553 54.0737 12.318C54.0737 11.5713 54.2324 10.918 54.5497 10.358C54.867 9.798 55.301 9.364 55.8517 9.056C56.4117 8.73867 57.0417 8.58 57.7417 8.58C58.3857 8.58 58.9597 8.72467 59.4637 9.014C59.977 9.30333 60.383 9.728 60.6817 10.288C60.9897 10.8387 61.1437 11.5153 61.1437 12.318C61.1437 13.1113 60.9944 13.788 60.6957 14.348C60.397 14.908 59.991 15.3373 59.4777 15.636C58.9737 15.9253 58.395 16.07 57.7417 16.07ZM57.8117 15.188C58.3344 15.188 58.801 15.0713 59.2117 14.838C59.6317 14.5953 59.9584 14.2593 60.1917 13.83C60.4344 13.3913 60.5557 12.8873 60.5557 12.318C60.5557 11.7393 60.4344 11.2353 60.1917 10.806C59.9584 10.3767 59.6317 10.0453 59.2117 9.812C58.801 9.56933 58.3344 9.448 57.8117 9.448C57.2984 9.448 56.8364 9.56933 56.4257 9.812C56.015 10.0453 55.6884 10.3767 55.4457 10.806C55.203 11.2353 55.0817 11.7393 55.0817 12.318C55.0817 12.8873 55.203 13.3913 55.4457 13.83C55.6884 14.2593 56.015 14.5953 56.4257 14.838C56.8364 15.0713 57.2984 15.188 57.8117 15.188ZM60.5837 16V13.788L60.6817 12.304L60.5417 10.82V5.612H61.5357V16H60.5837ZM71.762 16.07C71.118 16.07 70.5394 15.9253 70.026 15.636C69.5127 15.3373 69.1067 14.908 68.808 14.348C68.5094 13.788 68.36 13.1113 68.36 12.318C68.36 11.5153 68.5094 10.8387 68.808 10.288C69.116 9.728 69.5267 9.30333 70.04 9.014C70.5534 8.72467 71.1274 8.58 71.762 8.58C72.462 8.58 73.0874 8.73867 73.638 9.056C74.198 9.364 74.6367 9.798 74.954 10.358C75.2714 10.918 75.43 11.5713 75.43 12.318C75.43 13.0553 75.2714 13.7087 74.954 14.278C74.6367 14.838 74.198 15.2767 73.638 15.594C73.0874 15.9113 72.462 16.07 71.762 16.07ZM67.968 16V5.612H68.962V10.82L68.822 12.304L68.92 13.788V16H67.968ZM71.692 15.188C72.2147 15.188 72.6814 15.0713 73.092 14.838C73.5027 14.5953 73.8294 14.2593 74.072 13.83C74.3147 13.3913 74.436 12.8873 74.436 12.318C74.436 11.7393 74.3147 11.2353 74.072 10.806C73.8294 10.3767 73.5027 10.0453 73.092 9.812C72.6814 9.56933 72.2147 9.448 71.692 9.448C71.1694 9.448 70.698 9.56933 70.278 9.812C69.8674 10.0453 69.5407 10.3767 69.298 10.806C69.0647 11.2353 68.948 11.7393 68.948 12.318C68.948 12.8873 69.0647 13.3913 69.298 13.83C69.5407 14.2593 69.8674 14.5953 70.278 14.838C70.698 15.0713 71.1694 15.188 71.692 15.188ZM77.3072 18.786C76.9619 18.786 76.6306 18.73 76.3132 18.618C76.0052 18.506 75.7392 18.338 75.5152 18.114L75.9772 17.372C76.1639 17.5493 76.3646 17.6847 76.5792 17.778C76.8032 17.8807 77.0506 17.932 77.3212 17.932C77.6479 17.932 77.9279 17.8387 78.1612 17.652C78.4039 17.4747 78.6326 17.1573 78.8472 16.7L79.3232 15.622L79.4352 15.468L82.4592 8.65H83.4392L79.7572 16.882C79.5519 17.358 79.3232 17.736 79.0712 18.016C78.8286 18.296 78.5626 18.492 78.2732 18.604C77.9839 18.7253 77.6619 18.786 77.3072 18.786ZM79.2672 16.21L75.8792 8.65H76.9152L79.9112 15.398L79.2672 16.21Z" fill="#323245"/>
<g clip-path="url(#clip0_1948_6362)">
<path d="M135.84 8.93747L135.832 3.99572L133.362 8.17022H133.151L130.681 4.01222V8.93747H130.26V3.16247H130.622L133.261 7.62572L135.899 3.16247H136.253L136.262 8.93747H135.84ZM140.966 8.97872C140.219 8.97872 139.637 8.76697 139.221 8.34347C138.811 7.91997 138.606 7.30122 138.606 6.48722V3.16247H139.036V6.47072C139.036 7.18022 139.201 7.71097 139.533 8.06297C139.865 8.41497 140.345 8.59097 140.974 8.59097C141.598 8.59097 142.076 8.41497 142.408 8.06297C142.739 7.71097 142.905 7.18022 142.905 6.47072V3.16247H143.335V6.48722C143.335 7.30122 143.127 7.91997 142.711 8.34347C142.295 8.76697 141.713 8.97872 140.966 8.97872ZM148.182 8.97872C147.603 8.97872 147.08 8.85222 146.614 8.59922C146.147 8.34072 145.779 7.98872 145.509 7.54322C145.245 7.09772 145.113 6.59997 145.113 6.04997C145.113 5.49997 145.245 5.00222 145.509 4.55672C145.779 4.11122 146.147 3.76197 146.614 3.50897C147.08 3.25047 147.603 3.12122 148.182 3.12122C148.76 3.12122 149.283 3.24772 149.75 3.50072C150.216 3.75372 150.581 4.10297 150.845 4.54847C151.115 4.99397 151.25 5.49447 151.25 6.04997C151.25 6.60547 151.115 7.10597 150.845 7.55147C150.581 7.99697 150.216 8.34622 149.75 8.59922C149.283 8.85222 148.76 8.97872 148.182 8.97872ZM148.182 8.59097C148.676 8.59097 149.123 8.48097 149.522 8.26097C149.921 8.04097 150.236 7.73847 150.466 7.35347C150.697 6.96297 150.812 6.52847 150.812 6.04997C150.812 5.57147 150.697 5.13972 150.466 4.75472C150.236 4.36422 149.921 4.05897 149.522 3.83897C149.123 3.61897 148.676 3.50897 148.182 3.50897C147.687 3.50897 147.237 3.61897 146.833 3.83897C146.434 4.05897 146.119 4.36422 145.889 4.75472C145.658 5.13972 145.543 5.57147 145.543 6.04997C145.543 6.52847 145.658 6.96297 145.889 7.35347C146.119 7.73847 146.434 8.04097 146.833 8.26097C147.237 8.48097 147.687 8.59097 148.182 8.59097ZM157.883 3.16247V8.93747H157.529L153.508 3.92147V8.93747H153.078V3.16247H153.441L157.453 8.17847V3.16247H157.883ZM135.065 13.475V19.25H134.711L130.69 14.234V19.25H130.26V13.475H130.622L134.635 18.491V13.475H135.065ZM141.534 18.8705V19.25H137.463V13.475H141.408V13.8545H137.892V16.1315H141.037V16.5027H137.892V18.8705H141.534ZM144.568 13.8545H142.444V13.475H147.123V13.8545H144.998V19.25H144.568V13.8545ZM156.392 13.475L154.394 19.25H153.938L152.109 14.069L150.272 19.25H149.816L147.81 13.475H148.265L150.061 18.6725L151.907 13.475H152.32L154.158 18.6807L155.97 13.475H156.392ZM160.414 19.2912C159.835 19.2912 159.312 19.1647 158.846 18.9117C158.38 18.6532 158.011 18.3012 157.742 17.8557C157.478 17.4102 157.346 16.9125 157.346 16.3625C157.346 15.8125 157.478 15.3147 157.742 14.8692C158.011 14.4237 158.38 14.0745 158.846 13.8215C159.312 13.563 159.835 13.4337 160.414 13.4337C160.993 13.4337 161.515 13.5602 161.982 13.8132C162.448 14.0662 162.813 14.4155 163.077 14.861C163.347 15.3065 163.482 15.807 163.482 16.3625C163.482 16.918 163.347 17.4185 163.077 17.864C162.813 18.3095 162.448 18.6587 161.982 18.9117C161.515 19.1647 160.993 19.2912 160.414 19.2912ZM160.414 18.9035C160.909 18.9035 161.355 18.7935 161.754 18.5735C162.153 18.3535 162.468 18.051 162.698 17.666C162.929 17.2755 163.044 16.841 163.044 16.3625C163.044 15.884 162.929 15.4522 162.698 15.0672C162.468 14.6767 162.153 14.3715 161.754 14.1515C161.355 13.9315 160.909 13.8215 160.414 13.8215C159.919 13.8215 159.47 13.9315 159.065 14.1515C158.666 14.3715 158.351 14.6767 158.121 15.0672C157.891 15.4522 157.775 15.884 157.775 16.3625C157.775 16.841 157.891 17.2755 158.121 17.666C158.351 18.051 158.666 18.3535 159.065 18.5735C159.47 18.7935 159.919 18.9035 160.414 18.9035ZM169.408 19.25L168 17.3195C167.792 17.347 167.601 17.3607 167.427 17.3607H165.741V19.25H165.311V13.475H167.427C168.168 13.475 168.75 13.6482 169.172 13.9947C169.593 14.3357 169.804 14.8115 169.804 15.422C169.804 15.8785 169.683 16.2635 169.441 16.577C169.205 16.885 168.865 17.1022 168.421 17.2287L169.896 19.25H169.408ZM167.427 16.9895C168.056 16.9895 168.536 16.8547 168.868 16.5852C169.2 16.3102 169.365 15.9225 169.365 15.422C169.365 14.9215 169.2 14.5365 168.868 14.267C168.536 13.992 168.056 13.8545 167.427 13.8545H165.741V16.9895H167.427ZM173.469 16.4037L172.145 17.732V19.25H171.715V13.475H172.145V17.1875L175.829 13.475H176.352L173.755 16.0985L176.529 19.25H176.006L173.469 16.4037Z" fill="#5551FF"/>
<path d="M92.4143 14.2502C92.6431 14.2502 92.8286 14.0687 92.8286 13.8447C92.8286 13.6208 92.6431 13.4393 92.4143 13.4393C92.1855 13.4393 92 13.6208 92 13.8447C92 14.0687 92.1855 14.2502 92.4143 14.2502Z" fill="#313144"/>
<path d="M98.1746 13.7598C98.4034 13.7598 98.5889 13.5783 98.5889 13.3543C98.5889 13.1304 98.4034 12.9489 98.1746 12.9489C97.9458 12.9489 97.7603 13.1304 97.7603 13.3543C97.7603 13.5783 97.9458 13.7598 98.1746 13.7598Z" fill="#313144"/>
<path d="M99.8386 16.0814C100.067 16.0814 100.253 15.8999 100.253 15.6759C100.253 15.452 100.067 15.2705 99.8386 15.2705C99.6098 15.2705 99.4243 15.452 99.4243 15.6759C99.4243 15.8999 99.6098 16.0814 99.8386 16.0814Z" fill="#313144"/>
<path d="M104.75 14.3811C104.979 14.3811 105.165 14.1996 105.165 13.9757C105.165 13.7518 104.979 13.5702 104.75 13.5702C104.521 13.5702 104.336 13.7518 104.336 13.9757C104.336 14.1996 104.521 14.3811 104.75 14.3811Z" fill="#313144"/>
<path d="M92.7483 1.88357C92.9771 1.88357 93.1626 1.70204 93.1626 1.4781C93.1626 1.25417 92.9771 1.07263 92.7483 1.07263C92.5195 1.07263 92.334 1.25417 92.334 1.4781C92.334 1.70204 92.5195 1.88357 92.7483 1.88357Z" fill="#313144"/>
<path d="M93.183 7.01068C93.5373 7.01068 93.8245 6.72956 93.8245 6.38283C93.8245 6.03609 93.5373 5.755 93.183 5.755C92.8287 5.755 92.5415 6.03609 92.5415 6.38283C92.5415 6.72956 92.8287 7.01068 93.183 7.01068Z" fill="#313144"/>
<path d="M103.607 12.8966C103.902 12.8966 104.141 12.6624 104.141 12.3734C104.141 12.0845 103.902 11.8502 103.607 11.8502C103.312 11.8502 103.072 12.0845 103.072 12.3734C103.072 12.6624 103.312 12.8966 103.607 12.8966Z" fill="#313144"/>
<path d="M92.8285 19.2729C93.1238 19.2729 93.3631 19.0386 93.3631 18.7497C93.3631 18.4608 93.1238 18.2266 92.8285 18.2266C92.5333 18.2266 92.2939 18.4608 92.2939 18.7497C92.2939 19.0386 92.5333 19.2729 92.8285 19.2729Z" fill="#313144"/>
<path d="M96.9518 16.4934C97.2766 16.4934 97.5399 16.2357 97.5399 15.9179C97.5399 15.6001 97.2766 15.3424 96.9518 15.3424C96.627 15.3424 96.3638 15.6001 96.3638 15.9179C96.3638 16.2357 96.627 16.4934 96.9518 16.4934Z" fill="#313144"/>
<path d="M101.496 18.4554C101.754 18.4554 101.963 18.2504 101.963 17.9976C101.963 17.7447 101.754 17.5398 101.496 17.5398C101.237 17.5398 101.028 17.7447 101.028 17.9976C101.028 18.2504 101.237 18.4554 101.496 18.4554Z" fill="#313144"/>
<path d="M94.5058 21.7712C94.8934 21.7712 95.2075 21.4638 95.2075 21.0845C95.2075 20.7053 94.8934 20.3978 94.5058 20.3978C94.1183 20.3978 93.8042 20.7053 93.8042 21.0845C93.8042 21.4638 94.1183 21.7712 94.5058 21.7712Z" fill="#313144"/>
<path d="M97.299 4.77405C97.8932 4.77405 98.3749 4.30263 98.3749 3.72113C98.3749 3.13962 97.8932 2.66821 97.299 2.66821C96.7048 2.66821 96.2231 3.13962 96.2231 3.72113C96.2231 4.30263 96.7048 4.77405 97.299 4.77405Z" fill="#313144"/>
<path d="M95.6282 2.30203C96.2778 2.30203 96.8043 1.7867 96.8043 1.15101C96.8043 0.515325 96.2778 0 95.6282 0C94.9787 0 94.4521 0.515325 94.4521 1.15101C94.4521 1.7867 94.9787 2.30203 95.6282 2.30203Z" fill="#313144"/>
<path d="M96.0627 7.36391C96.62 7.36391 97.0718 6.92185 97.0718 6.37643C97.0718 5.83104 96.62 5.38892 96.0627 5.38892C95.5055 5.38892 95.0537 5.83104 95.0537 6.37643C95.0537 6.92185 95.5055 7.36391 96.0627 7.36391Z" fill="#313144"/>
<path d="M98.9634 6.92563C99.5502 6.92563 100.026 6.46006 100.026 5.88578C100.026 5.31149 99.5502 4.84595 98.9634 4.84595C98.3766 4.84595 97.9009 5.31149 97.9009 5.88578C97.9009 6.46006 98.3766 6.92563 98.9634 6.92563Z" fill="#313144"/>
<path d="M94.8531 9.6855C95.4141 9.6855 95.8688 9.24048 95.8688 8.69144C95.8688 8.14248 95.4141 7.69739 94.8531 7.69739C94.2922 7.69739 93.8374 8.14248 93.8374 8.69144C93.8374 9.24048 94.2922 9.6855 94.8531 9.6855Z" fill="#313144"/>
<path d="M97.7336 9.40423C98.2687 9.40423 98.7025 8.9797 98.7025 8.45596C98.7025 7.93222 98.2687 7.50769 97.7336 7.50769C97.1985 7.50769 96.7646 7.93222 96.7646 8.45596C96.7646 8.9797 97.1985 9.40423 97.7336 9.40423Z" fill="#313144"/>
<path d="M100.634 9.03155C101.099 9.03155 101.476 8.66264 101.476 8.20758C101.476 7.75246 101.099 7.38354 100.634 7.38354C100.169 7.38354 99.792 7.75246 99.792 8.20758C99.792 8.66264 100.169 9.03155 100.634 9.03155Z" fill="#313144"/>
<path d="M99.4108 11.6082C99.8758 11.6082 100.253 11.2393 100.253 10.7842C100.253 10.3291 99.8758 9.96021 99.4108 9.96021C98.9458 9.96021 98.5688 10.3291 98.5688 10.7842C98.5688 11.2393 98.9458 11.6082 99.4108 11.6082Z" fill="#313144"/>
<path d="M96.5041 11.8567C96.9691 11.8567 97.3461 11.4878 97.3461 11.0327C97.3461 10.5776 96.9691 10.2086 96.5041 10.2086C96.0391 10.2086 95.6621 10.5776 95.6621 11.0327C95.6621 11.4878 96.0391 11.8567 96.5041 11.8567Z" fill="#313144"/>
<path d="M95.2879 14.5315C95.8194 14.5315 96.2502 14.1099 96.2502 13.5898C96.2502 13.0697 95.8194 12.6481 95.2879 12.6481C94.7565 12.6481 94.3257 13.0697 94.3257 13.5898C94.3257 14.1099 94.7565 14.5315 95.2879 14.5315Z" fill="#313144"/>
<path d="M94.058 16.997C94.5304 16.997 94.9133 16.6222 94.9133 16.1599C94.9133 15.6976 94.5304 15.3228 94.058 15.3228C93.5856 15.3228 93.2026 15.6976 93.2026 16.1599C93.2026 16.6222 93.5856 16.997 94.058 16.997Z" fill="#313144"/>
<path d="M102.725 16.3497C103.253 16.3497 103.681 15.931 103.681 15.4145C103.681 14.8979 103.253 14.4792 102.725 14.4792C102.197 14.4792 101.77 14.8979 101.77 15.4145C101.77 15.931 102.197 16.3497 102.725 16.3497Z" fill="#313144"/>
<path d="M101.055 14.0475C101.586 14.0475 102.017 13.626 102.017 13.1058C102.017 12.5857 101.586 12.1641 101.055 12.1641C100.523 12.1641 100.092 12.5857 100.092 13.1058C100.092 13.626 100.523 14.0475 101.055 14.0475Z" fill="#313144"/>
<path d="M95.7152 19.4429C96.2466 19.4429 96.6774 19.0213 96.6774 18.5012C96.6774 17.9811 96.2466 17.5594 95.7152 17.5594C95.1837 17.5594 94.7529 17.9811 94.7529 18.5012C94.7529 19.0213 95.1837 19.4429 95.7152 19.4429Z" fill="#313144"/>
<path d="M93.6037 11.9745C93.9986 11.9745 94.3187 11.6612 94.3187 11.2747C94.3187 10.8882 93.9986 10.575 93.6037 10.575C93.2088 10.575 92.8887 10.8882 92.8887 11.2747C92.8887 11.6612 93.2088 11.9745 93.6037 11.9745Z" fill="#313144"/>
<path d="M102.297 11.2289C102.692 11.2289 103.012 10.9156 103.012 10.5292C103.012 10.1426 102.692 9.82935 102.297 9.82935C101.902 9.82935 101.582 10.1426 101.582 10.5292C101.582 10.9156 101.902 11.2289 102.297 11.2289Z" fill="#313144"/>
<path d="M94.4121 4.83943C94.9989 4.83943 95.4746 4.37389 95.4746 3.7996C95.4746 3.22531 94.9989 2.75977 94.4121 2.75977C93.8253 2.75977 93.3496 3.22531 93.3496 3.7996C93.3496 4.37389 93.8253 4.83943 94.4121 4.83943Z" fill="#313144"/>
<path d="M119.685 14.2502C119.914 14.2502 120.099 14.0687 120.099 13.8447C120.099 13.6208 119.914 13.4393 119.685 13.4393C119.456 13.4393 119.271 13.6208 119.271 13.8447C119.271 14.0687 119.456 14.2502 119.685 14.2502Z" fill="#313144"/>
<path d="M113.925 13.7598C114.153 13.7598 114.339 13.5783 114.339 13.3543C114.339 13.1304 114.153 12.9489 113.925 12.9489C113.696 12.9489 113.51 13.1304 113.51 13.3543C113.51 13.5783 113.696 13.7598 113.925 13.7598Z" fill="#313144"/>
<path d="M112.261 16.0814C112.49 16.0814 112.675 15.8999 112.675 15.6759C112.675 15.452 112.49 15.2705 112.261 15.2705C112.032 15.2705 111.847 15.452 111.847 15.6759C111.847 15.8999 112.032 16.0814 112.261 16.0814Z" fill="#313144"/>
<path d="M107.349 14.3811C107.578 14.3811 107.764 14.1996 107.764 13.9757C107.764 13.7518 107.578 13.5702 107.349 13.5702C107.121 13.5702 106.935 13.7518 106.935 13.9757C106.935 14.1996 107.121 14.3811 107.349 14.3811Z" fill="#313144"/>
<path d="M119.351 1.88357C119.58 1.88357 119.765 1.70204 119.765 1.4781C119.765 1.25417 119.58 1.07263 119.351 1.07263C119.122 1.07263 118.937 1.25417 118.937 1.4781C118.937 1.70204 119.122 1.88357 119.351 1.88357Z" fill="#313144"/>
<path d="M118.916 7.01068C119.271 7.01068 119.558 6.72956 119.558 6.38283C119.558 6.03609 119.271 5.755 118.916 5.755C118.562 5.755 118.275 6.03609 118.275 6.38283C118.275 6.72956 118.562 7.01068 118.916 7.01068Z" fill="#313144"/>
<path d="M108.492 12.8966C108.787 12.8966 109.027 12.6624 109.027 12.3734C109.027 12.0845 108.787 11.8502 108.492 11.8502C108.197 11.8502 107.958 12.0845 107.958 12.3734C107.958 12.6624 108.197 12.8966 108.492 12.8966Z" fill="#313144"/>
<path d="M119.271 19.2729C119.566 19.2729 119.806 19.0386 119.806 18.7497C119.806 18.4608 119.566 18.2266 119.271 18.2266C118.976 18.2266 118.736 18.4608 118.736 18.7497C118.736 19.0386 118.976 19.2729 119.271 19.2729Z" fill="#313144"/>
<path d="M115.148 16.4934C115.472 16.4934 115.736 16.2357 115.736 15.9179C115.736 15.6001 115.472 15.3424 115.148 15.3424C114.823 15.3424 114.56 15.6001 114.56 15.9179C114.56 16.2357 114.823 16.4934 115.148 16.4934Z" fill="#313144"/>
<path d="M110.604 18.4554C110.862 18.4554 111.071 18.2504 111.071 17.9976C111.071 17.7447 110.862 17.5398 110.604 17.5398C110.345 17.5398 110.136 17.7447 110.136 17.9976C110.136 18.2504 110.345 18.4554 110.604 18.4554Z" fill="#313144"/>
<path d="M117.593 21.7712C117.981 21.7712 118.295 21.4638 118.295 21.0845C118.295 20.7053 117.981 20.3978 117.593 20.3978C117.206 20.3978 116.892 20.7053 116.892 21.0845C116.892 21.4638 117.206 21.7712 117.593 21.7712Z" fill="#313144"/>
<path d="M114.8 4.77405C115.395 4.77405 115.876 4.30263 115.876 3.72113C115.876 3.13962 115.395 2.66821 114.8 2.66821C114.206 2.66821 113.725 3.13962 113.725 3.72113C113.725 4.30263 114.206 4.77405 114.8 4.77405Z" fill="#313144"/>
<path d="M116.471 2.30203C117.121 2.30203 117.647 1.7867 117.647 1.15101C117.647 0.515325 117.121 0 116.471 0C115.821 0 115.295 0.515325 115.295 1.15101C115.295 1.7867 115.821 2.30203 116.471 2.30203Z" fill="#313144"/>
<path d="M116.036 7.36391C116.594 7.36391 117.045 6.92185 117.045 6.37643C117.045 5.83104 116.594 5.38892 116.036 5.38892C115.479 5.38892 115.027 5.83104 115.027 6.37643C115.027 6.92185 115.479 7.36391 116.036 7.36391Z" fill="#313144"/>
<path d="M113.136 6.92563C113.723 6.92563 114.198 6.46006 114.198 5.88578C114.198 5.31149 113.723 4.84595 113.136 4.84595C112.549 4.84595 112.073 5.31149 112.073 5.88578C112.073 6.46006 112.549 6.92563 113.136 6.92563Z" fill="#313144"/>
<path d="M117.246 9.6855C117.807 9.6855 118.262 9.24048 118.262 8.69144C118.262 8.14248 117.807 7.69739 117.246 7.69739C116.685 7.69739 116.23 8.14248 116.23 8.69144C116.23 9.24048 116.685 9.6855 117.246 9.6855Z" fill="#313144"/>
<path d="M114.365 9.40423C114.901 9.40423 115.334 8.9797 115.334 8.45596C115.334 7.93222 114.901 7.50769 114.365 7.50769C113.83 7.50769 113.396 7.93222 113.396 8.45596C113.396 8.9797 113.83 9.40423 114.365 9.40423Z" fill="#313144"/>
<path d="M111.466 9.03155C111.93 9.03155 112.308 8.66264 112.308 8.20758C112.308 7.75246 111.93 7.38354 111.466 7.38354C111 7.38354 110.624 7.75246 110.624 8.20758C110.624 8.66264 111 9.03155 111.466 9.03155Z" fill="#313144"/>
<path d="M112.689 11.6082C113.154 11.6082 113.531 11.2393 113.531 10.7842C113.531 10.3291 113.154 9.96021 112.689 9.96021C112.224 9.96021 111.847 10.3291 111.847 10.7842C111.847 11.2393 112.224 11.6082 112.689 11.6082Z" fill="#313144"/>
<path d="M115.595 11.8567C116.06 11.8567 116.437 11.4878 116.437 11.0327C116.437 10.5776 116.06 10.2086 115.595 10.2086C115.13 10.2086 114.753 10.5776 114.753 11.0327C114.753 11.4878 115.13 11.8567 115.595 11.8567Z" fill="#313144"/>
<path d="M116.811 14.5315C117.343 14.5315 117.774 14.1099 117.774 13.5898C117.774 13.0697 117.343 12.6481 116.811 12.6481C116.28 12.6481 115.849 13.0697 115.849 13.5898C115.849 14.1099 116.28 14.5315 116.811 14.5315Z" fill="#313144"/>
<path d="M118.041 16.997C118.513 16.997 118.896 16.6222 118.896 16.1599C118.896 15.6976 118.513 15.3228 118.041 15.3228C117.568 15.3228 117.186 15.6976 117.186 16.1599C117.186 16.6222 117.568 16.997 118.041 16.997Z" fill="#313144"/>
<path d="M109.374 16.3497C109.902 16.3497 110.33 15.931 110.33 15.4145C110.33 14.8979 109.902 14.4792 109.374 14.4792C108.846 14.4792 108.418 14.8979 108.418 15.4145C108.418 15.931 108.846 16.3497 109.374 16.3497Z" fill="#313144"/>
<path d="M111.045 14.0475C111.576 14.0475 112.007 13.626 112.007 13.1058C112.007 12.5857 111.576 12.1641 111.045 12.1641C110.513 12.1641 110.083 12.5857 110.083 13.1058C110.083 13.626 110.513 14.0475 111.045 14.0475Z" fill="#313144"/>
<path d="M116.384 19.4429C116.915 19.4429 117.346 19.0213 117.346 18.5012C117.346 17.9811 116.915 17.5594 116.384 17.5594C115.852 17.5594 115.421 17.9811 115.421 18.5012C115.421 19.0213 115.852 19.4429 116.384 19.4429Z" fill="#313144"/>
<path d="M118.495 11.9745C118.89 11.9745 119.21 11.6612 119.21 11.2747C119.21 10.8882 118.89 10.575 118.495 10.575C118.1 10.575 117.78 10.8882 117.78 11.2747C117.78 11.6612 118.1 11.9745 118.495 11.9745Z" fill="#313144"/>
<path d="M109.802 11.2289C110.197 11.2289 110.517 10.9156 110.517 10.5292C110.517 10.1426 110.197 9.82935 109.802 9.82935C109.407 9.82935 109.087 10.1426 109.087 10.5292C109.087 10.9156 109.407 11.2289 109.802 11.2289Z" fill="#313144"/>
<path d="M117.687 4.83943C118.274 4.83943 118.749 4.37389 118.749 3.7996C118.749 3.22531 118.274 2.75977 117.687 2.75977C117.1 2.75977 116.625 3.22531 116.625 3.7996C116.625 4.37389 117.1 4.83943 117.687 4.83943Z" fill="#313144"/>
<path d="M104.389 18.5731C104.854 18.5731 105.231 18.2041 105.231 17.7491C105.231 17.294 104.854 16.925 104.389 16.925C103.924 16.925 103.547 17.294 103.547 17.7491C103.547 18.2041 103.924 18.5731 104.389 18.5731Z" fill="#313144"/>
<path d="M107.71 18.5731C108.175 18.5731 108.552 18.2041 108.552 17.7491C108.552 17.294 108.175 16.925 107.71 16.925C107.245 16.925 106.868 17.294 106.868 17.7491C106.868 18.2041 107.245 18.5731 107.71 18.5731Z" fill="#313144"/>
<path d="M106.053 16.4672C106.444 16.4672 106.761 16.1569 106.761 15.774C106.761 15.3911 106.444 15.0808 106.053 15.0808C105.661 15.0808 105.344 15.3911 105.344 15.774C105.344 16.1569 105.661 16.4672 106.053 16.4672Z" fill="#313144"/>
<path d="M103.167 20.7771C103.425 20.7771 103.634 20.5722 103.634 20.3193C103.634 20.0665 103.425 19.8616 103.167 19.8616C102.908 19.8616 102.699 20.0665 102.699 20.3193C102.699 20.5722 102.908 20.7771 103.167 20.7771Z" fill="#313144"/>
<path d="M108.933 20.7771C109.191 20.7771 109.4 20.5722 109.4 20.3193C109.4 20.0665 109.191 19.8616 108.933 19.8616C108.674 19.8616 108.465 20.0665 108.465 20.3193C108.465 20.5722 108.674 20.7771 108.933 20.7771Z" fill="#313144"/>
<path d="M106.053 20.8293C106.444 20.8293 106.761 20.5189 106.761 20.1361C106.761 19.7532 106.444 19.4429 106.053 19.4429C105.661 19.4429 105.344 19.7532 105.344 20.1361C105.344 20.5189 105.661 20.8293 106.053 20.8293Z" fill="#313144"/>
</g>
<defs>
<clipPath id="clip0_1948_6362">
<rect width="85" height="22" fill="white" transform="translate(92)"/>
</clipPath>
</defs>
</svg>
