<svg width="22" height="18" viewBox="0 0 22 18" fill="none" xmlns="http://www.w3.org/2000/svg">
<g clip-path="url(#clip0_3360_5204)">
<path d="M0.845943 11.1794C1.0157 11.1794 1.15331 11.0418 1.15331 10.872C1.15331 10.7023 1.0157 10.5647 0.845943 10.5647C0.676188 10.5647 0.538574 10.7023 0.538574 10.872C0.538574 11.0418 0.676188 11.1794 0.845943 11.1794Z" fill="#5158F6"/>
<path d="M5.11938 10.8076C5.28913 10.8076 5.42675 10.67 5.42675 10.5002C5.42675 10.3304 5.28913 10.1928 5.11938 10.1928C4.94963 10.1928 4.81201 10.3304 4.81201 10.5002C4.81201 10.67 4.94963 10.8076 5.11938 10.8076Z" fill="#5158F6"/>
<path d="M6.35376 12.5675C6.52351 12.5675 6.66113 12.4298 6.66113 12.2601C6.66113 12.0904 6.52351 11.9528 6.35376 11.9528C6.184 11.9528 6.04639 12.0904 6.04639 12.2601C6.04639 12.4298 6.184 12.5675 6.35376 12.5675Z" fill="#5158F6"/>
<path d="M9.99781 11.2785C10.1676 11.2785 10.3052 11.1409 10.3052 10.9711C10.3052 10.8014 10.1676 10.6638 9.99781 10.6638C9.82805 10.6638 9.69043 10.8014 9.69043 10.9711C9.69043 11.1409 9.82805 11.2785 9.99781 11.2785Z" fill="#5158F6"/>
<path d="M1.09399 1.80462C1.26375 1.80462 1.40136 1.667 1.40136 1.49725C1.40136 1.3275 1.26375 1.18988 1.09399 1.18988C0.924235 1.18988 0.786621 1.3275 0.786621 1.49725C0.786621 1.667 0.924235 1.80462 1.09399 1.80462Z" fill="#5158F6"/>
<path d="M1.41586 5.69136C1.67872 5.69136 1.8918 5.47827 1.8918 5.21543C1.8918 4.95258 1.67872 4.7395 1.41586 4.7395C1.15302 4.7395 0.939941 4.95258 0.939941 5.21543C0.939941 5.47827 1.15302 5.69136 1.41586 5.69136Z" fill="#5158F6"/>
<path d="M9.15003 10.1532C9.36903 10.1532 9.54665 9.9756 9.54665 9.7566C9.54665 9.53752 9.36903 9.35999 9.15003 9.35999C8.93096 9.35999 8.75342 9.53752 8.75342 9.7566C8.75342 9.9756 8.93096 10.1532 9.15003 10.1532Z" fill="#5158F6"/>
<path d="M1.15344 14.9868C1.37248 14.9868 1.55005 14.8093 1.55005 14.5902C1.55005 14.3712 1.37248 14.1936 1.15344 14.1936C0.934402 14.1936 0.756836 14.3712 0.756836 14.5902C0.756836 14.8093 0.934402 14.9868 1.15344 14.9868Z" fill="#5158F6"/>
<path d="M4.20727 12.8799C4.4482 12.8799 4.64353 12.6846 4.64353 12.4436C4.64353 12.2026 4.4482 12.0073 4.20727 12.0073C3.96632 12.0073 3.771 12.2026 3.771 12.4436C3.771 12.6846 3.96632 12.8799 4.20727 12.8799Z" fill="#5158F6"/>
<path d="M8.82254 16.2163C9.06346 16.2163 9.25877 16.0209 9.25877 15.78C9.25877 15.5391 9.06346 15.3438 8.82254 15.3438C8.58154 15.3438 8.38623 15.5391 8.38623 15.78C8.38623 16.0209 8.58154 16.2163 8.82254 16.2163Z" fill="#5158F6"/>
<path d="M7.58336 14.367C7.77502 14.367 7.93039 14.2117 7.93039 14.02C7.93039 13.8283 7.77502 13.673 7.58336 13.673C7.39171 13.673 7.23633 13.8283 7.23633 14.02C7.23633 14.2117 7.39171 14.367 7.58336 14.367Z" fill="#5158F6"/>
<path d="M2.39262 16.8806C2.68011 16.8806 2.91316 16.6475 2.91316 16.3601C2.91316 16.0725 2.68011 15.8395 2.39262 15.8395C2.10513 15.8395 1.87207 16.0725 1.87207 16.3601C1.87207 16.6475 2.10513 16.8806 2.39262 16.8806Z" fill="#5158F6"/>
<path d="M4.47004 3.99587C4.91086 3.99587 5.26821 3.63852 5.26821 3.19771C5.26821 2.75689 4.91086 2.39954 4.47004 2.39954C4.02923 2.39954 3.67188 2.75689 3.67188 3.19771C3.67188 3.63852 4.02923 3.99587 4.47004 3.99587Z" fill="#5158F6"/>
<path d="M3.22556 2.1219C3.70745 2.1219 4.0981 1.73125 4.0981 1.24936C4.0981 0.767477 3.70745 0.376831 3.22556 0.376831C2.74367 0.376831 2.35303 0.767477 2.35303 1.24936C2.35303 1.73125 2.74367 2.1219 3.22556 2.1219Z" fill="#5158F6"/>
<path d="M3.54792 5.95904C3.96135 5.95904 4.29651 5.62388 4.29651 5.21045C4.29651 4.79701 3.96135 4.46185 3.54792 4.46185C3.13448 4.46185 2.79932 4.79701 2.79932 5.21045C2.79932 5.62388 3.13448 5.95904 3.54792 5.95904Z" fill="#5158F6"/>
<path d="M5.70427 5.62686C6.13961 5.62686 6.49252 5.27395 6.49252 4.83861C6.49252 4.40326 6.13961 4.05035 5.70427 4.05035C5.26892 4.05035 4.91602 4.40326 4.91602 4.83861C4.91602 5.27395 5.26892 5.62686 5.70427 5.62686Z" fill="#5158F6"/>
<path d="M2.65541 7.71901C3.07158 7.71901 3.40896 7.38164 3.40896 6.96546C3.40896 6.54928 3.07158 6.21191 2.65541 6.21191C2.23923 6.21191 1.90186 6.54928 1.90186 6.96546C1.90186 7.38164 2.23923 7.71901 2.65541 7.71901Z" fill="#5158F6"/>
<path d="M4.79209 7.50587C5.1891 7.50587 5.51093 7.18403 5.51093 6.78702C5.51093 6.39001 5.1891 6.06818 4.79209 6.06818C4.39508 6.06818 4.07324 6.39001 4.07324 6.78702C4.07324 7.18403 4.39508 7.50587 4.79209 7.50587Z" fill="#5158F6"/>
<path d="M6.9435 7.22325C7.28849 7.22325 7.56816 6.94358 7.56816 6.59859C7.56816 6.25361 7.28849 5.97394 6.9435 5.97394C6.59851 5.97394 6.31885 6.25361 6.31885 6.59859C6.31885 6.94358 6.59851 7.22325 6.9435 7.22325Z" fill="#5158F6"/>
<path d="M6.03188 9.17653C6.37687 9.17653 6.65653 8.89684 6.65653 8.55184C6.65653 8.20684 6.37687 7.92719 6.03188 7.92719C5.6869 7.92719 5.40723 8.20684 5.40723 8.55184C5.40723 8.89684 5.6869 9.17653 6.03188 9.17653Z" fill="#5158F6"/>
<path d="M3.88002 9.36491C4.22502 9.36491 4.50468 9.08522 4.50468 8.74029C4.50468 8.39529 4.22502 8.1156 3.88002 8.1156C3.53504 8.1156 3.25537 8.39529 3.25537 8.74029C3.25537 9.08522 3.53504 9.36491 3.88002 9.36491Z" fill="#5158F6"/>
<path d="M2.97268 11.3926C3.36695 11.3926 3.68657 11.0729 3.68657 10.6787C3.68657 10.2844 3.36695 9.96478 2.97268 9.96478C2.57841 9.96478 2.25879 10.2844 2.25879 10.6787C2.25879 11.0729 2.57841 11.3926 2.97268 11.3926Z" fill="#5158F6"/>
<path d="M2.06523 13.2616C2.41569 13.2616 2.6998 12.9774 2.6998 12.627C2.6998 12.2765 2.41569 11.9924 2.06523 11.9924C1.71477 11.9924 1.43066 12.2765 1.43066 12.627C1.43066 12.9774 1.71477 13.2616 2.06523 13.2616Z" fill="#5158F6"/>
<path d="M8.49559 12.7708C8.88705 12.7708 9.20451 12.4534 9.20451 12.0618C9.20451 11.6703 8.88705 11.3529 8.49559 11.3529C8.10402 11.3529 7.78662 11.6703 7.78662 12.0618C7.78662 12.4534 8.10402 12.7708 8.49559 12.7708Z" fill="#5158F6"/>
<path d="M7.25099 11.0257C7.64527 11.0257 7.96489 10.7061 7.96489 10.3117C7.96489 9.91752 7.64527 9.5979 7.25099 9.5979C6.85672 9.5979 6.53711 9.91752 6.53711 10.3117C6.53711 10.7061 6.85672 11.0257 7.25099 11.0257Z" fill="#5158F6"/>
<path d="M3.29494 15.1158C3.68922 15.1158 4.00883 14.7962 4.00883 14.4018C4.00883 14.0075 3.68922 13.6879 3.29494 13.6879C2.90067 13.6879 2.58105 14.0075 2.58105 14.4018C2.58105 14.7962 2.90067 15.1158 3.29494 15.1158Z" fill="#5158F6"/>
<path d="M1.72333 9.45417C2.0163 9.45417 2.25379 9.21671 2.25379 8.92371C2.25379 8.63079 2.0163 8.39325 1.72333 8.39325C1.43037 8.39325 1.19287 8.63079 1.19287 8.92371C1.19287 9.21671 1.43037 9.45417 1.72333 9.45417Z" fill="#5158F6"/>
<path d="M8.17841 8.88897C8.4714 8.88897 8.70886 8.65151 8.70886 8.35851C8.70886 8.06556 8.4714 7.82806 8.17841 7.82806C7.88544 7.82806 7.64795 8.06556 7.64795 8.35851C7.64795 8.65151 7.88544 8.88897 8.17841 8.88897Z" fill="#5158F6"/>
<path d="M2.32829 4.04544C2.76363 4.04544 3.11655 3.69253 3.11655 3.25719C3.11655 2.82185 2.76363 2.46893 2.32829 2.46893C1.89295 2.46893 1.54004 2.82185 1.54004 3.25719C1.54004 3.69253 1.89295 4.04544 2.32829 4.04544Z" fill="#5158F6"/>
<path d="M10.8752 12.7707C11.1709 12.7707 11.4106 12.531 11.4106 12.2354C11.4106 11.9396 11.1709 11.6999 10.8752 11.6999C10.5795 11.6999 10.3398 11.9396 10.3398 12.2354C10.3398 12.531 10.5795 12.7707 10.8752 12.7707Z" fill="#5158F6"/>
<path d="M21.0779 11.1795C21.2476 11.1795 21.3852 11.0419 21.3852 10.8721C21.3852 10.7023 21.2476 10.5647 21.0779 10.5647C20.9081 10.5647 20.7705 10.7023 20.7705 10.8721C20.7705 11.0419 20.9081 11.1795 21.0779 11.1795Z" fill="#5158F6"/>
<path d="M16.7996 10.8076C16.9693 10.8076 17.107 10.67 17.107 10.5002C17.107 10.3304 16.9693 10.1928 16.7996 10.1928C16.6298 10.1928 16.4922 10.3304 16.4922 10.5002C16.4922 10.67 16.6298 10.8076 16.7996 10.8076Z" fill="#5158F6"/>
<path d="M15.57 12.5675C15.7398 12.5675 15.8774 12.4298 15.8774 12.2601C15.8774 12.0904 15.7398 11.9528 15.57 11.9528C15.4003 11.9528 15.2627 12.0904 15.2627 12.2601C15.2627 12.4298 15.4003 12.5675 15.57 12.5675Z" fill="#5158F6"/>
<path d="M11.926 11.2785C12.0957 11.2785 12.2333 11.1409 12.2333 10.9711C12.2333 10.8014 12.0957 10.6638 11.926 10.6638C11.7562 10.6638 11.6187 10.8014 11.6187 10.9711C11.6187 11.1409 11.7562 11.2785 11.926 11.2785Z" fill="#5158F6"/>
<path d="M20.8298 1.80462C20.9996 1.80462 21.1372 1.667 21.1372 1.49725C21.1372 1.3275 20.9996 1.18988 20.8298 1.18988C20.6601 1.18988 20.5225 1.3275 20.5225 1.49725C20.5225 1.667 20.6601 1.80462 20.8298 1.80462Z" fill="#5158F6"/>
<path d="M20.5077 5.69136C20.7705 5.69136 20.9836 5.47828 20.9836 5.21543C20.9836 4.95259 20.7705 4.7395 20.5077 4.7395C20.2448 4.7395 20.0317 4.95259 20.0317 5.21543C20.0317 5.47828 20.2448 5.69136 20.5077 5.69136Z" fill="#5158F6"/>
<path d="M12.774 10.1532C12.9931 10.1532 13.1706 9.9756 13.1706 9.7566C13.1706 9.53752 12.9931 9.35999 12.774 9.35999C12.555 9.35999 12.3774 9.53752 12.3774 9.7566C12.3774 9.9756 12.555 10.1532 12.774 10.1532Z" fill="#5158F6"/>
<path d="M20.7653 14.9868C20.9843 14.9868 21.1618 14.8093 21.1618 14.5902C21.1618 14.3712 20.9843 14.1936 20.7653 14.1936C20.5462 14.1936 20.3687 14.3712 20.3687 14.5902C20.3687 14.8093 20.5462 14.9868 20.7653 14.9868Z" fill="#5158F6"/>
<path d="M17.7116 12.8799C17.9525 12.8799 18.1479 12.6846 18.1479 12.4436C18.1479 12.2026 17.9525 12.0073 17.7116 12.0073C17.4707 12.0073 17.2754 12.2026 17.2754 12.4436C17.2754 12.6846 17.4707 12.8799 17.7116 12.8799Z" fill="#5158F6"/>
<path d="M13.1013 16.2163C13.3423 16.2163 13.5376 16.0209 13.5376 15.78C13.5376 15.5391 13.3423 15.3438 13.1013 15.3438C12.8603 15.3438 12.665 15.5391 12.665 15.78C12.665 16.0209 12.8603 16.2163 13.1013 16.2163Z" fill="#5158F6"/>
<path d="M14.3353 14.367C14.527 14.367 14.6823 14.2117 14.6823 14.02C14.6823 13.8283 14.527 13.673 14.3353 13.673C14.1436 13.673 13.9883 13.8283 13.9883 14.02C13.9883 14.2117 14.1436 14.367 14.3353 14.367Z" fill="#5158F6"/>
<path d="M19.5259 16.8806C19.8134 16.8806 20.0464 16.6475 20.0464 16.3601C20.0464 16.0725 19.8134 15.8395 19.5259 15.8395C19.2384 15.8395 19.0054 16.0725 19.0054 16.3601C19.0054 16.6475 19.2384 16.8806 19.5259 16.8806Z" fill="#5158F6"/>
<path d="M17.449 3.99587C17.8899 3.99587 18.2472 3.63852 18.2472 3.19771C18.2472 2.75689 17.8899 2.39954 17.449 2.39954C17.0083 2.39954 16.6509 2.75689 16.6509 3.19771C16.6509 3.63852 17.0083 3.99587 17.449 3.99587Z" fill="#5158F6"/>
<path d="M18.6933 2.1219C19.1752 2.1219 19.5659 1.73125 19.5659 1.24936C19.5659 0.767477 19.1752 0.376831 18.6933 0.376831C18.2114 0.376831 17.8208 0.767477 17.8208 1.24936C17.8208 1.73125 18.2114 2.1219 18.6933 2.1219Z" fill="#5158F6"/>
<path d="M18.3712 5.95904C18.7846 5.95904 19.1197 5.62388 19.1197 5.21045C19.1197 4.79701 18.7846 4.46185 18.3712 4.46185C17.9577 4.46185 17.6226 4.79701 17.6226 5.21045C17.6226 5.62388 17.9577 5.95904 18.3712 5.95904Z" fill="#5158F6"/>
<path d="M16.2194 5.62686C16.6548 5.62686 17.0076 5.27395 17.0076 4.83861C17.0076 4.40326 16.6548 4.05035 16.2194 4.05035C15.7841 4.05035 15.4312 4.40326 15.4312 4.83861C15.4312 5.27395 15.7841 5.62686 16.2194 5.62686Z" fill="#5158F6"/>
<path d="M19.2633 7.71901C19.6795 7.71901 20.0168 7.38164 20.0168 6.96546C20.0168 6.54928 19.6795 6.21191 19.2633 6.21191C18.8471 6.21191 18.5098 6.54928 18.5098 6.96546C18.5098 7.38164 18.8471 7.71901 19.2633 7.71901Z" fill="#5158F6"/>
<path d="M17.1314 7.50587C17.5284 7.50587 17.8503 7.18403 17.8503 6.78702C17.8503 6.39001 17.5284 6.06818 17.1314 6.06818C16.7344 6.06818 16.4126 6.39001 16.4126 6.78702C16.4126 7.18403 16.7344 7.50587 17.1314 7.50587Z" fill="#5158F6"/>
<path d="M14.9801 7.22325C15.3251 7.22325 15.6048 6.94358 15.6048 6.59859C15.6048 6.25361 15.3251 5.97394 14.9801 5.97394C14.6351 5.97394 14.3555 6.25361 14.3555 6.59859C14.3555 6.94358 14.6351 7.22325 14.9801 7.22325Z" fill="#5158F6"/>
<path d="M15.8873 9.17653C16.2323 9.17653 16.512 8.89684 16.512 8.55184C16.512 8.20684 16.2323 7.92719 15.8873 7.92719C15.5423 7.92719 15.2627 8.20684 15.2627 8.55184C15.2627 8.89684 15.5423 9.17653 15.8873 9.17653Z" fill="#5158F6"/>
<path d="M18.0436 9.36491C18.3886 9.36491 18.6683 9.08529 18.6683 8.74029C18.6683 8.39529 18.3886 8.1156 18.0436 8.1156C17.6986 8.1156 17.4189 8.39529 17.4189 8.74029C17.4189 9.08529 17.6986 9.36491 18.0436 9.36491Z" fill="#5158F6"/>
<path d="M18.9463 11.3926C19.3406 11.3926 19.6602 11.0729 19.6602 10.6787C19.6602 10.2844 19.3406 9.96478 18.9463 9.96478C18.552 9.96478 18.2324 10.2844 18.2324 10.6787C18.2324 11.0729 18.552 11.3926 18.9463 11.3926Z" fill="#5158F6"/>
<path d="M19.8533 13.2616C20.2038 13.2616 20.4879 12.9774 20.4879 12.627C20.4879 12.2765 20.2038 11.9924 19.8533 11.9924C19.5028 11.9924 19.2188 12.2765 19.2188 12.627C19.2188 12.9774 19.5028 13.2616 19.8533 13.2616Z" fill="#5158F6"/>
<path d="M13.4233 12.7708C13.8148 12.7708 14.1322 12.4534 14.1322 12.0618C14.1322 11.6703 13.8148 11.3529 13.4233 11.3529C13.0317 11.3529 12.7144 11.6703 12.7144 12.0618C12.7144 12.4534 13.0317 12.7708 13.4233 12.7708Z" fill="#5158F6"/>
<path d="M14.6675 11.0257C15.0618 11.0257 15.3814 10.7061 15.3814 10.3117C15.3814 9.91752 15.0618 9.5979 14.6675 9.5979C14.2732 9.5979 13.9536 9.91752 13.9536 10.3117C13.9536 10.7061 14.2732 11.0257 14.6675 11.0257Z" fill="#5158F6"/>
<path d="M18.629 15.1158C19.0232 15.1158 19.3428 14.7962 19.3428 14.4018C19.3428 14.0075 19.0232 13.6879 18.629 13.6879C18.2347 13.6879 17.915 14.0075 17.915 14.4018C17.915 14.7962 18.2347 15.1158 18.629 15.1158Z" fill="#5158F6"/>
<path d="M20.1955 9.45417C20.4884 9.45417 20.726 9.21671 20.726 8.92371C20.726 8.63079 20.4884 8.39325 20.1955 8.39325C19.9025 8.39325 19.665 8.63079 19.665 8.92371C19.665 9.21671 19.9025 9.45417 20.1955 9.45417Z" fill="#5158F6"/>
<path d="M13.7458 8.88897C14.0387 8.88897 14.2763 8.65151 14.2763 8.35851C14.2763 8.06556 14.0387 7.82806 13.7458 7.82806C13.4528 7.82806 13.2153 8.06556 13.2153 8.35851C13.2153 8.65151 13.4528 8.88897 13.7458 8.88897Z" fill="#5158F6"/>
<path d="M19.5954 4.04544C20.0307 4.04544 20.3837 3.69253 20.3837 3.25719C20.3837 2.82185 20.0307 2.46893 19.5954 2.46893C19.1601 2.46893 18.8071 2.82185 18.8071 3.25719C18.8071 3.69253 19.1601 4.04544 19.5954 4.04544Z" fill="#5158F6"/>
<path d="M11.0486 12.7707C11.3443 12.7707 11.584 12.531 11.584 12.2354C11.584 11.9396 11.3443 11.6999 11.0486 11.6999C10.753 11.6999 10.5132 11.9396 10.5132 12.2354C10.5132 12.531 10.753 12.7707 11.0486 12.7707Z" fill="#5158F6"/>
<path d="M10.9596 12.8601C11.3046 12.8601 11.5843 12.5804 11.5843 12.2354C11.5843 11.8904 11.3046 11.6108 10.9596 11.6108C10.6146 11.6108 10.335 11.8904 10.335 12.2354C10.335 12.5804 10.6146 12.8601 10.9596 12.8601Z" fill="#5158F6"/>
<path d="M10.9596 16.2658C11.3046 16.2658 11.5843 15.9862 11.5843 15.6412C11.5843 15.2962 11.3046 15.0165 10.9596 15.0165C10.6146 15.0165 10.335 15.2962 10.335 15.6412C10.335 15.9862 10.6146 16.2658 10.9596 16.2658Z" fill="#5158F6"/>
<path d="M9.72479 14.4563C10.0698 14.4563 10.3494 14.1767 10.3494 13.8317C10.3494 13.4867 10.0698 13.207 9.72479 13.207C9.37979 13.207 9.1001 13.4867 9.1001 13.8317C9.1001 14.1767 9.37979 14.4563 9.72479 14.4563Z" fill="#5158F6"/>
<path d="M12.194 14.4563C12.539 14.4563 12.8186 14.1767 12.8186 13.8317C12.8186 13.4867 12.539 13.207 12.194 13.207C11.849 13.207 11.5693 13.4867 11.5693 13.8317C11.5693 14.1767 11.849 14.4563 12.194 14.4563Z" fill="#5158F6"/>
<path d="M10.0519 17.8176C10.1997 17.8176 10.3196 17.6977 10.3196 17.5499C10.3196 17.402 10.1997 17.2822 10.0519 17.2822C9.90403 17.2822 9.78418 17.402 9.78418 17.5499C9.78418 17.6977 9.90403 17.8176 10.0519 17.8176Z" fill="#5158F6"/>
<path d="M11.8717 17.8176C12.0195 17.8176 12.1394 17.6977 12.1394 17.5499C12.1394 17.402 12.0195 17.2822 11.8717 17.2822C11.7238 17.2822 11.604 17.402 11.604 17.5499C11.604 17.6977 11.7238 17.8176 11.8717 17.8176Z" fill="#5158F6"/>
</g>
<defs>
<clipPath id="clip0_3360_5204">
<rect width="20.9231" height="17.4615" fill="white" transform="translate(0.538574 0.376831)"/>
</clipPath>
</defs>
</svg>
