<svg width="121" height="32" viewBox="0 0 121 32" fill="none" xmlns="http://www.w3.org/2000/svg">
<g clip-path="url(#clip0_3342_4057)">
<path d="M62.4081 13L62.3961 5.81198L58.8801 11.884H58.5801L55.0641 5.83598V13H54.4641V4.59998H54.9801L58.7361 11.092L62.4921 4.59998H62.9961L63.0081 13H62.4081ZM69.7048 13.06C68.6408 13.06 67.8128 12.752 67.2208 12.136C66.6368 11.52 66.3448 10.62 66.3448 9.43598V4.59998H66.9568V9.41198C66.9568 10.444 67.1928 11.216 67.6648 11.728C68.1368 12.24 68.8208 12.496 69.7168 12.496C70.6048 12.496 71.2848 12.24 71.7568 11.728C72.2288 11.216 72.4648 10.444 72.4648 9.41198V4.59998H73.0768V9.43598C73.0768 10.62 72.7808 11.52 72.1888 12.136C71.5968 12.752 70.7688 13.06 69.7048 13.06ZM79.9764 13.06C79.1524 13.06 78.4084 12.876 77.7444 12.508C77.0804 12.132 76.5564 11.62 76.1724 10.972C75.7964 10.324 75.6084 9.59998 75.6084 8.79998C75.6084 7.99998 75.7964 7.27598 76.1724 6.62798C76.5564 5.97998 77.0804 5.47198 77.7444 5.10398C78.4084 4.72798 79.1524 4.53998 79.9764 4.53998C80.8004 4.53998 81.5444 4.72398 82.2084 5.09198C82.8724 5.45998 83.3924 5.96798 83.7684 6.61598C84.1524 7.26398 84.3444 7.99198 84.3444 8.79998C84.3444 9.60798 84.1524 10.336 83.7684 10.984C83.3924 11.632 82.8724 12.14 82.2084 12.508C81.5444 12.876 80.8004 13.06 79.9764 13.06ZM79.9764 12.496C80.6804 12.496 81.3164 12.336 81.8844 12.016C82.4524 11.696 82.9004 11.256 83.2284 10.696C83.5564 10.128 83.7204 9.49598 83.7204 8.79998C83.7204 8.10398 83.5564 7.47598 83.2284 6.91598C82.9004 6.34798 82.4524 5.90398 81.8844 5.58398C81.3164 5.26398 80.6804 5.10398 79.9764 5.10398C79.2724 5.10398 78.6324 5.26398 78.0564 5.58398C77.4884 5.90398 77.0404 6.34798 76.7124 6.91598C76.3844 7.47598 76.2204 8.10398 76.2204 8.79998C76.2204 9.49598 76.3844 10.128 76.7124 10.696C77.0404 11.256 77.4884 11.696 78.0564 12.016C78.6324 12.336 79.2724 12.496 79.9764 12.496ZM93.7871 4.59998V13H93.2831L87.5591 5.70398V13H86.9471V4.59998H87.4631L93.1751 11.896V4.59998H93.7871ZM61.3041 19.6V28H60.8001L55.0761 20.704V28H54.4641V19.6H54.9801L60.6921 26.896V19.6H61.3041ZM70.5135 27.448V28H64.7175V19.6H70.3335V20.152H65.3295V23.464H69.8055V24.004H65.3295V27.448H70.5135ZM74.8329 20.152H71.8089V19.6H78.4689V20.152H75.4449V28H74.8329V20.152ZM91.6634 19.6L88.8194 28H88.1714L85.5674 20.464L82.9514 28H82.3034L79.4474 19.6H80.0954L82.6514 27.16L85.2794 19.6H85.8674L88.4834 27.172L91.0634 19.6H91.6634ZM97.3895 28.06C96.5655 28.06 95.8215 27.876 95.1575 27.508C94.4935 27.132 93.9695 26.62 93.5855 25.972C93.2095 25.324 93.0215 24.6 93.0215 23.8C93.0215 23 93.2095 22.276 93.5855 21.628C93.9695 20.98 94.4935 20.472 95.1575 20.104C95.8215 19.728 96.5655 19.54 97.3895 19.54C98.2135 19.54 98.9575 19.724 99.6215 20.092C100.285 20.46 100.805 20.968 101.181 21.616C101.565 22.264 101.757 22.992 101.757 23.8C101.757 24.608 101.565 25.336 101.181 25.984C100.805 26.632 100.285 27.14 99.6215 27.508C98.9575 27.876 98.2135 28.06 97.3895 28.06ZM97.3895 27.496C98.0935 27.496 98.7295 27.336 99.2975 27.016C99.8655 26.696 100.313 26.256 100.641 25.696C100.969 25.128 101.133 24.496 101.133 23.8C101.133 23.104 100.969 22.476 100.641 21.916C100.313 21.348 99.8655 20.904 99.2975 20.584C98.7295 20.264 98.0935 20.104 97.3895 20.104C96.6855 20.104 96.0455 20.264 95.4695 20.584C94.9015 20.904 94.4535 21.348 94.1255 21.916C93.7975 22.476 93.6335 23.104 93.6335 23.8C93.6335 24.496 93.7975 25.128 94.1255 25.696C94.4535 26.256 94.9015 26.696 95.4695 27.016C96.0455 27.336 96.6855 27.496 97.3895 27.496ZM110.192 28L108.188 25.192C107.892 25.232 107.62 25.252 107.372 25.252H104.972V28H104.36V19.6H107.372C108.428 19.6 109.256 19.852 109.856 20.356C110.456 20.852 110.756 21.544 110.756 22.432C110.756 23.096 110.584 23.656 110.24 24.112C109.904 24.56 109.42 24.876 108.788 25.06L110.888 28H110.192ZM107.372 24.712C108.268 24.712 108.952 24.516 109.424 24.124C109.896 23.724 110.132 23.16 110.132 22.432C110.132 21.704 109.896 21.144 109.424 20.752C108.952 20.352 108.268 20.152 107.372 20.152H104.972V24.712H107.372ZM115.973 23.86L114.089 25.792V28H113.477V19.6H114.089V25L119.333 19.6H120.077L116.381 23.416L120.329 28H119.585L115.973 23.86Z" fill="#5551FF"/>
<path d="M0.589774 20.7277C0.915497 20.7277 1.17955 20.4637 1.17955 20.1379C1.17955 19.8122 0.915497 19.5482 0.589774 19.5482C0.264051 19.5482 0 19.8122 0 20.1379C0 20.4637 0.264051 20.7277 0.589774 20.7277Z" fill="#313144"/>
<path d="M8.78924 20.0143C9.11496 20.0143 9.37901 19.7502 9.37901 19.4245C9.37901 19.0988 9.11496 18.8347 8.78924 18.8347C8.46352 18.8347 8.19946 19.0988 8.19946 19.4245C8.19946 19.7502 8.46352 20.0143 8.78924 20.0143Z" fill="#313144"/>
<path d="M11.1584 23.3912C11.4841 23.3912 11.7482 23.1272 11.7482 22.8014C11.7482 22.4757 11.4841 22.2117 11.1584 22.2117C10.8327 22.2117 10.5686 22.4757 10.5686 22.8014C10.5686 23.1272 10.8327 23.3912 11.1584 23.3912Z" fill="#313144"/>
<path d="M18.1501 20.9179C18.4758 20.9179 18.7399 20.6539 18.7399 20.3282C18.7399 20.0025 18.4758 19.7384 18.1501 19.7384C17.8244 19.7384 17.5603 20.0025 17.5603 20.3282C17.5603 20.6539 17.8244 20.9179 18.1501 20.9179Z" fill="#313144"/>
<path d="M1.06536 2.73967C1.39108 2.73967 1.65513 2.47562 1.65513 2.14989C1.65513 1.82417 1.39108 1.56012 1.06536 1.56012C0.739637 1.56012 0.475586 1.82417 0.475586 2.14989C0.475586 2.47562 0.739637 2.73967 1.06536 2.73967Z" fill="#313144"/>
<path d="M1.68419 10.1974C2.18854 10.1974 2.59739 9.78851 2.59739 9.28417C2.59739 8.77982 2.18854 8.37097 1.68419 8.37097C1.17985 8.37097 0.770996 8.77982 0.770996 9.28417C0.770996 9.78851 1.17985 10.1974 1.68419 10.1974Z" fill="#313144"/>
<path d="M16.523 18.7586C16.9432 18.7586 17.284 18.4179 17.284 17.9976C17.284 17.5773 16.9432 17.2366 16.523 17.2366C16.1027 17.2366 15.762 17.5773 15.762 17.9976C15.762 18.4179 16.1027 18.7586 16.523 18.7586Z" fill="#313144"/>
<path d="M1.17921 28.0333C1.5995 28.0333 1.94021 27.6926 1.94021 27.2724C1.94021 26.8521 1.5995 26.5114 1.17921 26.5114C0.758924 26.5114 0.418213 26.8521 0.418213 27.2724C0.418213 27.6926 0.758924 28.0333 1.17921 28.0333Z" fill="#313144"/>
<path d="M7.04877 23.9904C7.51109 23.9904 7.88587 23.6156 7.88587 23.1533C7.88587 22.691 7.51109 22.3162 7.04877 22.3162C6.58645 22.3162 6.21167 22.691 6.21167 23.1533C6.21167 23.6156 6.58645 23.9904 7.04877 23.9904Z" fill="#313144"/>
<path d="M13.5177 26.8443C13.8854 26.8443 14.1835 26.5461 14.1835 26.1784C14.1835 25.8106 13.8854 25.5125 13.5177 25.5125C13.1499 25.5125 12.8518 25.8106 12.8518 26.1784C12.8518 26.5461 13.1499 26.8443 13.5177 26.8443Z" fill="#313144"/>
<path d="M3.56717 31.6671C4.1188 31.6671 4.56598 31.22 4.56598 30.6683C4.56598 30.1167 4.1188 29.6695 3.56717 29.6695C3.01554 29.6695 2.56836 30.1167 2.56836 30.6683C2.56836 31.22 3.01554 31.6671 3.56717 31.6671Z" fill="#313144"/>
<path d="M7.54323 6.94407C8.38906 6.94407 9.07474 6.25838 9.07474 5.41255C9.07474 4.56672 8.38906 3.88104 7.54323 3.88104C6.6974 3.88104 6.01172 4.56672 6.01172 5.41255C6.01172 6.25838 6.6974 6.94407 7.54323 6.94407Z" fill="#313144"/>
<path d="M5.16492 3.3484C6.08956 3.3484 6.83912 2.59883 6.83912 1.6742C6.83912 0.749564 6.08956 0 5.16492 0C4.24029 0 3.49072 0.749564 3.49072 1.6742C3.49072 2.59883 4.24029 3.3484 5.16492 3.3484Z" fill="#313144"/>
<path d="M5.78355 10.7111C6.57685 10.7111 7.21994 10.0681 7.21994 9.27476C7.21994 8.48147 6.57685 7.83838 5.78355 7.83838C4.99026 7.83838 4.34717 8.48147 4.34717 9.27476C4.34717 10.0681 4.99026 10.7111 5.78355 10.7111Z" fill="#313144"/>
<path d="M9.91238 10.0737C10.7477 10.0737 11.4249 9.39651 11.4249 8.56119C11.4249 7.72587 10.7477 7.04871 9.91238 7.04871C9.07706 7.04871 8.3999 7.72587 8.3999 8.56119C8.3999 9.39651 9.07706 10.0737 9.91238 10.0737Z" fill="#313144"/>
<path d="M4.06162 14.088C4.86017 14.088 5.50752 13.4407 5.50752 12.6421C5.50752 11.8436 4.86017 11.1962 4.06162 11.1962C3.26308 11.1962 2.61572 11.8436 2.61572 12.6421C2.61572 13.4407 3.26308 14.088 4.06162 14.088Z" fill="#313144"/>
<path d="M8.16178 13.6789C8.92355 13.6789 9.54109 13.0614 9.54109 12.2996C9.54109 11.5378 8.92355 10.9203 8.16178 10.9203C7.40001 10.9203 6.78247 11.5378 6.78247 12.2996C6.78247 13.0614 7.40001 13.6789 8.16178 13.6789Z" fill="#313144"/>
<path d="M12.2904 13.1368C12.9523 13.1368 13.4889 12.6002 13.4889 11.9383C13.4889 11.2763 12.9523 10.7397 12.2904 10.7397C11.6284 10.7397 11.0918 11.2763 11.0918 11.9383C11.0918 12.6002 11.6284 13.1368 12.2904 13.1368Z" fill="#313144"/>
<path d="M10.5494 16.8846C11.2114 16.8846 11.748 16.348 11.748 15.6861C11.748 15.0241 11.2114 14.4875 10.5494 14.4875C9.88745 14.4875 9.35083 15.0241 9.35083 15.6861C9.35083 16.348 9.88745 16.8846 10.5494 16.8846Z" fill="#313144"/>
<path d="M6.41147 17.2461C7.07342 17.2461 7.61004 16.7095 7.61004 16.0475C7.61004 15.3856 7.07342 14.8489 6.41147 14.8489C5.74951 14.8489 5.21289 15.3856 5.21289 16.0475C5.21289 16.7095 5.74951 17.2461 6.41147 17.2461Z" fill="#313144"/>
<path d="M4.6801 21.1368C5.43662 21.1368 6.0499 20.5235 6.0499 19.767C6.0499 19.0105 5.43662 18.3972 4.6801 18.3972C3.92358 18.3972 3.3103 19.0105 3.3103 19.767C3.3103 20.5235 3.92358 21.1368 4.6801 21.1368Z" fill="#313144"/>
<path d="M2.92976 24.7229C3.60222 24.7229 4.14735 24.1778 4.14735 23.5053C4.14735 22.8329 3.60222 22.2877 2.92976 22.2877C2.2573 22.2877 1.71216 22.8329 1.71216 23.5053C1.71216 24.1778 2.2573 24.7229 2.92976 24.7229Z" fill="#313144"/>
<path d="M15.2673 23.7813C16.0186 23.7813 16.6276 23.1723 16.6276 22.421C16.6276 21.6697 16.0186 21.0607 15.2673 21.0607C14.516 21.0607 13.907 21.6697 13.907 22.421C13.907 23.1723 14.516 23.7813 15.2673 23.7813Z" fill="#313144"/>
<path d="M12.8898 20.4328C13.6463 20.4328 14.2596 19.8196 14.2596 19.063C14.2596 18.3065 13.6463 17.6932 12.8898 17.6932C12.1333 17.6932 11.52 18.3065 11.52 19.063C11.52 19.8196 12.1333 20.4328 12.8898 20.4328Z" fill="#313144"/>
<path d="M5.28874 28.2806C6.04526 28.2806 6.65854 27.6673 6.65854 26.9108C6.65854 26.1543 6.04526 25.541 5.28874 25.541C4.53223 25.541 3.91895 26.1543 3.91895 26.9108C3.91895 27.6673 4.53223 28.2806 5.28874 28.2806Z" fill="#313144"/>
<path d="M2.28321 17.4174C2.84535 17.4174 3.30105 16.9617 3.30105 16.3995C3.30105 15.8374 2.84535 15.3817 2.28321 15.3817C1.72108 15.3817 1.26538 15.8374 1.26538 16.3995C1.26538 16.9617 1.72108 17.4174 2.28321 17.4174Z" fill="#313144"/>
<path d="M14.6585 16.3329C15.2206 16.3329 15.6763 15.8772 15.6763 15.3151C15.6763 14.7529 15.2206 14.2972 14.6585 14.2972C14.0963 14.2972 13.6406 14.7529 13.6406 15.3151C13.6406 15.8772 14.0963 16.3329 14.6585 16.3329Z" fill="#313144"/>
<path d="M3.43387 7.03925C4.26919 7.03925 4.94636 6.36209 4.94636 5.52677C4.94636 4.69144 4.26919 4.01428 3.43387 4.01428C2.59855 4.01428 1.92139 4.69144 1.92139 5.52677C1.92139 6.36209 2.59855 7.03925 3.43387 7.03925Z" fill="#313144"/>
<path d="M39.4106 20.7277C39.7363 20.7277 40.0003 20.4637 40.0003 20.1379C40.0003 19.8122 39.7363 19.5482 39.4106 19.5482C39.0848 19.5482 38.8208 19.8122 38.8208 20.1379C38.8208 20.4637 39.0848 20.7277 39.4106 20.7277Z" fill="#313144"/>
<path d="M31.2101 20.0143C31.5359 20.0143 31.7999 19.7502 31.7999 19.4245C31.7999 19.0988 31.5359 18.8347 31.2101 18.8347C30.8844 18.8347 30.6204 19.0988 30.6204 19.4245C30.6204 19.7502 30.8844 20.0143 31.2101 20.0143Z" fill="#313144"/>
<path d="M28.842 23.3912C29.1677 23.3912 29.4317 23.1272 29.4317 22.8014C29.4317 22.4757 29.1677 22.2117 28.842 22.2117C28.5162 22.2117 28.2522 22.4757 28.2522 22.8014C28.2522 23.1272 28.5162 23.3912 28.842 23.3912Z" fill="#313144"/>
<path d="M21.8503 20.9179C22.176 20.9179 22.44 20.6539 22.44 20.3282C22.44 20.0025 22.176 19.7384 21.8503 19.7384C21.5245 19.7384 21.2605 20.0025 21.2605 20.3282C21.2605 20.6539 21.5245 20.9179 21.8503 20.9179Z" fill="#313144"/>
<path d="M38.935 2.73967C39.2607 2.73967 39.5247 2.47562 39.5247 2.14989C39.5247 1.82417 39.2607 1.56012 38.935 1.56012C38.6092 1.56012 38.3452 1.82417 38.3452 2.14989C38.3452 2.47562 38.6092 2.73967 38.935 2.73967Z" fill="#313144"/>
<path d="M38.3162 10.1974C38.8206 10.1974 39.2294 9.78851 39.2294 9.28417C39.2294 8.77982 38.8206 8.37097 38.3162 8.37097C37.8119 8.37097 37.4031 8.77982 37.4031 9.28417C37.4031 9.78851 37.8119 10.1974 38.3162 10.1974Z" fill="#313144"/>
<path d="M23.4768 18.7586C23.8971 18.7586 24.2378 18.4179 24.2378 17.9976C24.2378 17.5773 23.8971 17.2366 23.4768 17.2366C23.0566 17.2366 22.7158 17.5773 22.7158 17.9976C22.7158 18.4179 23.0566 18.7586 23.4768 18.7586Z" fill="#313144"/>
<path d="M38.8208 28.0333C39.2411 28.0333 39.5818 27.6926 39.5818 27.2724C39.5818 26.8521 39.2411 26.5114 38.8208 26.5114C38.4005 26.5114 38.0598 26.8521 38.0598 27.2724C38.0598 27.6926 38.4005 28.0333 38.8208 28.0333Z" fill="#313144"/>
<path d="M32.9516 23.9904C33.4139 23.9904 33.7887 23.6156 33.7887 23.1533C33.7887 22.691 33.4139 22.3162 32.9516 22.3162C32.4893 22.3162 32.1145 22.691 32.1145 23.1533C32.1145 23.6156 32.4893 23.9904 32.9516 23.9904Z" fill="#313144"/>
<path d="M26.4823 26.8443C26.8501 26.8443 27.1482 26.5461 27.1482 26.1784C27.1482 25.8106 26.8501 25.5125 26.4823 25.5125C26.1145 25.5125 25.8164 25.8106 25.8164 26.1784C25.8164 26.5461 26.1145 26.8443 26.4823 26.8443Z" fill="#313144"/>
<path d="M36.4329 31.6671C36.9845 31.6671 37.4317 31.22 37.4317 30.6683C37.4317 30.1167 36.9845 29.6695 36.4329 29.6695C35.8812 29.6695 35.4341 30.1167 35.4341 30.6683C35.4341 31.22 35.8812 31.6671 36.4329 31.6671Z" fill="#313144"/>
<path d="M32.4568 6.94407C33.3027 6.94407 33.9883 6.25838 33.9883 5.41255C33.9883 4.56672 33.3027 3.88104 32.4568 3.88104C31.611 3.88104 30.9253 4.56672 30.9253 5.41255C30.9253 6.25838 31.611 6.94407 32.4568 6.94407Z" fill="#313144"/>
<path d="M34.8351 3.3484C35.7597 3.3484 36.5093 2.59883 36.5093 1.6742C36.5093 0.749564 35.7597 0 34.8351 0C33.9105 0 33.1609 0.749564 33.1609 1.6742C33.1609 2.59883 33.9105 3.3484 34.8351 3.3484Z" fill="#313144"/>
<path d="M34.2167 10.7111C35.0099 10.7111 35.653 10.0681 35.653 9.27476C35.653 8.48147 35.0099 7.83838 34.2167 7.83838C33.4234 7.83838 32.7803 8.48147 32.7803 9.27476C32.7803 10.0681 33.4234 10.7111 34.2167 10.7111Z" fill="#313144"/>
<path d="M30.0877 10.0737C30.923 10.0737 31.6002 9.39651 31.6002 8.56119C31.6002 7.72587 30.923 7.04871 30.0877 7.04871C29.2524 7.04871 28.5752 7.72587 28.5752 8.56119C28.5752 9.39651 29.2524 10.0737 30.0877 10.0737Z" fill="#313144"/>
<path d="M35.9386 14.088C36.7371 14.088 37.3845 13.4407 37.3845 12.6421C37.3845 11.8436 36.7371 11.1962 35.9386 11.1962C35.14 11.1962 34.4927 11.8436 34.4927 12.6421C34.4927 13.4407 35.14 14.088 35.9386 14.088Z" fill="#313144"/>
<path d="M31.838 13.6789C32.5998 13.6789 33.2174 13.0614 33.2174 12.2996C33.2174 11.5378 32.5998 10.9203 31.838 10.9203C31.0763 10.9203 30.4587 11.5378 30.4587 12.2996C30.4587 13.0614 31.0763 13.6789 31.838 13.6789Z" fill="#313144"/>
<path d="M27.7096 13.1368C28.3715 13.1368 28.9082 12.6002 28.9082 11.9383C28.9082 11.2763 28.3715 10.7397 27.7096 10.7397C27.0476 10.7397 26.511 11.2763 26.511 11.9383C26.511 12.6002 27.0476 13.1368 27.7096 13.1368Z" fill="#313144"/>
<path d="M29.4507 16.8846C30.1127 16.8846 30.6493 16.348 30.6493 15.6861C30.6493 15.0241 30.1127 14.4875 29.4507 14.4875C28.7888 14.4875 28.2522 15.0241 28.2522 15.6861C28.2522 16.348 28.7888 16.8846 29.4507 16.8846Z" fill="#313144"/>
<path d="M33.5885 17.2461C34.2504 17.2461 34.7871 16.7095 34.7871 16.0475C34.7871 15.3856 34.2504 14.8489 33.5885 14.8489C32.9265 14.8489 32.3899 15.3856 32.3899 16.0475C32.3899 16.7095 32.9265 17.2461 33.5885 17.2461Z" fill="#313144"/>
<path d="M35.3195 21.1368C36.076 21.1368 36.6893 20.5235 36.6893 19.767C36.6893 19.0105 36.076 18.3972 35.3195 18.3972C34.563 18.3972 33.9497 19.0105 33.9497 19.767C33.9497 20.5235 34.563 21.1368 35.3195 21.1368Z" fill="#313144"/>
<path d="M37.0699 24.7229C37.7423 24.7229 38.2875 24.1778 38.2875 23.5053C38.2875 22.8329 37.7423 22.2877 37.0699 22.2877C36.3974 22.2877 35.8523 22.8329 35.8523 23.5053C35.8523 24.1778 36.3974 24.7229 37.0699 24.7229Z" fill="#313144"/>
<path d="M24.7321 23.7813C25.4834 23.7813 26.0924 23.1723 26.0924 22.421C26.0924 21.6697 25.4834 21.0607 24.7321 21.0607C23.9809 21.0607 23.3718 21.6697 23.3718 22.421C23.3718 23.1723 23.9809 23.7813 24.7321 23.7813Z" fill="#313144"/>
<path d="M27.111 20.4328C27.8675 20.4328 28.4808 19.8196 28.4808 19.063C28.4808 18.3065 27.8675 17.6932 27.111 17.6932C26.3545 17.6932 25.7412 18.3065 25.7412 19.063C25.7412 19.8196 26.3545 20.4328 27.111 20.4328Z" fill="#313144"/>
<path d="M34.7111 28.2806C35.4676 28.2806 36.0809 27.6673 36.0809 26.9108C36.0809 26.1543 35.4676 25.541 34.7111 25.541C33.9546 25.541 33.3413 26.1543 33.3413 26.9108C33.3413 27.6673 33.9546 28.2806 34.7111 28.2806Z" fill="#313144"/>
<path d="M37.7171 17.4174C38.2792 17.4174 38.7349 16.9617 38.7349 16.3995C38.7349 15.8374 38.2792 15.3817 37.7171 15.3817C37.1549 15.3817 36.6992 15.8374 36.6992 16.3995C36.6992 16.9617 37.1549 17.4174 37.7171 17.4174Z" fill="#313144"/>
<path d="M25.3413 16.3329C25.9034 16.3329 26.3591 15.8772 26.3591 15.3151C26.3591 14.7529 25.9034 14.2972 25.3413 14.2972C24.7792 14.2972 24.3235 14.7529 24.3235 15.3151C24.3235 15.8772 24.7792 16.3329 25.3413 16.3329Z" fill="#313144"/>
<path d="M36.566 7.03925C37.4013 7.03925 38.0784 6.36209 38.0784 5.52677C38.0784 4.69144 37.4013 4.01428 36.566 4.01428C35.7306 4.01428 35.0535 4.69144 35.0535 5.52677C35.0535 6.36209 35.7306 7.03925 36.566 7.03925Z" fill="#313144"/>
<path d="M17.6363 27.0154C18.2983 27.0154 18.8349 26.4788 18.8349 25.8169C18.8349 25.1549 18.2983 24.6183 17.6363 24.6183C16.9744 24.6183 16.4377 25.1549 16.4377 25.8169C16.4377 26.4788 16.9744 27.0154 17.6363 27.0154Z" fill="#313144"/>
<path d="M22.3639 27.0154C23.0258 27.0154 23.5624 26.4788 23.5624 25.8169C23.5624 25.1549 23.0258 24.6183 22.3639 24.6183C21.7019 24.6183 21.1653 25.1549 21.1653 25.8169C21.1653 26.4788 21.7019 27.0154 22.3639 27.0154Z" fill="#313144"/>
<path d="M20.0044 23.9523C20.5613 23.9523 21.0128 23.5009 21.0128 22.944C21.0128 22.3871 20.5613 21.9357 20.0044 21.9357C19.4476 21.9357 18.9961 22.3871 18.9961 22.944C18.9961 23.5009 19.4476 23.9523 20.0044 23.9523Z" fill="#313144"/>
<path d="M15.8956 30.2212C16.2634 30.2212 16.5615 29.9231 16.5615 29.5553C16.5615 29.1876 16.2634 28.8895 15.8956 28.8895C15.5279 28.8895 15.2297 29.1876 15.2297 29.5553C15.2297 29.9231 15.5279 30.2212 15.8956 30.2212Z" fill="#313144"/>
<path d="M24.1043 30.2212C24.4721 30.2212 24.7702 29.9231 24.7702 29.5553C24.7702 29.1876 24.4721 28.8895 24.1043 28.8895C23.7366 28.8895 23.4385 29.1876 23.4385 29.5553C23.4385 29.9231 23.7366 30.2212 24.1043 30.2212Z" fill="#313144"/>
<path d="M20.0044 30.2972C20.5613 30.2972 21.0128 29.8458 21.0128 29.2889C21.0128 28.732 20.5613 28.2806 20.0044 28.2806C19.4476 28.2806 18.9961 28.732 18.9961 29.2889C18.9961 29.8458 19.4476 30.2972 20.0044 30.2972Z" fill="#313144"/>
</g>
<defs>
<clipPath id="clip0_3342_4057">
<rect width="121" height="32" fill="white"/>
</clipPath>
</defs>
</svg>
