<svg width="162" height="48" viewBox="0 0 162 48" fill="none" xmlns="http://www.w3.org/2000/svg">
<path d="M156.236 48H5.6748C2.5464 48 0 45.4464 0 42.3204V5.6712C0 2.544 2.5464 0 5.6748 0H156.236C159.364 0 162 2.544 162 5.6712V42.3204C162 45.4464 159.364 48 156.236 48Z" fill="#A6A6A6"/>
<path d="M160.838 42.3215C160.838 44.8607 158.781 46.9175 156.237 46.9175H5.67467C3.13187 46.9175 1.06787 44.8607 1.06787 42.3215V5.66987C1.06787 3.13187 3.13187 1.06787 5.67467 1.06787H156.236C158.781 1.06787 160.837 3.13187 160.837 5.66987L160.838 42.3215Z" fill="black"/>
<path d="M36.1534 23.7409C36.1186 19.8733 39.3202 17.9917 39.4666 17.9041C37.6534 15.2605 34.843 14.8993 33.8554 14.8705C31.495 14.6221 29.2054 16.2829 28.003 16.2829C26.7766 16.2829 24.925 14.8945 22.9294 14.9353C20.3614 14.9749 17.959 16.4617 16.6414 18.7705C13.9222 23.4781 15.9502 30.3961 18.5554 34.2013C19.8586 36.0649 21.3814 38.1457 23.3746 38.0725C25.3246 37.9921 26.053 36.8293 28.4062 36.8293C30.7378 36.8293 31.4218 38.0725 33.4546 38.0257C35.5474 37.9921 36.865 36.1537 38.1226 34.2733C39.6286 32.1373 40.2334 30.0337 40.2574 29.9257C40.2082 29.9089 36.193 28.3765 36.1534 23.7409Z" fill="white"/>
<path d="M32.3135 12.3672C33.3623 11.0556 34.0799 9.27125 33.8807 7.46045C32.3627 7.52765 30.4643 8.51045 29.3711 9.79325C28.4039 10.9236 27.5399 12.7764 27.7631 14.5188C29.4683 14.646 31.2191 13.6584 32.3135 12.3672Z" fill="white"/>
<path d="M64.3741 37.8046H61.6489L60.1561 33.1138H54.9673L53.5453 37.8046H50.8921L56.0329 21.835H59.2081L64.3741 37.8046ZM59.7061 31.1458L58.3561 26.9758C58.2133 26.5498 57.9457 25.5466 57.5509 23.9674H57.5029C57.3457 24.6466 57.0925 25.6498 56.7445 26.9758L55.4185 31.1458H59.7061Z" fill="white"/>
<path d="M77.5946 31.9056C77.5946 33.864 77.0654 35.412 76.007 36.5484C75.059 37.56 73.8818 38.0652 72.4766 38.0652C70.9598 38.0652 69.8702 37.5204 69.2066 36.4308H69.1586V42.4968H66.6002V30.0804C66.6002 28.8492 66.5678 27.5856 66.5054 26.2896H68.7554L68.8982 28.1148H68.9462C69.7994 26.7396 71.0942 26.0532 72.8318 26.0532C74.1902 26.0532 75.3242 26.5896 76.2314 27.6636C77.141 28.7388 77.5946 30.1524 77.5946 31.9056ZM74.9882 31.9992C74.9882 30.8784 74.7362 29.9544 74.2298 29.2272C73.6766 28.4688 72.9338 28.0896 72.0026 28.0896C71.3714 28.0896 70.7978 28.3008 70.2854 28.7172C69.7718 29.1372 69.4358 29.6856 69.2786 30.3648C69.1994 30.6816 69.1598 30.9408 69.1598 31.1448V33.0648C69.1598 33.9024 69.4166 34.6092 69.9302 35.1864C70.4438 35.7636 71.111 36.0516 71.9318 36.0516C72.8954 36.0516 73.6454 35.6796 74.1818 34.938C74.7194 34.1952 74.9882 33.216 74.9882 31.9992Z" fill="white"/>
<path d="M90.839 31.9056C90.839 33.864 90.3098 35.412 89.2502 36.5484C88.3034 37.56 87.1262 38.0652 85.721 38.0652C84.2042 38.0652 83.1146 37.5204 82.4522 36.4308H82.4042V42.4968H79.8458V30.0804C79.8458 28.8492 79.8134 27.5856 79.751 26.2896H82.001L82.1438 28.1148H82.1918C83.0438 26.7396 84.3386 26.0532 86.0774 26.0532C87.4346 26.0532 88.5686 26.5896 89.4782 27.6636C90.3842 28.7388 90.839 30.1524 90.839 31.9056ZM88.2326 31.9992C88.2326 30.8784 87.9794 29.9544 87.473 29.2272C86.9198 28.4688 86.1794 28.0896 85.247 28.0896C84.6146 28.0896 84.0422 28.3008 83.5286 28.7172C83.015 29.1372 82.6802 29.6856 82.523 30.3648C82.445 30.6816 82.4042 30.9408 82.4042 31.1448V33.0648C82.4042 33.9024 82.661 34.6092 83.1722 35.1864C83.6858 35.7624 84.353 36.0516 85.1762 36.0516C86.1398 36.0516 86.8898 35.6796 87.4262 34.938C87.9638 34.1952 88.2326 33.216 88.2326 31.9992Z" fill="white"/>
<path d="M105.647 33.3263C105.647 34.6847 105.175 35.7899 104.229 36.6431C103.188 37.5755 101.74 38.0411 99.8786 38.0411C98.1602 38.0411 96.7825 37.7099 95.7397 37.0463L96.3326 34.9139C97.4558 35.5931 98.6882 35.9339 100.031 35.9339C100.995 35.9339 101.745 35.7155 102.283 35.2811C102.82 34.8467 103.087 34.2635 103.087 33.5363C103.087 32.8883 102.867 32.3423 102.424 31.8995C101.983 31.4567 101.248 31.0451 100.221 30.6647C97.4245 29.6219 96.0278 28.0943 96.0278 26.0855C96.0278 24.7727 96.5174 23.6963 97.4978 22.8587C98.4746 22.0199 99.7777 21.6011 101.407 21.6011C102.861 21.6011 104.068 21.8543 105.031 22.3595L104.392 24.4451C103.492 23.9555 102.474 23.7107 101.335 23.7107C100.435 23.7107 99.7322 23.9327 99.2282 24.3743C98.8022 24.7691 98.5885 25.2503 98.5885 25.8203C98.5885 26.4515 98.8321 26.9735 99.3217 27.3839C99.7477 27.7631 100.522 28.1735 101.645 28.6163C103.019 29.1695 104.028 29.8163 104.677 30.5579C105.324 31.2971 105.647 32.2223 105.647 33.3263Z" fill="white"/>
<path d="M114.106 28.2096H111.286V33.8004C111.286 35.2224 111.782 35.9328 112.778 35.9328C113.236 35.9328 113.615 35.8932 113.915 35.814L113.986 37.7568C113.482 37.9452 112.818 38.04 111.996 38.04C110.986 38.04 110.196 37.7316 109.626 37.116C109.058 36.4992 108.773 35.4648 108.773 34.0116V28.2072H107.093V26.2872H108.773V24.1788L111.286 23.4204V26.2872H114.106V28.2096Z" fill="white"/>
<path d="M126.829 31.9522C126.829 33.7222 126.323 35.1754 125.312 36.3118C124.253 37.4818 122.846 38.065 121.093 38.065C119.403 38.065 118.058 37.5046 117.055 36.3838C116.052 35.263 115.55 33.8482 115.55 32.143C115.55 30.3586 116.066 28.897 117.102 27.7606C118.135 26.623 119.529 26.0542 121.283 26.0542C122.972 26.0542 124.332 26.6146 125.358 27.7366C126.339 28.825 126.829 30.2302 126.829 31.9522ZM124.175 32.035C124.175 30.973 123.948 30.0622 123.488 29.3026C122.952 28.3834 122.185 27.925 121.191 27.925C120.163 27.925 119.382 28.3846 118.845 29.3026C118.386 30.0634 118.159 30.9886 118.159 32.083C118.159 33.145 118.386 34.0558 118.845 34.8142C119.399 35.7334 120.171 36.1918 121.169 36.1918C122.145 36.1918 122.912 35.7238 123.465 34.7902C123.937 34.0162 124.175 33.0958 124.175 32.035Z" fill="white"/>
<path d="M135.145 28.5396C134.892 28.4928 134.622 28.4688 134.339 28.4688C133.439 28.4688 132.743 28.8084 132.253 29.4888C131.827 30.0888 131.614 30.8472 131.614 31.7628V37.8048H129.056L129.08 29.916C129.08 28.5888 129.048 27.3804 128.984 26.2908H131.213L131.306 28.494H131.377C131.647 27.7368 132.073 27.1272 132.656 26.67C133.226 26.2584 133.842 26.0532 134.506 26.0532C134.742 26.0532 134.956 26.07 135.145 26.1V28.5396Z" fill="white"/>
<path d="M146.587 31.5021C146.587 31.9605 146.557 32.3468 146.494 32.6624H138.818C138.848 33.8 139.219 34.67 139.932 35.2701C140.579 35.8064 141.415 36.0752 142.442 36.0752C143.579 36.0752 144.616 35.894 145.548 35.5304L145.949 37.3064C144.859 37.7817 143.573 38.018 142.088 38.018C140.303 38.018 138.901 37.4924 137.881 36.4424C136.864 35.3924 136.354 33.9824 136.354 32.2136C136.354 30.4772 136.828 29.0312 137.777 27.878C138.77 26.6468 140.113 26.0312 141.803 26.0312C143.462 26.0312 144.719 26.6468 145.572 27.878C146.248 28.856 146.587 30.0656 146.587 31.5021ZM144.148 30.8384C144.164 30.08 143.998 29.4248 143.651 28.8716C143.208 28.16 142.528 27.8048 141.612 27.8048C140.776 27.8048 140.095 28.1517 139.576 28.8477C139.15 29.4009 138.896 30.0644 138.818 30.8372H144.148V30.8384Z" fill="white"/>
<path d="M58.8599 12.0109C58.8599 13.4233 58.4363 14.4865 57.5903 15.2005C56.8067 15.8593 55.6931 16.1893 54.2507 16.1893C53.5355 16.1893 52.9235 16.1581 52.4111 16.0957V8.37853C53.0795 8.27053 53.7995 8.21533 54.5771 8.21533C55.9511 8.21533 56.9867 8.51413 57.6851 9.11173C58.4675 9.78733 58.8599 10.7533 58.8599 12.0109ZM57.5339 12.0457C57.5339 11.1301 57.2915 10.4281 56.8067 9.93853C56.3219 9.45013 55.6139 9.20533 54.6815 9.20533C54.2855 9.20533 53.9483 9.23173 53.6687 9.28693V15.1537C53.8235 15.1777 54.1067 15.1885 54.5183 15.1885C55.4807 15.1885 56.2235 14.9209 56.7467 14.3857C57.2699 13.8505 57.5339 13.0705 57.5339 12.0457Z" fill="white"/>
<path d="M65.8905 13.2445C65.8905 14.1145 65.6421 14.8273 65.1453 15.3865C64.6245 15.9613 63.9345 16.2481 63.0729 16.2481C62.2425 16.2481 61.5813 15.9733 61.0881 15.4213C60.5961 14.8705 60.3501 14.1757 60.3501 13.3381C60.3501 12.4621 60.6033 11.7433 61.1121 11.1853C61.6209 10.6273 62.3049 10.3477 63.1665 10.3477C63.9969 10.3477 64.6641 10.6225 65.1693 11.1733C65.6493 11.7085 65.8905 12.3997 65.8905 13.2445ZM64.5861 13.2853C64.5861 12.7633 64.4733 12.3157 64.2489 11.9425C63.9849 11.4913 63.6093 11.2657 63.1209 11.2657C62.6157 11.2657 62.2317 11.4913 61.9677 11.9425C61.7421 12.3157 61.6305 12.7705 61.6305 13.3081C61.6305 13.8301 61.7433 14.2777 61.9677 14.6509C62.2401 15.1021 62.6193 15.3277 63.1089 15.3277C63.5889 15.3277 63.9657 15.0985 64.2369 14.6389C64.4697 14.2585 64.5861 13.8073 64.5861 13.2853Z" fill="white"/>
<path d="M75.3181 10.4629L73.5481 16.1197H72.3961L71.6629 13.6633C71.4769 13.0501 71.3257 12.4405 71.2081 11.8357H71.1853C71.0761 12.4573 70.9249 13.0657 70.7305 13.6633L69.9517 16.1197H68.7865L67.1221 10.4629H68.4145L69.0541 13.1521C69.2089 13.7881 69.3361 14.3941 69.4381 14.9677H69.4609C69.5545 14.4949 69.7093 13.8925 69.9277 13.1641L70.7305 10.4641H71.7553L72.5245 13.1065C72.7105 13.7509 72.8617 14.3713 72.9781 14.9689H73.0129C73.0981 14.3869 73.2265 13.7665 73.3969 13.1065L74.0833 10.4641H75.3181V10.4629Z" fill="white"/>
<path d="M81.8373 16.1198H80.5797V12.8798C80.5797 11.8814 80.2005 11.3822 79.4397 11.3822C79.0665 11.3822 78.7653 11.519 78.5313 11.7938C78.2997 12.0686 78.1821 12.3926 78.1821 12.7634V16.1186H76.9245V12.0794C76.9245 11.5826 76.9089 11.0438 76.8789 10.4606H77.9841L78.0429 11.345H78.0777C78.2241 11.0702 78.4425 10.8434 78.7293 10.6622C79.0701 10.451 79.4517 10.3442 79.8693 10.3442C80.3973 10.3442 80.8365 10.5146 81.1857 10.8566C81.6201 11.2754 81.8373 11.9006 81.8373 12.731V16.1198Z" fill="white"/>
<path d="M85.3057 16.1196H84.0493V7.86719H85.3057V16.1196Z" fill="white"/>
<path d="M92.7094 13.2445C92.7094 14.1145 92.4609 14.8273 91.9641 15.3865C91.4433 15.9613 90.7522 16.2481 89.8918 16.2481C89.0602 16.2481 88.3989 15.9733 87.9069 15.4213C87.4149 14.8705 87.1689 14.1757 87.1689 13.3381C87.1689 12.4621 87.4221 11.7433 87.9309 11.1853C88.4397 10.6273 89.1237 10.3477 89.9841 10.3477C90.8157 10.3477 91.4817 10.6225 91.9881 11.1733C92.4681 11.7085 92.7094 12.3997 92.7094 13.2445ZM91.4037 13.2853C91.4037 12.7633 91.2909 12.3157 91.0665 11.9425C90.8037 11.4913 90.4269 11.2657 89.9397 11.2657C89.4333 11.2657 89.0493 11.4913 88.7865 11.9425C88.5609 12.3157 88.4493 12.7705 88.4493 13.3081C88.4493 13.8301 88.5621 14.2777 88.7865 14.6509C89.0589 15.1021 89.4381 15.3277 89.9277 15.3277C90.4077 15.3277 90.7833 15.0985 91.0545 14.6389C91.2885 14.2585 91.4037 13.8073 91.4037 13.2853Z" fill="white"/>
<path d="M98.7959 16.1197H97.6667L97.5731 15.4681H97.5383C97.1519 15.9877 96.6011 16.2481 95.8859 16.2481C95.3519 16.2481 94.9199 16.0765 94.5947 15.7357C94.2995 15.4261 94.1519 15.0409 94.1519 14.5837C94.1519 13.8925 94.4399 13.3657 95.0195 13.0009C95.5979 12.6361 96.4115 12.4573 97.4591 12.4657V12.3601C97.4591 11.6149 97.0679 11.2429 96.2843 11.2429C95.7263 11.2429 95.2343 11.3833 94.8095 11.6617L94.5539 10.8361C95.0795 10.5109 95.7287 10.3477 96.4943 10.3477C97.9727 10.3477 98.7143 11.1277 98.7143 12.6877V14.7709C98.7143 15.3361 98.7419 15.7861 98.7959 16.1197ZM97.4903 14.1757V13.3033C96.1031 13.2793 95.4095 13.6597 95.4095 14.4433C95.4095 14.7385 95.4887 14.9593 95.6507 15.1069C95.8127 15.2545 96.0191 15.3277 96.2651 15.3277C96.5411 15.3277 96.7991 15.2401 97.0343 15.0661C97.2707 14.8909 97.4159 14.6689 97.4699 14.3965C97.4831 14.3353 97.4903 14.2609 97.4903 14.1757Z" fill="white"/>
<path d="M105.942 16.1196H104.826L104.767 15.2112H104.732C104.376 15.9024 103.769 16.248 102.916 16.248C102.234 16.248 101.666 15.9804 101.216 15.4452C100.766 14.91 100.542 14.2152 100.542 13.362C100.542 12.4464 100.786 11.7048 101.275 11.1384C101.749 10.6104 102.33 10.3464 103.021 10.3464C103.781 10.3464 104.312 10.602 104.615 11.1144H104.639V7.86719H105.898V14.5956C105.898 15.1464 105.912 15.654 105.942 16.1196ZM104.639 13.734V12.7908C104.639 12.6276 104.627 12.4956 104.604 12.3948C104.533 12.0924 104.381 11.838 104.149 11.6328C103.915 11.4276 103.633 11.3244 103.308 11.3244C102.839 11.3244 102.472 11.5104 102.202 11.8836C101.934 12.2568 101.798 12.7332 101.798 13.3152C101.798 13.8744 101.927 14.328 102.185 14.6772C102.457 15.0492 102.824 15.2352 103.284 15.2352C103.697 15.2352 104.027 15.0804 104.278 14.7696C104.52 14.4828 104.639 14.1372 104.639 13.734Z" fill="white"/>
<path d="M116.698 13.2445C116.698 14.1145 116.449 14.8273 115.952 15.3865C115.432 15.9613 114.743 16.2481 113.88 16.2481C113.051 16.2481 112.39 15.9733 111.895 15.4213C111.403 14.8705 111.157 14.1757 111.157 13.3381C111.157 12.4621 111.41 11.7433 111.919 11.1853C112.428 10.6273 113.112 10.3477 113.975 10.3477C114.804 10.3477 115.472 10.6225 115.976 11.1733C116.456 11.7085 116.698 12.3997 116.698 13.2445ZM115.394 13.2853C115.394 12.7633 115.282 12.3157 115.057 11.9425C114.792 11.4913 114.418 11.2657 113.928 11.2657C113.424 11.2657 113.04 11.4913 112.775 11.9425C112.549 12.3157 112.438 12.7705 112.438 13.3081C112.438 13.8301 112.55 14.2777 112.775 14.6509C113.047 15.1021 113.426 15.3277 113.916 15.3277C114.396 15.3277 114.774 15.0985 115.045 14.6389C115.277 14.2585 115.394 13.8073 115.394 13.2853Z" fill="white"/>
<path d="M123.46 16.1198H122.203V12.8798C122.203 11.8814 121.824 11.3822 121.062 11.3822C120.689 11.3822 120.388 11.519 120.155 11.7938C119.922 12.0686 119.806 12.3926 119.806 12.7634V16.1186H118.547V12.0794C118.547 11.5826 118.532 11.0438 118.502 10.4606H119.606L119.665 11.345H119.7C119.848 11.0702 120.066 10.8434 120.352 10.6622C120.694 10.451 121.074 10.3442 121.493 10.3442C122.02 10.3442 122.459 10.5146 122.808 10.8566C123.244 11.2754 123.46 11.9006 123.46 12.731V16.1198Z" fill="white"/>
<path d="M131.923 11.405H130.538V14.153C130.538 14.8514 130.784 15.2006 131.272 15.2006C131.497 15.2006 131.684 15.1814 131.832 15.1418L131.864 16.0958C131.616 16.1894 131.29 16.2362 130.888 16.2362C130.391 16.2362 130.004 16.085 129.725 15.7826C129.444 15.4802 129.305 14.9714 129.305 14.2574V11.405H128.478V10.463H129.305V9.4262L130.537 9.0542V10.4618H131.922V11.405H131.923Z" fill="white"/>
<path d="M138.581 16.1196H137.322V12.9036C137.322 11.8896 136.943 11.382 136.183 11.382C135.6 11.382 135.202 11.676 134.983 12.264C134.946 12.3876 134.924 12.5388 134.924 12.7164V16.1184H133.668V7.86719H134.924V11.2764H134.948C135.344 10.656 135.912 10.3464 136.648 10.3464C137.168 10.3464 137.599 10.5168 137.941 10.8588C138.367 11.2848 138.581 11.9184 138.581 12.756V16.1196Z" fill="white"/>
<path d="M145.448 13.0237C145.448 13.2493 145.431 13.4389 145.401 13.5937H141.63C141.647 14.1529 141.827 14.5789 142.176 14.8741C142.495 15.1381 142.907 15.2701 143.411 15.2701C143.969 15.2701 144.477 15.1813 144.936 15.0025L145.133 15.8761C144.596 16.1089 143.965 16.2253 143.234 16.2253C142.358 16.2253 141.668 15.9673 141.169 15.4513C140.667 14.9353 140.419 14.2429 140.419 13.3741C140.419 12.5209 140.651 11.8105 141.117 11.2441C141.605 10.6393 142.263 10.3369 143.095 10.3369C143.909 10.3369 144.527 10.6393 144.944 11.2441C145.281 11.7241 145.448 12.3181 145.448 13.0237ZM144.248 12.6985C144.258 12.3253 144.175 12.0037 144.005 11.7325C143.786 11.3833 143.454 11.2081 143.004 11.2081C142.593 11.2081 142.259 11.3785 142.003 11.7205C141.794 11.9929 141.671 12.3181 141.63 12.6985H144.248Z" fill="white"/>
</svg>
