<svg width="24" height="24" viewBox="0 0 24 24" fill="none" xmlns="http://www.w3.org/2000/svg">
<path fill-rule="evenodd" clip-rule="evenodd" d="M5.27982 11.8828C5.80974 11.8828 6.23982 11.4527 6.23982 10.9228V6.44633C6.23982 5.91641 5.80974 5.48633 5.27982 5.48633C4.7499 5.48633 4.31982 5.91641 4.31982 6.44633V10.9228C4.31982 11.4527 4.7499 11.8828 5.27982 11.8828Z" fill="#5158F6"/>
<path fill-rule="evenodd" clip-rule="evenodd" d="M13.9592 7.45584H10.195L11.3845 6.2664C11.7589 5.89104 11.7589 5.28336 11.3845 4.90896C11.0091 4.5336 10.4005 4.5336 10.027 4.90896L7.20078 7.7352C7.17486 7.76112 7.16238 7.79664 7.1403 7.82544C7.08462 7.89456 7.02798 7.96272 6.99342 8.04528C6.96846 8.1048 6.9675 8.17104 6.95502 8.23536C6.9435 8.29584 6.91854 8.35152 6.91854 8.41584C6.91854 8.68464 7.03086 8.92656 7.20846 9.10032L10.027 11.9189C10.2142 12.1061 10.46 12.2002 10.7057 12.2002C10.9515 12.2002 11.1973 12.1061 11.3845 11.9189C11.7589 11.5436 11.7589 10.9359 11.3845 10.5605L10.1989 9.37584H13.9592C16.0549 9.37584 17.7598 11.0799 17.7598 13.1756C17.7598 15.2712 16.0549 16.9752 13.9592 16.9752H5.27982C4.7499 16.9752 4.31982 17.4053 4.31982 17.9352C4.31982 18.4652 4.7499 18.8952 5.27982 18.8952H13.9592C17.1137 18.8952 19.6798 16.3292 19.6798 13.1756C19.6798 10.022 17.1137 7.45584 13.9592 7.45584Z" fill="#5158F6"/>
</svg>
