<svg width="24" height="24" viewBox="0 0 24 24" fill="none" xmlns="http://www.w3.org/2000/svg">
<path fill-rule="evenodd" clip-rule="evenodd" d="M5.28031 11.8828C5.81023 11.8828 6.24031 11.4527 6.24031 10.9228V6.44633C6.24031 5.91641 5.81023 5.48633 5.28031 5.48633C4.75039 5.48633 4.32031 5.91641 4.32031 6.44633V10.9228C4.32031 11.4527 4.75039 11.8828 5.28031 11.8828Z" fill="#5158F6"/>
<path fill-rule="evenodd" clip-rule="evenodd" d="M13.9597 7.45584H10.1955L11.385 6.2664C11.7594 5.89104 11.7594 5.28336 11.385 4.90896C11.0096 4.5336 10.401 4.5336 10.0275 4.90896L7.20127 7.7352C7.17535 7.76112 7.16287 7.79664 7.14079 7.82544C7.08511 7.89456 7.02847 7.96272 6.99391 8.04528C6.96895 8.1048 6.96799 8.17104 6.95551 8.23536C6.94399 8.29584 6.91903 8.35152 6.91903 8.41584C6.91903 8.68464 7.03135 8.92656 7.20895 9.10032L10.0275 11.9189C10.2147 12.1061 10.4605 12.2002 10.7062 12.2002C10.952 12.2002 11.1978 12.1061 11.385 11.9189C11.7594 11.5436 11.7594 10.9359 11.385 10.5605L10.1994 9.37584H13.9597C16.0554 9.37584 17.7603 11.0799 17.7603 13.1756C17.7603 15.2712 16.0554 16.9752 13.9597 16.9752H5.28031C4.75039 16.9752 4.32031 17.4053 4.32031 17.9352C4.32031 18.4652 4.75039 18.8952 5.28031 18.8952H13.9597C17.1142 18.8952 19.6803 16.3292 19.6803 13.1756C19.6803 10.022 17.1142 7.45584 13.9597 7.45584Z" fill="#5158F6"/>
</svg>
