<svg width="84" height="84" viewBox="0 0 84 84" fill="none" xmlns="http://www.w3.org/2000/svg">
<path d="M16.8 0H0V16.8H16.8V0Z" fill="#D3D2FB"/>
<path d="M50.4 0.841945C47.8136 0.316001 45.1835 0.0341146 42.5444 0H27.3V16.8H42.2333C47.2174 16.8 52.0896 18.278 56.2337 21.047C60.3778 23.816 63.6078 27.7517 65.5151 32.3564C67.4224 36.9611 67.9215 42.028 66.9491 46.9163C65.9768 51.8046 63.5767 56.2948 60.0524 59.8191C56.5281 63.3434 52.0379 65.7434 47.1496 66.7158C42.2613 67.6881 37.1944 67.1891 32.5897 65.2818C27.985 63.3744 24.0493 60.1445 21.2803 56.0004C18.5113 51.8562 17.0333 46.9841 17.0333 42V27.3H0.233334V42C0.231293 44.9007 0.529081 47.7939 1.12195 50.6333C5.06722 69.5178 21.6961 83.7433 41.6889 84H42.5444C65.4889 83.7083 84 65.0164 84 42C84 21.6806 69.5703 4.73278 50.4 0.841945Z" fill="#D3D2FB"/>
<path d="M39.819 56.6583C37.5125 56.3141 35.3197 55.4304 33.4192 54.0789C31.4899 52.7107 29.9167 50.8998 28.8317 48.7981C27.7467 46.6964 27.1814 44.3652 27.1833 42V27.1872H42C44.3321 27.1863 46.6315 27.7359 48.7111 28.7913C50.7907 29.8467 52.5918 31.3781 53.9679 33.2609C55.344 35.1438 56.2562 37.3248 56.6304 39.6267C57.0046 41.9286 56.8301 44.2863 56.1212 46.508C55.4122 48.7297 54.1889 50.7527 52.5506 52.4124C50.9123 54.0722 48.9054 55.3218 46.6931 56.0595C44.4808 56.7973 42.1256 57.0025 39.819 56.6583Z" fill="#918EF5"/>
</svg>
