<svg width="124" height="124" viewBox="0 0 124 124" fill="none" xmlns="http://www.w3.org/2000/svg">
<g id="Discord - 2">
<path id="Vector" opacity="0.4" fill-rule="evenodd" clip-rule="evenodd" d="M88.3424 89.2697C89.2466 88.8351 89.5933 87.5636 88.7775 86.9788C88.1791 86.5494 87.6997 86.7142 86.5785 87.1921C70.2105 94.1568 53.8322 94.0845 37.4537 87.2386C36.2751 86.7457 35.8193 86.5504 35.2434 86.9173C34.3741 87.4717 34.7099 88.814 35.6371 89.2645C37.3997 90.1216 39.1643 90.9798 41.0148 91.8783C41.848 92.2834 42.1435 93.3234 41.6478 94.1057C40.1771 96.427 38.7247 98.7247 37.2264 100.987C37.0662 101.225 36.3791 101.302 36.0226 101.194C27.1617 98.3986 18.9674 94.2705 11.4706 88.7783C11.0882 88.4993 10.7576 87.9155 10.7162 87.4401C9.01641 68.68 12.9844 51.1804 22.5014 34.926C26.1336 28.7209 26.1232 28.6124 33.8629 26.153C37.9342 24.8614 42.1296 23.9727 46.2577 22.8515C47.1671 22.6087 47.6217 22.8774 47.9834 23.6989C48.4381 24.7167 49.1149 25.6467 49.4663 26.6955C49.8848 27.9459 50.5254 28.2404 51.8223 28.0544C58.9265 27.0314 66.0359 27.1864 73.1348 28.1215C73.5192 28.1765 73.8876 27.9449 74.0612 27.5973C74.7272 26.2628 75.4102 24.9346 76.0385 23.5749C76.364 22.8619 76.767 22.6655 77.5575 22.8154C84.2173 24.076 90.6602 26.0135 96.8344 28.8139C97.4647 29.1032 98.095 29.625 98.4774 30.1985C105.778 41.1002 110.702 52.9526 112.696 65.9571C113.791 73.082 113.921 80.243 113.275 87.4143C113.228 87.9258 112.836 88.5561 112.407 88.861C104.967 94.2601 96.8757 98.3935 88.0872 101.132C87.6584 101.266 86.8472 101.189 86.6612 100.91C85.1721 98.6823 83.7498 96.4095 82.2959 94.0933C81.8035 93.309 82.1021 92.2699 82.9365 91.8685C84.7785 90.9824 86.5491 90.1315 88.3424 89.2697Z" fill="#918EF5"/>
<path id="Vector_2" d="M53.7102 62.8269C54.0011 63.7936 54.0518 64.8259 54.1954 65.835C54.2088 65.9306 54.215 66.0272 54.2104 66.1238C54.0833 68.9417 53.2018 71.4336 51.2765 73.5064C47.5927 77.4693 41.806 77.3608 38.2462 73.2946C34.9344 69.5074 34.645 63.4883 37.6417 59.4479C39.853 56.4564 42.8445 55.0459 46.5335 55.7848C50.3672 56.5598 52.6201 59.1793 53.7102 62.8269Z" fill="#918EF5"/>
<path id="Vector_3" d="M88.1458 63.1571C88.3721 64.0034 88.4202 64.9019 88.5359 65.7761C88.5473 65.8624 88.5529 65.9497 88.5493 66.0365C88.4506 68.7479 87.6467 71.183 85.8725 73.2528C82.323 77.3913 76.4588 77.4688 72.7388 73.4543C68.9568 69.3623 68.9775 62.4648 72.8266 58.4296C75.1671 55.9754 78.0553 55.0299 81.3465 55.8979C85.0716 56.8796 87.1745 59.5404 88.1458 63.1571Z" fill="#918EF5"/>
</g>
</svg>
