<svg width="82" height="85" viewBox="0 0 82 85" fill="none" xmlns="http://www.w3.org/2000/svg">
<g clip-path="url(#clip0_3133_5158)">
<path d="M22.3664 59.6579C19.165 54.1136 19.1829 47.6035 21.8209 42.274L9.17635 34.9769C8.86336 34.7981 8.57719 34.5925 8.27315 34.3955C8.11219 35.3792 8.00488 36.3718 8.00488 37.4004V66.5973C8.00488 76.7648 16.2408 85.0008 26.4083 85.0008C36.2093 85.0008 44.2038 77.328 44.7583 67.6614C36.4775 70.7822 26.9179 67.572 22.3485 59.649L22.3664 59.6579Z" fill="#918EF5"/>
<path d="M26.4294 18.9974C32.8319 18.9974 38.4567 22.2703 41.7566 27.2245L54.4011 19.9274C54.714 19.7486 55.036 19.5966 55.3579 19.4356C54.5888 18.8096 53.7752 18.2194 52.8898 17.7008L27.6008 3.09784C18.8014 -1.98144 7.5429 1.03215 2.46362 9.83146C-2.43682 18.3178 0.210135 29.0756 8.30301 34.3872C9.74274 25.6595 17.2991 18.9885 26.4383 18.9885L26.4294 18.9974Z" fill="#918EF5"/>
<path d="M21.8322 42.2714C23.3882 39.1326 25.8474 36.3962 29.1115 34.5184L41.756 27.2124C38.4561 22.2583 32.8224 18.9854 26.4285 18.9854C17.2895 18.9854 9.72425 25.6564 8.29346 34.3842C8.58856 34.5809 8.88364 34.7866 9.19663 34.9653L21.8412 42.2624L21.8322 42.2714Z" fill="#D3D2FB"/>
<path d="M79.5374 26.6497C74.6369 18.1633 63.9956 15.0782 55.3483 19.4242C62.1893 25.0311 64.1834 34.9215 59.6137 42.8355C56.4124 48.3796 50.7697 51.6168 44.8231 52.0014V66.5954C44.8231 66.9532 44.7875 67.3107 44.7695 67.6685C45.6994 67.3197 46.6206 66.9084 47.5057 66.3987L72.795 51.7958C81.5942 46.7165 84.6167 35.458 79.5285 26.6586L79.5374 26.6497Z" fill="#918EF5"/>
<path d="M44.8317 52.0032C41.3351 52.2268 37.7402 51.4577 34.4762 49.58L21.8317 42.2739C19.1848 47.6037 19.1759 54.1227 22.3772 59.6579C26.9468 67.5719 36.5063 70.7914 44.7869 67.6703C44.8048 67.3128 44.8404 66.964 44.8404 66.5972V52.0032H44.8317Z" fill="#D3D2FB"/>
<path d="M41.7544 27.2133C43.6949 30.1285 44.8307 33.6251 44.8307 37.3898V51.9927C50.7684 51.617 56.4201 48.3709 59.6214 42.8269C64.191 34.9128 62.1967 25.0314 55.3557 19.4155C55.0338 19.5765 54.7119 19.7195 54.3989 19.9073L41.7544 27.2044V27.2133Z" fill="#D3D2FB"/>
<path d="M41.7549 27.2168L29.1101 34.5226C25.8462 36.4096 23.387 39.1371 21.8311 42.2759L34.4757 49.5817C37.7397 51.4686 41.3343 52.2288 44.8309 52.0052V37.4022C44.8309 33.6373 43.6953 30.141 41.7549 27.2258V27.2168Z" fill="white"/>
</g>
<defs>
<clipPath id="clip0_3133_5158">
<rect width="82" height="84.3703" fill="white" transform="translate(0 0.630371)"/>
</clipPath>
</defs>
</svg>
