<svg width="162" height="48" viewBox="0 0 162 48" fill="none" xmlns="http://www.w3.org/2000/svg">
<path d="M155.998 48.001H6C2.69998 48.001 0 45.301 0 42.001V6.00098C0 2.70095 2.69998 0.000976562 6 0.000976562H155.998C159.298 0.000976562 161.998 2.70095 161.998 6.00098V42.001C161.998 45.301 159.298 48.001 155.998 48.001Z" fill="#100F0D"/>
<path d="M155.998 0.000976562H6C2.69998 0.000976562 0 2.70095 0 6.00098V42.001C0 45.301 2.69998 48.001 6 48.001H155.998C159.298 48.001 161.998 45.301 161.998 42.001V6.00098C161.998 2.70095 159.298 0.000976562 155.998 0.000976562ZM155.998 0.960491C158.777 0.960491 161.038 3.2218 161.038 6.00098V42.001C161.038 44.7802 158.777 47.0415 155.998 47.0415H6C3.22082 47.0415 0.960504 44.7802 0.960504 42.001V6.00098C0.960504 3.2218 3.22082 0.960491 6 0.960491H155.998Z" fill="#A2A2A1"/>
<path d="M128.322 36.0012H130.561V20.9987H128.322V36.0012ZM148.491 26.4033L145.924 32.9073H145.847L143.183 26.4033H140.771L144.767 35.4936L142.488 40.5503H144.823L150.981 26.4038L148.491 26.4033ZM135.791 34.2971C135.059 34.2971 134.036 33.93 134.036 33.023C134.036 31.8651 135.31 31.4212 136.409 31.4212C137.393 31.4212 137.858 31.6332 138.455 31.9228C138.281 33.3126 137.085 34.297 135.791 34.297L135.791 34.2971ZM136.062 26.0752C134.441 26.0752 132.762 26.7895 132.068 28.3721L134.055 29.2018C134.48 28.3721 135.27 28.1022 136.101 28.1022C137.259 28.1022 138.436 28.7964 138.455 30.032V30.1862C138.05 29.9546 137.181 29.6073 136.12 29.6073C133.977 29.6073 131.796 30.7843 131.796 32.9846C131.796 34.9918 133.553 36.285 135.521 36.285C137.026 36.285 137.858 35.6095 138.377 34.8179H138.455V35.9766H140.618V30.2246C140.618 27.5611 138.628 26.0752 136.062 26.0752V26.0752ZM122.224 28.2296H119.039V23.0875H122.224C123.898 23.0875 124.848 24.4731 124.848 25.6585C124.848 26.821 123.898 28.2296 122.224 28.2296ZM122.166 20.9991H116.801V36.0015H119.039V30.318H122.166C124.648 30.318 127.087 28.5217 127.087 25.659C127.087 22.7969 124.648 20.9997 122.166 20.9997L122.166 20.9991ZM92.909 34.2996C91.3621 34.2996 90.0674 33.0039 90.0674 31.226C90.0674 29.4274 91.3621 28.1135 92.909 28.1135C94.4363 28.1135 95.6348 29.4275 95.6348 31.226C95.6348 33.0039 94.4363 34.2996 92.909 34.2996ZM95.4801 27.2431H95.4027C94.9003 26.644 93.9332 26.1026 92.7159 26.1026C90.1635 26.1026 87.8244 28.3456 87.8244 31.226C87.8244 34.0868 90.1635 36.3101 92.7159 36.3101C93.9332 36.3101 94.9002 35.7686 95.4027 35.1504H95.4801V35.8844C95.4801 37.8377 94.4363 38.8811 92.7543 38.8811C91.3822 38.8811 90.5315 37.8953 90.1832 37.0642L88.231 37.8761C88.7911 39.2288 90.2793 40.892 92.7544 40.892C95.3841 40.892 97.6073 39.3451 97.6073 35.575V26.4118H95.4802L95.4801 27.2431ZM99.1542 36.0007H101.396V20.9983H99.1542V36.0007ZM104.702 31.0517C104.644 29.0796 106.23 28.0746 107.37 28.0746C108.26 28.0746 109.013 28.5194 109.265 29.157L104.702 31.0517ZM111.661 29.3501C111.236 28.2101 109.941 26.1026 107.293 26.1026C104.663 26.1026 102.479 28.1712 102.479 31.2064C102.479 34.0677 104.644 36.3102 107.543 36.3102C109.883 36.3102 111.236 34.88 111.797 34.0484L110.057 32.8883C109.477 33.7391 108.685 34.2997 107.543 34.2997C106.404 34.2997 105.591 33.7776 105.07 32.7529L111.893 29.9305L111.661 29.3501ZM57.292 27.6687V29.8339H62.473C62.3183 31.0518 61.9123 31.9409 61.2936 32.5597C60.5394 33.3134 59.3601 34.145 57.2919 34.145C54.1019 34.145 51.6083 31.5739 51.6083 28.384C51.6083 25.1942 54.1019 22.6227 57.2919 22.6227C59.0126 22.6227 60.2689 23.2995 61.1969 24.1695L62.7246 22.6419C61.4289 21.4048 59.7086 20.4575 57.2919 20.4575C52.9221 20.4575 49.249 24.0148 49.249 28.384C49.249 32.7528 52.9221 36.3102 57.2919 36.3102C59.6501 36.3102 61.429 35.5367 62.8207 34.0869C64.2514 32.6562 64.6962 30.6458 64.6962 29.0216C64.6962 28.5195 64.6572 28.0555 64.5799 27.6687H57.292ZM70.5871 34.2996C69.0402 34.2996 67.7061 33.0236 67.7061 31.2064C67.7061 29.3698 69.0402 28.1136 70.5871 28.1136C72.1334 28.1136 73.4675 29.3698 73.4675 31.2064C73.4675 33.0236 72.1334 34.2996 70.5871 34.2996ZM70.5871 26.1026C67.7637 26.1026 65.4636 28.2485 65.4636 31.2064C65.4636 34.145 67.7637 36.3102 70.5871 36.3102C73.4094 36.3102 75.71 34.145 75.71 31.2064C75.71 28.2485 73.4094 26.1026 70.5871 26.1026ZM81.7627 34.2996C80.2168 34.2996 78.8824 33.0236 78.8824 31.2064C78.8824 29.3698 80.2169 28.1136 81.7627 28.1136C83.3097 28.1136 84.6432 29.3698 84.6432 31.2064C84.6432 33.0236 83.3097 34.2996 81.7627 34.2996ZM81.7627 26.1026C78.9404 26.1026 76.6402 28.2485 76.6402 31.2064C76.6402 34.145 78.9404 36.3102 81.7627 36.3102C84.5861 36.3102 86.8862 34.145 86.8862 31.2064C86.8862 28.2485 84.5861 26.1026 81.7627 26.1026Z" fill="white"/>
<path d="M24.8574 23.3097L12.0825 36.8695C12.083 36.8723 12.084 36.8746 12.0844 36.8775C12.4762 38.3499 13.8211 39.4341 15.4172 39.4341C16.0552 39.4341 16.6543 39.2616 17.168 38.9588L17.2088 38.9349L31.5894 30.6367L24.8581 23.3096" fill="#EB3131"/>
<path d="M37.7824 21.0011L37.7701 20.9927L31.5616 17.3936L24.5669 23.6178L31.5859 30.6359L37.7617 27.0725C38.8444 26.488 39.5794 25.3465 39.5794 24.0302C39.5794 22.7234 38.8543 21.5877 37.7823 21.0012" fill="#F6B60B"/>
<path d="M12.0805 11.1333C12.0037 11.4165 11.9634 11.7131 11.9634 12.0212V35.9825C11.9634 36.2899 12.0033 36.5876 12.081 36.8698L25.297 23.6566L12.081 11.1336" fill="#5778C5"/>
<path d="M24.9519 24.0021L31.5646 17.3913L17.2003 9.06303C16.6782 8.75031 16.0688 8.56982 15.4167 8.56982C13.8206 8.56982 12.4739 9.65597 12.082 11.1301C12.0815 11.1316 12.0815 11.1325 12.0815 11.1338L24.9519 24.0023" fill="#3BAD49"/>
<path d="M56.8717 11.7384H53.3711V12.6047H55.9943C55.923 13.3116 55.6417 13.8666 55.1673 14.2697C54.693 14.6729 54.0873 14.8754 53.3711 14.8754C52.5854 14.8754 51.9198 14.6016 51.3743 14.0579C50.8398 13.5029 50.568 12.8166 50.568 11.9898C50.568 11.163 50.8398 10.4767 51.3743 9.9217C51.9198 9.37798 52.5854 9.10607 53.3711 9.10607C53.7743 9.10607 54.1586 9.17543 54.511 9.32735C54.8636 9.47914 55.1467 9.69106 55.368 9.96299L56.0336 9.29735C55.7317 8.95415 55.3492 8.69171 54.8747 8.50043C54.4004 8.30915 53.9054 8.21735 53.371 8.21735C52.3229 8.21735 51.4342 8.58107 50.7085 9.30674C49.9829 10.0342 49.6191 10.9305 49.6191 11.9898C49.6191 13.0491 49.9829 13.9473 50.7085 14.673C51.4342 15.3985 52.3229 15.7624 53.371 15.7624C54.4716 15.7624 55.3491 15.4099 56.0241 14.6936C56.6185 14.0974 56.9222 13.2911 56.9222 12.2824C56.9222 12.1117 56.9016 11.9298 56.8716 11.7386L56.8717 11.7384ZM58.2278 8.37844V15.601H62.4446V14.7141H59.156V12.4229H62.1222V11.5566H59.156V9.26726H62.4446V8.37842L58.2278 8.37844ZM68.3576 9.26729V8.37844H63.3944V9.26729H65.412V15.601H66.3401V9.26729H68.3576ZM72.851 8.37844H71.9229V15.601H72.851V8.37844ZM78.9771 9.26729V8.37844H74.014V9.26729H76.0314V15.601H76.9595V9.26729H78.9771ZM88.3427 9.31792C87.6264 8.58101 86.7489 8.21729 85.7008 8.21729C84.6508 8.21729 83.7734 8.581 83.057 9.30667C82.3408 10.023 81.9884 10.921 81.9884 11.9897C81.9884 13.0584 82.3408 13.9566 83.057 14.673C83.7733 15.3985 84.6508 15.7624 85.7008 15.7624C86.7395 15.7624 87.6264 15.3985 88.3427 14.673C89.059 13.9567 89.4114 13.0585 89.4114 11.9897C89.4114 10.9304 89.0589 10.0341 88.3427 9.31792ZM83.7227 9.92164C84.2571 9.37792 84.9133 9.106 85.7008 9.106C86.4864 9.106 87.1427 9.37793 87.6677 9.92164C88.202 10.456 88.4645 11.1534 88.4645 11.9897C88.4645 12.8279 88.202 13.5234 87.6677 14.0579C87.1427 14.6016 86.4864 14.8753 85.7008 14.8753C84.9133 14.8753 84.257 14.6016 83.7227 14.0579C83.1995 13.5122 82.9371 12.8279 82.9371 11.9897C82.9371 11.1534 83.1995 10.4672 83.7227 9.92164ZM91.6164 11.1029L91.5771 9.70968H91.6164L95.2877 15.601H96.257V8.37837H95.3289V12.6046L95.3683 13.9978H95.3289L91.8189 8.37837H90.6883V15.601H91.6164V11.1029Z" fill="white" stroke="white" stroke-width="0.26666" stroke-miterlimit="10"/>
</svg>
