<svg width="90" height="96" viewBox="0 0 90 96" fill="none" xmlns="http://www.w3.org/2000/svg">
<path opacity="0.4" d="M22.7188 21.8496C22.7188 10.2396 32.4757 0.789551 44.4676 0.789551H68.3049C80.2675 0.789551 90 10.2159 90 21.8022V74.4569C90 86.0717 80.2479 95.5264 68.256 95.5264H44.4187C32.4561 95.5264 22.7188 86.0953 22.7188 74.5043V70.0517V21.8496Z" fill="#918EF5"/>
<path d="M64.1245 45.5706L50.066 31.7912C48.613 30.3701 46.2747 30.3701 44.8265 31.8006C43.3832 33.2312 43.388 35.538 44.8362 36.9591L52.5342 44.5049H3.70467C1.65989 44.5049 0 46.1391 0 48.157C0 50.1701 1.65989 51.7996 3.70467 51.7996H52.5342L44.8362 59.3501C43.388 60.7712 43.3832 63.078 44.8265 64.5085C45.553 65.2238 46.5009 65.5838 47.4535 65.5838C48.3965 65.5838 49.3443 65.2238 50.066 64.518L64.1245 50.7385C64.8221 50.0517 65.2167 49.1233 65.2167 48.157C65.2167 47.1859 64.8221 46.2575 64.1245 45.5706Z" fill="#918EF5"/>
</svg>
