<svg width="108" height="108" viewBox="0 0 108 108" fill="none" xmlns="http://www.w3.org/2000/svg">
<g id="Bank Card swap 1">
<path id="Vector" fill-rule="evenodd" clip-rule="evenodd" d="M13.1405 65.688C13.0287 66.4203 13.6256 67.0428 14.3662 67.0428H55.1034C55.8443 67.0428 56.4409 66.4203 56.329 65.688C55.4991 60.2487 51.3428 56.5884 45.7078 56.5884H23.762C18.127 56.5884 13.9708 60.2487 13.1405 65.688Z" fill="#918EF5"/>
<path id="Vector_2" fill-rule="evenodd" clip-rule="evenodd" d="M12.9609 82.162C12.9609 88.7716 17.4105 93.394 23.7609 93.394H45.7064C52.0568 93.394 56.5064 88.7716 56.5064 82.162V74.818C56.5064 74.1026 55.9262 73.522 55.2104 73.522H14.2569C13.5412 73.522 12.9609 74.1026 12.9609 74.818V82.162Z" fill="#918EF5"/>
<path id="Vector_3" fill-rule="evenodd" clip-rule="evenodd" d="M94.8614 23.6968C94.9733 24.4289 94.3763 25.0516 93.6358 25.0516H52.8986C52.1578 25.0516 51.5612 24.4289 51.6726 23.6968C52.5029 18.2574 56.6592 14.5972 62.2942 14.5972H84.2398C89.8748 14.5972 94.0311 18.2574 94.8614 23.6968Z" fill="#918EF5"/>
<path id="Vector_4" fill-rule="evenodd" clip-rule="evenodd" d="M93.7447 31.5308C94.4605 31.5308 95.0407 32.111 95.0407 32.8268V40.1708C95.0407 46.7802 90.5911 51.4026 84.2407 51.4026H62.2951C55.9447 51.4026 51.4951 46.7802 51.4951 40.1708V32.8268C51.4951 32.111 52.0753 31.5308 52.7911 31.5308H93.7447Z" fill="#918EF5"/>
<g id="Group" opacity="0.4">
<path id="Vector_5" fill-rule="evenodd" clip-rule="evenodd" d="M95.161 70.9237L89.2902 65.0874C88.033 63.8303 85.981 63.8303 84.7239 65.0874L78.8574 70.9237C77.5873 72.1851 77.5786 74.2415 78.8401 75.5072C79.4708 76.1423 80.3089 76.4619 81.1383 76.4619C81.9634 76.4619 82.7929 76.1509 83.4193 75.5202L83.7606 75.1832V76.5527C83.7606 82.8642 78.6327 87.9963 72.3298 87.9963C70.5414 87.9963 69.0898 89.4479 69.0898 91.2363C69.0898 93.0248 70.5414 94.4763 72.3298 94.4763C82.2054 94.4763 90.2406 86.4368 90.2406 76.5527V75.1703L90.5948 75.5202C91.8649 76.7773 93.9169 76.7773 95.1783 75.5072C96.4398 74.2371 96.4311 72.1851 95.161 70.9237Z" fill="#918EF5"/>
<path id="Vector_6" fill-rule="evenodd" clip-rule="evenodd" d="M20.992 43.8478C21.8517 43.8478 22.6769 43.5065 23.2817 42.8974L29.1525 37.0222C30.4183 35.7564 30.4183 33.7001 29.1525 32.4387C27.8825 31.1686 25.8305 31.1772 24.569 32.4387L24.232 32.78V31.4451C24.232 25.1336 29.3599 19.9971 35.6628 19.9971C37.4513 19.9971 38.9028 18.5499 38.9028 16.7571C38.9028 14.9686 37.4513 13.5171 35.6628 13.5171C25.7829 13.5171 17.752 21.5609 17.752 31.4451V32.78L17.4108 32.4387C16.1493 31.1772 14.0973 31.1686 12.8272 32.4387C11.5615 33.7044 11.5615 35.7564 12.8272 37.0222L18.7025 42.8974C19.3073 43.5065 20.1324 43.8478 20.992 43.8478Z" fill="#918EF5"/>
</g>
</g>
</svg>
