<svg width="118" height="118" viewBox="0 0 118 118" fill="none" xmlns="http://www.w3.org/2000/svg">
<path opacity="0.4" fill-rule="evenodd" clip-rule="evenodd" d="M112.713 23.4871C111.174 31.0489 109.709 38.6255 107.973 46.1431C104.123 62.8304 100.087 79.4684 96.1239 96.131C96.0206 96.5735 95.8879 97.0062 95.765 97.4487C93.9261 104.037 88.4932 105.9 82.9276 101.834C77.1898 97.6355 71.4275 93.4662 65.7586 89.1739C64.3081 88.0775 63.3592 88.1168 62.0612 89.3706C58.6441 92.6598 55.1582 95.8802 51.6035 99.0122C46.9819 103.078 43.4222 102.188 41.2491 96.367C38.0975 87.9152 34.9951 79.4438 32.0795 70.9134C31.3076 68.6419 30.0587 67.5652 27.8561 66.9014C22.0151 65.1412 16.2478 63.1254 10.4265 61.3062C7.55515 60.4065 4.96899 59.138 4.83622 55.7799C4.7133 52.6726 7.03398 51.1435 9.62015 50.1356C25.8304 43.8224 42.0062 37.416 58.2852 31.2702C72.7746 25.8028 87.3722 20.6256 101.93 15.3353C103.125 14.9026 104.34 14.465 105.584 14.2192C109.507 13.4374 111.695 14.996 112.959 18.2115C113.465 19.4948 112.919 22.489 112.713 23.4871Z" fill="#918EF5"/>
<path d="M55.0933 80.1773C62.4732 85.207 62.4791 85.2188 55.9454 91.1705C55.0264 92.0063 50.5921 96.0758 48.4437 98.0474C48.0417 98.4166 47.397 98.0897 47.4621 97.5479C47.8601 94.2331 48.7788 86.5301 49.1771 82.7512C49.8172 76.6112 49.888 76.623 55.0933 80.1773Z" fill="#918EF5"/>
<path d="M35.0228 68.0503C34.0416 65.3771 34.776 63.3381 37.1086 61.8695C46.5773 55.9218 70.0261 41.2069 80.4327 34.6764C81.035 34.2984 81.6491 35.1215 81.1304 35.6076C73.0395 43.1839 55.9408 59.1634 47.9136 66.4229C45.9453 68.2032 44.7056 70.0951 44.5646 72.8214C44.3883 76.1879 43.9594 79.5371 43.5775 82.8917C43.5149 83.4424 43.2913 85.1101 43.1071 86.4681C43.0287 87.0453 42.2523 87.1663 42.0041 86.6392C41.5065 85.5831 40.9467 84.3751 40.8102 84.0024C38.8419 78.6968 36.9793 73.3559 35.0228 68.0503Z" fill="#918EF5"/>
</svg>
