<svg width="21" height="21" viewBox="0 0 21 21" fill="none" xmlns="http://www.w3.org/2000/svg">
<path d="M10.6968 0.5C16.2046 0.5 20.6968 4.99219 20.6968 10.5C20.6968 16.0469 16.2046 20.5 10.6968 20.5C5.1499 20.5 0.696777 16.0469 0.696777 10.5C0.696777 4.99219 5.1499 0.5 10.6968 0.5ZM9.75928 6.4375V11.4375C9.75928 11.9844 10.1499 12.375 10.6968 12.375C11.2046 12.375 11.6343 11.9844 11.6343 11.4375V6.4375C11.6343 5.92969 11.2046 5.5 10.6968 5.5C10.1499 5.5 9.75928 5.92969 9.75928 6.4375ZM10.6968 16.125C11.3608 16.125 11.9077 15.5781 11.9077 14.9141C11.9077 14.25 11.3608 13.7031 10.6968 13.7031C9.99365 13.7031 9.44678 14.25 9.44678 14.9141C9.44678 15.5781 9.99365 16.125 10.6968 16.125Z" fill="#F59569"/>
</svg>
