<svg width="32" height="33" viewBox="0 0 32 33" fill="none" xmlns="http://www.w3.org/2000/svg">
    <path d="M2 6.5C2 3.1875 4.6875 0.5 8 0.5H26H28C29.0625 0.5 30 1.4375 30 2.5V22.5C30 23.625 29.0625 24.5 28 24.5H24H18H8C6.875 24.5 6 25.4375 6 26.5C6 27.625 6.875 28.5 8 28.5H18H24H28C29.0625 28.5 30 29.4375 30 30.5C30 31.625 29.0625 32.5 28 32.5H26H8C4.6875 32.5 2 29.8125 2 26.5V6.5ZM11 8.5C10.4375 8.5 10 9 10 9.5C10 10.0625 10.4375 10.5 11 10.5H23C23.5 10.5 24 10.0625 24 9.5C24 9 23.5 8.5 23 8.5H11ZM10 13.5C10 14.0625 10.4375 14.5 11 14.5H23C23.5 14.5 24 14.0625 24 13.5C24 13 23.5 12.5 23 12.5H11C10.4375 12.5 10 13 10 13.5Z" fill="white"/>
    <path opacity="0.4" d="M6 26.5C6 25.4375 6.875 24.5 8 24.5H28V28.5H8C6.875 28.5 6 27.625 6 26.5Z" fill="white"/>
</svg>
