<svg width="34" height="32" viewBox="0 0 34 32" fill="none" xmlns="http://www.w3.org/2000/svg">
    <path d="M18.5 9.5V16.5C18.5 17.375 17.8125 18 17 18C16.125 18 15.5 17.375 15.5 16.5V9.5C15.5 8.6875 16.125 8 17 8C17.8125 8 18.5 8.6875 18.5 9.5ZM17 24C15.875 24 15 23.125 15 22C15 20.9375 15.875 20 17 20C18.0625 20 19 20.9375 19 22C19 23.125 18.0625 24 17 24Z"
          fill="#23B5D3"/>
    <path opacity="0.4"
          d="M17 32C11.25 32 6 29 3.125 24C0.25 19.0625 0.25 13 3.125 8C6 3.0625 11.25 0 17 0C22.6875 0 27.9375 3.0625 30.8125 8C33.6875 13 33.6875 19.0625 30.8125 24C27.9375 29 22.6875 32 17 32ZM17 8C16.125 8 15.5 8.6875 15.5 9.5V16.5C15.5 17.375 16.125 18 17 18C17.8125 18 18.5 17.375 18.5 16.5V9.5C18.5 8.6875 17.8125 8 17 8ZM15 22C15 23.125 15.875 24 17 24C18.0625 24 19 23.125 19 22C19 20.9375 18.0625 20 17 20C15.875 20 15 20.9375 15 22Z"
          fill="#23B5D3"/>
</svg>
