<svg width="25" height="25" viewBox="0 0 25 25" fill="none" xmlns="http://www.w3.org/2000/svg">
<circle opacity="0.35" cx="12.5" cy="12.5" r="12.5" fill="#323245"/>
<path fill-rule="evenodd" clip-rule="evenodd" d="M13.3828 13.0001L16.6906 9.47149C16.9349 9.21083 16.9349 8.78949 16.6906 8.52883C16.4462 8.26816 16.0513 8.26816 15.8069 8.52883L12.4992 12.0575L9.19143 8.52883C8.94708 8.26816 8.55212 8.26816 8.30777 8.52883C8.06342 8.78949 8.06342 9.21083 8.30777 9.47149L11.6155 13.0001L8.30777 16.5289C8.06342 16.7895 8.06342 17.2108 8.30777 17.4715C8.42963 17.6015 8.58962 17.6668 8.7496 17.6668C8.90958 17.6668 9.06956 17.6015 9.19143 17.4715L12.4992 13.9429L15.8069 17.4715C15.9288 17.6015 16.0888 17.6668 16.2488 17.6668C16.4088 17.6668 16.5687 17.6015 16.6906 17.4715C16.9349 17.2108 16.9349 16.7895 16.6906 16.5289L13.3828 13.0001Z" fill="white"/>
</svg>
