<svg width="24" height="24" viewBox="0 0 24 24" fill="none" xmlns="http://www.w3.org/2000/svg">
<rect width="24" height="24" rx="4" fill="#CDC9FD"/>
<path d="M11.5161 8.2969C11.8401 8.2969 12.1502 8.42898 12.375 8.66249L14.5766 10.9561C14.7897 11.1779 14.9087 11.4734 14.9087 11.7806V16.5225C14.9167 17.7156 13.9775 18.7015 12.7844 18.7496C12.7844 18.7496 8.19941 18.7496 8.1819 18.7489C6.97856 18.7226 6.02406 17.7258 6.05033 16.5225V10.4204C6.0788 9.23607 7.04935 8.29179 8.23444 8.2969H11.5161Z" stroke="#4D3E9E" stroke-width="1.125" stroke-linecap="round" stroke-linejoin="round"/>
<path d="M14.9064 15.7028H15.8287C17.0211 15.6575 17.9661 14.668 17.9508 13.4756V8.73672C17.9508 8.4295 17.8384 8.12958 17.621 7.91212L15.4237 5.6171C15.199 5.38504 14.8837 5.25004 14.5612 5.25004H11.2773C10.0923 5.24274 9.12538 6.18702 9.09473 7.37139V8.2945" stroke="#4D3E9E" stroke-width="1.125" stroke-linecap="round" stroke-linejoin="round"/>
<path d="M14.4082 5.28516V7.20217C14.4082 8.13843 15.165 8.89735 16.1005 8.89954H17.9168" stroke="#4D3E9E" stroke-width="1.125" stroke-linecap="round" stroke-linejoin="round"/>
<path d="M11.3613 8.33203V10.249C11.3613 11.1846 12.1181 11.9442 13.0536 11.9464H14.8692" stroke="#4D3E9E" stroke-width="1.125" stroke-linecap="round" stroke-linejoin="round"/>
</svg>
