<svg width="24" height="24" viewBox="0 0 24 24" fill="none" xmlns="http://www.w3.org/2000/svg">
<rect opacity="0.2" width="24" height="24" rx="4" fill="#5158F6"/>
<path d="M11.5156 8.2969C11.8396 8.2969 12.1497 8.42898 12.3745 8.66249L14.5761 10.9561C14.7892 11.1779 14.9082 11.4734 14.9082 11.7806V16.5225C14.9162 17.7156 13.977 18.7015 12.7839 18.7496C12.7839 18.7496 8.19893 18.7496 8.18141 18.7489C6.97808 18.7226 6.02357 17.7258 6.04985 16.5225V10.4204C6.07831 9.23607 7.04886 8.29179 8.23395 8.2969H11.5156Z" stroke="white" stroke-width="1.125" stroke-linecap="round" stroke-linejoin="round"/>
<path d="M14.9066 15.7028H15.829C17.0214 15.6575 17.9664 14.668 17.9511 13.4756V8.73672C17.9511 8.4295 17.8387 8.12958 17.6212 7.91212L15.424 5.6171C15.1993 5.38504 14.884 5.25004 14.5615 5.25004H11.2776C10.0925 5.24274 9.12562 6.18702 9.09497 7.37139V8.2945" stroke="white" stroke-width="1.125" stroke-linecap="round" stroke-linejoin="round"/>
<path d="M14.4082 5.28516V7.20217C14.4082 8.13843 15.165 8.89735 16.1005 8.89954H17.9168" stroke="white" stroke-width="1.125" stroke-linecap="round" stroke-linejoin="round"/>
<path d="M11.3616 8.33203V10.249C11.3616 11.1846 12.1183 11.9442 13.0539 11.9464H14.8695" stroke="white" stroke-width="1.125" stroke-linecap="round" stroke-linejoin="round"/>
</svg>
