<svg width="20" height="20" viewBox="0 0 20 20" fill="none" xmlns="http://www.w3.org/2000/svg">
    <path d="M12.6562 5L12.2656 7.5H3.75C3.04688 7.5 2.5 6.95312 2.5 6.25C2.5 5.58594 3.04688 5 3.75 5H12.6562ZM14.8047 7.5L15.1953 5H17.5C18.1641 5 18.75 5.58594 18.75 6.25C18.75 6.95312 18.1641 7.5 17.5 7.5H14.8047ZM7.30469 15L7.69531 12.5H16.25C16.9141 12.5 17.5 13.0859 17.5 13.75C17.5 14.4531 16.9141 15 16.25 15H7.30469ZM5.15625 12.5L4.76562 15H2.5C1.79688 15 1.25 14.4531 1.25 13.75C1.25 13.0859 1.79688 12.5 2.5 12.5H5.15625Z" fill="#5158F6"/>
    <path opacity="0.4" d="M9.33594 2.73438L8.94531 5H6.40625L6.875 2.30469C6.99219 1.64062 7.61719 1.17188 8.32031 1.28906C8.98438 1.40625 9.45312 2.03125 9.33594 2.73438ZM8.55469 7.5L6.83594 17.7344C6.71875 18.3984 6.09375 18.8672 5.39062 18.75C4.72656 18.6328 4.25781 18.0078 4.375 17.3047L6.01562 7.5H8.55469ZM15.5859 2.73438L13.9453 12.5H11.4062L13.125 2.30469C13.2422 1.64062 13.8672 1.17188 14.5703 1.28906C15.2344 1.40625 15.7031 2.03125 15.5859 2.73438ZM13.5547 15L13.0859 17.7344C12.9688 18.3984 12.3438 18.8672 11.6406 18.75C10.9766 18.6328 10.5078 18.0078 10.625 17.3047L11.0156 15H13.5547Z" fill="#5158F6"/>
</svg>
