<svg width="1399" height="897" viewBox="0 0 1399 897" fill="none" xmlns="http://www.w3.org/2000/svg">
<g opacity="0.35">
<g filter="url(#filter0_f_3412_5205)">
<path d="M461.308 126.061C471.846 129.355 774.827 169.98 925 189.88L685.25 263.993L566.692 412.218L240 319.577C309.378 253.7 450.769 122.767 461.308 126.061Z" fill="#5158F6"/>
</g>
<g filter="url(#filter1_f_3412_5205)">
<path d="M779.896 283.787L1083.58 430.882L1158.79 515.557L1053.47 567.448C1020.03 595.932 950.973 653.574 942.255 656.277C933.537 658.979 917.845 595.378 911.089 563.24L807.743 517.109L770.935 480.898L709.195 519.277L643.768 470.292L779.896 283.787Z" fill="#F59569"/>
</g>
</g>
<defs>
<filter id="filter0_f_3412_5205" x="0" y="-114" width="1165" height="766.218" filterUnits="userSpaceOnUse" color-interpolation-filters="sRGB">
<feFlood flood-opacity="0" result="BackgroundImageFix"/>
<feBlend mode="normal" in="SourceGraphic" in2="BackgroundImageFix" result="shape"/>
<feGaussianBlur stdDeviation="120" result="effect1_foregroundBlur_3412_5205"/>
</filter>
<filter id="filter1_f_3412_5205" x="403.768" y="43.7875" width="995.027" height="852.573" filterUnits="userSpaceOnUse" color-interpolation-filters="sRGB">
<feFlood flood-opacity="0" result="BackgroundImageFix"/>
<feBlend mode="normal" in="SourceGraphic" in2="BackgroundImageFix" result="shape"/>
<feGaussianBlur stdDeviation="120" result="effect1_foregroundBlur_3412_5205"/>
</filter>
</defs>
</svg>
