<svg width="26" height="26" viewBox="0 0 26 26" fill="none" xmlns="http://www.w3.org/2000/svg">
    <path d="M11.4531 19.375C11.2656 16.75 9.15625 14.6875 6.53125 14.5469C7.51562 12.2969 9.25 8.59375 10.7031 6.48438C14.5469 0.8125 20.2656 0.625 23.6406 1.28125C24.2031 1.375 24.625 1.79688 24.7188 2.35938C25.375 5.73438 25.1875 11.4531 19.5156 15.2969C17.4062 16.75 13.75 18.3906 11.4531 19.375ZM20.875 7C20.875 6.34375 20.5 5.73438 19.9375 5.40625C19.3281 5.07812 18.625 5.07812 18.0625 5.40625C17.4531 5.73438 17.125 6.34375 17.125 7C17.125 7.70312 17.4531 8.3125 18.0625 8.64062C18.625 8.96875 19.3281 8.96875 19.9375 8.64062C20.5 8.3125 20.875 7.70312 20.875 7Z"
          fill="#ECEDFF"/>
    <path opacity="0.4"
          d="M6.53125 14.5H2.125C1.70312 14.5 1.32812 14.3125 1.14062 13.9375C0.90625 13.6094 0.953125 13.1406 1.14062 12.8125L3.625 8.73438C4.23438 7.75 5.3125 7.09375 6.48438 7.09375H10.2812C8.96875 9.25 7.42188 12.4844 6.53125 14.5ZM18.9062 15.7188V19.5156C18.9062 20.6875 18.25 21.7656 17.2656 22.375L13.1875 24.8594C12.8594 25.0469 12.3906 25.0938 12.0625 24.8594C11.6875 24.6719 11.5 24.2969 11.5 23.875V19.375C13.5625 18.4844 16.75 17.0312 18.9062 15.7188ZM8.78125 23.0312C7.1875 24.6719 4.09375 24.9531 2.3125 25C1.5625 25.0469 0.953125 24.4375 1 23.6875C1.04688 21.9062 1.32812 18.8125 2.96875 17.2188C4.5625 15.625 7.1875 15.625 8.78125 17.2188C10.375 18.8125 10.375 21.4375 8.78125 23.0312ZM6.57812 21.3438C7.14062 20.8281 7.14062 19.9375 6.57812 19.4219C6.0625 18.8594 5.17188 18.8594 4.65625 19.4219C4.1875 19.8906 4.04688 20.7344 4 21.3438C4 21.7188 4.28125 22 4.65625 22C5.26562 21.9531 6.10938 21.8125 6.57812 21.3438Z"
          fill="#ECEDFF"/>
</svg>
