<svg width="26" height="26" viewBox="0 0 26 26" fill="none" xmlns="http://www.w3.org/2000/svg">
    <rect width="26" height="26" rx="13" fill="#D9D9D9"/>
    <path d="M6.18031 16V9.45455H6.93457V11.8707H6.99849C7.05389 11.7855 7.13059 11.6768 7.2286 11.5447C7.32875 11.4105 7.4715 11.2912 7.65687 11.1868C7.84437 11.0803 8.09792 11.027 8.41753 11.027C8.83088 11.027 9.19522 11.1303 9.51056 11.337C9.82591 11.5437 10.072 11.8366 10.2488 12.2159C10.4257 12.5952 10.5141 13.0426 10.5141 13.5582C10.5141 14.0781 10.4257 14.5288 10.2488 14.9102C10.072 15.2894 9.82697 15.5835 9.51376 15.7923C9.20055 15.9989 8.8394 16.1023 8.43031 16.1023C8.11497 16.1023 7.86248 16.0501 7.67285 15.9457C7.48322 15.8391 7.33727 15.7187 7.235 15.5845C7.13272 15.4482 7.05389 15.3352 6.99849 15.2457H6.909V16H6.18031ZM6.92179 13.5455C6.92179 13.9162 6.97612 14.2433 7.08478 14.5266C7.19345 14.8079 7.35218 15.0284 7.56099 15.1882C7.7698 15.3459 8.02548 15.4247 8.32804 15.4247C8.64338 15.4247 8.90652 15.3416 9.11745 15.1754C9.33052 15.0071 9.49032 14.7812 9.59686 14.4979C9.70552 14.2124 9.75985 13.8949 9.75985 13.5455C9.75985 13.2003 9.70659 12.8892 9.60005 12.6122C9.49565 12.3331 9.33691 12.1126 9.12385 11.9506C8.91291 11.7866 8.64764 11.7045 8.32804 11.7045C8.02122 11.7045 7.76341 11.7823 7.5546 11.9379C7.34579 12.0913 7.18812 12.3065 7.08159 12.5835C6.97505 12.8583 6.92179 13.179 6.92179 13.5455ZM13.6622 16.1023C13.219 16.1023 12.8302 15.9968 12.4956 15.7859C12.1633 15.5749 11.9033 15.2798 11.7158 14.9006C11.5305 14.5213 11.4378 14.0781 11.4378 13.571C11.4378 13.0597 11.5305 12.6133 11.7158 12.2319C11.9033 11.8505 12.1633 11.5543 12.4956 11.3434C12.8302 11.1325 13.219 11.027 13.6622 11.027C14.1054 11.027 14.4932 11.1325 14.8256 11.3434C15.1601 11.5543 15.42 11.8505 15.6054 12.2319C15.7929 12.6133 15.8866 13.0597 15.8866 13.571C15.8866 14.0781 15.7929 14.5213 15.6054 14.9006C15.42 15.2798 15.1601 15.5749 14.8256 15.7859C14.4932 15.9968 14.1054 16.1023 13.6622 16.1023ZM13.6622 15.4247C13.9988 15.4247 14.2758 15.3384 14.4932 15.1658C14.7105 14.9933 14.8714 14.7663 14.9758 14.4851C15.0802 14.2038 15.1324 13.8991 15.1324 13.571C15.1324 13.2429 15.0802 12.9371 14.9758 12.6538C14.8714 12.3704 14.7105 12.1413 14.4932 11.9666C14.2758 11.7919 13.9988 11.7045 13.6622 11.7045C13.3256 11.7045 13.0486 11.7919 12.8312 11.9666C12.6139 12.1413 12.453 12.3704 12.3486 12.6538C12.2442 12.9371 12.192 13.2429 12.192 13.571C12.192 13.8991 12.2442 14.2038 12.3486 14.4851C12.453 14.7663 12.6139 14.9933 12.8312 15.1658C13.0486 15.3384 13.3256 15.4247 13.6622 15.4247ZM17.7923 13.0469V16H17.038V11.0909H17.7667V11.858H17.8306C17.9457 11.6087 18.1204 11.4084 18.3548 11.2571C18.5891 11.1037 18.8917 11.027 19.2624 11.027C19.5948 11.027 19.8857 11.0952 20.1349 11.2315C20.3842 11.3658 20.5781 11.5703 20.7166 11.8452C20.8551 12.1179 20.9244 12.4631 20.9244 12.8807V16H20.1701V12.9318C20.1701 12.5462 20.07 12.2457 19.8697 12.0305C19.6694 11.8132 19.3945 11.7045 19.0451 11.7045C18.8043 11.7045 18.5891 11.7567 18.3995 11.8612C18.212 11.9656 18.0639 12.1179 17.9553 12.3182C17.8466 12.5185 17.7923 12.7614 17.7923 13.0469Z" fill="#3D3D3D"/>
</svg>
