<svg width="177" height="22" viewBox="0 0 177 22" fill="none" xmlns="http://www.w3.org/2000/svg">
    <path d="M2.14288 16V6.2H5.81088C6.64154 6.2 7.35554 6.33533 7.95288 6.606C8.55021 6.86733 9.00754 7.25 9.32488 7.754C9.65154 8.24867 9.81488 8.85067 9.81488 9.56C9.81488 10.2507 9.65154 10.848 9.32488 11.352C9.00754 11.8467 8.55021 12.2293 7.95288 12.5C7.35554 12.7707 6.64154 12.906 5.81088 12.906H2.71688L3.17888 12.416V16H2.14288ZM3.17888 12.5L2.71688 11.996H5.78288C6.76288 11.996 7.50488 11.786 8.00888 11.366C8.52221 10.9367 8.77887 10.3347 8.77887 9.56C8.77887 8.776 8.52221 8.16933 8.00888 7.74C7.50488 7.31067 6.76288 7.096 5.78288 7.096H2.71688L3.17888 6.606V12.5ZM14.8 16.07C14.0906 16.07 13.4513 15.9113 12.882 15.594C12.322 15.2673 11.8786 14.824 11.552 14.264C11.2253 13.6947 11.062 13.046 11.062 12.318C11.062 11.5807 11.2253 10.932 11.552 10.372C11.8786 9.812 12.322 9.37333 12.882 9.056C13.442 8.73867 14.0813 8.58 14.8 8.58C15.528 8.58 16.172 8.73867 16.732 9.056C17.3013 9.37333 17.7446 9.812 18.062 10.372C18.3886 10.932 18.552 11.5807 18.552 12.318C18.552 13.046 18.3886 13.6947 18.062 14.264C17.7446 14.824 17.3013 15.2673 16.732 15.594C16.1626 15.9113 15.5186 16.07 14.8 16.07ZM14.8 15.188C15.332 15.188 15.8033 15.0713 16.214 14.838C16.6246 14.5953 16.9466 14.2593 17.18 13.83C17.4226 13.3913 17.544 12.8873 17.544 12.318C17.544 11.7393 17.4226 11.2353 17.18 10.806C16.9466 10.3767 16.6246 10.0453 16.214 9.812C15.8033 9.56933 15.3366 9.448 14.814 9.448C14.2913 9.448 13.8246 9.56933 13.414 9.812C13.0033 10.0453 12.6766 10.3767 12.434 10.806C12.1913 11.2353 12.07 11.7393 12.07 12.318C12.07 12.8873 12.1913 13.3913 12.434 13.83C12.6766 14.2593 13.0033 14.5953 13.414 14.838C13.8246 15.0713 14.2866 15.188 14.8 15.188ZM21.8742 16L19.1022 8.65H20.0542L22.5742 15.468H22.1402L24.7302 8.65H25.5842L28.1462 15.468H27.7122L30.2742 8.65H31.1842L28.3982 16H27.4602L24.9962 9.588H25.2902L22.8122 16H21.8742ZM35.5978 16.07C34.8325 16.07 34.1605 15.9113 33.5818 15.594C33.0032 15.2673 32.5505 14.824 32.2238 14.264C31.8972 13.6947 31.7338 13.046 31.7338 12.318C31.7338 11.59 31.8878 10.946 32.1958 10.386C32.5132 9.826 32.9425 9.38733 33.4838 9.07C34.0345 8.74333 34.6505 8.58 35.3318 8.58C36.0225 8.58 36.6338 8.73867 37.1658 9.056C37.7072 9.364 38.1318 9.80267 38.4398 10.372C38.7478 10.932 38.9018 11.5807 38.9018 12.318C38.9018 12.3647 38.8972 12.416 38.8878 12.472C38.8878 12.5187 38.8878 12.57 38.8878 12.626H32.4898V11.884H38.3558L37.9638 12.178C37.9638 11.646 37.8472 11.1747 37.6138 10.764C37.3898 10.344 37.0818 10.0173 36.6898 9.784C36.2978 9.55067 35.8452 9.434 35.3318 9.434C34.8278 9.434 34.3752 9.55067 33.9738 9.784C33.5725 10.0173 33.2598 10.344 33.0358 10.764C32.8118 11.184 32.6998 11.6647 32.6998 12.206V12.36C32.6998 12.92 32.8212 13.4147 33.0638 13.844C33.3158 14.264 33.6612 14.5953 34.0998 14.838C34.5478 15.0713 35.0565 15.188 35.6258 15.188C36.0738 15.188 36.4892 15.1087 36.8718 14.95C37.2638 14.7913 37.5998 14.5487 37.8798 14.222L38.4398 14.866C38.1132 15.258 37.7025 15.5567 37.2078 15.762C36.7225 15.9673 36.1858 16.07 35.5978 16.07ZM40.9251 16V8.65H41.8771V10.652L41.7791 10.302C41.9844 9.742 42.3297 9.31733 42.8151 9.028C43.3004 8.72933 43.9024 8.58 44.6211 8.58V9.546C44.5837 9.546 44.5464 9.546 44.5091 9.546C44.4717 9.53667 44.4344 9.532 44.3971 9.532C43.6224 9.532 43.0157 9.77 42.5771 10.246C42.1384 10.7127 41.9191 11.38 41.9191 12.248V16H40.9251ZM49.4885 16.07C48.7231 16.07 48.0511 15.9113 47.4725 15.594C46.8938 15.2673 46.4411 14.824 46.1145 14.264C45.7878 13.6947 45.6245 13.046 45.6245 12.318C45.6245 11.59 45.7785 10.946 46.0865 10.386C46.4038 9.826 46.8331 9.38733 47.3745 9.07C47.9251 8.74333 48.5411 8.58 49.2225 8.58C49.9131 8.58 50.5245 8.73867 51.0565 9.056C51.5978 9.364 52.0225 9.80267 52.3305 10.372C52.6385 10.932 52.7925 11.5807 52.7925 12.318C52.7925 12.3647 52.7878 12.416 52.7785 12.472C52.7785 12.5187 52.7785 12.57 52.7785 12.626H46.3805V11.884H52.2465L51.8545 12.178C51.8545 11.646 51.7378 11.1747 51.5045 10.764C51.2805 10.344 50.9725 10.0173 50.5805 9.784C50.1885 9.55067 49.7358 9.434 49.2225 9.434C48.7185 9.434 48.2658 9.55067 47.8645 9.784C47.4631 10.0173 47.1505 10.344 46.9265 10.764C46.7025 11.184 46.5905 11.6647 46.5905 12.206V12.36C46.5905 12.92 46.7118 13.4147 46.9545 13.844C47.2065 14.264 47.5518 14.5953 47.9905 14.838C48.4385 15.0713 48.9471 15.188 49.5165 15.188C49.9645 15.188 50.3798 15.1087 50.7625 14.95C51.1545 14.7913 51.4905 14.5487 51.7705 14.222L52.3305 14.866C52.0038 15.258 51.5931 15.5567 51.0985 15.762C50.6131 15.9673 50.0765 16.07 49.4885 16.07ZM57.7417 16.07C57.0417 16.07 56.4117 15.9113 55.8517 15.594C55.301 15.2767 54.867 14.838 54.5497 14.278C54.2324 13.7087 54.0737 13.0553 54.0737 12.318C54.0737 11.5713 54.2324 10.918 54.5497 10.358C54.867 9.798 55.301 9.364 55.8517 9.056C56.4117 8.73867 57.0417 8.58 57.7417 8.58C58.3857 8.58 58.9597 8.72467 59.4637 9.014C59.977 9.30333 60.383 9.728 60.6817 10.288C60.9897 10.8387 61.1437 11.5153 61.1437 12.318C61.1437 13.1113 60.9944 13.788 60.6957 14.348C60.397 14.908 59.991 15.3373 59.4777 15.636C58.9737 15.9253 58.395 16.07 57.7417 16.07ZM57.8117 15.188C58.3344 15.188 58.801 15.0713 59.2117 14.838C59.6317 14.5953 59.9584 14.2593 60.1917 13.83C60.4344 13.3913 60.5557 12.8873 60.5557 12.318C60.5557 11.7393 60.4344 11.2353 60.1917 10.806C59.9584 10.3767 59.6317 10.0453 59.2117 9.812C58.801 9.56933 58.3344 9.448 57.8117 9.448C57.2984 9.448 56.8364 9.56933 56.4257 9.812C56.015 10.0453 55.6884 10.3767 55.4457 10.806C55.203 11.2353 55.0817 11.7393 55.0817 12.318C55.0817 12.8873 55.203 13.3913 55.4457 13.83C55.6884 14.2593 56.015 14.5953 56.4257 14.838C56.8364 15.0713 57.2984 15.188 57.8117 15.188ZM60.5837 16V13.788L60.6817 12.304L60.5417 10.82V5.612H61.5357V16H60.5837ZM71.762 16.07C71.118 16.07 70.5394 15.9253 70.026 15.636C69.5127 15.3373 69.1067 14.908 68.808 14.348C68.5094 13.788 68.36 13.1113 68.36 12.318C68.36 11.5153 68.5094 10.8387 68.808 10.288C69.116 9.728 69.5267 9.30333 70.04 9.014C70.5534 8.72467 71.1274 8.58 71.762 8.58C72.462 8.58 73.0874 8.73867 73.638 9.056C74.198 9.364 74.6367 9.798 74.954 10.358C75.2714 10.918 75.43 11.5713 75.43 12.318C75.43 13.0553 75.2714 13.7087 74.954 14.278C74.6367 14.838 74.198 15.2767 73.638 15.594C73.0874 15.9113 72.462 16.07 71.762 16.07ZM67.968 16V5.612H68.962V10.82L68.822 12.304L68.92 13.788V16H67.968ZM71.692 15.188C72.2147 15.188 72.6814 15.0713 73.092 14.838C73.5027 14.5953 73.8294 14.2593 74.072 13.83C74.3147 13.3913 74.436 12.8873 74.436 12.318C74.436 11.7393 74.3147 11.2353 74.072 10.806C73.8294 10.3767 73.5027 10.0453 73.092 9.812C72.6814 9.56933 72.2147 9.448 71.692 9.448C71.1694 9.448 70.698 9.56933 70.278 9.812C69.8674 10.0453 69.5407 10.3767 69.298 10.806C69.0647 11.2353 68.948 11.7393 68.948 12.318C68.948 12.8873 69.0647 13.3913 69.298 13.83C69.5407 14.2593 69.8674 14.5953 70.278 14.838C70.698 15.0713 71.1694 15.188 71.692 15.188ZM77.3072 18.786C76.9619 18.786 76.6306 18.73 76.3132 18.618C76.0052 18.506 75.7392 18.338 75.5152 18.114L75.9772 17.372C76.1639 17.5493 76.3646 17.6847 76.5792 17.778C76.8032 17.8807 77.0506 17.932 77.3212 17.932C77.6479 17.932 77.9279 17.8387 78.1612 17.652C78.4039 17.4747 78.6326 17.1573 78.8472 16.7L79.3232 15.622L79.4352 15.468L82.4592 8.65H83.4392L79.7572 16.882C79.5519 17.358 79.3232 17.736 79.0712 18.016C78.8286 18.296 78.5626 18.492 78.2732 18.604C77.9839 18.7253 77.6619 18.786 77.3072 18.786ZM79.2672 16.21L75.8792 8.65H76.9152L79.9112 15.398L79.2672 16.21Z"
          fill="#323245"/>
    <g clip-path="url(#clip0_5673_5208)">
        <path d="M135.84 8.93759L135.832 3.99584L133.362 8.17034H133.151L130.681 4.01234V8.93759H130.26V3.16259H130.622L133.261 7.62584L135.899 3.16259H136.253L136.262 8.93759H135.84ZM140.966 8.97884C140.219 8.97884 139.637 8.76709 139.221 8.34359C138.811 7.92009 138.606 7.30134 138.606 6.48734V3.16259H139.036V6.47084C139.036 7.18034 139.201 7.71109 139.533 8.06309C139.865 8.41509 140.345 8.59109 140.974 8.59109C141.598 8.59109 142.076 8.41509 142.408 8.06309C142.739 7.71109 142.905 7.18034 142.905 6.47084V3.16259H143.335V6.48734C143.335 7.30134 143.127 7.92009 142.711 8.34359C142.295 8.76709 141.713 8.97884 140.966 8.97884ZM148.182 8.97884C147.603 8.97884 147.08 8.85234 146.614 8.59934C146.147 8.34084 145.779 7.98884 145.509 7.54334C145.245 7.09784 145.113 6.60009 145.113 6.05009C145.113 5.50009 145.245 5.00234 145.509 4.55684C145.779 4.11134 146.147 3.76209 146.614 3.50909C147.08 3.25059 147.603 3.12134 148.182 3.12134C148.76 3.12134 149.283 3.24784 149.75 3.50084C150.216 3.75384 150.581 4.10309 150.845 4.54859C151.115 4.99409 151.25 5.49459 151.25 6.05009C151.25 6.60559 151.115 7.10609 150.845 7.55159C150.581 7.99709 150.216 8.34634 149.75 8.59934C149.283 8.85234 148.76 8.97884 148.182 8.97884ZM148.182 8.59109C148.676 8.59109 149.123 8.48109 149.522 8.26109C149.921 8.04109 150.236 7.73859 150.466 7.35359C150.697 6.96309 150.812 6.52859 150.812 6.05009C150.812 5.57159 150.697 5.13984 150.466 4.75484C150.236 4.36434 149.921 4.05909 149.522 3.83909C149.123 3.61909 148.676 3.50909 148.182 3.50909C147.687 3.50909 147.237 3.61909 146.833 3.83909C146.434 4.05909 146.119 4.36434 145.889 4.75484C145.658 5.13984 145.543 5.57159 145.543 6.05009C145.543 6.52859 145.658 6.96309 145.889 7.35359C146.119 7.73859 146.434 8.04109 146.833 8.26109C147.237 8.48109 147.687 8.59109 148.182 8.59109ZM157.883 3.16259V8.93759H157.529L153.508 3.92159V8.93759H153.078V3.16259H153.441L157.453 8.17859V3.16259H157.883ZM135.065 13.4751V19.2501H134.711L130.69 14.2341V19.2501H130.26V13.4751H130.622L134.635 18.4911V13.4751H135.065ZM141.534 18.8706V19.2501H137.463V13.4751H141.408V13.8546H137.892V16.1316H141.037V16.5028H137.892V18.8706H141.534ZM144.568 13.8546H142.444V13.4751H147.123V13.8546H144.998V19.2501H144.568V13.8546ZM156.392 13.4751L154.394 19.2501H153.938L152.109 14.0691L150.272 19.2501H149.816L147.81 13.4751H148.265L150.061 18.6726L151.907 13.4751H152.32L154.158 18.6808L155.97 13.4751H156.392ZM160.414 19.2913C159.835 19.2913 159.312 19.1648 158.846 18.9118C158.38 18.6533 158.011 18.3013 157.742 17.8558C157.478 17.4103 157.346 16.9126 157.346 16.3626C157.346 15.8126 157.478 15.3148 157.742 14.8693C158.011 14.4238 158.38 14.0746 158.846 13.8216C159.312 13.5631 159.835 13.4338 160.414 13.4338C160.993 13.4338 161.515 13.5603 161.982 13.8133C162.448 14.0663 162.813 14.4156 163.077 14.8611C163.347 15.3066 163.482 15.8071 163.482 16.3626C163.482 16.9181 163.347 17.4186 163.077 17.8641C162.813 18.3096 162.448 18.6588 161.982 18.9118C161.515 19.1648 160.993 19.2913 160.414 19.2913ZM160.414 18.9036C160.909 18.9036 161.355 18.7936 161.754 18.5736C162.153 18.3536 162.468 18.0511 162.698 17.6661C162.929 17.2756 163.044 16.8411 163.044 16.3626C163.044 15.8841 162.929 15.4523 162.698 15.0673C162.468 14.6768 162.153 14.3716 161.754 14.1516C161.355 13.9316 160.909 13.8216 160.414 13.8216C159.919 13.8216 159.47 13.9316 159.065 14.1516C158.666 14.3716 158.351 14.6768 158.121 15.0673C157.891 15.4523 157.775 15.8841 157.775 16.3626C157.775 16.8411 157.891 17.2756 158.121 17.6661C158.351 18.0511 158.666 18.3536 159.065 18.5736C159.47 18.7936 159.919 18.9036 160.414 18.9036ZM169.408 19.2501L168 17.3196C167.792 17.3471 167.601 17.3608 167.427 17.3608H165.741V19.2501H165.311V13.4751H167.427C168.168 13.4751 168.75 13.6483 169.172 13.9948C169.593 14.3358 169.804 14.8116 169.804 15.4221C169.804 15.8786 169.683 16.2636 169.441 16.5771C169.205 16.8851 168.865 17.1023 168.421 17.2288L169.896 19.2501H169.408ZM167.427 16.9896C168.056 16.9896 168.536 16.8548 168.868 16.5853C169.2 16.3103 169.365 15.9226 169.365 15.4221C169.365 14.9216 169.2 14.5366 168.868 14.2671C168.536 13.9921 168.056 13.8546 167.427 13.8546H165.741V16.9896H167.427ZM173.469 16.4038L172.145 17.7321V19.2501H171.715V13.4751H172.145V17.1876L175.829 13.4751H176.352L173.755 16.0986L176.529 19.2501H176.006L173.469 16.4038Z"
              fill="#5551FF"/>
        <path d="M92.4143 14.2504C92.6431 14.2504 92.8286 14.0689 92.8286 13.8449C92.8286 13.621 92.6431 13.4395 92.4143 13.4395C92.1855 13.4395 92 13.621 92 13.8449C92 14.0689 92.1855 14.2504 92.4143 14.2504Z"
              fill="#313144"/>
        <path d="M98.1743 13.7599C98.4031 13.7599 98.5886 13.5784 98.5886 13.3545C98.5886 13.1305 98.4031 12.949 98.1743 12.949C97.9455 12.949 97.76 13.1305 97.76 13.3545C97.76 13.5784 97.9455 13.7599 98.1743 13.7599Z"
              fill="#313144"/>
        <path d="M99.8386 16.0814C100.067 16.0814 100.253 15.8999 100.253 15.6759C100.253 15.452 100.067 15.2705 99.8386 15.2705C99.6098 15.2705 99.4243 15.452 99.4243 15.6759C99.4243 15.8999 99.6098 16.0814 99.8386 16.0814Z"
              fill="#313144"/>
        <path d="M104.75 14.381C104.979 14.381 105.164 14.1995 105.164 13.9756C105.164 13.7516 104.979 13.5701 104.75 13.5701C104.521 13.5701 104.336 13.7516 104.336 13.9756C104.336 14.1995 104.521 14.381 104.75 14.381Z"
              fill="#313144"/>
        <path d="M92.7483 1.88345C92.9771 1.88345 93.1626 1.70192 93.1626 1.47798C93.1626 1.25404 92.9771 1.07251 92.7483 1.07251C92.5195 1.07251 92.334 1.25404 92.334 1.47798C92.334 1.70192 92.5195 1.88345 92.7483 1.88345Z"
              fill="#313144"/>
        <path d="M93.183 7.0108C93.5373 7.0108 93.8245 6.72969 93.8245 6.38295C93.8245 6.03621 93.5373 5.75513 93.183 5.75513C92.8287 5.75513 92.5415 6.03621 92.5415 6.38295C92.5415 6.72969 92.8287 7.0108 93.183 7.0108Z"
              fill="#313144"/>
        <path d="M103.607 12.8965C103.902 12.8965 104.142 12.6622 104.142 12.3733C104.142 12.0843 103.902 11.8501 103.607 11.8501C103.312 11.8501 103.073 12.0843 103.073 12.3733C103.073 12.6622 103.312 12.8965 103.607 12.8965Z"
              fill="#313144"/>
        <path d="M92.8283 19.2729C93.1235 19.2729 93.3629 19.0386 93.3629 18.7497C93.3629 18.4608 93.1235 18.2266 92.8283 18.2266C92.533 18.2266 92.2937 18.4608 92.2937 18.7497C92.2937 19.0386 92.533 19.2729 92.8283 19.2729Z"
              fill="#313144"/>
        <path d="M96.9518 16.4933C97.2766 16.4933 97.5399 16.2356 97.5399 15.9178C97.5399 15.6 97.2766 15.3423 96.9518 15.3423C96.627 15.3423 96.3638 15.6 96.3638 15.9178C96.3638 16.2356 96.627 16.4933 96.9518 16.4933Z"
              fill="#313144"/>
        <path d="M101.496 18.4554C101.754 18.4554 101.964 18.2504 101.964 17.9976C101.964 17.7447 101.754 17.5398 101.496 17.5398C101.237 17.5398 101.028 17.7447 101.028 17.9976C101.028 18.2504 101.237 18.4554 101.496 18.4554Z"
              fill="#313144"/>
        <path d="M94.5058 21.7711C94.8934 21.7711 95.2075 21.4637 95.2075 21.0844C95.2075 20.7052 94.8934 20.3977 94.5058 20.3977C94.1183 20.3977 93.8042 20.7052 93.8042 21.0844C93.8042 21.4637 94.1183 21.7711 94.5058 21.7711Z"
              fill="#313144"/>
        <path d="M97.299 4.77405C97.8932 4.77405 98.3749 4.30263 98.3749 3.72113C98.3749 3.13962 97.8932 2.66821 97.299 2.66821C96.7048 2.66821 96.2231 3.13962 96.2231 3.72113C96.2231 4.30263 96.7048 4.77405 97.299 4.77405Z"
              fill="#313144"/>
        <path d="M95.6282 2.30203C96.2778 2.30203 96.8043 1.7867 96.8043 1.15101C96.8043 0.515325 96.2778 0 95.6282 0C94.9787 0 94.4521 0.515325 94.4521 1.15101C94.4521 1.7867 94.9787 2.30203 95.6282 2.30203Z"
              fill="#313144"/>
        <path d="M96.0627 7.36391C96.62 7.36391 97.0718 6.92185 97.0718 6.37643C97.0718 5.83104 96.62 5.38892 96.0627 5.38892C95.5055 5.38892 95.0537 5.83104 95.0537 6.37643C95.0537 6.92185 95.5055 7.36391 96.0627 7.36391Z"
              fill="#313144"/>
        <path d="M98.9631 6.92563C99.5499 6.92563 100.026 6.46006 100.026 5.88578C100.026 5.31149 99.5499 4.84595 98.9631 4.84595C98.3763 4.84595 97.9006 5.31149 97.9006 5.88578C97.9006 6.46006 98.3763 6.92563 98.9631 6.92563Z"
              fill="#313144"/>
        <path d="M94.8534 9.68538C95.4143 9.68538 95.8691 9.24036 95.8691 8.69132C95.8691 8.14235 95.4143 7.69727 94.8534 7.69727C94.2924 7.69727 93.8376 8.14235 93.8376 8.69132C93.8376 9.24036 94.2924 9.68538 94.8534 9.68538Z"
              fill="#313144"/>
        <path d="M97.7336 9.40435C98.2687 9.40435 98.7025 8.97982 98.7025 8.45608C98.7025 7.93234 98.2687 7.50781 97.7336 7.50781C97.1985 7.50781 96.7646 7.93234 96.7646 8.45608C96.7646 8.97982 97.1985 9.40435 97.7336 9.40435Z"
              fill="#313144"/>
        <path d="M100.634 9.03155C101.099 9.03155 101.476 8.66264 101.476 8.20758C101.476 7.75246 101.099 7.38354 100.634 7.38354C100.169 7.38354 99.7917 7.75246 99.7917 8.20758C99.7917 8.66264 100.169 9.03155 100.634 9.03155Z"
              fill="#313144"/>
        <path d="M99.4108 11.6082C99.8758 11.6082 100.253 11.2393 100.253 10.7842C100.253 10.3291 99.8758 9.96021 99.4108 9.96021C98.9458 9.96021 98.5688 10.3291 98.5688 10.7842C98.5688 11.2393 98.9458 11.6082 99.4108 11.6082Z"
              fill="#313144"/>
        <path d="M96.5041 11.8566C96.9691 11.8566 97.3461 11.4877 97.3461 11.0325C97.3461 10.5775 96.9691 10.2085 96.5041 10.2085C96.0391 10.2085 95.6621 10.5775 95.6621 11.0325C95.6621 11.4877 96.0391 11.8566 96.5041 11.8566Z"
              fill="#313144"/>
        <path d="M95.2877 14.5317C95.8191 14.5317 96.25 14.11 96.25 13.5899C96.25 13.0698 95.8191 12.6482 95.2877 12.6482C94.7563 12.6482 94.3254 13.0698 94.3254 13.5899C94.3254 14.11 94.7563 14.5317 95.2877 14.5317Z"
              fill="#313144"/>
        <path d="M94.058 16.997C94.5304 16.997 94.9133 16.6222 94.9133 16.1599C94.9133 15.6976 94.5304 15.3228 94.058 15.3228C93.5856 15.3228 93.2026 15.6976 93.2026 16.1599C93.2026 16.6222 93.5856 16.997 94.058 16.997Z"
              fill="#313144"/>
        <path d="M102.725 16.3497C103.253 16.3497 103.681 15.931 103.681 15.4145C103.681 14.8979 103.253 14.4792 102.725 14.4792C102.197 14.4792 101.77 14.8979 101.77 15.4145C101.77 15.931 102.197 16.3497 102.725 16.3497Z"
              fill="#313144"/>
        <path d="M101.055 14.0475C101.586 14.0475 102.017 13.626 102.017 13.1058C102.017 12.5857 101.586 12.1641 101.055 12.1641C100.523 12.1641 100.093 12.5857 100.093 13.1058C100.093 13.626 100.523 14.0475 101.055 14.0475Z"
              fill="#313144"/>
        <path d="M95.7152 19.4428C96.2466 19.4428 96.6774 19.0212 96.6774 18.5011C96.6774 17.981 96.2466 17.5593 95.7152 17.5593C95.1837 17.5593 94.7529 17.981 94.7529 18.5011C94.7529 19.0212 95.1837 19.4428 95.7152 19.4428Z"
              fill="#313144"/>
        <path d="M93.6039 11.9745C93.9988 11.9745 94.3189 11.6612 94.3189 11.2747C94.3189 10.8882 93.9988 10.575 93.6039 10.575C93.209 10.575 92.8889 10.8882 92.8889 11.2747C92.8889 11.6612 93.209 11.9745 93.6039 11.9745Z"
              fill="#313144"/>
        <path d="M102.297 11.2289C102.692 11.2289 103.012 10.9156 103.012 10.5292C103.012 10.1426 102.692 9.82935 102.297 9.82935C101.902 9.82935 101.582 10.1426 101.582 10.5292C101.582 10.9156 101.902 11.2289 102.297 11.2289Z"
              fill="#313144"/>
        <path d="M94.4123 4.83943C94.9991 4.83943 95.4748 4.37389 95.4748 3.7996C95.4748 3.22531 94.9991 2.75977 94.4123 2.75977C93.8255 2.75977 93.3499 3.22531 93.3499 3.7996C93.3499 4.37389 93.8255 4.83943 94.4123 4.83943Z"
              fill="#313144"/>
        <path d="M119.685 14.2504C119.914 14.2504 120.099 14.0689 120.099 13.8449C120.099 13.621 119.914 13.4395 119.685 13.4395C119.456 13.4395 119.271 13.621 119.271 13.8449C119.271 14.0689 119.456 14.2504 119.685 14.2504Z"
              fill="#313144"/>
        <path d="M113.925 13.7599C114.153 13.7599 114.339 13.5784 114.339 13.3545C114.339 13.1305 114.153 12.949 113.925 12.949C113.696 12.949 113.51 13.1305 113.51 13.3545C113.51 13.5784 113.696 13.7599 113.925 13.7599Z"
              fill="#313144"/>
        <path d="M112.261 16.0814C112.49 16.0814 112.675 15.8999 112.675 15.6759C112.675 15.452 112.49 15.2705 112.261 15.2705C112.032 15.2705 111.846 15.452 111.846 15.6759C111.846 15.8999 112.032 16.0814 112.261 16.0814Z"
              fill="#313144"/>
        <path d="M107.349 14.381C107.578 14.381 107.764 14.1995 107.764 13.9756C107.764 13.7516 107.578 13.5701 107.349 13.5701C107.121 13.5701 106.935 13.7516 106.935 13.9756C106.935 14.1995 107.121 14.381 107.349 14.381Z"
              fill="#313144"/>
        <path d="M119.351 1.88345C119.58 1.88345 119.765 1.70192 119.765 1.47798C119.765 1.25404 119.58 1.07251 119.351 1.07251C119.122 1.07251 118.937 1.25404 118.937 1.47798C118.937 1.70192 119.122 1.88345 119.351 1.88345Z"
              fill="#313144"/>
        <path d="M118.916 7.0108C119.271 7.0108 119.558 6.72969 119.558 6.38295C119.558 6.03621 119.271 5.75513 118.916 5.75513C118.562 5.75513 118.275 6.03621 118.275 6.38295C118.275 6.72969 118.562 7.0108 118.916 7.0108Z"
              fill="#313144"/>
        <path d="M108.492 12.8965C108.787 12.8965 109.027 12.6622 109.027 12.3733C109.027 12.0843 108.787 11.8501 108.492 11.8501C108.197 11.8501 107.958 12.0843 107.958 12.3733C107.958 12.6622 108.197 12.8965 108.492 12.8965Z"
              fill="#313144"/>
        <path d="M119.271 19.2729C119.566 19.2729 119.805 19.0386 119.805 18.7497C119.805 18.4608 119.566 18.2266 119.271 18.2266C118.975 18.2266 118.736 18.4608 118.736 18.7497C118.736 19.0386 118.975 19.2729 119.271 19.2729Z"
              fill="#313144"/>
        <path d="M115.148 16.4933C115.473 16.4933 115.736 16.2356 115.736 15.9178C115.736 15.6 115.473 15.3423 115.148 15.3423C114.823 15.3423 114.56 15.6 114.56 15.9178C114.56 16.2356 114.823 16.4933 115.148 16.4933Z"
              fill="#313144"/>
        <path d="M110.603 18.4554C110.862 18.4554 111.071 18.2504 111.071 17.9976C111.071 17.7447 110.862 17.5398 110.603 17.5398C110.345 17.5398 110.135 17.7447 110.135 17.9976C110.135 18.2504 110.345 18.4554 110.603 18.4554Z"
              fill="#313144"/>
        <path d="M117.593 21.7711C117.981 21.7711 118.295 21.4637 118.295 21.0844C118.295 20.7052 117.981 20.3977 117.593 20.3977C117.206 20.3977 116.892 20.7052 116.892 21.0844C116.892 21.4637 117.206 21.7711 117.593 21.7711Z"
              fill="#313144"/>
        <path d="M114.8 4.77405C115.394 4.77405 115.876 4.30263 115.876 3.72113C115.876 3.13962 115.394 2.66821 114.8 2.66821C114.206 2.66821 113.724 3.13962 113.724 3.72113C113.724 4.30263 114.206 4.77405 114.8 4.77405Z"
              fill="#313144"/>
        <path d="M116.471 2.30203C117.121 2.30203 117.647 1.7867 117.647 1.15101C117.647 0.515325 117.121 0 116.471 0C115.821 0 115.295 0.515325 115.295 1.15101C115.295 1.7867 115.821 2.30203 116.471 2.30203Z"
              fill="#313144"/>
        <path d="M116.037 7.36391C116.594 7.36391 117.046 6.92185 117.046 6.37643C117.046 5.83104 116.594 5.38892 116.037 5.38892C115.479 5.38892 115.028 5.83104 115.028 6.37643C115.028 6.92185 115.479 7.36391 116.037 7.36391Z"
              fill="#313144"/>
        <path d="M113.136 6.92563C113.723 6.92563 114.198 6.46006 114.198 5.88578C114.198 5.31149 113.723 4.84595 113.136 4.84595C112.549 4.84595 112.073 5.31149 112.073 5.88578C112.073 6.46006 112.549 6.92563 113.136 6.92563Z"
              fill="#313144"/>
        <path d="M117.246 9.68538C117.807 9.68538 118.262 9.24036 118.262 8.69132C118.262 8.14235 117.807 7.69727 117.246 7.69727C116.685 7.69727 116.23 8.14235 116.23 8.69132C116.23 9.24036 116.685 9.68538 117.246 9.68538Z"
              fill="#313144"/>
        <path d="M114.365 9.40435C114.901 9.40435 115.334 8.97982 115.334 8.45608C115.334 7.93234 114.901 7.50781 114.365 7.50781C113.83 7.50781 113.396 7.93234 113.396 8.45608C113.396 8.97982 113.83 9.40435 114.365 9.40435Z"
              fill="#313144"/>
        <path d="M111.466 9.03155C111.93 9.03155 112.308 8.66264 112.308 8.20758C112.308 7.75246 111.93 7.38354 111.466 7.38354C111 7.38354 110.624 7.75246 110.624 8.20758C110.624 8.66264 111 9.03155 111.466 9.03155Z"
              fill="#313144"/>
        <path d="M112.688 11.6082C113.153 11.6082 113.53 11.2393 113.53 10.7842C113.53 10.3291 113.153 9.96021 112.688 9.96021C112.223 9.96021 111.846 10.3291 111.846 10.7842C111.846 11.2393 112.223 11.6082 112.688 11.6082Z"
              fill="#313144"/>
        <path d="M115.595 11.8566C116.06 11.8566 116.437 11.4877 116.437 11.0325C116.437 10.5775 116.06 10.2085 115.595 10.2085C115.13 10.2085 114.753 10.5775 114.753 11.0325C114.753 11.4877 115.13 11.8566 115.595 11.8566Z"
              fill="#313144"/>
        <path d="M116.811 14.5317C117.343 14.5317 117.773 14.11 117.773 13.5899C117.773 13.0698 117.343 12.6482 116.811 12.6482C116.28 12.6482 115.849 13.0698 115.849 13.5899C115.849 14.11 116.28 14.5317 116.811 14.5317Z"
              fill="#313144"/>
        <path d="M118.041 16.997C118.513 16.997 118.896 16.6222 118.896 16.1599C118.896 15.6976 118.513 15.3228 118.041 15.3228C117.568 15.3228 117.186 15.6976 117.186 16.1599C117.186 16.6222 117.568 16.997 118.041 16.997Z"
              fill="#313144"/>
        <path d="M109.374 16.3497C109.902 16.3497 110.329 15.931 110.329 15.4145C110.329 14.8979 109.902 14.4792 109.374 14.4792C108.846 14.4792 108.418 14.8979 108.418 15.4145C108.418 15.931 108.846 16.3497 109.374 16.3497Z"
              fill="#313144"/>
        <path d="M111.045 14.0475C111.576 14.0475 112.007 13.626 112.007 13.1058C112.007 12.5857 111.576 12.1641 111.045 12.1641C110.513 12.1641 110.083 12.5857 110.083 13.1058C110.083 13.626 110.513 14.0475 111.045 14.0475Z"
              fill="#313144"/>
        <path d="M116.384 19.4428C116.915 19.4428 117.346 19.0212 117.346 18.5011C117.346 17.981 116.915 17.5593 116.384 17.5593C115.852 17.5593 115.422 17.981 115.422 18.5011C115.422 19.0212 115.852 19.4428 116.384 19.4428Z"
              fill="#313144"/>
        <path d="M118.496 11.9745C118.89 11.9745 119.211 11.6612 119.211 11.2747C119.211 10.8882 118.89 10.575 118.496 10.575C118.101 10.575 117.781 10.8882 117.781 11.2747C117.781 11.6612 118.101 11.9745 118.496 11.9745Z"
              fill="#313144"/>
        <path d="M109.802 11.2289C110.197 11.2289 110.517 10.9156 110.517 10.5292C110.517 10.1426 110.197 9.82935 109.802 9.82935C109.407 9.82935 109.087 10.1426 109.087 10.5292C109.087 10.9156 109.407 11.2289 109.802 11.2289Z"
              fill="#313144"/>
        <path d="M117.687 4.83943C118.274 4.83943 118.749 4.37389 118.749 3.7996C118.749 3.22531 118.274 2.75977 117.687 2.75977C117.1 2.75977 116.624 3.22531 116.624 3.7996C116.624 4.37389 117.1 4.83943 117.687 4.83943Z"
              fill="#313144"/>
        <path d="M104.389 18.5731C104.854 18.5731 105.231 18.2041 105.231 17.7491C105.231 17.294 104.854 16.925 104.389 16.925C103.924 16.925 103.547 17.294 103.547 17.7491C103.547 18.2041 103.924 18.5731 104.389 18.5731Z"
              fill="#313144"/>
        <path d="M107.71 18.5731C108.175 18.5731 108.552 18.2041 108.552 17.7491C108.552 17.294 108.175 16.925 107.71 16.925C107.245 16.925 106.868 17.294 106.868 17.7491C106.868 18.2041 107.245 18.5731 107.71 18.5731Z"
              fill="#313144"/>
        <path d="M106.053 16.4672C106.444 16.4672 106.761 16.1569 106.761 15.774C106.761 15.3911 106.444 15.0808 106.053 15.0808C105.662 15.0808 105.344 15.3911 105.344 15.774C105.344 16.1569 105.662 16.4672 106.053 16.4672Z"
              fill="#313144"/>
        <path d="M103.166 20.7771C103.425 20.7771 103.634 20.5722 103.634 20.3193C103.634 20.0665 103.425 19.8616 103.166 19.8616C102.908 19.8616 102.698 20.0665 102.698 20.3193C102.698 20.5722 102.908 20.7771 103.166 20.7771Z"
              fill="#313144"/>
        <path d="M108.933 20.7771C109.191 20.7771 109.401 20.5722 109.401 20.3193C109.401 20.0665 109.191 19.8616 108.933 19.8616C108.674 19.8616 108.465 20.0665 108.465 20.3193C108.465 20.5722 108.674 20.7771 108.933 20.7771Z"
              fill="#313144"/>
        <path d="M106.053 20.8293C106.444 20.8293 106.761 20.5189 106.761 20.1361C106.761 19.7532 106.444 19.4429 106.053 19.4429C105.662 19.4429 105.344 19.7532 105.344 20.1361C105.344 20.5189 105.662 20.8293 106.053 20.8293Z"
              fill="#313144"/>
    </g>
    <defs>
        <clipPath id="clip0_5673_5208">
            <rect width="85" height="22" fill="white" transform="translate(92)"/>
        </clipPath>
    </defs>
</svg>
