<svg width="14" height="14" viewBox="0 0 14 14" fill="none" xmlns="http://www.w3.org/2000/svg">
    <path d="M12.8594 11.2568C13.3672 11.7256 13.3672 12.5459 12.8594 13.0146C12.625 13.249 12.3125 13.3662 12 13.3662C11.6484 13.3662 11.3359 13.249 11.1016 13.0146L7 8.91309L2.85938 13.0146C2.625 13.249 2.3125 13.3662 2 13.3662C1.64844 13.3662 1.33594 13.249 1.10156 13.0146C0.59375 12.5459 0.59375 11.7256 1.10156 11.2568L5.20312 7.11621L1.10156 3.01465C0.59375 2.5459 0.59375 1.72559 1.10156 1.25684C1.57031 0.749023 2.39062 0.749023 2.85938 1.25684L7 5.3584L11.1016 1.25684C11.5703 0.749023 12.3906 0.749023 12.8594 1.25684C13.3672 1.72559 13.3672 2.5459 12.8594 3.01465L8.75781 7.15527L12.8594 11.2568Z" fill="white"/>
</svg>
