<svg width="13" height="14" viewBox="0 0 13 14" fill="none" xmlns="http://www.w3.org/2000/svg">
    <path d="M12.4575 3.24707L8.35596 7.34863L12.4575 11.4893C12.9653 11.958 12.9653 12.7783 12.4575 13.2471C11.9888 13.7549 11.1685 13.7549 10.6997 13.2471L6.59814 9.14551L2.45752 13.2471C1.98877 13.7549 1.16846 13.7549 0.699707 13.2471C0.191895 12.7783 0.191895 11.958 0.699707 11.4893L4.80127 7.34863L0.699707 3.24707C0.191895 2.77832 0.191895 1.95801 0.699707 1.48926C1.16846 0.981445 1.98877 0.981445 2.45752 1.48926L6.59814 5.59082L10.6997 1.48926C11.1685 0.981445 11.9888 0.981445 12.4575 1.48926C12.9653 1.95801 12.9653 2.77832 12.4575 3.24707Z"
          fill="#323245"/>
</svg>
