<svg width="90" height="82" viewBox="0 0 90 82" fill="none" xmlns="http://www.w3.org/2000/svg">
    <path d="M65.312 0.5C80.82 0.5 89.984 9.4038 89.984 24.5204V24.6881H70.928C62.06 24.7037 54.876 31.7081 54.86 40.3545C54.848 49.0204 62.04 56.0561 70.928 56.0678H90V57.4445C90 72.5611 80.836 81.5 65.328 81.5H24.676C9.164 81.5 0 72.5611 0 57.4445V24.5204C0 9.4038 9.164 0.5 24.676 0.5H65.312ZM46.724 17.9371H21.328C19.44 17.9449 17.908 19.4386 17.9 21.2833C17.892 23.1359 19.428 24.6452 21.328 24.653H46.756C48.656 24.6452 50.192 23.1359 50.184 21.2794C50.176 19.4269 48.624 17.9293 46.724 17.9371Z" fill="#876FED"/>
    <path opacity="0.4" d="M63.1683 42.3351C64.1094 46.6154 67.8622 49.6269 72.1467 49.5486H86.7713C88.554 49.5486 90 48.0722 90 46.2473V34.8553C89.9962 33.0343 88.554 31.554 86.7713 31.55H71.8024C66.9288 31.5657 62.9924 35.6111 63 40.5963C63 41.1798 63.0574 41.7633 63.1683 42.3351Z" fill="#876FED"/>
    <path d="M72 45.0498C74.4853 45.0498 76.5 43.0351 76.5 40.5498C76.5 38.0645 74.4853 36.0498 72 36.0498C69.5147 36.0498 67.5 38.0645 67.5 40.5498C67.5 43.0351 69.5147 45.0498 72 45.0498Z" fill="#876FED"/>
</svg>
