<svg width="96" height="96" viewBox="0 0 96 96" fill="none" xmlns="http://www.w3.org/2000/svg">
    <path d="M52.5 28.5V49.5C52.5 52.125 50.4375 54 48 54C45.375 54 43.5 52.125 43.5 49.5V28.5C43.5 26.0625 45.375 24 48 24C50.4375 24 52.5 26.0625 52.5 28.5ZM48 72C44.625 72 42 69.375 42 66C42 62.8125 44.625 60 48 60C51.1875 60 54 62.8125 54 66C54 69.375 51.1875 72 48 72Z" fill="white"/>
    <path d="M3.1875 54.75C0.75 50.625 0.75 45.5625 3.1875 41.25L19.6875 12.75C22.125 8.4375 26.625 6 31.3125 6H64.5C69.375 6 73.6875 8.4375 76.125 12.75L92.625 41.25C95.0625 45.5625 95.0625 50.625 92.625 54.75L76.125 83.4375C73.6875 87.75 69.375 90.1875 64.5 90.1875H31.3125C26.625 90.1875 22.125 87.75 19.6875 83.4375L3.1875 54.75ZM48 24C45.375 24 43.5 26.0625 43.5 28.5V49.5C43.5 52.125 45.375 54 48 54C50.4375 54 52.5 52.125 52.5 49.5V28.5C52.5 26.0625 50.4375 24 48 24ZM54 66C54 62.8125 51.1875 60 48 60C44.625 60 42 62.8125 42 66C42 69.375 44.625 72 48 72C51.1875 72 54 69.375 54 66Z" fill="#F59569"/>
</svg>
