<svg width="65" height="64" viewBox="0 0 65 64" fill="none" xmlns="http://www.w3.org/2000/svg">
    <g clip-path="url(#clip0_5662_4057)">
        <path d="M44.5369 8C53.7268 8 59.1573 13.2763 59.1573 22.2343V22.3337H47.8649C42.6098 22.3429 38.3526 26.4937 38.3431 31.6175C38.336 36.7529 42.5979 40.9221 47.8649 40.9291H59.1668V41.7449C59.1668 50.7029 53.7363 56 44.5464 56H20.4563C11.264 56 5.8335 50.7029 5.8335 41.7449V22.2343C5.8335 13.2763 11.264 8 20.4563 8H44.5369ZM33.5218 18.3331H18.4723C17.3535 18.3377 16.4456 19.2229 16.4409 20.316C16.4362 21.4138 17.3464 22.3082 18.4723 22.3129H33.5408C34.6667 22.3082 35.5769 21.4138 35.5722 20.3137C35.5674 19.2159 34.6477 18.3285 33.5218 18.3331Z"
              fill="white"/>
        <path opacity="0.4"
              d="M43.2663 32.7905C43.8239 35.327 46.0478 37.1116 48.5867 37.0652H57.2532C58.3096 37.0652 59.1665 36.1903 59.1665 35.1089V28.3581C59.1642 27.2789 58.3096 26.4017 57.2532 26.3994H48.3827C45.4947 26.4087 43.162 28.8059 43.1665 31.7602C43.1665 32.1059 43.2005 32.4517 43.2663 32.7905Z"
              fill="white"/>
        <path d="M48.5002 34.3997C49.9729 34.3997 51.1668 33.2058 51.1668 31.7331C51.1668 30.2603 49.9729 29.0664 48.5002 29.0664C47.0274 29.0664 45.8335 30.2603 45.8335 31.7331C45.8335 33.2058 47.0274 34.3997 48.5002 34.3997Z"
              fill="white"/>
        <path d="M11.375 50.125H8.375C7.71875 50.125 7.25 49.6562 7.25 49C7.25 48.3906 7.71875 47.875 8.375 47.875H11.375V44.875C11.375 44.2656 11.8438 43.75 12.5 43.75C13.1094 43.75 13.625 44.2656 13.625 44.875V47.875H16.625C17.2344 47.875 17.75 48.3906 17.75 49C17.75 49.6562 17.2344 50.125 16.625 50.125H13.625V53.125C13.625 53.7812 13.1094 54.25 12.5 54.25C11.8438 54.25 11.375 53.7812 11.375 53.125V50.125Z"
              fill="white"/>
        <path d="M12.5 61C8.1875 61 4.25 58.75 2.09375 55C-0.0625 51.2969 -0.0625 46.75 2.09375 43C4.25 39.2969 8.1875 37 12.5 37C16.7656 37 20.7031 39.2969 22.8594 43C25.0156 46.75 25.0156 51.2969 22.8594 55C20.7031 58.75 16.7656 61 12.5 61ZM11.375 53.125C11.375 53.7812 11.8438 54.25 12.5 54.25C13.1094 54.25 13.625 53.7812 13.625 53.125V50.125H16.625C17.2344 50.125 17.75 49.6562 17.75 49C17.75 48.3906 17.2344 47.875 16.625 47.875H13.625V44.875C13.625 44.2656 13.1094 43.75 12.5 43.75C11.8438 43.75 11.375 44.2656 11.375 44.875V47.875H8.375C7.71875 47.875 7.25 48.3906 7.25 49C7.25 49.6562 7.71875 50.125 8.375 50.125H11.375V53.125Z"
              fill="#876FED"/>
    </g>
    <defs>
        <clipPath id="clip0_5662_4057">
            <rect width="64" height="64" fill="white" transform="translate(0.5)"/>
        </clipPath>
    </defs>
</svg>
