<svg width="108" height="108" viewBox="0 0 108 108" fill="none" xmlns="http://www.w3.org/2000/svg">
    <path d="M74.312 13.5C89.82 13.5 98.984 22.4038 98.984 37.5204V37.6881H79.928C71.06 37.7037 63.876 44.7081 63.86 53.3545C63.848 62.0204 71.04 69.0561 79.928 69.0678H99V70.4445C99 85.5611 89.836 94.5 74.328 94.5H33.676C18.164 94.5 9 85.5611 9 70.4445V37.5204C9 22.4038 18.164 13.5 33.676 13.5H74.312ZM55.724 30.9371H30.328C28.44 30.9449 26.908 32.4386 26.9 34.2833C26.892 36.1359 28.428 37.6452 30.328 37.653H55.756C57.656 37.6452 59.192 36.1359 59.184 34.2794C59.176 32.4269 57.624 30.9293 55.724 30.9371Z"
          fill="#918EF5"/>
    <path opacity="0.4"
          d="M72.1683 55.3348C73.1094 59.6151 76.8622 62.6266 81.1467 62.5483H95.7713C97.554 62.5483 99 61.0719 99 59.247V47.855C98.9962 46.034 97.554 44.5537 95.7713 44.5498H80.8024C75.9288 44.5655 71.9924 48.6108 72 53.5961C72 54.1796 72.0574 54.7631 72.1683 55.3348Z"
          fill="#918EF5"/>
    <path d="M81 58.0498C83.4853 58.0498 85.5 56.0351 85.5 53.5498C85.5 51.0645 83.4853 49.0498 81 49.0498C78.5147 49.0498 76.5 51.0645 76.5 53.5498C76.5 56.0351 78.5147 58.0498 81 58.0498Z"
          fill="#918EF5"/>
    <path d="M20.125 83.875H15.125C14.0312 83.875 13.25 83.0938 13.25 82C13.25 80.9844 14.0312 80.125 15.125 80.125H20.125V75.125C20.125 74.1094 20.9062 73.25 22 73.25C23.0156 73.25 23.875 74.1094 23.875 75.125V80.125H28.875C29.8906 80.125 30.75 80.9844 30.75 82C30.75 83.0938 29.8906 83.875 28.875 83.875H23.875V88.875C23.875 89.9688 23.0156 90.75 22 90.75C20.9062 90.75 20.125 89.9688 20.125 88.875V83.875Z"
          fill="#918EF5"/>
    <path d="M22 102C14.8125 102 8.25 98.25 4.65625 92C1.0625 85.8281 1.0625 78.25 4.65625 72C8.25 65.8281 14.8125 62 22 62C29.1094 62 35.6719 65.8281 39.2656 72C42.8594 78.25 42.8594 85.8281 39.2656 92C35.6719 98.25 29.1094 102 22 102ZM20.125 88.875C20.125 89.9688 20.9062 90.75 22 90.75C23.0156 90.75 23.875 89.9688 23.875 88.875V83.875H28.875C29.8906 83.875 30.75 83.0938 30.75 82C30.75 80.9844 29.8906 80.125 28.875 80.125H23.875V75.125C23.875 74.1094 23.0156 73.25 22 73.25C20.9062 73.25 20.125 74.1094 20.125 75.125V80.125H15.125C14.0312 80.125 13.25 80.9844 13.25 82C13.25 83.0938 14.0312 83.875 15.125 83.875H20.125V88.875Z"
          fill="white"/>
</svg>
