<svg width="20" height="20" viewBox="0 0 20 20" fill="none" xmlns="http://www.w3.org/2000/svg">
    <path d="M18.8984 10.8984L13.8984 15.8984C13.4297 16.4062 12.6094 16.4062 12.1406 15.8984C11.6328 15.4297 11.6328 14.6094 12.1406 14.1406L14.9922 11.25L12.375 11.25L8 11.25C7.33594 11.25 6.75 10.7031 6.75 10C6.75 9.33594 7.33594 8.75 8 8.75L12.375 8.75L14.9922 8.75L12.1406 5.89844C11.6328 5.42969 11.6328 4.60937 12.1406 4.14062C12.6094 3.63281 13.4297 3.63281 13.8984 4.14062L18.8984 9.14062C19.4062 9.60937 19.4062 10.4297 18.8984 10.8984Z" fill="black"/>
    <path opacity="0.4" d="M3 17.5C2.33594 17.5 1.75 16.9531 1.75 16.25L1.75 3.75C1.75 3.08594 2.33594 2.5 3 2.5C3.70312 2.5 4.25 3.08594 4.25 3.75L4.25 16.25C4.25 16.9531 3.70312 17.5 3 17.5Z" fill="black"/>
</svg>
