<svg width="48" height="48" viewBox="0 0 48 48" fill="none" xmlns="http://www.w3.org/2000/svg">
    <path d="M11.9062 16.5C11.9062 11.7188 13.4062 7.59375 15.75 4.59375C18 1.59375 20.9062 0 23.9062 0C27 0 29.9062 1.59375 32.1562 4.59375C34.5 7.59375 36 11.7188 36 16.5C36 17.0625 35.9062 17.5312 35.9062 18H12C12 17.5312 11.9062 17.0625 11.9062 16.5ZM47.5312 16.3125C47.8125 17.25 47.0625 18 46.2188 18H38.9062C38.9062 17.5312 39 17.0625 39 16.5C39 10.5938 36.8438 5.15625 33.5625 1.59375C42.1875 4.6875 46.2188 11.5312 47.5312 16.3125ZM14.3438 1.59375C11.0625 5.15625 8.90625 10.5938 8.90625 16.5C8.90625 17.0625 9 17.5312 9 18H1.6875C0.84375 18 0.09375 17.25 0.375 16.3125C1.6875 11.5312 5.71875 4.6875 14.3438 1.59375Z" fill="#ECEDFF"/>
    <path opacity="0.4" d="M6.375 18L17.625 30.4688C18.1875 30.1875 18.75 30 19.5 30H22.5V18H25.5V30H28.5C29.1562 30 29.7188 30.1875 30.2812 30.4688L41.5312 18H45.6562L32.4375 32.5312C32.8125 33.0938 33 33.8438 33 34.5V43.5C33 46.0312 30.9375 48 28.5 48H19.5C16.9688 48 15 46.0312 15 43.5V34.5C15 33.8438 15.0938 33.0938 15.4688 32.5312L2.25 18H6.375Z" fill="#ECEDFF"/>
</svg>
