<svg width="28" height="25" viewBox="0 0 28 25" fill="none" xmlns="http://www.w3.org/2000/svg">
    <path d="M11 12.0337C12.6406 12.0337 14 10.7212 14 9.03369C14 8.70557 13.9062 8.42432 13.8125 8.09619C13.7188 7.86182 13.9062 7.53369 14.1875 7.53369C16.0625 7.62744 17.7969 8.93994 18.3125 10.9087C18.9688 13.2993 17.5625 15.7368 15.125 16.3931C12.7344 17.0493 10.25 15.5962 9.64062 13.2056C9.54688 12.8774 9.5 12.5493 9.5 12.2681C9.45312 11.9868 9.78125 11.7993 10.0156 11.8931C10.3438 11.9868 10.625 12.0337 11 12.0337Z" fill="#5158F6"/>
    <path opacity="0.4" d="M4.95312 5.33057C7.15625 3.26807 10.2031 1.53369 14 1.53369C17.75 1.53369 20.7969 3.26807 23 5.33057C25.2031 7.39307 26.6562 9.78369 27.3594 11.4712C27.5 11.8462 27.5 12.2681 27.3594 12.6431C26.6562 14.2837 25.2031 16.7212 23 18.7837C20.7969 20.8462 17.75 22.5337 14 22.5337C10.2031 22.5337 7.15625 20.8462 4.95312 18.7837C2.75 16.7212 1.29688 14.2837 0.59375 12.6431C0.453125 12.2681 0.453125 11.8462 0.59375 11.4712C1.29688 9.78369 2.75 7.34619 4.95312 5.33057ZM14 18.7837C16.3906 18.7837 18.5938 17.5181 19.8125 15.4087C21.0312 13.3462 21.0312 10.7681 19.8125 8.65869C18.5938 6.59619 16.3906 5.28369 14 5.28369C11.5625 5.28369 9.35938 6.59619 8.14062 8.65869C6.92188 10.7681 6.92188 13.3462 8.14062 15.4087C9.35938 17.5181 11.5625 18.7837 14 18.7837Z" fill="#5158F6"/>
</svg>
