<svg width="50" height="50" viewBox="0 0 50 50" fill="none" xmlns="http://www.w3.org/2000/svg">
    <path d="M22.7136 27.2053H16.6168C15.2832 27.2053 14.3305 26.2527 14.3305 24.919C14.3305 23.6806 15.2832 22.6327 16.6168 22.6327H22.7136V16.536C22.7136 15.2976 23.6662 14.2497 24.9999 14.2497C26.2383 14.2497 27.2862 15.2976 27.2862 16.536V22.6327H33.383C34.6214 22.6327 35.6692 23.6806 35.6692 24.919C35.6692 26.2527 34.6214 27.2053 33.383 27.2053H27.2862V33.3021C27.2862 34.6358 26.2383 35.5884 24.9999 35.5884C23.6662 35.5884 22.7136 34.6358 22.7136 33.3021V27.2053Z" fill="#5158F6"/>
    <path opacity="0.4" d="M9.75795 3.58032H40.2418C43.576 3.58032 46.3386 6.34292 46.3386 9.67709V40.161C46.3386 43.5904 43.576 46.2577 40.2418 46.2577H9.75795C6.32852 46.2577 3.66118 43.5904 3.66118 40.161V9.67709C3.66118 6.34292 6.32852 3.58032 9.75795 3.58032ZM22.7136 33.3021C22.7136 34.6358 23.6662 35.5884 24.9999 35.5884C26.2383 35.5884 27.2862 34.6358 27.2862 33.3021V27.2053H33.383C34.6214 27.2053 35.6692 26.2527 35.6692 24.919C35.6692 23.6806 34.6214 22.6327 33.383 22.6327H27.2862V16.536C27.2862 15.2976 26.2383 14.2497 24.9999 14.2497C23.6662 14.2497 22.7136 15.2976 22.7136 16.536V22.6327H16.6168C15.2832 22.6327 14.3305 23.6806 14.3305 24.919C14.3305 26.2527 15.2832 27.2053 16.6168 27.2053H22.7136V33.3021Z" fill="#5158F6"/>
</svg>
