<svg width="24" height="24" viewBox="0 0 24 24" fill="none" xmlns="http://www.w3.org/2000/svg">
    <path fill-rule="evenodd" clip-rule="evenodd"
          d="M5.27995 11.8828C5.80987 11.8828 6.23995 11.4527 6.23995 10.9228V6.44633C6.23995 5.91641 5.80987 5.48633 5.27995 5.48633C4.75003 5.48633 4.31995 5.91641 4.31995 6.44633V10.9228C4.31995 11.4527 4.75003 11.8828 5.27995 11.8828Z"
          fill="black"/>
    <path fill-rule="evenodd" clip-rule="evenodd"
          d="M13.9593 7.45584H10.1951L11.3846 6.2664C11.759 5.89104 11.759 5.28336 11.3846 4.90896C11.0092 4.5336 10.4006 4.5336 10.0271 4.90896L7.20091 7.7352C7.17499 7.76112 7.16251 7.79664 7.14043 7.82544C7.08475 7.89456 7.02811 7.96272 6.99355 8.04528C6.96859 8.1048 6.96763 8.17104 6.95515 8.23536C6.94363 8.29584 6.91867 8.35152 6.91867 8.41584C6.91867 8.68464 7.03099 8.92656 7.20859 9.10032L10.0271 11.9189C10.2143 12.1061 10.4601 12.2002 10.7059 12.2002C10.9516 12.2002 11.1974 12.1061 11.3846 11.9189C11.759 11.5436 11.759 10.9359 11.3846 10.5605L10.199 9.37584H13.9593C16.055 9.37584 17.7599 11.0799 17.7599 13.1756C17.7599 15.2712 16.055 16.9752 13.9593 16.9752H5.27995C4.75003 16.9752 4.31995 17.4053 4.31995 17.9352C4.31995 18.4652 4.75003 18.8952 5.27995 18.8952H13.9593C17.1139 18.8952 19.6799 16.3292 19.6799 13.1756C19.6799 10.022 17.1139 7.45584 13.9593 7.45584Z"
          fill="black"/>
</svg>
