<svg width="50" height="50" viewBox="0 0 50 50" fill="none" xmlns="http://www.w3.org/2000/svg">
    <path d="M22.7136 27.2054H16.6168C15.2832 27.2054 14.3305 26.2528 14.3305 24.9192C14.3305 23.6807 15.2832 22.6329 16.6168 22.6329H22.7136V16.5361C22.7136 15.2977 23.6662 14.2498 24.9999 14.2498C26.2383 14.2498 27.2862 15.2977 27.2862 16.5361V22.6329H33.383C34.6214 22.6329 35.6692 23.6807 35.6692 24.9192C35.6692 26.2528 34.6214 27.2054 33.383 27.2054H27.2862V33.3022C27.2862 34.6359 26.2383 35.5885 24.9999 35.5885C23.6662 35.5885 22.7136 34.6359 22.7136 33.3022V27.2054Z" fill="#ECEDFF"/>
    <path opacity="0.4" d="M9.75795 3.58044H40.2418C43.576 3.58044 46.3386 6.34304 46.3386 9.67722V40.1611C46.3386 43.5905 43.576 46.2579 40.2418 46.2579H9.75795C6.32852 46.2579 3.66118 43.5905 3.66118 40.1611V9.67722C3.66118 6.34304 6.32852 3.58044 9.75795 3.58044ZM22.7136 33.3022C22.7136 34.6359 23.6662 35.5885 24.9999 35.5885C26.2383 35.5885 27.2862 34.6359 27.2862 33.3022V27.2054H33.383C34.6214 27.2054 35.6692 26.2528 35.6692 24.9192C35.6692 23.6807 34.6214 22.6329 33.383 22.6329H27.2862V16.5361C27.2862 15.2977 26.2383 14.2498 24.9999 14.2498C23.6662 14.2498 22.7136 15.2977 22.7136 16.5361V22.6329H16.6168C15.2832 22.6329 14.3305 23.6807 14.3305 24.9192C14.3305 26.2528 15.2832 27.2054 16.6168 27.2054H22.7136V33.3022Z" fill="#ECEDFF"/>
</svg>
