<svg width="50" height="50" viewBox="0 0 50 50" fill="none" xmlns="http://www.w3.org/2000/svg">
    <path d="M16.6169 27.2057C15.2833 27.2057 14.3307 26.2531 14.3307 24.9194C14.3307 23.681 15.2833 22.6331 16.6169 22.6331H22.7137V16.5363C22.7137 15.2979 23.6663 14.25 25 14.25C26.2384 14.25 27.2863 15.2979 27.2863 16.5363V22.6331H33.3831C34.6215 22.6331 35.6694 23.681 35.6694 24.9194C35.6694 26.2531 34.6215 27.2057 33.3831 27.2057H27.2863V33.3025C27.2863 34.6361 26.2384 35.5887 25 35.5887C23.6663 35.5887 22.7137 34.6361 22.7137 33.3025V27.2057H16.6169Z" fill="#5158F6"/>
    <path d="M40.2419 3.58069C43.5761 3.58069 46.3387 6.34329 46.3387 9.67746V40.1613C46.3387 43.5908 43.5761 46.2581 40.2419 46.2581H9.75808C6.32864 46.2581 3.6613 43.5908 3.6613 40.1613V9.67746C3.6613 6.34329 6.32864 3.58069 9.75808 3.58069H40.2419ZM25 35.5887C26.2384 35.5887 27.2863 34.6361 27.2863 33.3025V27.2057H33.3831C34.6215 27.2057 35.6694 26.2531 35.6694 24.9194C35.6694 23.681 34.6215 22.6331 33.3831 22.6331H27.2863V16.5363C27.2863 15.2979 26.2384 14.25 25 14.25C23.6663 14.25 22.7137 15.2979 22.7137 16.5363V22.6331H16.6169C15.2833 22.6331 14.3307 23.681 14.3307 24.9194C14.3307 26.2531 15.2833 27.2057 16.6169 27.2057H22.7137V33.3025C22.7137 34.6361 23.6663 35.5887 25 35.5887Z" fill="#ECEDFF"/>
</svg>
