<svg width="24" height="25" viewBox="0 0 24 25" fill="none" xmlns="http://www.w3.org/2000/svg">
    <path opacity="0.4" d="M19.5 1.53369C21.1406 1.53369 22.5 2.89307 22.5 4.53369V19.5337C22.5 21.2212 21.1406 22.5337 19.5 22.5337H4.5C2.8125 22.5337 1.5 21.2212 1.5 19.5337V4.53369C1.5 2.89307 2.8125 1.53369 4.5 1.53369H19.5ZM12 17.2837C12.6094 17.2837 13.125 16.8149 13.125 16.1587V13.1587H16.125C16.7344 13.1587 17.25 12.6899 17.25 12.0337C17.25 11.4243 16.7344 10.9087 16.125 10.9087H13.125V7.90869C13.125 7.29932 12.6094 6.78369 12 6.78369C11.3438 6.78369 10.875 7.29932 10.875 7.90869V10.9087H7.875C7.21875 10.9087 6.75 11.4243 6.75 12.0337C6.75 12.6899 7.21875 13.1587 7.875 13.1587H10.875V16.1587C10.875 16.8149 11.3438 17.2837 12 17.2837Z" fill="#ECEDFF"/>
    <path d="M7.875 13.1587C7.21875 13.1587 6.75 12.6899 6.75 12.0337C6.75 11.4243 7.21875 10.9087 7.875 10.9087H10.875V7.90869C10.875 7.29932 11.3438 6.78369 12 6.78369C12.6094 6.78369 13.125 7.29932 13.125 7.90869V10.9087H16.125C16.7344 10.9087 17.25 11.4243 17.25 12.0337C17.25 12.6899 16.7344 13.1587 16.125 13.1587H13.125V16.1587C13.125 16.8149 12.6094 17.2837 12 17.2837C11.3438 17.2837 10.875 16.8149 10.875 16.1587V13.1587H7.875Z" fill="#ECEDFF"/>
</svg>
