<svg width="24" height="24" viewBox="0 0 24 24" fill="none" xmlns="http://www.w3.org/2000/svg">
    <path d="M1.5 3H6.04688C7.40625 3 8.71875 3.65625 9.5625 4.6875L13.7344 9.98438C14.0156 10.3125 14.4844 10.5469 14.9062 10.5469H18V9.04688C18 8.4375 18.3281 7.875 18.8906 7.64062C19.4531 7.40625 20.1094 7.54688 20.5312 7.96875L23.5312 10.9688C23.8125 11.25 24 11.625 24 12.0469C24 12.4219 23.8125 12.7969 23.5312 13.0781L20.5312 16.0781C20.1094 16.5 19.4531 16.6406 18.8906 16.4062C18.3281 16.1719 18 15.6094 18 15V13.5H14.9062C13.5469 13.5 12.2812 12.8906 11.3906 11.8125L7.21875 6.5625C6.9375 6.23438 6.46875 6 6.04688 6H1.5C0.65625 6 0 5.34375 0 4.5C0 3.70312 0.65625 3 1.5 3Z" fill="#4D3E9E"/>
    <path opacity="0.4" d="M11.3906 11.8125C12.2812 12.8906 13.5469 13.5 14.9062 13.5H14.2031L9.5625 19.3125C8.67188 20.3906 7.40625 21 6.04688 21H1.5C0.65625 21 0 20.3438 0 19.5C0 18.7031 0.65625 18 1.5 18H6.04688C6.46875 18 6.9375 17.8125 7.21875 17.4375L11.5781 12L11.3906 11.8125Z" fill="#4D3E9E"/>
</svg>
