<svg width="50" height="50" viewBox="0 0 50 50" fill="none" xmlns="http://www.w3.org/2000/svg">
    <path d="M40.2418 24.9194C39.3845 24.9194 38.6224 24.6336 38.0508 24.062L24.9999 11.0111L11.8537 24.062C10.7106 25.3004 8.71007 25.3004 7.56693 24.062C6.32852 22.9189 6.32852 20.9184 7.56693 19.7752L22.8089 4.53331C23.952 3.2949 25.9525 3.2949 27.0957 4.53331L42.3376 19.7752C43.576 20.9184 43.576 22.9189 42.3376 24.062C41.766 24.6336 41.0039 24.9194 40.2418 24.9194Z" fill="#5158F6"/>
    <path d="M40.2418 43.2097C39.3845 43.2097 38.6224 42.9239 38.0508 42.3524L24.9999 29.3015L11.8537 42.3524C10.7106 43.5908 8.71007 43.5908 7.56693 42.3524C6.32852 41.2092 6.32852 39.2087 7.56693 38.0656L22.8089 22.8236C23.952 21.5852 25.9525 21.5852 27.0957 22.8236L42.3376 38.0656C43.576 39.2087 43.576 41.2092 42.3376 42.3524C41.766 42.9239 41.0039 43.2097 40.2418 43.2097Z" fill="#ECEDFF"/>
</svg>
