<svg width="25" height="25" viewBox="0 0 25 25" fill="none" xmlns="http://www.w3.org/2000/svg">
    <path d="M6.75 3.03369C7.6875 3.03369 8.53125 3.45557 9.09375 4.20557L14.2031 10.5337H18V8.28369C18 7.86182 18.2344 7.43994 18.6562 7.25244C19.0781 7.11182 19.5938 7.20557 19.875 7.48682L23.625 11.2368C24.0938 11.7056 24.0938 12.4087 23.625 12.8306L19.875 16.5806C19.5938 16.9087 19.0781 17.0024 18.6562 16.8618C18.2344 16.6743 18 16.2524 18 15.7837V13.5337H14.2031C13.2656 13.5337 12.4219 13.1587 11.8594 12.4087L6.75 6.03369H1.5C0.65625 6.03369 0 5.37744 0 4.53369C0 3.73682 0.65625 3.03369 1.5 3.03369H6.75Z" fill="#ECEDFF"/>
    <path opacity="0.4" d="M11.8594 12.4087C12.4219 13.1587 13.2656 13.5337 14.2031 13.5337L9.09375 19.9087C8.53125 20.6587 7.6875 21.0337 6.75 21.0337H1.5C0.65625 21.0337 0 20.3774 0 19.5337C0 18.7368 0.65625 18.0337 1.5 18.0337H6.75L11.5781 12.0337L11.8594 12.4087Z" fill="#ECEDFF"/>
</svg>
