<svg width="24" height="25" viewBox="0 0 24 25" fill="none" xmlns="http://www.w3.org/2000/svg">
    <path d="M1.5 3.03369H6.04688C7.40625 3.03369 8.71875 3.68994 9.5625 4.72119L13.7344 10.0181C14.0156 10.3462 14.4844 10.5806 14.9062 10.5806H18V9.08057C18 8.47119 18.3281 7.90869 18.8906 7.67432C19.4531 7.43994 20.1094 7.58057 20.5312 8.00244L23.5312 11.0024C23.8125 11.2837 24 11.6587 24 12.0806C24 12.4556 23.8125 12.8306 23.5312 13.1118L20.5312 16.1118C20.1094 16.5337 19.4531 16.6743 18.8906 16.4399C18.3281 16.2056 18 15.6431 18 15.0337V13.5337H14.9062C13.5469 13.5337 12.2812 12.9243 11.3906 11.8462L7.21875 6.59619C6.9375 6.26807 6.46875 6.03369 6.04688 6.03369H1.5C0.65625 6.03369 0 5.37744 0 4.53369C0 3.73682 0.65625 3.03369 1.5 3.03369Z" fill="#918EF5"/>
    <path d="M11.3906 11.8462C12.2812 12.9243 13.5469 13.5337 14.9062 13.5337H14.2031L9.5625 19.3462C8.67188 20.4243 7.40625 21.0337 6.04688 21.0337H1.5C0.65625 21.0337 0 20.3774 0 19.5337C0 18.7368 0.65625 18.0337 1.5 18.0337H6.04688C6.46875 18.0337 6.9375 17.8462 7.21875 17.4712L11.5781 12.0337L11.3906 11.8462Z" fill="#ECEDFF"/>
</svg>
