<svg width="49" height="49" viewBox="0 0 49 49" fill="none" xmlns="http://www.w3.org/2000/svg">
    <path d="M42.6934 3.04839L42.6934 12.2888C42.6934 15.0514 41.3598 17.7187 39.264 19.4335L28.4994 27.9118C27.8325 28.4834 27.3562 29.436 27.3562 30.2933L27.3562 36.5806L30.4046 36.5806C31.643 36.5806 32.7862 37.2475 33.2625 38.3906C33.7388 39.5338 33.453 40.8674 32.5957 41.7248L26.4989 47.8216C25.9273 48.3931 25.1652 48.7742 24.3079 48.7742C23.5458 48.7742 22.7837 48.3931 22.2121 47.8216L16.1153 41.7248C15.258 40.8674 14.9722 39.5338 15.4485 38.3906C15.9248 37.2475 17.0679 36.5806 18.3063 36.5806L21.3547 36.5806L21.3547 30.2933C21.3547 27.5307 22.5931 24.9587 24.7842 23.1487L35.4535 14.6704C36.1204 14.0988 36.5967 13.1462 36.5967 12.2888L36.5967 3.04839C36.5967 1.33367 37.9303 -4.88801e-07 39.6451 -4.13848e-07C41.2645 -3.4306e-07 42.6934 1.33367 42.6934 3.04839Z" fill="#C2C1F4"/>
    <path opacity="0.4" d="M24.7842 23.1487C22.5931 24.9587 21.3547 27.5307 21.3547 30.2933L21.3547 28.8644L9.54223 19.4335C7.3512 17.6235 6.11279 15.0514 6.11279 12.2888L6.11279 3.04839C6.11279 1.33367 7.44646 -1.82129e-06 9.16118 -1.74634e-06C10.7806 -1.67555e-06 12.2096 1.33367 12.2096 3.04839L12.2096 12.2888C12.2096 13.1462 12.5906 14.0988 13.3527 14.6704L24.4031 23.5297L24.7842 23.1487Z" fill="#C2C1F4"/>
</svg>
