<svg width="49" height="49" viewBox="0 0 49 49" fill="none" xmlns="http://www.w3.org/2000/svg">
<path d="M15.2419 24.5969C15.2419 23.3585 16.1946 22.3106 17.5282 22.3106H31.246C32.4844 22.3106 33.5323 23.3585 33.5323 24.5969C33.5323 25.9306 32.4844 26.8832 31.246 26.8832H17.5282C16.1946 26.8832 15.2419 25.9306 15.2419 24.5969Z" fill="#5158F6"/>
<path opacity="0.4" d="M9.14516 3.25818H39.629C42.9632 3.25818 45.7258 6.02078 45.7258 9.35495V39.8388C45.7258 43.2683 42.9632 45.9356 39.629 45.9356H9.14516C5.71573 45.9356 3.04839 43.2683 3.04839 39.8388V9.35495C3.04839 6.02078 5.71573 3.25818 9.14516 3.25818ZM17.5282 22.3106C16.1946 22.3106 15.2419 23.3585 15.2419 24.5969C15.2419 25.9306 16.1946 26.8832 17.5282 26.8832H31.246C32.4844 26.8832 33.5323 25.9306 33.5323 24.5969C33.5323 23.3585 32.4844 22.3106 31.246 22.3106H17.5282Z" fill="#5158F6"/>
</svg>
