<svg width="31" height="31" viewBox="0 0 31 31" fill="none" xmlns="http://www.w3.org/2000/svg">
    <path d="M14.0399 16.7425H10.1891C9.34669 16.7425 8.745 16.1408 8.745 15.2984C8.745 14.5162 9.34669 13.8544 10.1891 13.8544H14.0399V10.0036C14.0399 9.22136 14.6415 8.5595 15.4839 8.5595C16.2661 8.5595 16.928 9.22136 16.928 10.0036V13.8544H20.7788C21.561 13.8544 22.2228 14.5162 22.2228 15.2984C22.2228 16.1408 21.561 16.7425 20.7788 16.7425H16.928V20.5933C16.928 21.4356 16.2661 22.0373 15.4839 22.0373C14.6415 22.0373 14.0399 21.4356 14.0399 20.5933V16.7425Z"
          fill="#ECEDFF"/>
    <path opacity="0.4"
          d="M5.8569 1.82059H25.1109C27.2168 1.82059 28.9617 3.56549 28.9617 5.6714V24.9254C28.9617 27.0915 27.2168 28.7762 25.1109 28.7762H5.8569C3.69082 28.7762 2.00609 27.0915 2.00609 24.9254V5.6714C2.00609 3.56549 3.69082 1.82059 5.8569 1.82059ZM14.0399 20.5933C14.0399 21.4356 14.6415 22.0373 15.4839 22.0373C16.2661 22.0373 16.928 21.4356 16.928 20.5933V16.7425H20.7788C21.561 16.7425 22.2228 16.1408 22.2228 15.2984C22.2228 14.5162 21.561 13.8544 20.7788 13.8544H16.928V10.0036C16.928 9.22136 16.2661 8.5595 15.4839 8.5595C14.6415 8.5595 14.0399 9.22136 14.0399 10.0036V13.8544H10.1891C9.34669 13.8544 8.745 14.5162 8.745 15.2984C8.745 16.1408 9.34669 16.7425 10.1891 16.7425H14.0399V20.5933Z"
          fill="#ECEDFF"/>
</svg>
