<svg width="24" height="25" viewBox="0 0 24 25" fill="none" xmlns="http://www.w3.org/2000/svg">
    <path d="M20.5312 2.00244L23.5312 5.00244C23.8125 5.28369 24 5.65869 24 6.08057C24 6.45557 23.8125 6.83057 23.5312 7.11182L20.5312 10.1118C20.1094 10.5337 19.4531 10.6743 18.8906 10.4399C18.3281 10.2056 18 9.64307 18 9.03369V7.53369H16.2188C15.8438 7.53369 15.4219 7.72119 15.1406 8.00244L10.9219 12.2212C10.0781 13.0649 8.95312 13.5337 7.73438 13.5337H1.5C0.65625 13.5337 0 12.8774 0 12.0337C0 11.2368 0.65625 10.5337 1.5 10.5337H7.73438C8.15625 10.5337 8.53125 10.3931 8.8125 10.1118L13.0312 5.89307C13.875 5.04932 15.0469 4.53369 16.2188 4.53369H17.9531V3.08057C17.9531 2.47119 18.3281 1.90869 18.8906 1.67432C19.4531 1.43994 20.1094 1.58057 20.5312 2.00244Z" fill="#5158F6"/>
    <path opacity="0.4" d="M7.73438 13.5337C8.95312 13.5337 10.0781 13.0649 10.9219 12.2212L11.1094 12.0337L15.1406 16.1118C15.4219 16.3931 15.8438 16.5806 16.2188 16.5806H18V15.0806C18 14.4712 18.3281 13.9087 18.8906 13.6743C19.4531 13.4399 20.1094 13.5806 20.5312 14.0024L23.5312 17.0024C23.8125 17.2837 24 17.6587 24 18.0806C24 18.4556 23.8125 18.8306 23.5312 19.1118L20.5312 22.1118C20.1094 22.5337 19.4531 22.6743 18.8906 22.4399C18.3281 22.2056 18 21.6431 18 21.0337V19.5337H16.2188C15.0469 19.5337 13.875 19.0649 13.0312 18.2212L8.8125 14.0024C8.53125 13.7212 8.15625 13.5337 7.73438 13.5337Z" fill="#5158F6"/>
</svg>
