<svg width="50" height="50" viewBox="0 0 50 50" fill="none" xmlns="http://www.w3.org/2000/svg">
    <path d="M48.6249 12.8211L41.0039 20.4421C39.4797 21.9663 37.1934 20.9184 37.1934 18.8226V14.25H32.4303L21.0941 27.0152C20.5226 27.682 19.7605 27.9678 18.9031 27.9678H3.66118C1.94646 27.9678 0.612793 26.6341 0.612793 24.9194C0.612793 23.2999 1.94646 21.871 3.66118 21.871H17.4742L28.8104 9.20115C29.3819 8.53431 30.144 8.15327 31.0967 8.15327H37.0982V3.67595C37.0982 1.58018 39.575 0.532298 41.0039 2.05649L48.6249 9.67746C49.5775 10.5348 49.5775 11.9637 48.6249 12.8211Z" fill="#ECEDFF"/>
    <path opacity="0.4" d="M48.6249 40.2566L41.0039 47.8776C39.4797 49.3065 37.0982 48.3539 37.0982 46.2581V41.6855H31.0967C30.144 41.6855 29.3819 41.3997 28.8104 40.7329L17.4742 27.9678H18.9031C19.7605 27.9678 20.5226 27.682 21.0941 27.0152L22.9041 24.9194L32.4303 35.5887H37.0982V31.0162C37.0982 28.9204 39.575 27.8725 41.0039 29.3967L48.6249 37.0177C49.5775 37.9703 49.5775 39.3992 48.6249 40.2566Z" fill="#ECEDFF"/>
</svg>
