<svg width="49" height="49" viewBox="0 0 49 49" fill="none" xmlns="http://www.w3.org/2000/svg">
    <path d="M44.7892 41.7248L38.6924 47.8216C38.1209 48.3931 37.3588 48.7742 36.5014 48.7742C35.7393 48.7742 34.9772 48.3931 34.4056 47.8216L28.3089 41.7248C27.4515 40.8674 27.1657 39.5338 27.642 38.3906C28.1183 37.2475 29.2615 36.5806 30.4999 36.5806L33.5483 36.5806L33.5483 32.9607C33.5483 32.1986 33.1672 31.3412 32.5957 30.7697L24.0221 22.1961C22.3073 20.4813 21.3547 18.1951 21.3547 15.7182L21.3547 3.04839C21.3547 1.33367 22.6884 -1.15505e-06 24.4031 -1.08009e-06C26.0226 -1.00931e-06 27.4515 1.33367 27.4515 3.04839L27.4515 15.7182C27.4515 16.5756 27.7373 17.3377 28.3089 17.9093L36.8824 26.4829C38.5972 28.1976 39.645 30.5791 39.645 32.9607L39.645 36.4854L42.5982 36.4854C43.8366 36.4854 44.9797 37.2475 45.456 38.3906C45.9323 39.5338 45.6466 40.8674 44.7892 41.7248Z" fill="#C2C1F4"/>
    <path opacity="0.4" d="M21.3547 15.7182C21.3547 18.1951 22.3073 20.4813 24.0221 22.1961L24.4031 22.5771L16.1153 30.7697C15.5437 31.3412 15.1627 32.1986 15.1627 32.9607L15.1627 36.5806L18.2111 36.5806C19.4495 36.5806 20.5926 37.2475 21.0689 38.3906C21.5453 39.5338 21.2595 40.8674 20.4021 41.7248L14.3053 47.8216C13.7338 48.3931 12.9717 48.7742 12.1143 48.7742C11.3522 48.7742 10.5901 48.3931 10.0185 47.8216L3.92176 41.7248C3.0644 40.8674 2.77862 39.5338 3.25493 38.3906C3.73124 37.2475 4.87438 36.5806 6.11279 36.5806L9.16118 36.5806L9.16118 32.9607C9.16118 30.5791 10.1138 28.1976 11.8285 26.4829L20.4021 17.9093C20.9737 17.3377 21.3547 16.5756 21.3547 15.7182Z" fill="#C2C1F4"/>
</svg>
