<svg width="25" height="25" viewBox="0 0 25 25" fill="none" xmlns="http://www.w3.org/2000/svg">
    <path d="M23.625 6.08057L19.875 9.83057C19.125 10.5806 18 10.0649 18 9.03369V6.78369H15.6562L10.0781 13.0649C9.79688 13.3931 9.42188 13.5337 9 13.5337H1.5C0.65625 13.5337 0 12.8774 0 12.0337C0 11.2368 0.65625 10.5337 1.5 10.5337H8.29688L13.875 4.29932C14.1562 3.97119 14.5312 3.78369 15 3.78369H17.9531V1.58057C17.9531 0.549316 19.1719 0.0336914 19.875 0.783691L23.625 4.53369C24.0938 4.95557 24.0938 5.65869 23.625 6.08057Z" fill="#ECEDFF"/>
    <path opacity="0.4" d="M23.625 19.5806L19.875 23.3306C19.125 24.0337 17.9531 23.5649 17.9531 22.5337V20.2837H15C14.5312 20.2837 14.1562 20.1431 13.875 19.8149L8.29688 13.5337H9C9.42188 13.5337 9.79688 13.3931 10.0781 13.0649L10.9688 12.0337L15.6562 17.2837H17.9531V15.0337C17.9531 14.0024 19.1719 13.4868 19.875 14.2368L23.625 17.9868C24.0938 18.4556 24.0938 19.1587 23.625 19.5806Z" fill="#ECEDFF"/>
</svg>
