<svg width="24" height="25" viewBox="0 0 24 25" fill="none" xmlns="http://www.w3.org/2000/svg">
    <path d="M19.5 12.0337C19.0781 12.0337 18.7031 11.8931 18.4219 11.6118L12 5.18994L5.53125 11.6118C4.96875 12.2212 3.98438 12.2212 3.42188 11.6118C2.8125 11.0493 2.8125 10.0649 3.42188 9.50244L10.9219 2.00244C11.4844 1.39307 12.4688 1.39307 13.0312 2.00244L20.5312 9.50244C21.1406 10.0649 21.1406 11.0493 20.5312 11.6118C20.25 11.8931 19.875 12.0337 19.5 12.0337Z" fill="#ECEDFF"/>
    <path opacity="0.4" d="M13.5 6.68994V21.0337C13.5 21.8774 12.7969 22.5337 12 22.5337C11.25 22.5337 10.5 21.8774 10.5 21.0337V6.68994L12 5.18994L13.5 6.68994Z" fill="#ECEDFF"/>
</svg>
