<svg width="24" height="24" viewBox="0 0 24 24" fill="none" xmlns="http://www.w3.org/2000/svg">
    <path d="M10.9219 1.96875C11.4844 1.35938 12.4688 1.35938 13.0312 1.96875L20.5312 9.46875C21.1406 10.0312 21.1406 11.0156 20.5312 11.5781C19.9688 12.1875 18.9844 12.1875 18.4219 11.5781L12 5.15625L5.53125 11.5781C4.96875 12.1875 3.98438 12.1875 3.42188 11.5781C2.8125 11.0156 2.8125 10.0312 3.42188 9.46875L10.9219 1.96875Z" fill="#4D3E9E"/>
    <path opacity="0.4" d="M10.9219 10.9688C11.4844 10.3594 12.4688 10.3594 13.0312 10.9688L20.5312 18.4688C21.1406 19.0312 21.1406 20.0156 20.5312 20.5781C19.9688 21.1875 18.9844 21.1875 18.4219 20.5781L12 14.1562L5.53125 20.5781C4.96875 21.1875 3.98438 21.1875 3.42188 20.5781C2.8125 20.0156 2.8125 19.0312 3.42188 18.4688L10.9219 10.9688Z" fill="#4D3E9E"/>
</svg>
