<svg width="24" height="25" viewBox="0 0 24 25" fill="none" xmlns="http://www.w3.org/2000/svg">
    <path d="M22.5 5C22.5 5.84375 21.7969 6.5 21 6.5H3C2.15625 6.5 1.5 5.84375 1.5 5C1.5 4.20312 2.15625 3.5 3 3.5H21C21.7969 3.5 22.5 4.20312 22.5 5ZM22.5 20C22.5 20.8438 21.7969 21.5 21 21.5H3C2.15625 21.5 1.5 20.8438 1.5 20C1.5 19.2031 2.15625 18.5 3 18.5H21C21.7969 18.5 22.5 19.2031 22.5 20Z" fill="#5158F6"/>
    <path d="M1.5 12.5C1.5 11.7031 2.15625 11 3 11H21C21.7969 11 22.5 11.7031 22.5 12.5C22.5 13.3438 21.7969 14 21 14H3C2.15625 14 1.5 13.3438 1.5 12.5Z" fill="#000000"/>
</svg>