<svg width="24" height="24" viewBox="0 0 24 24" fill="none" xmlns="http://www.w3.org/2000/svg">
    <path d="M16.9219 19.0781L12 14.1562L7.03125 19.0781C6.46875 19.6875 5.48438 19.6875 4.92188 19.0781C4.3125 18.5156 4.3125 17.5312 4.92188 16.9688L9.84375 12L4.92188 7.07812C4.3125 6.51562 4.3125 5.53125 4.92188 4.96875C5.48438 4.35938 6.46875 4.35938 7.03125 4.96875L12 9.89062L16.9219 4.96875C17.4844 4.35938 18.4688 4.35938 19.0312 4.96875C19.6406 5.53125 19.6406 6.51562 19.0312 7.07812L14.1094 12L19.0312 16.9688C19.6406 17.5312 19.6406 18.5156 19.0312 19.0781C18.4688 19.6875 17.4844 19.6875 16.9219 19.0781Z" fill="#5158F6"/>
</svg>
