<svg width="121" height="32" viewBox="0 0 121 32" fill="none" xmlns="http://www.w3.org/2000/svg">
    <g clip-path="url(#clip0_4006_1373)">
        <path d="M62.4079 13L62.3959 5.81204L58.8799 11.884H58.5799L55.0639 5.83604V13H54.4639V4.60004H54.9799L58.7359 11.092L62.4919 4.60004H62.9959L63.0079 13H62.4079ZM69.7046 13.06C68.6406 13.06 67.8126 12.752 67.2206 12.136C66.6366 11.52 66.3446 10.62 66.3446 9.43604V4.60004H66.9566V9.41204C66.9566 10.444 67.1926 11.216 67.6646 11.728C68.1366 12.24 68.8206 12.496 69.7166 12.496C70.6046 12.496 71.2846 12.24 71.7566 11.728C72.2286 11.216 72.4646 10.444 72.4646 9.41204V4.60004H73.0766V9.43604C73.0766 10.62 72.7806 11.52 72.1886 12.136C71.5966 12.752 70.7686 13.06 69.7046 13.06ZM79.9762 13.06C79.1522 13.06 78.4082 12.876 77.7442 12.508C77.0802 12.132 76.5562 11.62 76.1722 10.972C75.7962 10.324 75.6082 9.60004 75.6082 8.80004C75.6082 8.00004 75.7962 7.27604 76.1722 6.62804C76.5562 5.98004 77.0802 5.47204 77.7442 5.10404C78.4082 4.72804 79.1522 4.54004 79.9762 4.54004C80.8002 4.54004 81.5442 4.72404 82.2082 5.09204C82.8722 5.46004 83.3922 5.96804 83.7682 6.61604C84.1522 7.26404 84.3442 7.99204 84.3442 8.80004C84.3442 9.60804 84.1522 10.336 83.7682 10.984C83.3922 11.632 82.8722 12.14 82.2082 12.508C81.5442 12.876 80.8002 13.06 79.9762 13.06ZM79.9762 12.496C80.6802 12.496 81.3162 12.336 81.8842 12.016C82.4522 11.696 82.9002 11.256 83.2282 10.696C83.5562 10.128 83.7202 9.49604 83.7202 8.80004C83.7202 8.10404 83.5562 7.47604 83.2282 6.91604C82.9002 6.34804 82.4522 5.90404 81.8842 5.58404C81.3162 5.26404 80.6802 5.10404 79.9762 5.10404C79.2722 5.10404 78.6322 5.26404 78.0562 5.58404C77.4882 5.90404 77.0402 6.34804 76.7122 6.91604C76.3842 7.47604 76.2202 8.10404 76.2202 8.80004C76.2202 9.49604 76.3842 10.128 76.7122 10.696C77.0402 11.256 77.4882 11.696 78.0562 12.016C78.6322 12.336 79.2722 12.496 79.9762 12.496ZM93.7869 4.60004V13H93.2829L87.5589 5.70404V13H86.9469V4.60004H87.4629L93.1749 11.896V4.60004H93.7869ZM61.3039 19.6V28H60.7999L55.0759 20.704V28H54.4639V19.6H54.9799L60.6919 26.896V19.6H61.3039ZM70.5133 27.448V28H64.7173V19.6H70.3333V20.152H65.3293V23.464H69.8053V24.004H65.3293V27.448H70.5133ZM74.8327 20.152H71.8087V19.6H78.4687V20.152H75.4447V28H74.8327V20.152ZM91.6632 19.6L88.8192 28H88.1712L85.5672 20.464L82.9512 28H82.3032L79.4472 19.6H80.0952L82.6512 27.16L85.2792 19.6H85.8672L88.4832 27.172L91.0632 19.6H91.6632ZM97.3893 28.06C96.5653 28.06 95.8213 27.876 95.1573 27.508C94.4933 27.132 93.9693 26.62 93.5853 25.972C93.2093 25.324 93.0213 24.6 93.0213 23.8C93.0213 23 93.2093 22.276 93.5853 21.628C93.9693 20.98 94.4933 20.472 95.1573 20.104C95.8213 19.728 96.5653 19.54 97.3893 19.54C98.2133 19.54 98.9573 19.724 99.6213 20.092C100.285 20.46 100.805 20.968 101.181 21.616C101.565 22.264 101.757 22.992 101.757 23.8C101.757 24.608 101.565 25.336 101.181 25.984C100.805 26.632 100.285 27.14 99.6213 27.508C98.9573 27.876 98.2133 28.06 97.3893 28.06ZM97.3893 27.496C98.0933 27.496 98.7293 27.336 99.2973 27.016C99.8653 26.696 100.313 26.256 100.641 25.696C100.969 25.128 101.133 24.496 101.133 23.8C101.133 23.104 100.969 22.476 100.641 21.916C100.313 21.348 99.8653 20.904 99.2973 20.584C98.7293 20.264 98.0933 20.104 97.3893 20.104C96.6853 20.104 96.0453 20.264 95.4693 20.584C94.9013 20.904 94.4533 21.348 94.1253 21.916C93.7973 22.476 93.6333 23.104 93.6333 23.8C93.6333 24.496 93.7973 25.128 94.1253 25.696C94.4533 26.256 94.9013 26.696 95.4693 27.016C96.0453 27.336 96.6853 27.496 97.3893 27.496ZM110.192 28L108.188 25.192C107.892 25.232 107.62 25.252 107.372 25.252H104.972V28H104.36V19.6H107.372C108.428 19.6 109.256 19.852 109.856 20.356C110.456 20.852 110.756 21.544 110.756 22.432C110.756 23.096 110.584 23.656 110.24 24.112C109.904 24.56 109.42 24.876 108.788 25.06L110.888 28H110.192ZM107.372 24.712C108.268 24.712 108.952 24.516 109.424 24.124C109.896 23.724 110.132 23.16 110.132 22.432C110.132 21.704 109.896 21.144 109.424 20.752C108.952 20.352 108.268 20.152 107.372 20.152H104.972V24.712H107.372ZM115.973 23.86L114.089 25.792V28H113.477V19.6H114.089V25L119.333 19.6H120.077L116.381 23.416L120.329 28H119.585L115.973 23.86Z" fill="#5551FF"/>
        <path d="M0.589774 20.7278C0.915497 20.7278 1.17955 20.4638 1.17955 20.138C1.17955 19.8123 0.915497 19.5483 0.589774 19.5483C0.264051 19.5483 0 19.8123 0 20.138C0 20.4638 0.264051 20.7278 0.589774 20.7278Z" fill="#313144"/>
        <path d="M8.78949 20.0141C9.11521 20.0141 9.37926 19.75 9.37926 19.4243C9.37926 19.0986 9.11521 18.8345 8.78949 18.8345C8.46377 18.8345 8.19971 19.0986 8.19971 19.4243C8.19971 19.75 8.46377 20.0141 8.78949 20.0141Z" fill="#313144"/>
        <path d="M11.1586 23.3914C11.4843 23.3914 11.7484 23.1274 11.7484 22.8016C11.7484 22.4759 11.4843 22.2119 11.1586 22.2119C10.8329 22.2119 10.5688 22.4759 10.5688 22.8016C10.5688 23.1274 10.8329 23.3914 11.1586 23.3914Z" fill="#313144"/>
        <path d="M18.1499 20.9178C18.4756 20.9178 18.7397 20.6538 18.7397 20.3281C18.7397 20.0024 18.4756 19.7383 18.1499 19.7383C17.8242 19.7383 17.5601 20.0024 17.5601 20.3281C17.5601 20.6538 17.8242 20.9178 18.1499 20.9178Z" fill="#313144"/>
        <path d="M1.06536 2.73961C1.39108 2.73961 1.65513 2.47556 1.65513 2.14983C1.65513 1.82411 1.39108 1.56006 1.06536 1.56006C0.739637 1.56006 0.475586 1.82411 0.475586 2.14983C0.475586 2.47556 0.739637 2.73961 1.06536 2.73961Z" fill="#313144"/>
        <path d="M1.68419 10.1975C2.18854 10.1975 2.59739 9.78863 2.59739 9.28429C2.59739 8.77994 2.18854 8.37109 1.68419 8.37109C1.17985 8.37109 0.770996 8.77994 0.770996 9.28429C0.770996 9.78863 1.17985 10.1975 1.68419 10.1975Z" fill="#313144"/>
        <path d="M16.5232 18.7588C16.9434 18.7588 17.2842 18.4181 17.2842 17.9978C17.2842 17.5775 16.9434 17.2368 16.5232 17.2368C16.1029 17.2368 15.7622 17.5775 15.7622 17.9978C15.7622 18.4181 16.1029 18.7588 16.5232 18.7588Z" fill="#313144"/>
        <path d="M1.17945 28.0331C1.59974 28.0331 1.94045 27.6924 1.94045 27.2722C1.94045 26.8519 1.59974 26.5112 1.17945 26.5112C0.759168 26.5112 0.418457 26.8519 0.418457 27.2722C0.418457 27.6924 0.759168 28.0331 1.17945 28.0331Z" fill="#313144"/>
        <path d="M7.04901 23.9906C7.51133 23.9906 7.88611 23.6158 7.88611 23.1535C7.88611 22.6912 7.51133 22.3164 7.04901 22.3164C6.58669 22.3164 6.21191 22.6912 6.21191 23.1535C6.21191 23.6158 6.58669 23.9906 7.04901 23.9906Z" fill="#313144"/>
        <path d="M13.5175 26.8445C13.8852 26.8445 14.1833 26.5463 14.1833 26.1786C14.1833 25.8108 13.8852 25.5127 13.5175 25.5127C13.1497 25.5127 12.8516 25.8108 12.8516 26.1786C12.8516 26.5463 13.1497 26.8445 13.5175 26.8445Z" fill="#313144"/>
        <path d="M3.56717 31.667C4.1188 31.667 4.56598 31.2199 4.56598 30.6682C4.56598 30.1166 4.1188 29.6694 3.56717 29.6694C3.01554 29.6694 2.56836 30.1166 2.56836 30.6682C2.56836 31.2199 3.01554 31.667 3.56717 31.667Z" fill="#313144"/>
        <path d="M7.54323 6.94389C8.38906 6.94389 9.07474 6.2582 9.07474 5.41237C9.07474 4.56654 8.38906 3.88086 7.54323 3.88086C6.6974 3.88086 6.01172 4.56654 6.01172 5.41237C6.01172 6.2582 6.6974 6.94389 7.54323 6.94389Z" fill="#313144"/>
        <path d="M5.16492 3.3484C6.08956 3.3484 6.83912 2.59883 6.83912 1.6742C6.83912 0.749564 6.08956 0 5.16492 0C4.24029 0 3.49072 0.749564 3.49072 1.6742C3.49072 2.59883 4.24029 3.3484 5.16492 3.3484Z" fill="#313144"/>
        <path d="M5.78355 10.7111C6.57685 10.7111 7.21994 10.0681 7.21994 9.27476C7.21994 8.48147 6.57685 7.83838 5.78355 7.83838C4.99026 7.83838 4.34717 8.48147 4.34717 9.27476C4.34717 10.0681 4.99026 10.7111 5.78355 10.7111Z" fill="#313144"/>
        <path d="M9.91238 10.0738C10.7477 10.0738 11.4249 9.39663 11.4249 8.56131C11.4249 7.72599 10.7477 7.04883 9.91238 7.04883C9.07706 7.04883 8.3999 7.72599 8.3999 8.56131C8.3999 9.39663 9.07706 10.0738 9.91238 10.0738Z" fill="#313144"/>
        <path d="M4.06162 14.0881C4.86017 14.0881 5.50752 13.4408 5.50752 12.6422C5.50752 11.8437 4.86017 11.1963 4.06162 11.1963C3.26308 11.1963 2.61572 11.8437 2.61572 12.6422C2.61572 13.4408 3.26308 14.0881 4.06162 14.0881Z" fill="#313144"/>
        <path d="M8.16154 13.679C8.92331 13.679 9.54085 13.0615 9.54085 12.2997C9.54085 11.5379 8.92331 10.9204 8.16154 10.9204C7.39977 10.9204 6.78223 11.5379 6.78223 12.2997C6.78223 13.0615 7.39977 13.679 8.16154 13.679Z" fill="#313144"/>
        <path d="M12.2904 13.1368C12.9523 13.1368 13.4889 12.6002 13.4889 11.9383C13.4889 11.2763 12.9523 10.7397 12.2904 10.7397C11.6284 10.7397 11.0918 11.2763 11.0918 11.9383C11.0918 12.6002 11.6284 13.1368 12.2904 13.1368Z" fill="#313144"/>
        <path d="M10.5496 16.8844C11.2116 16.8844 11.7482 16.3478 11.7482 15.6859C11.7482 15.0239 11.2116 14.4873 10.5496 14.4873C9.88769 14.4873 9.35107 15.0239 9.35107 15.6859C9.35107 16.3478 9.88769 16.8844 10.5496 16.8844Z" fill="#313144"/>
        <path d="M6.41147 17.2463C7.07342 17.2463 7.61004 16.7097 7.61004 16.0477C7.61004 15.3858 7.07342 14.8491 6.41147 14.8491C5.74951 14.8491 5.21289 15.3858 5.21289 16.0477C5.21289 16.7097 5.74951 17.2463 6.41147 17.2463Z" fill="#313144"/>
        <path d="M4.68035 21.1366C5.43687 21.1366 6.05015 20.5233 6.05015 19.7668C6.05015 19.0103 5.43687 18.397 4.68035 18.397C3.92383 18.397 3.31055 19.0103 3.31055 19.7668C3.31055 20.5233 3.92383 21.1366 4.68035 21.1366Z" fill="#313144"/>
        <path d="M2.93 24.7228C3.60246 24.7228 4.14759 24.1777 4.14759 23.5052C4.14759 22.8328 3.60246 22.2876 2.93 22.2876C2.25754 22.2876 1.7124 22.8328 1.7124 23.5052C1.7124 24.1777 2.25754 24.7228 2.93 24.7228Z" fill="#313144"/>
        <path d="M15.2675 23.7811C16.0188 23.7811 16.6278 23.1721 16.6278 22.4208C16.6278 21.6695 16.0188 21.0605 15.2675 21.0605C14.5162 21.0605 13.9072 21.6695 13.9072 22.4208C13.9072 23.1721 14.5162 23.7811 15.2675 23.7811Z" fill="#313144"/>
        <path d="M12.8898 20.433C13.6463 20.433 14.2596 19.8198 14.2596 19.0632C14.2596 18.3067 13.6463 17.6934 12.8898 17.6934C12.1333 17.6934 11.52 18.3067 11.52 19.0632C11.52 19.8198 12.1333 20.433 12.8898 20.433Z" fill="#313144"/>
        <path d="M5.28874 28.2806C6.04526 28.2806 6.65854 27.6673 6.65854 26.9108C6.65854 26.1543 6.04526 25.541 5.28874 25.541C4.53223 25.541 3.91895 26.1543 3.91895 26.9108C3.91895 27.6673 4.53223 28.2806 5.28874 28.2806Z" fill="#313144"/>
        <path d="M2.28297 17.4175C2.84511 17.4175 3.30081 16.9618 3.30081 16.3996C3.30081 15.8375 2.84511 15.3818 2.28297 15.3818C1.72084 15.3818 1.26514 15.8375 1.26514 16.3996C1.26514 16.9618 1.72084 17.4175 2.28297 17.4175Z" fill="#313144"/>
        <path d="M14.6585 16.3331C15.2206 16.3331 15.6763 15.8774 15.6763 15.3153C15.6763 14.7531 15.2206 14.2974 14.6585 14.2974C14.0963 14.2974 13.6406 14.7531 13.6406 15.3153C13.6406 15.8774 14.0963 16.3331 14.6585 16.3331Z" fill="#313144"/>
        <path d="M3.43387 7.03913C4.26919 7.03913 4.94636 6.36197 4.94636 5.52665C4.94636 4.69132 4.26919 4.01416 3.43387 4.01416C2.59855 4.01416 1.92139 4.69132 1.92139 5.52665C1.92139 6.36197 2.59855 7.03913 3.43387 7.03913Z" fill="#313144"/>
        <path d="M39.4106 20.7278C39.7363 20.7278 40.0003 20.4638 40.0003 20.138C40.0003 19.8123 39.7363 19.5483 39.4106 19.5483C39.0848 19.5483 38.8208 19.8123 38.8208 20.138C38.8208 20.4638 39.0848 20.7278 39.4106 20.7278Z" fill="#313144"/>
        <path d="M31.2103 20.0141C31.5361 20.0141 31.8001 19.75 31.8001 19.4243C31.8001 19.0986 31.5361 18.8345 31.2103 18.8345C30.8846 18.8345 30.6206 19.0986 30.6206 19.4243C30.6206 19.75 30.8846 20.0141 31.2103 20.0141Z" fill="#313144"/>
        <path d="M28.8418 23.3914C29.1675 23.3914 29.4315 23.1274 29.4315 22.8016C29.4315 22.4759 29.1675 22.2119 28.8418 22.2119C28.516 22.2119 28.252 22.4759 28.252 22.8016C28.252 23.1274 28.516 23.3914 28.8418 23.3914Z" fill="#313144"/>
        <path d="M21.8501 20.9178C22.1758 20.9178 22.4398 20.6538 22.4398 20.3281C22.4398 20.0024 22.1758 19.7383 21.8501 19.7383C21.5243 19.7383 21.2603 20.0024 21.2603 20.3281C21.2603 20.6538 21.5243 20.9178 21.8501 20.9178Z" fill="#313144"/>
        <path d="M38.935 2.73961C39.2607 2.73961 39.5247 2.47556 39.5247 2.14983C39.5247 1.82411 39.2607 1.56006 38.935 1.56006C38.6092 1.56006 38.3452 1.82411 38.3452 2.14983C38.3452 2.47556 38.6092 2.73961 38.935 2.73961Z" fill="#313144"/>
        <path d="M38.3159 10.1975C38.8203 10.1975 39.2291 9.78863 39.2291 9.28429C39.2291 8.77994 38.8203 8.37109 38.3159 8.37109C37.8116 8.37109 37.4028 8.77994 37.4028 9.28429C37.4028 9.78863 37.8116 10.1975 38.3159 10.1975Z" fill="#313144"/>
        <path d="M23.4768 18.7588C23.8971 18.7588 24.2378 18.4181 24.2378 17.9978C24.2378 17.5775 23.8971 17.2368 23.4768 17.2368C23.0566 17.2368 22.7158 17.5775 22.7158 17.9978C22.7158 18.4181 23.0566 18.7588 23.4768 18.7588Z" fill="#313144"/>
        <path d="M38.8206 28.0331C39.2409 28.0331 39.5816 27.6924 39.5816 27.2722C39.5816 26.8519 39.2409 26.5112 38.8206 26.5112C38.4003 26.5112 38.0596 26.8519 38.0596 27.2722C38.0596 27.6924 38.4003 28.0331 38.8206 28.0331Z" fill="#313144"/>
        <path d="M32.9514 23.9906C33.4137 23.9906 33.7885 23.6158 33.7885 23.1535C33.7885 22.6912 33.4137 22.3164 32.9514 22.3164C32.4891 22.3164 32.1143 22.6912 32.1143 23.1535C32.1143 23.6158 32.4891 23.9906 32.9514 23.9906Z" fill="#313144"/>
        <path d="M26.4823 26.8445C26.8501 26.8445 27.1482 26.5463 27.1482 26.1786C27.1482 25.8108 26.8501 25.5127 26.4823 25.5127C26.1145 25.5127 25.8164 25.8108 25.8164 26.1786C25.8164 26.5463 26.1145 26.8445 26.4823 26.8445Z" fill="#313144"/>
        <path d="M36.4329 31.667C36.9845 31.667 37.4317 31.2199 37.4317 30.6682C37.4317 30.1166 36.9845 29.6694 36.4329 29.6694C35.8812 29.6694 35.4341 30.1166 35.4341 30.6682C35.4341 31.2199 35.8812 31.667 36.4329 31.667Z" fill="#313144"/>
        <path d="M32.4568 6.94389C33.3027 6.94389 33.9883 6.2582 33.9883 5.41237C33.9883 4.56654 33.3027 3.88086 32.4568 3.88086C31.611 3.88086 30.9253 4.56654 30.9253 5.41237C30.9253 6.2582 31.611 6.94389 32.4568 6.94389Z" fill="#313144"/>
        <path d="M34.8353 3.3484C35.7599 3.3484 36.5095 2.59883 36.5095 1.6742C36.5095 0.749564 35.7599 0 34.8353 0C33.9107 0 33.1611 0.749564 33.1611 1.6742C33.1611 2.59883 33.9107 3.3484 34.8353 3.3484Z" fill="#313144"/>
        <path d="M34.2167 10.7111C35.0099 10.7111 35.653 10.0681 35.653 9.27476C35.653 8.48147 35.0099 7.83838 34.2167 7.83838C33.4234 7.83838 32.7803 8.48147 32.7803 9.27476C32.7803 10.0681 33.4234 10.7111 34.2167 10.7111Z" fill="#313144"/>
        <path d="M30.0877 10.0738C30.923 10.0738 31.6002 9.39663 31.6002 8.56131C31.6002 7.72599 30.923 7.04883 30.0877 7.04883C29.2524 7.04883 28.5752 7.72599 28.5752 8.56131C28.5752 9.39663 29.2524 10.0738 30.0877 10.0738Z" fill="#313144"/>
        <path d="M35.9386 14.0881C36.7371 14.0881 37.3845 13.4408 37.3845 12.6422C37.3845 11.8437 36.7371 11.1963 35.9386 11.1963C35.14 11.1963 34.4927 11.8437 34.4927 12.6422C34.4927 13.4408 35.14 14.0881 35.9386 14.0881Z" fill="#313144"/>
        <path d="M31.8378 13.679C32.5996 13.679 33.2172 13.0615 33.2172 12.2997C33.2172 11.5379 32.5996 10.9204 31.8378 10.9204C31.0761 10.9204 30.4585 11.5379 30.4585 12.2997C30.4585 13.0615 31.0761 13.679 31.8378 13.679Z" fill="#313144"/>
        <path d="M27.7098 13.1368C28.3717 13.1368 28.9084 12.6002 28.9084 11.9383C28.9084 11.2763 28.3717 10.7397 27.7098 10.7397C27.0478 10.7397 26.5112 11.2763 26.5112 11.9383C26.5112 12.6002 27.0478 13.1368 27.7098 13.1368Z" fill="#313144"/>
        <path d="M29.4505 16.8844C30.1125 16.8844 30.6491 16.3478 30.6491 15.6859C30.6491 15.0239 30.1125 14.4873 29.4505 14.4873C28.7886 14.4873 28.252 15.0239 28.252 15.6859C28.252 16.3478 28.7886 16.8844 29.4505 16.8844Z" fill="#313144"/>
        <path d="M33.5887 17.2463C34.2506 17.2463 34.7873 16.7097 34.7873 16.0477C34.7873 15.3858 34.2506 14.8491 33.5887 14.8491C32.9267 14.8491 32.3901 15.3858 32.3901 16.0477C32.3901 16.7097 32.9267 17.2463 33.5887 17.2463Z" fill="#313144"/>
        <path d="M35.3195 21.1366C36.076 21.1366 36.6893 20.5233 36.6893 19.7668C36.6893 19.0103 36.076 18.397 35.3195 18.397C34.563 18.397 33.9497 19.0103 33.9497 19.7668C33.9497 20.5233 34.563 21.1366 35.3195 21.1366Z" fill="#313144"/>
        <path d="M37.0697 24.7228C37.7421 24.7228 38.2873 24.1777 38.2873 23.5052C38.2873 22.8328 37.7421 22.2876 37.0697 22.2876C36.3972 22.2876 35.8521 22.8328 35.8521 23.5052C35.8521 24.1777 36.3972 24.7228 37.0697 24.7228Z" fill="#313144"/>
        <path d="M24.7324 23.7811C25.4837 23.7811 26.0927 23.1721 26.0927 22.4208C26.0927 21.6695 25.4837 21.0605 24.7324 21.0605C23.9812 21.0605 23.3721 21.6695 23.3721 22.4208C23.3721 23.1721 23.9812 23.7811 24.7324 23.7811Z" fill="#313144"/>
        <path d="M27.111 20.433C27.8675 20.433 28.4808 19.8198 28.4808 19.0632C28.4808 18.3067 27.8675 17.6934 27.111 17.6934C26.3545 17.6934 25.7412 18.3067 25.7412 19.0632C25.7412 19.8198 26.3545 20.433 27.111 20.433Z" fill="#313144"/>
        <path d="M34.7111 28.2806C35.4676 28.2806 36.0809 27.6673 36.0809 26.9108C36.0809 26.1543 35.4676 25.541 34.7111 25.541C33.9546 25.541 33.3413 26.1543 33.3413 26.9108C33.3413 27.6673 33.9546 28.2806 34.7111 28.2806Z" fill="#313144"/>
        <path d="M37.7171 17.4175C38.2792 17.4175 38.7349 16.9618 38.7349 16.3996C38.7349 15.8375 38.2792 15.3818 37.7171 15.3818C37.1549 15.3818 36.6992 15.8375 36.6992 16.3996C36.6992 16.9618 37.1549 17.4175 37.7171 17.4175Z" fill="#313144"/>
        <path d="M25.341 16.3331C25.9031 16.3331 26.3588 15.8774 26.3588 15.3153C26.3588 14.7531 25.9031 14.2974 25.341 14.2974C24.7789 14.2974 24.3232 14.7531 24.3232 15.3153C24.3232 15.8774 24.7789 16.3331 25.341 16.3331Z" fill="#313144"/>
        <path d="M36.5662 7.03913C37.4015 7.03913 38.0786 6.36197 38.0786 5.52665C38.0786 4.69132 37.4015 4.01416 36.5662 4.01416C35.7308 4.01416 35.0537 4.69132 35.0537 5.52665C35.0537 6.36197 35.7308 7.03913 36.5662 7.03913Z" fill="#313144"/>
        <path d="M17.6361 27.0153C18.2981 27.0153 18.8347 26.4787 18.8347 25.8168C18.8347 25.1548 18.2981 24.6182 17.6361 24.6182C16.9742 24.6182 16.4375 25.1548 16.4375 25.8168C16.4375 26.4787 16.9742 27.0153 17.6361 27.0153Z" fill="#313144"/>
        <path d="M22.3641 27.0153C23.026 27.0153 23.5626 26.4787 23.5626 25.8168C23.5626 25.1548 23.026 24.6182 22.3641 24.6182C21.7021 24.6182 21.1655 25.1548 21.1655 25.8168C21.1655 26.4787 21.7021 27.0153 22.3641 27.0153Z" fill="#313144"/>
        <path d="M20.0044 23.9521C20.5613 23.9521 21.0128 23.5007 21.0128 22.9438C21.0128 22.3869 20.5613 21.9355 20.0044 21.9355C19.4476 21.9355 18.9961 22.3869 18.9961 22.9438C18.9961 23.5007 19.4476 23.9521 20.0044 23.9521Z" fill="#313144"/>
        <path d="M15.8954 30.2213C16.2632 30.2213 16.5613 29.9232 16.5613 29.5554C16.5613 29.1877 16.2632 28.8896 15.8954 28.8896C15.5277 28.8896 15.2295 29.1877 15.2295 29.5554C15.2295 29.9232 15.5277 30.2213 15.8954 30.2213Z" fill="#313144"/>
        <path d="M24.1043 30.2213C24.4721 30.2213 24.7702 29.9232 24.7702 29.5554C24.7702 29.1877 24.4721 28.8896 24.1043 28.8896C23.7366 28.8896 23.4385 29.1877 23.4385 29.5554C23.4385 29.9232 23.7366 30.2213 24.1043 30.2213Z" fill="#313144"/>
        <path d="M20.0044 30.2974C20.5613 30.2974 21.0128 29.846 21.0128 29.2891C21.0128 28.7322 20.5613 28.2808 20.0044 28.2808C19.4476 28.2808 18.9961 28.7322 18.9961 29.2891C18.9961 29.846 19.4476 30.2974 20.0044 30.2974Z" fill="#313144"/>
    </g>
    <defs>
        <clipPath id="clip0_4006_1373">
            <rect width="121" height="32" fill="white"/>
        </clipPath>
    </defs>
</svg>
