<svg width="22" height="18" viewBox="0 0 22 18" fill="none" xmlns="http://www.w3.org/2000/svg">
    <g clip-path="url(#clip0_4013_1422)">
        <path d="M0.845943 11.1796C1.0157 11.1796 1.15331 11.042 1.15331 10.8722C1.15331 10.7026 1.0157 10.5649 0.845943 10.5649C0.676188 10.5649 0.538574 10.7026 0.538574 10.8722C0.538574 11.042 0.676188 11.1796 0.845943 11.1796Z" fill="#5158F6"/>
        <path d="M5.11938 10.8076C5.28913 10.8076 5.42675 10.67 5.42675 10.5003C5.42675 10.3305 5.28913 10.1929 5.11938 10.1929C4.94963 10.1929 4.81201 10.3305 4.81201 10.5003C4.81201 10.67 4.94963 10.8076 5.11938 10.8076Z" fill="#5158F6"/>
        <path d="M6.35376 12.5678C6.52351 12.5678 6.66113 12.4302 6.66113 12.2605C6.66113 12.0907 6.52351 11.9531 6.35376 11.9531C6.184 11.9531 6.04639 12.0907 6.04639 12.2605C6.04639 12.4302 6.184 12.5678 6.35376 12.5678Z" fill="#5158F6"/>
        <path d="M9.99781 11.2788C10.1676 11.2788 10.3052 11.1412 10.3052 10.9714C10.3052 10.8017 10.1676 10.6641 9.99781 10.6641C9.82805 10.6641 9.69043 10.8017 9.69043 10.9714C9.69043 11.1412 9.82805 11.2788 9.99781 11.2788Z" fill="#5158F6"/>
        <path d="M1.09399 1.80468C1.26375 1.80468 1.40136 1.66706 1.40136 1.49731C1.40136 1.32756 1.26375 1.18994 1.09399 1.18994C0.924235 1.18994 0.786621 1.32756 0.786621 1.49731C0.786621 1.66706 0.924235 1.80468 1.09399 1.80468Z" fill="#5158F6"/>
        <path d="M1.41586 5.6916C1.67872 5.6916 1.8918 5.47852 1.8918 5.21567C1.8918 4.95282 1.67872 4.73975 1.41586 4.73975C1.15302 4.73975 0.939941 4.95282 0.939941 5.21567C0.939941 5.47852 1.15302 5.6916 1.41586 5.6916Z" fill="#5158F6"/>
        <path d="M9.15003 10.1536C9.36903 10.1536 9.54665 9.97597 9.54665 9.75697C9.54665 9.53789 9.36903 9.36035 9.15003 9.36035C8.93096 9.36035 8.75342 9.53789 8.75342 9.75697C8.75342 9.97597 8.93096 10.1536 9.15003 10.1536Z" fill="#5158F6"/>
        <path d="M1.15344 14.9871C1.37248 14.9871 1.55005 14.8095 1.55005 14.5905C1.55005 14.3715 1.37248 14.1938 1.15344 14.1938C0.934402 14.1938 0.756836 14.3715 0.756836 14.5905C0.756836 14.8095 0.934402 14.9871 1.15344 14.9871Z" fill="#5158F6"/>
        <path d="M4.20727 12.8799C4.4482 12.8799 4.64353 12.6846 4.64353 12.4436C4.64353 12.2026 4.4482 12.0073 4.20727 12.0073C3.96632 12.0073 3.771 12.2026 3.771 12.4436C3.771 12.6846 3.96632 12.8799 4.20727 12.8799Z" fill="#5158F6"/>
        <path d="M8.82254 16.2163C9.06346 16.2163 9.25877 16.0209 9.25877 15.78C9.25877 15.5391 9.06346 15.3438 8.82254 15.3438C8.58154 15.3438 8.38623 15.5391 8.38623 15.78C8.38623 16.0209 8.58154 16.2163 8.82254 16.2163Z" fill="#5158F6"/>
        <path d="M7.58336 14.3673C7.77502 14.3673 7.93039 14.212 7.93039 14.0203C7.93039 13.8286 7.77502 13.6733 7.58336 13.6733C7.39171 13.6733 7.23633 13.8286 7.23633 14.0203C7.23633 14.212 7.39171 14.3673 7.58336 14.3673Z" fill="#5158F6"/>
        <path d="M2.39262 16.8809C2.68011 16.8809 2.91316 16.6478 2.91316 16.3604C2.91316 16.0728 2.68011 15.8398 2.39262 15.8398C2.10513 15.8398 1.87207 16.0728 1.87207 16.3604C1.87207 16.6478 2.10513 16.8809 2.39262 16.8809Z" fill="#5158F6"/>
        <path d="M4.47004 3.99624C4.91086 3.99624 5.26821 3.63889 5.26821 3.19807C5.26821 2.75726 4.91086 2.3999 4.47004 2.3999C4.02923 2.3999 3.67188 2.75726 3.67188 3.19807C3.67188 3.63889 4.02923 3.99624 4.47004 3.99624Z" fill="#5158F6"/>
        <path d="M3.22556 2.12202C3.70745 2.12202 4.0981 1.73138 4.0981 1.24948C4.0981 0.767599 3.70745 0.376953 3.22556 0.376953C2.74367 0.376953 2.35303 0.767599 2.35303 1.24948C2.35303 1.73138 2.74367 2.12202 3.22556 2.12202Z" fill="#5158F6"/>
        <path d="M3.54792 5.9591C3.96135 5.9591 4.29651 5.62395 4.29651 5.21051C4.29651 4.79707 3.96135 4.46191 3.54792 4.46191C3.13448 4.46191 2.79932 4.79707 2.79932 5.21051C2.79932 5.62395 3.13448 5.9591 3.54792 5.9591Z" fill="#5158F6"/>
        <path d="M5.70427 5.6268C6.13961 5.6268 6.49252 5.27389 6.49252 4.83855C6.49252 4.4032 6.13961 4.05029 5.70427 4.05029C5.26892 4.05029 4.91602 4.4032 4.91602 4.83855C4.91602 5.27389 5.26892 5.6268 5.70427 5.6268Z" fill="#5158F6"/>
        <path d="M2.65541 7.71901C3.07158 7.71901 3.40896 7.38164 3.40896 6.96546C3.40896 6.54928 3.07158 6.21191 2.65541 6.21191C2.23923 6.21191 1.90186 6.54928 1.90186 6.96546C1.90186 7.38164 2.23923 7.71901 2.65541 7.71901Z" fill="#5158F6"/>
        <path d="M4.79209 7.50605C5.1891 7.50605 5.51093 7.18421 5.51093 6.78721C5.51093 6.3902 5.1891 6.06836 4.79209 6.06836C4.39508 6.06836 4.07324 6.3902 4.07324 6.78721C4.07324 7.18421 4.39508 7.50605 4.79209 7.50605Z" fill="#5158F6"/>
        <path d="M6.9435 7.22343C7.28849 7.22343 7.56816 6.94376 7.56816 6.59877C7.56816 6.25379 7.28849 5.97412 6.9435 5.97412C6.59851 5.97412 6.31885 6.25379 6.31885 6.59877C6.31885 6.94376 6.59851 7.22343 6.9435 7.22343Z" fill="#5158F6"/>
        <path d="M6.03188 9.17659C6.37687 9.17659 6.65653 8.8969 6.65653 8.5519C6.65653 8.2069 6.37687 7.92725 6.03188 7.92725C5.6869 7.92725 5.40723 8.2069 5.40723 8.5519C5.40723 8.8969 5.6869 9.17659 6.03188 9.17659Z" fill="#5158F6"/>
        <path d="M3.88002 9.36503C4.22502 9.36503 4.50468 9.08534 4.50468 8.74042C4.50468 8.39542 4.22502 8.11572 3.88002 8.11572C3.53504 8.11572 3.25537 8.39542 3.25537 8.74042C3.25537 9.08534 3.53504 9.36503 3.88002 9.36503Z" fill="#5158F6"/>
        <path d="M2.97268 11.3926C3.36695 11.3926 3.68657 11.073 3.68657 10.6788C3.68657 10.2845 3.36695 9.96484 2.97268 9.96484C2.57841 9.96484 2.25879 10.2845 2.25879 10.6788C2.25879 11.073 2.57841 11.3926 2.97268 11.3926Z" fill="#5158F6"/>
        <path d="M2.06523 13.2618C2.41569 13.2618 2.6998 12.9777 2.6998 12.6272C2.6998 12.2768 2.41569 11.9927 2.06523 11.9927C1.71477 11.9927 1.43066 12.2768 1.43066 12.6272C1.43066 12.9777 1.71477 13.2618 2.06523 13.2618Z" fill="#5158F6"/>
        <path d="M8.49559 12.7709C8.88705 12.7709 9.20451 12.4535 9.20451 12.062C9.20451 11.6704 8.88705 11.353 8.49559 11.353C8.10402 11.353 7.78662 11.6704 7.78662 12.062C7.78662 12.4535 8.10402 12.7709 8.49559 12.7709Z" fill="#5158F6"/>
        <path d="M7.25099 11.0259C7.64527 11.0259 7.96489 10.7063 7.96489 10.312C7.96489 9.91776 7.64527 9.59814 7.25099 9.59814C6.85672 9.59814 6.53711 9.91776 6.53711 10.312C6.53711 10.7063 6.85672 11.0259 7.25099 11.0259Z" fill="#5158F6"/>
        <path d="M3.29494 15.1158C3.68922 15.1158 4.00883 14.7962 4.00883 14.4019C4.00883 14.0076 3.68922 13.688 3.29494 13.688C2.90067 13.688 2.58105 14.0076 2.58105 14.4019C2.58105 14.7962 2.90067 15.1158 3.29494 15.1158Z" fill="#5158F6"/>
        <path d="M1.72333 9.45448C2.0163 9.45448 2.25379 9.21702 2.25379 8.92402C2.25379 8.63109 2.0163 8.39355 1.72333 8.39355C1.43037 8.39355 1.19287 8.63109 1.19287 8.92402C1.19287 9.21702 1.43037 9.45448 1.72333 9.45448Z" fill="#5158F6"/>
        <path d="M8.17841 8.88903C8.4714 8.88903 8.70886 8.65157 8.70886 8.35857C8.70886 8.06562 8.4714 7.82812 8.17841 7.82812C7.88544 7.82812 7.64795 8.06562 7.64795 8.35857C7.64795 8.65157 7.88544 8.88903 8.17841 8.88903Z" fill="#5158F6"/>
        <path d="M2.32829 4.04575C2.76363 4.04575 3.11655 3.69284 3.11655 3.25749C3.11655 2.82215 2.76363 2.46924 2.32829 2.46924C1.89295 2.46924 1.54004 2.82215 1.54004 3.25749C1.54004 3.69284 1.89295 4.04575 2.32829 4.04575Z" fill="#5158F6"/>
        <path d="M10.8752 12.771C11.1709 12.771 11.4106 12.5313 11.4106 12.2357C11.4106 11.9399 11.1709 11.7002 10.8752 11.7002C10.5795 11.7002 10.3398 11.9399 10.3398 12.2357C10.3398 12.5313 10.5795 12.771 10.8752 12.771Z" fill="#5158F6"/>
        <path d="M21.0779 11.1797C21.2476 11.1797 21.3852 11.0421 21.3852 10.8723C21.3852 10.7026 21.2476 10.5649 21.0779 10.5649C20.9081 10.5649 20.7705 10.7026 20.7705 10.8723C20.7705 11.0421 20.9081 11.1797 21.0779 11.1797Z" fill="#5158F6"/>
        <path d="M16.7996 10.8076C16.9693 10.8076 17.107 10.67 17.107 10.5003C17.107 10.3305 16.9693 10.1929 16.7996 10.1929C16.6298 10.1929 16.4922 10.3305 16.4922 10.5003C16.4922 10.67 16.6298 10.8076 16.7996 10.8076Z" fill="#5158F6"/>
        <path d="M15.57 12.5678C15.7398 12.5678 15.8774 12.4302 15.8774 12.2605C15.8774 12.0907 15.7398 11.9531 15.57 11.9531C15.4003 11.9531 15.2627 12.0907 15.2627 12.2605C15.2627 12.4302 15.4003 12.5678 15.57 12.5678Z" fill="#5158F6"/>
        <path d="M11.926 11.2788C12.0957 11.2788 12.2333 11.1412 12.2333 10.9714C12.2333 10.8017 12.0957 10.6641 11.926 10.6641C11.7562 10.6641 11.6187 10.8017 11.6187 10.9714C11.6187 11.1412 11.7562 11.2788 11.926 11.2788Z" fill="#5158F6"/>
        <path d="M20.8298 1.80468C20.9996 1.80468 21.1372 1.66706 21.1372 1.49731C21.1372 1.32756 20.9996 1.18994 20.8298 1.18994C20.6601 1.18994 20.5225 1.32756 20.5225 1.49731C20.5225 1.66706 20.6601 1.80468 20.8298 1.80468Z" fill="#5158F6"/>
        <path d="M20.5077 5.6916C20.7705 5.6916 20.9836 5.47852 20.9836 5.21568C20.9836 4.95283 20.7705 4.73975 20.5077 4.73975C20.2448 4.73975 20.0317 4.95283 20.0317 5.21568C20.0317 5.47852 20.2448 5.6916 20.5077 5.6916Z" fill="#5158F6"/>
        <path d="M12.774 10.1536C12.9931 10.1536 13.1706 9.97597 13.1706 9.75697C13.1706 9.53789 12.9931 9.36035 12.774 9.36035C12.555 9.36035 12.3774 9.53789 12.3774 9.75697C12.3774 9.97597 12.555 10.1536 12.774 10.1536Z" fill="#5158F6"/>
        <path d="M20.7653 14.9871C20.9843 14.9871 21.1618 14.8095 21.1618 14.5905C21.1618 14.3715 20.9843 14.1938 20.7653 14.1938C20.5462 14.1938 20.3687 14.3715 20.3687 14.5905C20.3687 14.8095 20.5462 14.9871 20.7653 14.9871Z" fill="#5158F6"/>
        <path d="M17.7116 12.8799C17.9525 12.8799 18.1479 12.6846 18.1479 12.4436C18.1479 12.2026 17.9525 12.0073 17.7116 12.0073C17.4707 12.0073 17.2754 12.2026 17.2754 12.4436C17.2754 12.6846 17.4707 12.8799 17.7116 12.8799Z" fill="#5158F6"/>
        <path d="M13.1013 16.2163C13.3423 16.2163 13.5376 16.0209 13.5376 15.78C13.5376 15.5391 13.3423 15.3438 13.1013 15.3438C12.8603 15.3438 12.665 15.5391 12.665 15.78C12.665 16.0209 12.8603 16.2163 13.1013 16.2163Z" fill="#5158F6"/>
        <path d="M14.3353 14.3673C14.527 14.3673 14.6823 14.212 14.6823 14.0203C14.6823 13.8286 14.527 13.6733 14.3353 13.6733C14.1436 13.6733 13.9883 13.8286 13.9883 14.0203C13.9883 14.212 14.1436 14.3673 14.3353 14.3673Z" fill="#5158F6"/>
        <path d="M19.5259 16.8809C19.8134 16.8809 20.0464 16.6478 20.0464 16.3604C20.0464 16.0728 19.8134 15.8398 19.5259 15.8398C19.2384 15.8398 19.0054 16.0728 19.0054 16.3604C19.0054 16.6478 19.2384 16.8809 19.5259 16.8809Z" fill="#5158F6"/>
        <path d="M17.449 3.99624C17.8899 3.99624 18.2472 3.63889 18.2472 3.19807C18.2472 2.75726 17.8899 2.3999 17.449 2.3999C17.0083 2.3999 16.6509 2.75726 16.6509 3.19807C16.6509 3.63889 17.0083 3.99624 17.449 3.99624Z" fill="#5158F6"/>
        <path d="M18.6933 2.12202C19.1752 2.12202 19.5659 1.73138 19.5659 1.24948C19.5659 0.767599 19.1752 0.376953 18.6933 0.376953C18.2114 0.376953 17.8208 0.767599 17.8208 1.24948C17.8208 1.73138 18.2114 2.12202 18.6933 2.12202Z" fill="#5158F6"/>
        <path d="M18.3712 5.9591C18.7846 5.9591 19.1197 5.62395 19.1197 5.21051C19.1197 4.79707 18.7846 4.46191 18.3712 4.46191C17.9577 4.46191 17.6226 4.79707 17.6226 5.21051C17.6226 5.62395 17.9577 5.9591 18.3712 5.9591Z" fill="#5158F6"/>
        <path d="M16.2194 5.6268C16.6548 5.6268 17.0076 5.27389 17.0076 4.83855C17.0076 4.4032 16.6548 4.05029 16.2194 4.05029C15.7841 4.05029 15.4312 4.4032 15.4312 4.83855C15.4312 5.27389 15.7841 5.6268 16.2194 5.6268Z" fill="#5158F6"/>
        <path d="M19.2633 7.71901C19.6795 7.71901 20.0168 7.38164 20.0168 6.96546C20.0168 6.54928 19.6795 6.21191 19.2633 6.21191C18.8471 6.21191 18.5098 6.54928 18.5098 6.96546C18.5098 7.38164 18.8471 7.71901 19.2633 7.71901Z" fill="#5158F6"/>
        <path d="M17.1314 7.50605C17.5284 7.50605 17.8503 7.18421 17.8503 6.78721C17.8503 6.3902 17.5284 6.06836 17.1314 6.06836C16.7344 6.06836 16.4126 6.3902 16.4126 6.78721C16.4126 7.18421 16.7344 7.50605 17.1314 7.50605Z" fill="#5158F6"/>
        <path d="M14.9801 7.22343C15.3251 7.22343 15.6048 6.94376 15.6048 6.59877C15.6048 6.25379 15.3251 5.97412 14.9801 5.97412C14.6351 5.97412 14.3555 6.25379 14.3555 6.59877C14.3555 6.94376 14.6351 7.22343 14.9801 7.22343Z" fill="#5158F6"/>
        <path d="M15.8873 9.17659C16.2323 9.17659 16.512 8.8969 16.512 8.5519C16.512 8.2069 16.2323 7.92725 15.8873 7.92725C15.5423 7.92725 15.2627 8.2069 15.2627 8.5519C15.2627 8.8969 15.5423 9.17659 15.8873 9.17659Z" fill="#5158F6"/>
        <path d="M18.0436 9.36503C18.3886 9.36503 18.6683 9.08542 18.6683 8.74042C18.6683 8.39542 18.3886 8.11572 18.0436 8.11572C17.6986 8.11572 17.4189 8.39542 17.4189 8.74042C17.4189 9.08542 17.6986 9.36503 18.0436 9.36503Z" fill="#5158F6"/>
        <path d="M18.9463 11.3926C19.3406 11.3926 19.6602 11.073 19.6602 10.6788C19.6602 10.2845 19.3406 9.96484 18.9463 9.96484C18.552 9.96484 18.2324 10.2845 18.2324 10.6788C18.2324 11.073 18.552 11.3926 18.9463 11.3926Z" fill="#5158F6"/>
        <path d="M19.8533 13.2618C20.2038 13.2618 20.4879 12.9777 20.4879 12.6272C20.4879 12.2768 20.2038 11.9927 19.8533 11.9927C19.5028 11.9927 19.2188 12.2768 19.2188 12.6272C19.2188 12.9777 19.5028 13.2618 19.8533 13.2618Z" fill="#5158F6"/>
        <path d="M13.4233 12.7709C13.8148 12.7709 14.1322 12.4535 14.1322 12.062C14.1322 11.6704 13.8148 11.353 13.4233 11.353C13.0317 11.353 12.7144 11.6704 12.7144 12.062C12.7144 12.4535 13.0317 12.7709 13.4233 12.7709Z" fill="#5158F6"/>
        <path d="M14.6675 11.0259C15.0618 11.0259 15.3814 10.7063 15.3814 10.312C15.3814 9.91776 15.0618 9.59814 14.6675 9.59814C14.2732 9.59814 13.9536 9.91776 13.9536 10.312C13.9536 10.7063 14.2732 11.0259 14.6675 11.0259Z" fill="#5158F6"/>
        <path d="M18.629 15.1158C19.0232 15.1158 19.3428 14.7962 19.3428 14.4019C19.3428 14.0076 19.0232 13.688 18.629 13.688C18.2347 13.688 17.915 14.0076 17.915 14.4019C17.915 14.7962 18.2347 15.1158 18.629 15.1158Z" fill="#5158F6"/>
        <path d="M20.1955 9.45448C20.4884 9.45448 20.726 9.21702 20.726 8.92402C20.726 8.63109 20.4884 8.39355 20.1955 8.39355C19.9025 8.39355 19.665 8.63109 19.665 8.92402C19.665 9.21702 19.9025 9.45448 20.1955 9.45448Z" fill="#5158F6"/>
        <path d="M13.7458 8.88903C14.0387 8.88903 14.2763 8.65157 14.2763 8.35857C14.2763 8.06562 14.0387 7.82812 13.7458 7.82812C13.4528 7.82812 13.2153 8.06562 13.2153 8.35857C13.2153 8.65157 13.4528 8.88903 13.7458 8.88903Z" fill="#5158F6"/>
        <path d="M19.5954 4.04575C20.0307 4.04575 20.3837 3.69284 20.3837 3.25749C20.3837 2.82215 20.0307 2.46924 19.5954 2.46924C19.1601 2.46924 18.8071 2.82215 18.8071 3.25749C18.8071 3.69284 19.1601 4.04575 19.5954 4.04575Z" fill="#5158F6"/>
        <path d="M11.0486 12.771C11.3443 12.771 11.584 12.5313 11.584 12.2357C11.584 11.9399 11.3443 11.7002 11.0486 11.7002C10.753 11.7002 10.5132 11.9399 10.5132 12.2357C10.5132 12.5313 10.753 12.771 11.0486 12.771Z" fill="#5158F6"/>
        <path d="M10.9596 12.8601C11.3046 12.8601 11.5843 12.5805 11.5843 12.2355C11.5843 11.8905 11.3046 11.6108 10.9596 11.6108C10.6146 11.6108 10.335 11.8905 10.335 12.2355C10.335 12.5805 10.6146 12.8601 10.9596 12.8601Z" fill="#5158F6"/>
        <path d="M10.9596 16.2659C11.3046 16.2659 11.5843 15.9863 11.5843 15.6413C11.5843 15.2963 11.3046 15.0166 10.9596 15.0166C10.6146 15.0166 10.335 15.2963 10.335 15.6413C10.335 15.9863 10.6146 16.2659 10.9596 16.2659Z" fill="#5158F6"/>
        <path d="M9.72479 14.4563C10.0698 14.4563 10.3494 14.1767 10.3494 13.8317C10.3494 13.4867 10.0698 13.207 9.72479 13.207C9.37979 13.207 9.1001 13.4867 9.1001 13.8317C9.1001 14.1767 9.37979 14.4563 9.72479 14.4563Z" fill="#5158F6"/>
        <path d="M12.194 14.4563C12.539 14.4563 12.8186 14.1767 12.8186 13.8317C12.8186 13.4867 12.539 13.207 12.194 13.207C11.849 13.207 11.5693 13.4867 11.5693 13.8317C11.5693 14.1767 11.849 14.4563 12.194 14.4563Z" fill="#5158F6"/>
        <path d="M10.0519 17.8176C10.1997 17.8176 10.3196 17.6978 10.3196 17.5499C10.3196 17.4021 10.1997 17.2822 10.0519 17.2822C9.90403 17.2822 9.78418 17.4021 9.78418 17.5499C9.78418 17.6978 9.90403 17.8176 10.0519 17.8176Z" fill="#5158F6"/>
        <path d="M11.8717 17.8176C12.0195 17.8176 12.1394 17.6978 12.1394 17.5499C12.1394 17.4021 12.0195 17.2822 11.8717 17.2822C11.7238 17.2822 11.604 17.4021 11.604 17.5499C11.604 17.6978 11.7238 17.8176 11.8717 17.8176Z" fill="#5158F6"/>
    </g>
    <defs>
        <clipPath id="clip0_4013_1422">
            <rect width="20.9231" height="17.4615" fill="white" transform="translate(0.538574 0.376953)"/>
        </clipPath>
    </defs>
</svg>
