<svg width="121" height="33" viewBox="0 0 121 33" fill="none" xmlns="http://www.w3.org/2000/svg">
<g clip-path="url(#clip0_5855_6224)">
<path d="M9.62057 20.0522C9.62057 19.4631 9.14139 18.9839 8.55223 18.9839C7.96307 18.9839 7.48389 19.4631 7.48389 20.0522C7.48389 20.6414 7.96307 21.1206 8.55223 21.1206C9.14139 21.1206 9.62057 20.6414 9.62057 20.0522Z" fill="url(#paint0_linear_5855_6224)"/>
<path d="M8.55223 24.4072C7.96307 24.4072 7.48389 24.8864 7.48389 25.4756C7.48389 26.0647 7.96307 26.5439 8.55223 26.5439C9.14139 26.5439 9.62057 26.0647 9.62057 25.4756C9.62057 24.8864 9.14139 24.4072 8.55223 24.4072Z" fill="url(#paint1_linear_5855_6224)"/>
<path d="M9.90794 21.6953C9.31878 21.6953 8.8396 22.1745 8.8396 22.7637C8.8396 23.3528 9.31878 23.832 9.90794 23.832C10.4971 23.832 10.9763 23.3528 10.9763 22.7637C10.9763 22.1745 10.4971 21.6953 9.90794 21.6953Z" fill="url(#paint2_linear_5855_6224)"/>
<path d="M8.26461 22.7637C8.26461 22.1745 7.78543 21.6953 7.19627 21.6953C6.60711 21.6953 6.12793 22.1745 6.12793 22.7637C6.12793 23.3528 6.60711 23.832 7.19627 23.832C7.78543 23.832 8.26461 23.3528 8.26461 22.7637Z" fill="url(#paint3_linear_5855_6224)"/>
<path d="M7.19627 27.1196C6.60711 27.1196 6.12793 27.5988 6.12793 28.188C6.12793 28.7771 6.60711 29.2563 7.19627 29.2563C7.78543 29.2563 8.26461 28.7771 8.26461 28.188C8.26461 27.5988 7.78543 27.1196 7.19627 27.1196Z" fill="url(#paint4_linear_5855_6224)"/>
<path d="M4.93018 20.052C4.93018 20.554 5.33866 20.9625 5.84062 20.9625C6.34259 20.9625 6.75107 20.554 6.75107 20.052C6.75107 19.5501 6.34259 19.1416 5.84062 19.1416C5.33866 19.1416 4.93018 19.5501 4.93018 20.052Z" fill="url(#paint5_linear_5855_6224)"/>
<path d="M5.84056 26.5439C6.42972 26.5439 6.9089 26.0647 6.9089 25.4756C6.9089 24.8864 6.42972 24.4072 5.84056 24.4072C5.2514 24.4072 4.77222 24.8864 4.77222 25.4756C4.77222 26.0647 5.2514 26.5439 5.84056 26.5439Z" fill="url(#paint6_linear_5855_6224)"/>
<path d="M4.48467 23.6749C4.98663 23.6749 5.39511 23.2664 5.39511 22.7645C5.39511 22.2625 4.98663 21.854 4.48467 21.854C3.9827 21.854 3.57422 22.2625 3.57422 22.7645C3.57422 23.2664 3.9827 23.6749 4.48467 23.6749Z" fill="url(#paint7_linear_5855_6224)"/>
<path d="M5.39511 28.1878C5.39511 27.6858 4.98663 27.2773 4.48467 27.2773C3.9827 27.2773 3.57422 27.6858 3.57422 28.1878C3.57422 28.6898 3.9827 29.0982 4.48467 29.0982C4.98663 29.0982 5.39511 28.6898 5.39511 28.1878Z" fill="url(#paint8_linear_5855_6224)"/>
<path d="M1.77309 27.644C1.47301 27.644 1.22949 27.8876 1.22949 28.1876C1.22949 28.4877 1.47301 28.7312 1.77309 28.7312C2.07317 28.7312 2.31669 28.4877 2.31669 28.1876C2.31669 27.8876 2.07317 27.644 1.77309 27.644Z" fill="url(#paint9_linear_5855_6224)"/>
<path d="M11.4219 18.9839C10.8327 18.9839 10.3535 19.4631 10.3535 20.0522C10.3535 20.6414 10.8327 21.1206 11.4219 21.1206C12.011 21.1206 12.4902 20.6414 12.4902 20.0522C12.4902 19.4631 12.011 18.9839 11.4219 18.9839Z" fill="url(#paint10_linear_5855_6224)"/>
<path d="M3.12869 26.1768C3.51517 26.1768 3.82939 25.8626 3.82939 25.4761C3.82939 25.0896 3.51517 24.7754 3.12869 24.7754C2.7422 24.7754 2.42798 25.0896 2.42798 25.4761C2.42798 25.8626 2.7422 26.1768 3.12869 26.1768Z" fill="url(#paint11_linear_5855_6224)"/>
<path d="M5.84056 29.7808C5.2514 29.7808 4.77222 30.2599 4.77222 30.8491C4.77222 31.4383 5.2514 31.9174 5.84056 31.9174C6.42972 31.9174 6.9089 31.4383 6.9089 30.8491C6.9089 30.2599 6.42972 29.7808 5.84056 29.7808Z" fill="url(#paint12_linear_5855_6224)"/>
<path d="M3.12869 30.1484C2.7422 30.1484 2.42798 30.4627 2.42798 30.8491C2.42798 31.2356 2.7422 31.5499 3.12869 31.5499C3.51517 31.5499 3.82939 31.2356 3.82939 30.8491C3.82939 30.4627 3.51517 30.1484 3.12869 30.1484Z" fill="url(#paint13_linear_5855_6224)"/>
<path d="M0.438335 30.4111C0.196386 30.4111 0 30.6075 0 30.8495C0 31.0914 0.196386 31.2878 0.438335 31.2878C0.680283 31.2878 0.876669 31.0914 0.876669 30.8495C0.876669 30.6075 0.680283 30.4111 0.438335 30.4111Z" fill="url(#paint14_linear_5855_6224)"/>
<path d="M24.9316 8.13623C24.3425 8.13623 23.8633 8.61541 23.8633 9.20457C23.8633 9.79373 24.3425 10.2729 24.9316 10.2729C25.5208 10.2729 26 9.79373 26 9.20457C26 8.61541 25.5208 8.13623 24.9316 8.13623Z" fill="url(#paint15_linear_5855_6224)"/>
<path d="M24.6433 6.49119C24.6433 5.90203 24.1641 5.42285 23.5749 5.42285C22.9858 5.42285 22.5066 5.90203 22.5066 6.49119C22.5066 7.08035 22.9858 7.55954 23.5749 7.55954C24.1641 7.55954 24.6433 7.08035 24.6433 6.49119Z" fill="url(#paint16_linear_5855_6224)"/>
<path d="M23.5759 10.8481C22.9868 10.8481 22.5076 11.3273 22.5076 11.9165C22.5076 12.5056 22.9868 12.9848 23.5759 12.9848C24.1651 12.9848 24.6443 12.5056 24.6443 11.9165C24.6443 11.3273 24.1651 10.8481 23.5759 10.8481Z" fill="url(#paint17_linear_5855_6224)"/>
<path d="M20.5759 3.78026C20.5759 3.1911 20.0967 2.71191 19.5076 2.71191C18.9184 2.71191 18.4392 3.1911 18.4392 3.78026C18.4392 4.36942 18.9184 4.8486 19.5076 4.8486C20.0967 4.8486 20.5759 4.36942 20.5759 3.78026Z" fill="url(#paint18_linear_5855_6224)"/>
<path d="M20.8633 2.13668C21.4533 2.13668 21.9316 1.65837 21.9316 1.06834C21.9316 0.478313 21.4533 0 20.8633 0C20.2732 0 19.7949 0.478313 19.7949 1.06834C19.7949 1.65837 20.2732 2.13668 20.8633 2.13668Z" fill="url(#paint19_linear_5855_6224)"/>
<path d="M18.1516 2.13571C18.7408 2.13571 19.2199 1.65653 19.2199 1.06737C19.2199 0.478206 18.7408 -0.000976562 18.1516 -0.000976562C17.5624 -0.000976562 17.0833 0.478206 17.0833 1.06737C17.0833 1.65653 17.5624 2.13571 18.1516 2.13571Z" fill="url(#paint20_linear_5855_6224)"/>
<path d="M23.2876 9.20457C23.2876 8.61541 22.8084 8.13623 22.2192 8.13623C21.6301 8.13623 21.1509 8.61541 21.1509 9.20457C21.1509 9.79373 21.6301 10.2729 22.2192 10.2729C22.8084 10.2729 23.2876 9.79373 23.2876 9.20457Z" fill="url(#paint21_linear_5855_6224)"/>
<path d="M20.5759 9.20457C20.5759 8.61541 20.0967 8.13623 19.5076 8.13623C18.9184 8.13623 18.4392 8.61541 18.4392 9.20457C18.4392 9.79373 18.9184 10.2729 19.5076 10.2729C20.0967 10.2729 20.5759 9.79373 20.5759 9.20457Z" fill="url(#paint22_linear_5855_6224)"/>
<path d="M20.8633 7.55954C21.4524 7.55954 21.9316 7.08035 21.9316 6.49119C21.9316 5.90203 21.4524 5.42285 20.8633 5.42285C20.2741 5.42285 19.7949 5.90203 19.7949 6.49119C19.7949 7.08035 20.2741 7.55954 20.8633 7.55954Z" fill="url(#paint23_linear_5855_6224)"/>
<path d="M17.0833 6.49119C17.0833 7.08035 17.5624 7.55954 18.1516 7.55954C18.7408 7.55954 19.2199 7.08035 19.2199 6.49119C19.2199 5.90203 18.7408 5.42285 18.1516 5.42285C17.5624 5.42285 17.0833 5.90203 17.0833 6.49119Z" fill="url(#paint24_linear_5855_6224)"/>
<path d="M22.22 13.5601C21.6308 13.5601 21.1516 14.0392 21.1516 14.6284C21.1516 15.2176 21.6308 15.6967 22.22 15.6967C22.8091 15.6967 23.2883 15.2176 23.2883 14.6284C23.2883 14.0392 22.8091 13.5601 22.22 13.5601Z" fill="url(#paint25_linear_5855_6224)"/>
<path d="M20.5759 14.6279C20.5759 14.0388 20.0967 13.5596 19.5076 13.5596C18.9184 13.5596 18.4392 14.0388 18.4392 14.6279C18.4392 15.2171 18.9184 15.6963 19.5076 15.6963C20.0967 15.6963 20.5759 15.2171 20.5759 14.6279Z" fill="url(#paint26_linear_5855_6224)"/>
<path d="M20.8633 12.9848C21.4524 12.9848 21.9316 12.5056 21.9316 11.9165C21.9316 11.3273 21.4524 10.8481 20.8633 10.8481C20.2741 10.8481 19.7949 11.3273 19.7949 11.9165C19.7949 12.5056 20.2741 12.9848 20.8633 12.9848Z" fill="url(#paint27_linear_5855_6224)"/>
<path d="M18.1516 12.9848C18.7408 12.9848 19.2199 12.5056 19.2199 11.9165C19.2199 11.3273 18.7408 10.8481 18.1516 10.8481C17.5624 10.8481 17.0833 11.3273 17.0833 11.9165C17.0833 12.5056 17.5624 12.9848 18.1516 12.9848Z" fill="url(#paint28_linear_5855_6224)"/>
<path d="M20.8633 16.272C20.2741 16.272 19.7949 16.7512 19.7949 17.3403C19.7949 17.9295 20.2741 18.4087 20.8633 18.4087C21.4524 18.4087 21.9316 17.9295 21.9316 17.3403C21.9316 16.7512 21.4524 16.272 20.8633 16.272Z" fill="url(#paint29_linear_5855_6224)"/>
<path d="M18.1516 16.272C17.5624 16.272 17.0833 16.7512 17.0833 17.3403C17.0833 17.9295 17.5624 18.4087 18.1516 18.4087C18.7408 18.4087 19.2199 17.9295 19.2199 17.3403C19.2199 16.7512 18.7408 16.272 18.1516 16.272Z" fill="url(#paint30_linear_5855_6224)"/>
<path d="M16.7959 4.8486C17.385 4.8486 17.8642 4.36942 17.8642 3.78026C17.8642 3.1911 17.385 2.71191 16.7959 2.71191C16.2067 2.71191 15.7275 3.1911 15.7275 3.78026C15.7275 4.36942 16.2067 4.8486 16.7959 4.8486Z" fill="url(#paint31_linear_5855_6224)"/>
<path d="M14.084 4.8486C14.6731 4.8486 15.1523 4.36942 15.1523 3.78026C15.1523 3.1911 14.6731 2.71191 14.084 2.71191C13.4948 2.71191 13.0156 3.1911 13.0156 3.78026C13.0156 4.36942 13.4948 4.8486 14.084 4.8486Z" fill="url(#paint32_linear_5855_6224)"/>
<path d="M16.5083 1.06834C16.5083 0.479183 16.0291 0 15.4399 0C14.8508 0 14.3716 0.479183 14.3716 1.06834C14.3716 1.6575 14.8508 2.13668 15.4399 2.13668C16.0291 2.13668 16.5083 1.6575 16.5083 1.06834Z" fill="url(#paint33_linear_5855_6224)"/>
<path d="M13.7959 1.06834C13.7959 0.479183 13.3167 0 12.7275 0C12.1384 0 11.6592 0.479183 11.6592 1.06834C11.6592 1.6575 12.1384 2.13668 12.7275 2.13668C13.3167 2.13668 13.7959 1.6575 13.7959 1.06834Z" fill="url(#paint34_linear_5855_6224)"/>
<path d="M17.8642 14.6279C17.8642 14.0388 17.385 13.5596 16.7959 13.5596C16.2067 13.5596 15.7275 14.0388 15.7275 14.6279C15.7275 15.2171 16.2067 15.6963 16.7959 15.6963C17.385 15.6963 17.8642 15.2171 17.8642 14.6279Z" fill="url(#paint35_linear_5855_6224)"/>
<path d="M15.1516 14.6279C15.1516 14.0388 14.6724 13.5596 14.0832 13.5596C13.4941 13.5596 13.0149 14.0388 13.0149 14.6279C13.0149 15.2171 13.4941 15.6963 14.0832 15.6963C14.6724 15.6963 15.1516 15.2171 15.1516 14.6279Z" fill="url(#paint36_linear_5855_6224)"/>
<path d="M15.4399 16.272C14.8508 16.272 14.3716 16.7512 14.3716 17.3403C14.3716 17.9295 14.8508 18.4087 15.4399 18.4087C16.0291 18.4087 16.5083 17.9295 16.5083 17.3403C16.5083 16.7512 16.0291 16.272 15.4399 16.272Z" fill="url(#paint37_linear_5855_6224)"/>
<path d="M12.7283 16.272C12.1391 16.272 11.6599 16.7512 11.6599 17.3403C11.6599 17.9295 12.1391 18.4087 12.7283 18.4087C13.3174 18.4087 13.7966 17.9295 13.7966 17.3403C13.7966 16.7512 13.3174 16.272 12.7283 16.272Z" fill="url(#paint38_linear_5855_6224)"/>
<path d="M11.3716 2.71191C10.7824 2.71191 10.3032 3.1911 10.3032 3.78026C10.3032 4.36942 10.7824 4.8486 11.3716 4.8486C11.9607 4.8486 12.4399 4.36942 12.4399 3.78026C12.4399 3.1911 11.9607 2.71191 11.3716 2.71191Z" fill="url(#paint39_linear_5855_6224)"/>
<path d="M8.65971 2.86963C8.15775 2.86963 7.74927 3.27811 7.74927 3.78008C7.74927 4.28204 8.15775 4.69052 8.65971 4.69052C9.16168 4.69052 9.57016 4.28204 9.57016 3.78008C9.57016 3.27811 9.16168 2.86963 8.65971 2.86963Z" fill="url(#paint40_linear_5855_6224)"/>
<path d="M10.0156 2.13668C10.6056 2.13668 11.084 1.65837 11.084 1.06834C11.084 0.478313 10.6056 0 10.0156 0C9.42558 0 8.94727 0.478313 8.94727 1.06834C8.94727 1.65837 9.42558 2.13668 10.0156 2.13668Z" fill="url(#paint41_linear_5855_6224)"/>
<path d="M7.304 1.97861C7.80597 1.97861 8.21445 1.57013 8.21445 1.06816C8.21445 0.566199 7.80597 0.157715 7.304 0.157715C6.80204 0.157715 6.39355 0.566199 6.39355 1.06816C6.39355 1.57013 6.80204 1.97861 7.304 1.97861Z" fill="url(#paint42_linear_5855_6224)"/>
<path d="M12.4399 14.6279C12.4399 14.0388 11.9607 13.5596 11.3716 13.5596C10.7824 13.5596 10.3032 14.0388 10.3032 14.6279C10.3032 15.2171 10.7824 15.6963 11.3716 15.6963C11.9607 15.6963 12.4399 15.2171 12.4399 14.6279Z" fill="url(#paint43_linear_5855_6224)"/>
<path d="M9.57016 14.6277C9.57016 14.1258 9.16168 13.7173 8.65971 13.7173C8.15775 13.7173 7.74927 14.1258 7.74927 14.6277C7.74927 15.1297 8.15775 15.5382 8.65971 15.5382C9.16168 15.5382 9.57016 15.1297 9.57016 14.6277Z" fill="url(#paint44_linear_5855_6224)"/>
<path d="M11.084 17.3403C11.084 16.7512 10.6048 16.272 10.0156 16.272C9.42645 16.272 8.94727 16.7512 8.94727 17.3403C8.94727 17.9295 9.42645 18.4087 10.0156 18.4087C10.6048 18.4087 11.084 17.9295 11.084 17.3403Z" fill="url(#paint45_linear_5855_6224)"/>
<path d="M8.21445 17.3401C8.21445 16.8382 7.80597 16.4297 7.304 16.4297C6.80204 16.4297 6.39355 16.8382 6.39355 17.3401C6.39355 17.8421 6.80204 18.2506 7.304 18.2506C7.80597 18.2506 8.21445 17.8421 8.21445 17.3401Z" fill="url(#paint46_linear_5855_6224)"/>
<path d="M3.23574 4.32352C3.53581 4.32352 3.77933 4.08 3.77933 3.77993C3.77933 3.47985 3.53581 3.23633 3.23574 3.23633C2.93566 3.23633 2.69214 3.47985 2.69214 3.77993C2.69214 4.08 2.93566 4.32352 3.23574 4.32352Z" fill="url(#paint47_linear_5855_6224)"/>
<path d="M1.87978 0.524414C1.5797 0.524414 1.33618 0.767933 1.33618 1.06801C1.33618 1.36809 1.5797 1.61161 1.87978 1.61161C2.17986 1.61161 2.42338 1.36809 2.42338 1.06801C2.42338 0.767933 2.17986 0.524414 1.87978 0.524414Z" fill="url(#paint48_linear_5855_6224)"/>
<path d="M23.2876 3.78026C23.2876 3.1911 22.8084 2.71191 22.2192 2.71191C21.6301 2.71191 21.1509 3.1911 21.1509 3.78026C21.1509 4.36942 21.6301 4.8486 22.2192 4.8486C22.8084 4.8486 23.2876 4.36942 23.2876 3.78026Z" fill="url(#paint49_linear_5855_6224)"/>
<path d="M5.94802 4.48052C6.33451 4.48052 6.64873 4.1663 6.64873 3.77981C6.64873 3.39332 6.33451 3.0791 5.94802 3.0791C5.56153 3.0791 5.24731 3.39332 5.24731 3.77981C5.24731 4.1663 5.56153 4.48052 5.94802 4.48052Z" fill="url(#paint50_linear_5855_6224)"/>
<path d="M4.59231 1.7686C4.9793 1.7686 5.29302 1.45488 5.29302 1.06789C5.29302 0.680905 4.9793 0.367188 4.59231 0.367188C4.20532 0.367188 3.8916 0.680905 3.8916 1.06789C3.8916 1.45488 4.20532 1.7686 4.59231 1.7686Z" fill="url(#paint51_linear_5855_6224)"/>
</g>
<path d="M43.316 13V3.2H47.348C48.216 3.2 48.958 3.34 49.574 3.62C50.1993 3.9 50.68 4.30133 51.016 4.824C51.352 5.34667 51.52 5.96733 51.52 6.686C51.52 7.40467 51.352 8.02533 51.016 8.548C50.68 9.07067 50.1993 9.472 49.574 9.752C48.958 10.032 48.216 10.172 47.348 10.172H44.324L45.136 9.318V13H43.316ZM45.136 9.514L44.324 8.632H47.264C48.0667 8.632 48.6687 8.464 49.07 8.128C49.4807 7.78267 49.686 7.302 49.686 6.686C49.686 6.06067 49.4807 5.58 49.07 5.244C48.6687 4.908 48.0667 4.74 47.264 4.74H44.324L45.136 3.844V9.514ZM53.3375 13V3.2H55.1575V13H53.3375ZM62.4002 13.14C61.6349 13.14 60.9302 13.014 60.2862 12.762C59.6422 12.51 59.0822 12.16 58.6062 11.712C58.1302 11.2547 57.7615 10.7227 57.5002 10.116C57.2389 9.5 57.1082 8.828 57.1082 8.1C57.1082 7.372 57.2389 6.70467 57.5002 6.098C57.7615 5.482 58.1302 4.95 58.6062 4.502C59.0822 4.04467 59.6422 3.69 60.2862 3.438C60.9302 3.186 61.6302 3.06 62.3862 3.06C63.1515 3.06 63.8515 3.186 64.4862 3.438C65.1302 3.69 65.6902 4.04467 66.1662 4.502C66.6422 4.95 67.0109 5.482 67.2722 6.098C67.5335 6.70467 67.6642 7.372 67.6642 8.1C67.6642 8.828 67.5335 9.5 67.2722 10.116C67.0109 10.732 66.6422 11.264 66.1662 11.712C65.6902 12.16 65.1302 12.51 64.4862 12.762C63.8515 13.014 63.1562 13.14 62.4002 13.14ZM62.3862 11.544C62.8809 11.544 63.3382 11.46 63.7582 11.292C64.1782 11.124 64.5422 10.886 64.8502 10.578C65.1582 10.2607 65.3962 9.89667 65.5642 9.486C65.7415 9.066 65.8302 8.604 65.8302 8.1C65.8302 7.596 65.7415 7.13867 65.5642 6.728C65.3962 6.308 65.1582 5.944 64.8502 5.636C64.5422 5.31867 64.1782 5.076 63.7582 4.908C63.3382 4.74 62.8809 4.656 62.3862 4.656C61.8915 4.656 61.4342 4.74 61.0142 4.908C60.6035 5.076 60.2395 5.31867 59.9222 5.636C59.6142 5.944 59.3715 6.308 59.1942 6.728C59.0262 7.13867 58.9422 7.596 58.9422 8.1C58.9422 8.59467 59.0262 9.052 59.1942 9.472C59.3715 9.892 59.6142 10.2607 59.9222 10.578C60.2302 10.886 60.5942 11.124 61.0142 11.292C61.4342 11.46 61.8915 11.544 62.3862 11.544ZM69.5933 13V3.2H71.0913L77.2373 10.746H76.4953V3.2H78.3013V13H76.8033L70.6573 5.454H71.3993V13H69.5933ZM43.316 29V19.2H44.814L50.96 26.746H50.218V19.2H52.024V29H50.526L44.38 21.454H45.122V29H43.316ZM56.33 23.274H61.202V24.772H56.33V23.274ZM56.47 27.474H62V29H54.65V19.2H61.804V20.726H56.47V27.474ZM66.0169 29V20.74H62.7689V19.2H71.0849V20.74H67.8369V29H66.0169ZM74.6104 29L71.3624 19.2H73.2524L76.1504 28.062H75.2124L78.2224 19.2H79.9024L82.8284 28.062H81.9184L84.8864 19.2H86.6224L83.3744 29H81.4424L78.7684 21.006H79.2724L76.5564 29H74.6104ZM92.6014 29.14C91.836 29.14 91.1314 29.014 90.4874 28.762C89.8434 28.51 89.2834 28.16 88.8074 27.712C88.3314 27.2547 87.9627 26.7227 87.7014 26.116C87.44 25.5 87.3094 24.828 87.3094 24.1C87.3094 23.372 87.44 22.7047 87.7014 22.098C87.9627 21.482 88.3314 20.95 88.8074 20.502C89.2834 20.0447 89.8434 19.69 90.4874 19.438C91.1314 19.186 91.8314 19.06 92.5874 19.06C93.3527 19.06 94.0527 19.186 94.6874 19.438C95.3314 19.69 95.8914 20.0447 96.3674 20.502C96.8434 20.95 97.212 21.482 97.4734 22.098C97.7347 22.7047 97.8654 23.372 97.8654 24.1C97.8654 24.828 97.7347 25.5 97.4734 26.116C97.212 26.732 96.8434 27.264 96.3674 27.712C95.8914 28.16 95.3314 28.51 94.6874 28.762C94.0527 29.014 93.3574 29.14 92.6014 29.14ZM92.5874 27.544C93.082 27.544 93.5394 27.46 93.9594 27.292C94.3794 27.124 94.7434 26.886 95.0514 26.578C95.3594 26.2607 95.5974 25.8967 95.7654 25.486C95.9427 25.066 96.0314 24.604 96.0314 24.1C96.0314 23.596 95.9427 23.1387 95.7654 22.728C95.5974 22.308 95.3594 21.944 95.0514 21.636C94.7434 21.3187 94.3794 21.076 93.9594 20.908C93.5394 20.74 93.082 20.656 92.5874 20.656C92.0927 20.656 91.6354 20.74 91.2154 20.908C90.8047 21.076 90.4407 21.3187 90.1234 21.636C89.8154 21.944 89.5727 22.308 89.3954 22.728C89.2274 23.1387 89.1434 23.596 89.1434 24.1C89.1434 24.5947 89.2274 25.052 89.3954 25.472C89.5727 25.892 89.8154 26.2607 90.1234 26.578C90.4314 26.886 90.7954 27.124 91.2154 27.292C91.6354 27.46 92.0927 27.544 92.5874 27.544ZM99.7945 29V19.2H103.827C104.695 19.2 105.437 19.34 106.053 19.62C106.678 19.9 107.159 20.3013 107.495 20.824C107.831 21.3467 107.999 21.9673 107.999 22.686C107.999 23.4047 107.831 24.0253 107.495 24.548C107.159 25.0613 106.678 25.458 106.053 25.738C105.437 26.0087 104.695 26.144 103.827 26.144H100.803L101.615 25.318V29H99.7945ZM106.207 29L103.729 25.444H105.675L108.167 29H106.207ZM101.615 25.514L100.803 24.646H103.743C104.545 24.646 105.147 24.4733 105.549 24.128C105.959 23.7827 106.165 23.302 106.165 22.686C106.165 22.0607 105.959 21.58 105.549 21.244C105.147 20.908 104.545 20.74 103.743 20.74H100.803L101.615 19.844V25.514ZM111.659 26.69L111.561 24.534L116.699 19.2H118.743L114.473 23.736L113.465 24.842L111.659 26.69ZM110.035 29V19.2H111.855V29H110.035ZM116.867 29L113.115 24.534L114.319 23.204L118.995 29H116.867Z" fill="url(#paint52_linear_5855_6224)"/>
<defs>
<linearGradient id="paint0_linear_5855_6224" x1="1.29378" y1="19.9847" x2="22.8971" y2="20.1866" gradientUnits="userSpaceOnUse">
<stop offset="0.18" stop-color="#5B4FEC"/>
<stop offset="0.53" stop-color="#D99A7F"/>
<stop offset="1" stop-color="white"/>
</linearGradient>
<linearGradient id="paint1_linear_5855_6224" x1="1.24351" y1="25.4072" x2="22.8468" y2="25.6091" gradientUnits="userSpaceOnUse">
<stop offset="0.18" stop-color="#5B4FEC"/>
<stop offset="0.53" stop-color="#D99A7F"/>
<stop offset="1" stop-color="white"/>
</linearGradient>
<linearGradient id="paint2_linear_5855_6224" x1="1.26851" y1="22.682" x2="22.8718" y2="22.8838" gradientUnits="userSpaceOnUse">
<stop offset="0.18" stop-color="#5B4FEC"/>
<stop offset="0.53" stop-color="#D99A7F"/>
<stop offset="1" stop-color="white"/>
</linearGradient>
<linearGradient id="paint3_linear_5855_6224" x1="1.26854" y1="22.7087" x2="22.8718" y2="22.9106" gradientUnits="userSpaceOnUse">
<stop offset="0.18" stop-color="#5B4FEC"/>
<stop offset="0.53" stop-color="#D99A7F"/>
<stop offset="1" stop-color="white"/>
</linearGradient>
<linearGradient id="paint4_linear_5855_6224" x1="1.21748" y1="28.1322" x2="22.8208" y2="28.3341" gradientUnits="userSpaceOnUse">
<stop offset="0.18" stop-color="#5B4FEC"/>
<stop offset="0.53" stop-color="#D99A7F"/>
<stop offset="1" stop-color="white"/>
</linearGradient>
<linearGradient id="paint5_linear_5855_6224" x1="1.29388" y1="20.0096" x2="22.8972" y2="20.2115" gradientUnits="userSpaceOnUse">
<stop offset="0.18" stop-color="#5B4FEC"/>
<stop offset="0.53" stop-color="#D99A7F"/>
<stop offset="1" stop-color="white"/>
</linearGradient>
<linearGradient id="paint6_linear_5855_6224" x1="1.24276" y1="25.4331" x2="22.8461" y2="25.635" gradientUnits="userSpaceOnUse">
<stop offset="0.18" stop-color="#5B4FEC"/>
<stop offset="0.53" stop-color="#D99A7F"/>
<stop offset="1" stop-color="white"/>
</linearGradient>
<linearGradient id="paint7_linear_5855_6224" x1="1.26786" y1="22.7338" x2="22.8719" y2="22.9357" gradientUnits="userSpaceOnUse">
<stop offset="0.18" stop-color="#5B4FEC"/>
<stop offset="0.53" stop-color="#D99A7F"/>
<stop offset="1" stop-color="white"/>
</linearGradient>
<linearGradient id="paint8_linear_5855_6224" x1="1.21758" y1="28.1572" x2="22.8209" y2="28.359" gradientUnits="userSpaceOnUse">
<stop offset="0.18" stop-color="#5B4FEC"/>
<stop offset="0.53" stop-color="#D99A7F"/>
<stop offset="1" stop-color="white"/>
</linearGradient>
<linearGradient id="paint9_linear_5855_6224" x1="1.21771" y1="28.1821" x2="22.821" y2="28.384" gradientUnits="userSpaceOnUse">
<stop offset="0.18" stop-color="#5B4FEC"/>
<stop offset="0.53" stop-color="#D99A7F"/>
<stop offset="1" stop-color="white"/>
</linearGradient>
<linearGradient id="paint10_linear_5855_6224" x1="1.29382" y1="19.9572" x2="22.8979" y2="20.1591" gradientUnits="userSpaceOnUse">
<stop offset="0.18" stop-color="#5B4FEC"/>
<stop offset="0.53" stop-color="#D99A7F"/>
<stop offset="1" stop-color="white"/>
</linearGradient>
<linearGradient id="paint11_linear_5855_6224" x1="1.24259" y1="25.458" x2="22.8459" y2="25.6599" gradientUnits="userSpaceOnUse">
<stop offset="0.18" stop-color="#5B4FEC"/>
<stop offset="0.53" stop-color="#D99A7F"/>
<stop offset="1" stop-color="white"/>
</linearGradient>
<linearGradient id="paint12_linear_5855_6224" x1="1.19248" y1="30.8059" x2="22.7966" y2="31.0078" gradientUnits="userSpaceOnUse">
<stop offset="0.18" stop-color="#5B4FEC"/>
<stop offset="0.53" stop-color="#D99A7F"/>
<stop offset="1" stop-color="white"/>
</linearGradient>
<linearGradient id="paint13_linear_5855_6224" x1="1.19231" y1="30.8311" x2="22.7956" y2="31.033" gradientUnits="userSpaceOnUse">
<stop offset="0.18" stop-color="#5B4FEC"/>
<stop offset="0.53" stop-color="#D99A7F"/>
<stop offset="1" stop-color="white"/>
</linearGradient>
<linearGradient id="paint14_linear_5855_6224" x1="1.19246" y1="30.8565" x2="22.7958" y2="31.0584" gradientUnits="userSpaceOnUse">
<stop offset="0.18" stop-color="#5B4FEC"/>
<stop offset="0.53" stop-color="#D99A7F"/>
<stop offset="1" stop-color="white"/>
</linearGradient>
<linearGradient id="paint15_linear_5855_6224" x1="1.39666" y1="8.98462" x2="23" y2="9.18651" gradientUnits="userSpaceOnUse">
<stop offset="0.18" stop-color="#5B4FEC"/>
<stop offset="0.53" stop-color="#D99A7F"/>
<stop offset="1" stop-color="white"/>
</linearGradient>
<linearGradient id="paint16_linear_5855_6224" x1="1.42177" y1="6.2846" x2="23.0251" y2="6.48648" gradientUnits="userSpaceOnUse">
<stop offset="0.18" stop-color="#5B4FEC"/>
<stop offset="0.53" stop-color="#D99A7F"/>
<stop offset="1" stop-color="white"/>
</linearGradient>
<linearGradient id="paint17_linear_5855_6224" x1="1.37166" y1="11.7091" x2="22.975" y2="11.911" gradientUnits="userSpaceOnUse">
<stop offset="0.18" stop-color="#5B4FEC"/>
<stop offset="0.53" stop-color="#D99A7F"/>
<stop offset="1" stop-color="white"/>
</linearGradient>
<linearGradient id="paint18_linear_5855_6224" x1="1.44707" y1="3.61136" x2="23.0504" y2="3.81325" gradientUnits="userSpaceOnUse">
<stop offset="0.18" stop-color="#5B4FEC"/>
<stop offset="0.53" stop-color="#D99A7F"/>
<stop offset="1" stop-color="white"/>
</linearGradient>
<linearGradient id="paint19_linear_5855_6224" x1="1.47207" y1="0.886881" x2="23.0754" y2="1.08877" gradientUnits="userSpaceOnUse">
<stop offset="0.18" stop-color="#5B4FEC"/>
<stop offset="0.53" stop-color="#D99A7F"/>
<stop offset="1" stop-color="white"/>
</linearGradient>
<linearGradient id="paint20_linear_5855_6224" x1="1.4721" y1="0.911828" x2="23.0754" y2="1.11371" gradientUnits="userSpaceOnUse">
<stop offset="0.18" stop-color="#5B4FEC"/>
<stop offset="0.53" stop-color="#D99A7F"/>
<stop offset="1" stop-color="white"/>
</linearGradient>
<linearGradient id="paint21_linear_5855_6224" x1="1.39675" y1="9.00976" x2="23.0001" y2="9.21164" gradientUnits="userSpaceOnUse">
<stop offset="0.18" stop-color="#5B4FEC"/>
<stop offset="0.53" stop-color="#D99A7F"/>
<stop offset="1" stop-color="white"/>
</linearGradient>
<linearGradient id="paint22_linear_5855_6224" x1="1.39601" y1="9.0349" x2="23.0001" y2="9.23678" gradientUnits="userSpaceOnUse">
<stop offset="0.18" stop-color="#5B4FEC"/>
<stop offset="0.53" stop-color="#D99A7F"/>
<stop offset="1" stop-color="white"/>
</linearGradient>
<linearGradient id="paint23_linear_5855_6224" x1="1.42179" y1="6.30973" x2="23.0251" y2="6.51162" gradientUnits="userSpaceOnUse">
<stop offset="0.18" stop-color="#5B4FEC"/>
<stop offset="0.53" stop-color="#D99A7F"/>
<stop offset="1" stop-color="white"/>
</linearGradient>
<linearGradient id="paint24_linear_5855_6224" x1="1.42104" y1="6.33487" x2="23.0251" y2="6.53676" gradientUnits="userSpaceOnUse">
<stop offset="0.18" stop-color="#5B4FEC"/>
<stop offset="0.53" stop-color="#D99A7F"/>
<stop offset="1" stop-color="white"/>
</linearGradient>
<linearGradient id="paint25_linear_5855_6224" x1="1.34566" y1="14.4328" x2="22.9489" y2="14.6347" gradientUnits="userSpaceOnUse">
<stop offset="0.18" stop-color="#5B4FEC"/>
<stop offset="0.53" stop-color="#D99A7F"/>
<stop offset="1" stop-color="white"/>
</linearGradient>
<linearGradient id="paint26_linear_5855_6224" x1="1.34573" y1="14.4582" x2="22.949" y2="14.6601" gradientUnits="userSpaceOnUse">
<stop offset="0.18" stop-color="#5B4FEC"/>
<stop offset="0.53" stop-color="#D99A7F"/>
<stop offset="1" stop-color="white"/>
</linearGradient>
<linearGradient id="paint27_linear_5855_6224" x1="1.37073" y1="11.7342" x2="22.974" y2="11.9361" gradientUnits="userSpaceOnUse">
<stop offset="0.18" stop-color="#5B4FEC"/>
<stop offset="0.53" stop-color="#D99A7F"/>
<stop offset="1" stop-color="white"/>
</linearGradient>
<linearGradient id="paint28_linear_5855_6224" x1="1.37077" y1="11.7594" x2="22.9741" y2="11.9613" gradientUnits="userSpaceOnUse">
<stop offset="0.18" stop-color="#5B4FEC"/>
<stop offset="0.53" stop-color="#D99A7F"/>
<stop offset="1" stop-color="white"/>
</linearGradient>
<linearGradient id="paint29_linear_5855_6224" x1="1.32046" y1="17.1573" x2="22.9238" y2="17.3592" gradientUnits="userSpaceOnUse">
<stop offset="0.18" stop-color="#5B4FEC"/>
<stop offset="0.53" stop-color="#D99A7F"/>
<stop offset="1" stop-color="white"/>
</linearGradient>
<linearGradient id="paint30_linear_5855_6224" x1="1.31971" y1="17.1824" x2="22.9238" y2="17.3843" gradientUnits="userSpaceOnUse">
<stop offset="0.18" stop-color="#5B4FEC"/>
<stop offset="0.53" stop-color="#D99A7F"/>
<stop offset="1" stop-color="white"/>
</linearGradient>
<linearGradient id="paint31_linear_5855_6224" x1="1.4471" y1="3.6365" x2="23.0504" y2="3.83839" gradientUnits="userSpaceOnUse">
<stop offset="0.18" stop-color="#5B4FEC"/>
<stop offset="0.53" stop-color="#D99A7F"/>
<stop offset="1" stop-color="white"/>
</linearGradient>
<linearGradient id="paint32_linear_5855_6224" x1="1.44611" y1="3.66242" x2="23.0494" y2="3.86431" gradientUnits="userSpaceOnUse">
<stop offset="0.18" stop-color="#5B4FEC"/>
<stop offset="0.53" stop-color="#D99A7F"/>
<stop offset="1" stop-color="white"/>
</linearGradient>
<linearGradient id="paint33_linear_5855_6224" x1="1.47214" y1="0.937941" x2="23.0754" y2="1.13983" gradientUnits="userSpaceOnUse">
<stop offset="0.18" stop-color="#5B4FEC"/>
<stop offset="0.53" stop-color="#D99A7F"/>
<stop offset="1" stop-color="white"/>
</linearGradient>
<linearGradient id="paint34_linear_5855_6224" x1="1.47144" y1="0.963079" x2="23.0755" y2="1.16496" gradientUnits="userSpaceOnUse">
<stop offset="0.18" stop-color="#5B4FEC"/>
<stop offset="0.53" stop-color="#D99A7F"/>
<stop offset="1" stop-color="white"/>
</linearGradient>
<linearGradient id="paint35_linear_5855_6224" x1="1.34577" y1="14.4842" x2="22.9491" y2="14.686" gradientUnits="userSpaceOnUse">
<stop offset="0.18" stop-color="#5B4FEC"/>
<stop offset="0.53" stop-color="#D99A7F"/>
<stop offset="1" stop-color="white"/>
</linearGradient>
<linearGradient id="paint36_linear_5855_6224" x1="1.34482" y1="14.5093" x2="22.9481" y2="14.7112" gradientUnits="userSpaceOnUse">
<stop offset="0.18" stop-color="#5B4FEC"/>
<stop offset="0.53" stop-color="#D99A7F"/>
<stop offset="1" stop-color="white"/>
</linearGradient>
<linearGradient id="paint37_linear_5855_6224" x1="1.31974" y1="17.2083" x2="22.923" y2="17.4102" gradientUnits="userSpaceOnUse">
<stop offset="0.18" stop-color="#5B4FEC"/>
<stop offset="0.53" stop-color="#D99A7F"/>
<stop offset="1" stop-color="white"/>
</linearGradient>
<linearGradient id="paint38_linear_5855_6224" x1="1.31977" y1="17.2335" x2="22.9231" y2="17.4354" gradientUnits="userSpaceOnUse">
<stop offset="0.18" stop-color="#5B4FEC"/>
<stop offset="0.53" stop-color="#D99A7F"/>
<stop offset="1" stop-color="white"/>
</linearGradient>
<linearGradient id="paint39_linear_5855_6224" x1="1.44619" y1="3.68756" x2="23.0495" y2="3.88945" gradientUnits="userSpaceOnUse">
<stop offset="0.18" stop-color="#5B4FEC"/>
<stop offset="0.53" stop-color="#D99A7F"/>
<stop offset="1" stop-color="white"/>
</linearGradient>
<linearGradient id="paint40_linear_5855_6224" x1="1.44605" y1="3.71252" x2="23.0493" y2="3.91441" gradientUnits="userSpaceOnUse">
<stop offset="0.18" stop-color="#5B4FEC"/>
<stop offset="0.53" stop-color="#D99A7F"/>
<stop offset="1" stop-color="white"/>
</linearGradient>
<linearGradient id="paint41_linear_5855_6224" x1="1.47122" y1="0.988217" x2="23.0745" y2="1.1901" gradientUnits="userSpaceOnUse">
<stop offset="0.18" stop-color="#5B4FEC"/>
<stop offset="0.53" stop-color="#D99A7F"/>
<stop offset="1" stop-color="white"/>
</linearGradient>
<linearGradient id="paint42_linear_5855_6224" x1="1.47132" y1="1.01317" x2="23.0746" y2="1.21506" gradientUnits="userSpaceOnUse">
<stop offset="0.18" stop-color="#5B4FEC"/>
<stop offset="0.53" stop-color="#D99A7F"/>
<stop offset="1" stop-color="white"/>
</linearGradient>
<linearGradient id="paint43_linear_5855_6224" x1="1.34486" y1="14.5344" x2="22.9482" y2="14.7363" gradientUnits="userSpaceOnUse">
<stop offset="0.18" stop-color="#5B4FEC"/>
<stop offset="0.53" stop-color="#D99A7F"/>
<stop offset="1" stop-color="white"/>
</linearGradient>
<linearGradient id="paint44_linear_5855_6224" x1="1.34471" y1="14.5594" x2="22.948" y2="14.7613" gradientUnits="userSpaceOnUse">
<stop offset="0.18" stop-color="#5B4FEC"/>
<stop offset="0.53" stop-color="#D99A7F"/>
<stop offset="1" stop-color="white"/>
</linearGradient>
<linearGradient id="paint45_linear_5855_6224" x1="1.31961" y1="17.2586" x2="22.9229" y2="17.4605" gradientUnits="userSpaceOnUse">
<stop offset="0.18" stop-color="#5B4FEC"/>
<stop offset="0.53" stop-color="#D99A7F"/>
<stop offset="1" stop-color="white"/>
</linearGradient>
<linearGradient id="paint46_linear_5855_6224" x1="1.31893" y1="17.2836" x2="22.9222" y2="17.4855" gradientUnits="userSpaceOnUse">
<stop offset="0.18" stop-color="#5B4FEC"/>
<stop offset="0.53" stop-color="#D99A7F"/>
<stop offset="1" stop-color="white"/>
</linearGradient>
<linearGradient id="paint47_linear_5855_6224" x1="1.44548" y1="3.76343" x2="23.0488" y2="3.96531" gradientUnits="userSpaceOnUse">
<stop offset="0.18" stop-color="#5B4FEC"/>
<stop offset="0.53" stop-color="#D99A7F"/>
<stop offset="1" stop-color="white"/>
</linearGradient>
<linearGradient id="paint48_linear_5855_6224" x1="1.47051" y1="1.06408" x2="23.0738" y2="1.26597" gradientUnits="userSpaceOnUse">
<stop offset="0.18" stop-color="#5B4FEC"/>
<stop offset="0.53" stop-color="#D99A7F"/>
<stop offset="1" stop-color="white"/>
</linearGradient>
<linearGradient id="paint49_linear_5855_6224" x1="1.44702" y1="3.58623" x2="23.0503" y2="3.78811" gradientUnits="userSpaceOnUse">
<stop offset="0.18" stop-color="#5B4FEC"/>
<stop offset="0.53" stop-color="#D99A7F"/>
<stop offset="1" stop-color="white"/>
</linearGradient>
<linearGradient id="paint50_linear_5855_6224" x1="1.44527" y1="3.73739" x2="23.0494" y2="3.94006" gradientUnits="userSpaceOnUse">
<stop offset="0.18" stop-color="#5B4FEC"/>
<stop offset="0.53" stop-color="#D99A7F"/>
<stop offset="1" stop-color="white"/>
</linearGradient>
<linearGradient id="paint51_linear_5855_6224" x1="1.47055" y1="1.03883" x2="23.0746" y2="1.24071" gradientUnits="userSpaceOnUse">
<stop offset="0.18" stop-color="#5B4FEC"/>
<stop offset="0.53" stop-color="#D99A7F"/>
<stop offset="1" stop-color="white"/>
</linearGradient>
<linearGradient id="paint52_linear_5855_6224" x1="31.8065" y1="29.0172" x2="105.564" y2="-22.5066" gradientUnits="userSpaceOnUse">
<stop stop-color="#5B4FEC"/>
<stop offset="1" stop-color="#DFA891"/>
</linearGradient>
<clipPath id="clip0_5855_6224">
<rect width="26" height="31.9175" fill="white"/>
</clipPath>
</defs>
</svg>
