<svg width="26" height="26" viewBox="0 0 26 26" fill="none" xmlns="http://www.w3.org/2000/svg">
<g clip-path="url(#clip0_4683_3984)">
<path d="M11.8154 14.7953C11.8154 14.5368 11.6052 14.3267 11.3468 14.3267C11.0884 14.3267 10.8782 14.5368 10.8782 14.7953C10.8782 15.0537 11.0884 15.2639 11.3468 15.2639C11.6052 15.2639 11.8154 15.0537 11.8154 14.7953Z" fill="white"/>
<path d="M11.3468 16.7056C11.0884 16.7056 10.8782 16.9158 10.8782 17.1742C10.8782 17.4326 11.0884 17.6428 11.3468 17.6428C11.6052 17.6428 11.8154 17.4326 11.8154 17.1742C11.8154 16.9158 11.6052 16.7056 11.3468 16.7056Z" fill="white"/>
<path d="M11.9418 15.5161C11.6833 15.5161 11.4731 15.7263 11.4731 15.9847C11.4731 16.2431 11.6833 16.4533 11.9418 16.4533C12.2002 16.4533 12.4104 16.2431 12.4104 15.9847C12.4104 15.7263 12.2002 15.5161 11.9418 15.5161Z" fill="white"/>
<path d="M11.2207 15.9847C11.2207 15.7263 11.0105 15.5161 10.7521 15.5161C10.4936 15.5161 10.2834 15.7263 10.2834 15.9847C10.2834 16.2431 10.4936 16.4533 10.7521 16.4533C11.0105 16.4533 11.2207 16.2431 11.2207 15.9847Z" fill="white"/>
<path d="M10.7521 17.8955C10.4936 17.8955 10.2834 18.1057 10.2834 18.3641C10.2834 18.6225 10.4936 18.8327 10.7521 18.8327C11.0105 18.8327 11.2207 18.6225 11.2207 18.3641C11.2207 18.1057 11.0105 17.8955 10.7521 17.8955Z" fill="white"/>
<path d="M9.75806 14.7953C9.75806 15.0155 9.93723 15.1947 10.1574 15.1947C10.3776 15.1947 10.5568 15.0155 10.5568 14.7953C10.5568 14.5752 10.3776 14.396 10.1574 14.396C9.93723 14.396 9.75806 14.5752 9.75806 14.7953Z" fill="white"/>
<path d="M10.1576 17.6428C10.416 17.6428 10.6262 17.4326 10.6262 17.1742C10.6262 16.9157 10.416 16.7056 10.1576 16.7056C9.89915 16.7056 9.68896 16.9157 9.68896 17.1742C9.68896 17.4326 9.89915 17.6428 10.1576 17.6428Z" fill="white"/>
<path d="M9.56268 16.3841C9.78286 16.3841 9.96203 16.205 9.96203 15.9848C9.96203 15.7646 9.78286 15.5854 9.56268 15.5854C9.3425 15.5854 9.16333 15.7646 9.16333 15.9848C9.16333 16.205 9.3425 16.3841 9.56268 16.3841Z" fill="white"/>
<path d="M9.96203 18.3642C9.96203 18.144 9.78286 17.9648 9.56268 17.9648C9.3425 17.9648 9.16333 18.144 9.16333 18.3642C9.16333 18.5844 9.3425 18.7635 9.56268 18.7635C9.78286 18.7635 9.96203 18.5844 9.96203 18.3642Z" fill="white"/>
<path d="M8.37345 18.1255C8.24182 18.1255 8.13501 18.2323 8.13501 18.3639C8.13501 18.4956 8.24182 18.6024 8.37345 18.6024C8.50507 18.6024 8.61189 18.4956 8.61189 18.3639C8.61189 18.2323 8.50507 18.1255 8.37345 18.1255Z" fill="white"/>
<path d="M12.6056 14.3267C12.3471 14.3267 12.137 14.5368 12.137 14.7953C12.137 15.0537 12.3471 15.2639 12.6056 15.2639C12.864 15.2639 13.0742 15.0537 13.0742 14.7953C13.0742 14.5368 12.864 14.3267 12.6056 14.3267Z" fill="white"/>
<path d="M8.96775 17.4819C9.13728 17.4819 9.2751 17.3441 9.2751 17.1745C9.2751 17.005 9.13728 16.8672 8.96775 16.8672C8.79823 16.8672 8.6604 17.005 8.6604 17.1745C8.6604 17.3441 8.79823 17.4819 8.96775 17.4819Z" fill="white"/>
<path d="M10.1576 19.0625C9.89915 19.0625 9.68896 19.2727 9.68896 19.5311C9.68896 19.7895 9.89915 19.9997 10.1576 19.9997C10.416 19.9997 10.6262 19.7895 10.6262 19.5311C10.6262 19.2727 10.416 19.0625 10.1576 19.0625Z" fill="white"/>
<path d="M8.96775 19.2241C8.79823 19.2241 8.6604 19.3619 8.6604 19.5315C8.6604 19.701 8.79823 19.8388 8.96775 19.8388C9.13728 19.8388 9.2751 19.701 9.2751 19.5315C9.2751 19.3619 9.13728 19.2241 8.96775 19.2241Z" fill="white"/>
<path d="M7.78797 19.3394C7.68184 19.3394 7.5957 19.4255 7.5957 19.5316C7.5957 19.6377 7.68184 19.7239 7.78797 19.7239C7.8941 19.7239 7.98024 19.6377 7.98024 19.5316C7.98024 19.4255 7.8941 19.3394 7.78797 19.3394Z" fill="white"/>
<path d="M18.5314 9.56836C18.2729 9.56836 18.0627 9.77854 18.0627 10.037C18.0627 10.2954 18.2729 10.5056 18.5314 10.5056C18.7898 10.5056 19 10.2954 19 10.037C19 9.77854 18.7898 9.56836 18.5314 9.56836Z" fill="white"/>
<path d="M18.405 8.84703C18.405 8.5886 18.1948 8.37842 17.9364 8.37842C17.678 8.37842 17.4678 8.5886 17.4678 8.84703C17.4678 9.10545 17.678 9.31563 17.9364 9.31563C18.1948 9.31563 18.405 9.10545 18.405 8.84703Z" fill="white"/>
<path d="M17.9369 10.7583C17.6784 10.7583 17.4683 10.9685 17.4683 11.2269C17.4683 11.4853 17.6784 11.6955 17.9369 11.6955C18.1953 11.6955 18.4055 11.4853 18.4055 11.2269C18.4055 10.9685 18.1953 10.7583 17.9369 10.7583Z" fill="white"/>
<path d="M16.6208 7.65806C16.6208 7.39964 16.4106 7.18945 16.1522 7.18945C15.8938 7.18945 15.6836 7.39964 15.6836 7.65806C15.6836 7.91648 15.8938 8.12667 16.1522 8.12667C16.4106 8.12667 16.6208 7.91648 16.6208 7.65806Z" fill="white"/>
<path d="M16.7469 6.93722C17.0057 6.93722 17.2155 6.72741 17.2155 6.46861C17.2155 6.2098 17.0057 6 16.7469 6C16.4881 6 16.2783 6.2098 16.2783 6.46861C16.2783 6.72741 16.4881 6.93722 16.7469 6.93722Z" fill="white"/>
<path d="M15.5572 6.93673C15.8157 6.93673 16.0258 6.72654 16.0258 6.46812C16.0258 6.2097 15.8157 5.99951 15.5572 5.99951C15.2988 5.99951 15.0886 6.2097 15.0886 6.46812C15.0886 6.72654 15.2988 6.93673 15.5572 6.93673Z" fill="white"/>
<path d="M17.8103 10.037C17.8103 9.77854 17.6001 9.56836 17.3417 9.56836C17.0832 9.56836 16.873 9.77854 16.873 10.037C16.873 10.2954 17.0832 10.5056 17.3417 10.5056C17.6001 10.5056 17.8103 10.2954 17.8103 10.037Z" fill="white"/>
<path d="M16.6208 10.037C16.6208 9.77854 16.4106 9.56836 16.1522 9.56836C15.8938 9.56836 15.6836 9.77854 15.6836 10.037C15.6836 10.2954 15.8938 10.5056 16.1522 10.5056C16.4106 10.5056 16.6208 10.2954 16.6208 10.037Z" fill="white"/>
<path d="M16.7469 9.31563C17.0054 9.31563 17.2155 9.10545 17.2155 8.84703C17.2155 8.5886 17.0054 8.37842 16.7469 8.37842C16.4885 8.37842 16.2783 8.5886 16.2783 8.84703C16.2783 9.10545 16.4885 9.31563 16.7469 9.31563Z" fill="white"/>
<path d="M15.0886 8.84703C15.0886 9.10545 15.2988 9.31563 15.5572 9.31563C15.8157 9.31563 16.0258 9.10545 16.0258 8.84703C16.0258 8.5886 15.8157 8.37842 15.5572 8.37842C15.2988 8.37842 15.0886 8.5886 15.0886 8.84703Z" fill="white"/>
<path d="M17.3419 11.9478C17.0835 11.9478 16.8733 12.1579 16.8733 12.4164C16.8733 12.6748 17.0835 12.885 17.3419 12.885C17.6003 12.885 17.8105 12.6748 17.8105 12.4164C17.8105 12.1579 17.6003 11.9478 17.3419 11.9478Z" fill="white"/>
<path d="M16.6208 12.4164C16.6208 12.1579 16.4106 11.9478 16.1522 11.9478C15.8938 11.9478 15.6836 12.1579 15.6836 12.4164C15.6836 12.6748 15.8938 12.885 16.1522 12.885C16.4106 12.885 16.6208 12.6748 16.6208 12.4164Z" fill="white"/>
<path d="M16.7469 11.6955C17.0054 11.6955 17.2155 11.4853 17.2155 11.2269C17.2155 10.9685 17.0054 10.7583 16.7469 10.7583C16.4885 10.7583 16.2783 10.9685 16.2783 11.2269C16.2783 11.4853 16.4885 11.6955 16.7469 11.6955Z" fill="white"/>
<path d="M15.5572 11.6955C15.8157 11.6955 16.0258 11.4853 16.0258 11.2269C16.0258 10.9685 15.8157 10.7583 15.5572 10.7583C15.2988 10.7583 15.0886 10.9685 15.0886 11.2269C15.0886 11.4853 15.2988 11.6955 15.5572 11.6955Z" fill="white"/>
<path d="M16.7469 13.1372C16.4885 13.1372 16.2783 13.3474 16.2783 13.6058C16.2783 13.8642 16.4885 14.0744 16.7469 14.0744C17.0054 14.0744 17.2155 13.8642 17.2155 13.6058C17.2155 13.3474 17.0054 13.1372 16.7469 13.1372Z" fill="white"/>
<path d="M15.5572 13.1372C15.2988 13.1372 15.0886 13.3474 15.0886 13.6058C15.0886 13.8642 15.2988 14.0744 15.5572 14.0744C15.8157 14.0744 16.0258 13.8642 16.0258 13.6058C16.0258 13.3474 15.8157 13.1372 15.5572 13.1372Z" fill="white"/>
<path d="M14.9627 8.12667C15.2212 8.12667 15.4314 7.91648 15.4314 7.65806C15.4314 7.39964 15.2212 7.18945 14.9627 7.18945C14.7043 7.18945 14.4941 7.39964 14.4941 7.65806C14.4941 7.91648 14.7043 8.12667 14.9627 8.12667Z" fill="white"/>
<path d="M13.7733 8.12667C14.0317 8.12667 14.2419 7.91648 14.2419 7.65806C14.2419 7.39964 14.0317 7.18945 13.7733 7.18945C13.5149 7.18945 13.3047 7.39964 13.3047 7.65806C13.3047 7.91648 13.5149 8.12667 13.7733 8.12667Z" fill="white"/>
<path d="M14.8366 6.46861C14.8366 6.21018 14.6264 6 14.368 6C14.1096 6 13.8994 6.21018 13.8994 6.46861C13.8994 6.72703 14.1096 6.93722 14.368 6.93722C14.6264 6.93722 14.8366 6.72703 14.8366 6.46861Z" fill="white"/>
<path d="M13.6469 6.46861C13.6469 6.21018 13.4367 6 13.1783 6C12.9199 6 12.7097 6.21018 12.7097 6.46861C12.7097 6.72703 12.9199 6.93722 13.1783 6.93722C13.4367 6.93722 13.6469 6.72703 13.6469 6.46861Z" fill="white"/>
<path d="M15.4314 12.4164C15.4314 12.1579 15.2212 11.9478 14.9627 11.9478C14.7043 11.9478 14.4941 12.1579 14.4941 12.4164C14.4941 12.6748 14.7043 12.885 14.9627 12.885C15.2212 12.885 15.4314 12.6748 15.4314 12.4164Z" fill="white"/>
<path d="M14.2414 12.4164C14.2414 12.1579 14.0312 11.9478 13.7728 11.9478C13.5144 11.9478 13.3042 12.1579 13.3042 12.4164C13.3042 12.6748 13.5144 12.885 13.7728 12.885C14.0312 12.885 14.2414 12.6748 14.2414 12.4164Z" fill="white"/>
<path d="M14.368 13.1372C14.1096 13.1372 13.8994 13.3474 13.8994 13.6058C13.8994 13.8642 14.1096 14.0744 14.368 14.0744C14.6264 14.0744 14.8366 13.8642 14.8366 13.6058C14.8366 13.3474 14.6264 13.1372 14.368 13.1372Z" fill="white"/>
<path d="M13.1788 13.1372C12.9204 13.1372 12.7102 13.3474 12.7102 13.6058C12.7102 13.8642 12.9204 14.0744 13.1788 14.0744C13.4372 14.0744 13.6474 13.8642 13.6474 13.6058C13.6474 13.3474 13.4372 13.1372 13.1788 13.1372Z" fill="white"/>
<path d="M12.5836 7.18945C12.3252 7.18945 12.115 7.39964 12.115 7.65806C12.115 7.91648 12.3252 8.12667 12.5836 8.12667C12.842 8.12667 13.0522 7.91648 13.0522 7.65806C13.0522 7.39964 12.842 7.18945 12.5836 7.18945Z" fill="white"/>
<path d="M11.394 7.2583C11.1738 7.2583 10.9946 7.43747 10.9946 7.65765C10.9946 7.87783 11.1738 8.057 11.394 8.057C11.6142 8.057 11.7933 7.87783 11.7933 7.65765C11.7933 7.43747 11.6142 7.2583 11.394 7.2583Z" fill="white"/>
<path d="M11.9889 6.93722C12.2477 6.93722 12.4575 6.72741 12.4575 6.46861C12.4575 6.2098 12.2477 6 11.9889 6C11.7301 6 11.5203 6.2098 11.5203 6.46861C11.5203 6.72741 11.7301 6.93722 11.9889 6.93722Z" fill="white"/>
<path d="M10.7993 6.86755C11.0194 6.86755 11.1986 6.68837 11.1986 6.4682C11.1986 6.24802 11.0194 6.06885 10.7993 6.06885C10.5791 6.06885 10.3999 6.24802 10.3999 6.4682C10.3999 6.68837 10.5791 6.86755 10.7993 6.86755Z" fill="white"/>
<path d="M13.0522 12.4164C13.0522 12.1579 12.842 11.9478 12.5836 11.9478C12.3252 11.9478 12.115 12.1579 12.115 12.4164C12.115 12.6748 12.3252 12.885 12.5836 12.885C12.842 12.885 13.0522 12.6748 13.0522 12.4164Z" fill="white"/>
<path d="M11.7933 12.416C11.7933 12.1958 11.6142 12.0166 11.394 12.0166C11.1738 12.0166 10.9946 12.1958 10.9946 12.416C10.9946 12.6361 11.1738 12.8153 11.394 12.8153C11.6142 12.8153 11.7933 12.6361 11.7933 12.416Z" fill="white"/>
<path d="M12.4575 13.6058C12.4575 13.3474 12.2473 13.1372 11.9889 13.1372C11.7304 13.1372 11.5203 13.3474 11.5203 13.6058C11.5203 13.8642 11.7304 14.0744 11.9889 14.0744C12.2473 14.0744 12.4575 13.8642 12.4575 13.6058Z" fill="white"/>
<path d="M11.1986 13.6059C11.1986 13.3857 11.0194 13.2065 10.7993 13.2065C10.5791 13.2065 10.3999 13.3857 10.3999 13.6059C10.3999 13.8261 10.5791 14.0052 10.7993 14.0052C11.0194 14.0052 11.1986 13.8261 11.1986 13.6059Z" fill="white"/>
<path d="M9.01505 7.89631C9.14667 7.89631 9.25349 7.7895 9.25349 7.65787C9.25349 7.52625 9.14667 7.41943 9.01505 7.41943C8.88343 7.41943 8.77661 7.52625 8.77661 7.65787C8.77661 7.7895 8.88343 7.89631 9.01505 7.89631Z" fill="white"/>
<path d="M8.42008 6.22998C8.28846 6.22998 8.18164 6.3368 8.18164 6.46842C8.18164 6.60004 8.28846 6.70686 8.42008 6.70686C8.5517 6.70686 8.65852 6.60004 8.65852 6.46842C8.65852 6.3368 8.5517 6.22998 8.42008 6.22998Z" fill="white"/>
<path d="M17.8103 7.65806C17.8103 7.39964 17.6001 7.18945 17.3417 7.18945C17.0832 7.18945 16.873 7.39964 16.873 7.65806C16.873 7.91648 17.0832 8.12667 17.3417 8.12667C17.6001 8.12667 17.8103 7.91648 17.8103 7.65806Z" fill="white"/>
<path d="M10.2046 7.96529C10.3741 7.96529 10.5119 7.82746 10.5119 7.65794C10.5119 7.48841 10.3741 7.35059 10.2046 7.35059C10.035 7.35059 9.89722 7.48841 9.89722 7.65794C9.89722 7.82746 10.035 7.96529 10.2046 7.96529Z" fill="white"/>
<path d="M9.60984 6.77584C9.77959 6.77584 9.91719 6.63823 9.91719 6.46848C9.91719 6.29874 9.77959 6.16113 9.60984 6.16113C9.4401 6.16113 9.30249 6.29874 9.30249 6.46848C9.30249 6.63823 9.4401 6.77584 9.60984 6.77584Z" fill="white"/>
</g>
<path d="M13 25C8.6875 25 4.75 22.75 2.59375 19C0.4375 15.2969 0.4375 10.75 2.59375 7C4.75 3.29688 8.6875 1 13 1C17.2656 1 21.2031 3.29688 23.3594 7C25.5156 10.75 25.5156 15.2969 23.3594 19C21.2031 22.75 17.2656 25 13 25Z" fill="#ECEDFF" fill-opacity="0.3"/>
<path d="M2.59375 19L3.13557 18.6885L3.13386 18.6855L2.59375 19ZM2.59375 7L2.05363 6.6855L2.05193 6.68846L2.59375 7ZM23.3594 7L23.9012 6.68845L23.8995 6.68551L23.3594 7ZM23.3594 19L22.8193 18.6855L22.8176 18.6885L23.3594 19ZM13 24.375C8.90875 24.375 5.17911 22.2424 3.13557 18.6885L2.05193 19.3115C4.32089 23.2576 8.46625 25.625 13 25.625V24.375ZM3.13386 18.6855C1.0915 15.178 1.08952 10.8699 3.13557 7.31154L2.05193 6.68846C-0.214523 10.6301 -0.216501 15.4158 2.05364 19.3145L3.13386 18.6855ZM3.13386 7.31449C5.17945 3.80141 8.91251 1.625 13 1.625V0.375C8.46249 0.375 4.32055 2.79234 2.05364 6.68551L3.13386 7.31449ZM13 1.625C17.0393 1.625 20.773 3.80022 22.8193 7.31449L23.8995 6.68551C21.6333 2.79353 17.492 0.375 13 0.375V1.625ZM22.8176 7.31154C24.8636 10.8699 24.8616 15.178 22.8193 18.6855L23.8995 19.3145C26.1696 15.4158 26.1676 10.6301 23.9012 6.68846L22.8176 7.31154ZM22.8176 18.6885C20.7733 22.2436 17.043 24.375 13 24.375V25.625C17.4882 25.625 21.6329 23.2564 23.9012 19.3115L22.8176 18.6885Z" fill="white"/>
<defs>
<clipPath id="clip0_4683_3984">
<rect width="11.4044" height="14" fill="white" transform="translate(7.5957 6)"/>
</clipPath>
</defs>
</svg>
