<svg width="25" height="24" viewBox="0 0 25 24" fill="none" xmlns="http://www.w3.org/2000/svg">
    <path d="M6.5 9C6.5 8.76562 6.5 8.53125 6.5 8.25C6.5 5.85938 7.20312 3.75 8.375 2.29688C9.5 0.796875 10.9531 0 12.5 0C14 0 15.4531 0.796875 16.5781 2.29688C17.75 3.75 18.5 5.85938 18.5 8.25C18.5 8.53125 18.4531 8.76562 18.4531 9H6.5ZM17.2812 0.796875C21.5938 2.34375 23.6094 5.76562 24.2656 8.15625C24.4062 8.625 24.0781 9 23.6094 9H19.9531C19.9531 8.76562 20 8.53125 20 8.25C20 5.29688 18.9219 2.57812 17.2812 0.796875ZM7.67188 0.796875C6.03125 2.57812 5 5.25 5 8.25C5 8.53125 5 8.76562 5 9H1.34375C0.921875 9 0.546875 8.625 0.6875 8.15625C1.34375 5.76562 3.40625 2.34375 7.67188 0.796875Z" fill="#ECEDFF"/>
    <path opacity="0.4" d="M1.625 9H3.6875L9.3125 15.2344C9.59375 15.0938 9.92188 15 10.25 15H11.75V9H13.25V15H14.75C15.0781 15 15.3594 15.0938 15.6406 15.2344L21.2656 9H23.3281L16.7188 16.2656C16.9062 16.5469 17 16.9219 17 17.25V21.75C17 23.0156 15.9688 24 14.75 24H10.25C8.98438 24 8 23.0156 8 21.75V17.25C8 16.9219 8.04688 16.5469 8.23438 16.2656L1.625 9Z" fill="#ECEDFF"/>
</svg>
