<svg width="24" height="26" viewBox="0 0 24 26" fill="none" xmlns="http://www.w3.org/2000/svg">
    <path d="M12.8438 1.28125L13.6875 1.84375C13.9688 2.03125 14.2969 2.07812 14.625 2.07812L15.6094 2.03125C16.2188 1.98438 16.8281 2.3125 17.1094 2.875L17.5312 3.76562C17.6719 4.09375 17.9531 4.32812 18.2344 4.46875L19.125 4.9375C19.6875 5.17188 20.0156 5.78125 19.9688 6.39062L19.9219 7.375C19.9219 7.70312 19.9688 8.03125 20.1562 8.3125L20.7188 9.15625C21.0469 9.67188 21.0469 10.375 20.7188 10.8906L20.1562 11.7344C19.9688 12.0156 19.875 12.3438 19.9219 12.6719L19.9688 13.6562C20.0156 14.2656 19.6875 14.875 19.125 15.1562L18.2344 15.5781C17.9062 15.7188 17.6719 15.9531 17.5312 16.2812L17.0625 17.1719C16.8281 17.7344 16.2188 18.0625 15.6094 18.0156L14.625 17.9688C14.2969 17.9219 13.9688 18.0156 13.6875 18.2031L12.8438 18.7656C12.3281 19.0938 11.625 19.0938 11.1094 18.7656L10.2656 18.2031C10.0312 18.0156 9.65625 17.9219 9.32812 17.9688L8.34375 18.0156C7.73438 18.0625 7.125 17.7344 6.89062 17.1719L6.42188 16.2812C6.28125 15.9531 6.04688 15.7188 5.71875 15.5781L4.82812 15.1094C4.26562 14.8281 3.9375 14.2656 3.98438 13.6562L4.03125 12.6719C4.07812 12.2969 3.98438 11.9688 3.79688 11.6875L3.23438 10.8906C2.90625 10.375 2.90625 9.67188 3.23438 9.15625L3.79688 8.3125C3.98438 8.03125 4.07812 7.70312 4.03125 7.375L3.98438 6.39062C3.9375 5.78125 4.26562 5.17188 4.82812 4.89062L5.71875 4.46875C6.04688 4.32812 6.28125 4.04688 6.42188 3.76562L6.89062 2.875C7.17188 2.3125 7.73438 1.98438 8.34375 2.03125L9.32812 2.07812C9.70312 2.07812 10.0312 2.03125 10.3125 1.84375L11.1094 1.28125C11.625 0.953125 12.3281 0.953125 12.8438 1.28125ZM12 6.25C10.6406 6.25 9.42188 7 8.71875 8.125C8.0625 9.29688 8.0625 10.75 8.71875 11.875C9.42188 13.0469 10.6406 13.75 12 13.75C13.3125 13.75 14.5312 13.0469 15.2344 11.875C15.8906 10.75 15.8906 9.29688 15.2344 8.125C14.5312 7 13.3125 6.25 12 6.25Z" fill="#ECEDFF"/>
    <path opacity="0.4" d="M5.625 15.5312H5.67188L5.71875 15.5781C6.04688 15.7188 6.28125 15.9531 6.42188 16.2812L6.89062 17.1719C7.17188 17.7344 7.73438 18.0625 8.34375 18.0156L9.32812 17.9688C9.70312 17.9219 10.0312 18.0156 10.3125 18.2031L11.1094 18.7656C11.2969 18.8594 11.4844 18.9531 11.625 19L9.28125 24.5781C9.1875 24.8125 8.95312 25 8.67188 25C8.39062 25.0469 8.10938 24.9062 7.96875 24.6719L6.46875 22.375L3.84375 22.75C3.5625 22.7969 3.28125 22.7031 3.14062 22.4688C2.95312 22.2812 2.95312 22 3.04688 21.7188L5.625 15.5312ZM12.3281 19C12.5156 18.9531 12.6562 18.8594 12.8438 18.7656L13.6875 18.2031C13.9688 18.0156 14.2969 17.9219 14.625 17.9688L15.6094 18.0156C16.2188 18.0625 16.8281 17.7344 17.1094 17.1719L17.5312 16.2812C17.6719 15.9531 17.9062 15.7188 18.2344 15.5781L18.3281 15.5312L20.9062 21.7188C21.0469 22 21 22.2812 20.8125 22.4688C20.6719 22.7031 20.3906 22.7969 20.1094 22.75L17.4844 22.375L15.9844 24.6719C15.8438 24.9062 15.5625 25.0469 15.2812 25C15 25 14.7656 24.8125 14.6719 24.5781L12.3281 19Z" fill="#ECEDFF"/>
</svg>
