<svg width="21" height="20" viewBox="0 0 21 20" fill="none" xmlns="http://www.w3.org/2000/svg">
    <g clip-path="url(#clip0_5868_1964)">
        <path d="M14.5 0H6.5C3.18629 0 0.5 2.68629 0.5 6V14C0.5 17.3137 3.18629 20 6.5 20H14.5C17.8137 20 20.5 17.3137 20.5 14V6C20.5 2.68629 17.8137 0 14.5 0Z" fill="#1B1B1B"/>
        <path d="M14.5 0H6.5C3.18629 0 0.5 2.68629 0.5 6V14C0.5 17.3137 3.18629 20 6.5 20H14.5C17.8137 20 20.5 17.3137 20.5 14V6C20.5 2.68629 17.8137 0 14.5 0Z" fill="#00A3FF" fill-opacity="0.2"/>
        <g opacity="0.9">
            <path d="M11.5356 11.0144L10.8593 12.785C10.8409 12.8342 10.8409 12.8878 10.8593 12.9371L12.0229 15.9836L13.3688 15.2417L11.7534 11.0144C11.7168 10.9171 11.5723 10.9171 11.5356 11.0144Z" fill="#00A3FF"/>
            <path d="M12.8919 8.0369C12.8553 7.93952 12.7108 7.93952 12.6741 8.0369L11.9978 9.80749C11.9794 9.85666 11.9794 9.91032 11.9978 9.95957L13.9043 14.9472L15.2501 14.2053L12.8919 8.0369Z" fill="#00A3FF"/>
            <path d="M10.5005 4.15968C10.5337 4.15968 10.567 4.16843 10.5967 4.18375L15.7293 7.01245C15.7889 7.04529 15.8256 7.10656 15.8256 7.17113V12.8274C15.8256 12.8931 15.7889 12.9532 15.7293 12.9861L10.5967 15.8148C10.5681 15.8312 10.5337 15.8389 10.5005 15.8389C10.4672 15.8389 10.434 15.8302 10.4042 15.8148L5.27166 12.9883C5.21205 12.9555 5.17536 12.8942 5.17536 12.8297V7.17222C5.17536 7.10656 5.21205 7.04638 5.27166 7.01355L10.4042 4.18485C10.434 4.16843 10.4672 4.15968 10.5005 4.15968ZM10.5005 3.3335C10.3182 3.3335 10.1347 3.37836 9.97083 3.46919L4.83946 6.2968C4.51158 6.47735 4.30981 6.81111 4.30981 7.17222V12.8286C4.30981 13.1897 4.51158 13.5234 4.83946 13.704L9.972 16.5327C10.1359 16.6224 10.3182 16.6683 10.5017 16.6683C10.6839 16.6683 10.8673 16.6235 11.0312 16.5327L16.1638 13.704C16.4917 13.5234 16.6934 13.1897 16.6934 12.8286V7.17222C16.6934 6.81111 16.4917 6.47735 16.1638 6.2968L11.0302 3.46919C10.8662 3.37836 10.6827 3.3335 10.5005 3.3335Z" fill="#00A3FF"/>
            <path d="M10.0683 6.76758H8.76707C8.66963 6.76758 8.58249 6.82557 8.54925 6.91311L5.76001 14.2119L7.10591 14.9538L10.1772 6.91639C10.2058 6.84417 10.1497 6.76758 10.0683 6.76758Z" fill="#00A3FF"/>
            <path d="M12.3452 6.76758H11.044C10.9466 6.76758 10.8595 6.82557 10.8262 6.91311L7.64148 15.2472L8.98738 15.9891L12.4541 6.91639C12.4816 6.84417 12.4255 6.76758 12.3452 6.76758Z" fill="#00A3FF"/>
        </g>
    </g>
    <defs>
        <clipPath id="clip0_5868_1964">
            <rect width="20" height="20" fill="white" transform="translate(0.5)"/>
        </clipPath>
    </defs>
</svg>
