<svg width="18" height="17" viewBox="0 0 18 17" fill="none" xmlns="http://www.w3.org/2000/svg">
    <mask id="mask0_1_3" style="mask-type:luminance" maskUnits="userSpaceOnUse" x="0" y="0" width="18" height="17">
        <path d="M17.0833 0H0V17H17.0833V0Z" fill="white"/>
    </mask>
    <g mask="url(#mask0_1_3)">
        <path d="M11.8985 0H5.09938C2.28307 0 0 2.28335 0 5.1V11.9C0 14.7166 2.28307 17 5.09938 17H11.8985C14.7148 17 16.9979 14.7166 16.9979 11.9V5.1C16.9979 2.28335 14.7148 0 11.8985 0Z" fill="#EAB200" fill-opacity="0.2"/>
        <g opacity="0.9">
            <path fill-rule="evenodd" clip-rule="evenodd" d="M11.7579 7.98898L11.7513 6.54519H11.7564L10.5547 5.82332L8.49561 7.06235L6.44887 5.82332L5.24794 6.54519V7.98898L7.30711 9.22197V11.694L8.50292 12.4092L9.69873 11.694V9.22197L11.7579 7.98898ZM8.49629 2.125L5.24721 4.0799L6.44301 4.80178L8.49629 3.56277L10.5555 4.80178L11.7513 4.0799L8.49629 2.125ZM4.38951 10.966L4.38292 8.49989L3.18784 7.77875V11.6946L6.44281 13.6427V12.1989L4.38951 10.966ZM4.38292 7.47091V6.03386L5.58458 5.31199L4.38292 4.59011L3.18711 5.31199V6.74901L4.38292 7.47091ZM8.49614 4.59011L7.30033 5.31199L8.49614 6.03386L9.69774 5.31199L8.49614 4.59011ZM6.44264 9.73296L5.24683 9.01104V10.4548L6.44264 11.17V9.73296ZM8.49591 13.438L7.3001 12.7161V14.1532L8.49591 14.875L9.69759 14.1532V12.7161L8.49591 13.438ZM12.6084 4.59011L11.4126 5.31199L12.6084 6.03386V7.47091L13.81 6.74901V5.31199L12.6084 4.59011ZM13.8108 7.77805L12.615 8.49989L12.6084 10.966L10.5558 12.1982V13.642L13.8108 11.6938V7.77805ZM11.7509 10.4548L10.5551 11.17V9.73296L11.7509 9.01104V10.4548Z" fill="#EAB200"/>
        </g>
    </g>
</svg>
