<svg width="20" height="20" viewBox="0 0 20 20" fill="none" xmlns="http://www.w3.org/2000/svg">
    <g clip-path="url(#clip0_5868_1250)">
        <path d="M14 0H6C2.68629 0 0 2.68629 0 6V14C0 17.3137 2.68629 20 6 20H14C17.3137 20 20 17.3137 20 14V6C20 2.68629 17.3137 0 14 0Z" fill="#1B1B1B"/>
        <path d="M14 0H6C2.68629 0 0 2.68629 0 6V14C0 17.3137 2.68629 20 6 20H14C17.3137 20 20 17.3137 20 14V6C20 2.68629 17.3137 0 14 0Z" fill="#6B8AFF" fill-opacity="0.2"/>
        <path d="M9.56812 3.57552L5.906 9.59683C5.761 9.83508 5.84009 10.1439 6.08123 10.2852L9.74337 12.4304C9.90154 12.5234 10.0985 12.5234 10.2567 12.4304L13.9189 10.2852C14.16 10.1439 14.2391 9.83508 14.0941 9.59683L10.4327 3.57552C10.2365 3.25282 9.76429 3.25282 9.56812 3.57552Z" fill="#6B8AFF"/>
        <path d="M13.1581 12.5084C13.1581 12.4991 13.1565 12.4906 13.1558 12.4821C13.1542 12.4736 13.1526 12.4651 13.1511 12.4566C13.1488 12.4465 13.1457 12.4373 13.1426 12.4272C13.1403 12.4195 13.138 12.4125 13.134 12.4056C13.1294 12.3948 13.1232 12.3839 13.117 12.3738C13.1139 12.3684 13.1108 12.3623 13.107 12.3568C13.0961 12.3414 13.0845 12.3259 13.0705 12.3128C13.0565 12.2997 13.0419 12.2873 13.0264 12.2764C13.0209 12.2726 13.0155 12.2703 13.0093 12.2664C12.9992 12.2602 12.9884 12.254 12.9775 12.2493C12.9705 12.2463 12.9628 12.2439 12.955 12.2408C12.9457 12.2378 12.9357 12.2347 12.9256 12.2323C12.917 12.23 12.9085 12.2285 12.9 12.2278C12.8915 12.2262 12.883 12.2254 12.8737 12.2254C12.8636 12.2254 12.8543 12.2247 12.8442 12.2254C12.8372 12.2254 12.8303 12.2269 12.8225 12.2278C12.8117 12.2293 12.8008 12.23 12.79 12.2323C12.7869 12.2323 12.7838 12.2347 12.7807 12.2354C12.7474 12.2439 12.7155 12.2571 12.6861 12.2764L10.276 13.6968C10.1055 13.7973 9.89463 13.7973 9.72413 13.6968L7.31399 12.2764C7.28454 12.2571 7.25276 12.2439 7.21944 12.2354C7.21634 12.2347 7.21324 12.2332 7.21014 12.2323C7.19929 12.23 7.18844 12.2293 7.17759 12.2278C7.17061 12.2269 7.16364 12.2262 7.15589 12.2254C7.14581 12.2254 7.13651 12.2254 7.12644 12.2254C7.11791 12.2254 7.10862 12.2269 7.10009 12.2278C7.09157 12.2293 7.08304 12.2308 7.07452 12.2323C7.06444 12.2347 7.05514 12.2378 7.04507 12.2408C7.03732 12.2432 7.03034 12.2463 7.02259 12.2493C7.01174 12.254 7.00089 12.2602 6.99082 12.2664C6.98539 12.2695 6.97919 12.2726 6.97377 12.2764C6.95827 12.2873 6.94277 12.2988 6.92959 12.3128C6.91642 12.3267 6.90402 12.3414 6.89317 12.3568C6.88929 12.3623 6.88697 12.3677 6.88309 12.3738C6.87689 12.3847 6.87069 12.3948 6.86604 12.4056C6.86294 12.4125 6.86062 12.4203 6.85752 12.4272C6.85442 12.4373 6.85132 12.4465 6.84899 12.4566C6.84667 12.4651 6.84512 12.4736 6.84434 12.4821C6.84279 12.4906 6.84202 12.4999 6.84202 12.5084C6.84202 12.5177 6.84124 12.5278 6.84202 12.537C6.84202 12.5448 6.84357 12.5517 6.84434 12.5594C6.84589 12.5703 6.84667 12.5811 6.84899 12.5912C6.84977 12.5958 6.85132 12.5997 6.85287 12.6035C6.86217 12.6391 6.87767 12.6723 6.90014 12.7033L9.55679 16.4387C9.77296 16.7425 10.2255 16.7425 10.4418 16.4387L13.0984 12.7033C13.1209 12.6723 13.1364 12.6391 13.1457 12.6035C13.1465 12.5997 13.1488 12.595 13.1495 12.5912C13.1519 12.5803 13.1526 12.5703 13.1542 12.5594C13.155 12.5517 13.1558 12.5448 13.1565 12.537C13.1565 12.5278 13.1565 12.5177 13.1565 12.5084H13.1581Z" fill="#6B8AFF"/>
    </g>
    <defs>
        <clipPath id="clip0_5868_1250">
            <rect width="20" height="20" fill="white"/>
        </clipPath>
    </defs>
</svg>
