<svg width="57" height="42" viewBox="0 0 57 42" fill="none" xmlns="http://www.w3.org/2000/svg">
    <path d="M50.6782 31.9588L39.6499 12.8297C37.2325 8.84151 31.3369 8.80071 29.0032 12.999L17.4241 32.8931C15.2617 36.5406 17.9341 41.1204 22.261 41.1204H45.4619C49.8295 41.1204 53.0956 36.4121 50.6782 31.9588Z" fill="#3156AA"/>
    <path d="M34.7722 33.4436L34.0928 32.2563C33.4564 31.1526 32.0569 28.7781 32.0569 28.7781L22.726 12.5744C20.3086 8.96968 14.5823 8.67184 12.1649 13.2108L1.30597 32.0013C-0.94211 35.9466 1.73029 41.0772 6.60793 41.1201H29.6824H39.5233H45.3761C39.3968 41.1629 37.4874 38.0662 34.7722 33.4436Z" fill="#1972E2"/>
    <path d="M34.7742 33.4437L34.0949 32.2564C33.4584 31.1528 32.059 28.7782 32.059 28.7782L26.0349 18.1743L17.3812 32.9358C15.2188 36.5833 17.8912 41.1651 22.216 41.1651H29.6395H39.4805H45.3761C39.354 41.1202 37.4874 38.0664 34.7742 33.4437Z" fill="url(#paint0_linear_5868_1473)"/>
    <defs>
        <linearGradient id="paint0_linear_5868_1473" x1="14.8544" y1="26.2391" x2="39.9874" y2="36.1215" gradientUnits="userSpaceOnUse">
            <stop stop-color="#264CA2" stop-opacity="0"/>
            <stop offset="1" stop-color="#234588"/>
        </linearGradient>
    </defs>
</svg>
