<svg width="42" height="48" viewBox="0 0 42 48" fill="none" xmlns="http://www.w3.org/2000/svg">
    <g clip-path="url(#clip0_5868_1233)">
        <path d="M16.4707 11.0049C15.9466 10.93 15.9217 10.9051 16.1712 10.8801C16.6454 10.8053 17.7434 10.9051 18.517 11.0798C20.3138 11.504 21.9359 12.6021 23.6579 14.5236L24.1071 15.0477L24.7559 14.9479C27.5259 14.4987 30.3709 14.848 32.7416 15.9461C33.3905 16.2455 34.4136 16.8445 34.5384 16.9942C34.5883 17.0441 34.6632 17.3685 34.7131 17.693C34.8878 18.8659 34.8129 19.7393 34.4386 20.4131C34.239 20.7874 34.239 20.8873 34.3637 21.2117C34.4636 21.4612 34.763 21.6359 35.0375 21.6359C35.6365 21.6359 36.2604 20.6876 36.5598 19.365L36.6846 18.8409L36.9092 19.0905C38.1819 20.5129 39.1801 22.4844 39.3299 23.8819L39.3798 24.2562L39.1552 23.9318C38.7808 23.3578 38.4315 22.9835 37.9573 22.6591C37.1088 22.0851 36.2104 21.9104 33.8397 21.7857C31.6935 21.6609 30.4707 21.4862 29.2728 21.0869C27.2265 20.4131 26.1784 19.5397 23.7577 16.3204C22.6846 14.898 22.0108 14.1243 21.337 13.4755C19.8646 12.053 18.3923 11.3044 16.4707 11.0049Z" fill="#FF007A"/>
        <path d="M35.0623 14.1749C35.1122 13.2266 35.237 12.6027 35.5115 12.0287C35.6114 11.8041 35.7112 11.6045 35.7361 11.6045C35.7611 11.6045 35.7112 11.7792 35.6363 11.9788C35.4367 12.5278 35.4117 13.3015 35.5365 14.1749C35.7112 15.2979 35.786 15.4476 36.9839 16.6704C37.5329 17.2444 38.1818 17.9681 38.4313 18.2676L38.8556 18.8166L38.4313 18.4173C37.9073 17.9182 36.7094 16.9699 36.4349 16.8451C36.2602 16.7453 36.2352 16.7453 36.1105 16.8701C36.0106 16.9699 35.9857 17.1196 35.9857 17.8434C35.9607 18.9663 35.811 19.6651 35.4367 20.3888C35.237 20.7631 35.2121 20.6883 35.3868 20.264C35.5115 19.9396 35.5365 19.7899 35.5365 18.7168C35.5365 16.5457 35.2869 16.0216 33.7646 15.1482C33.3903 14.9236 32.7415 14.5991 32.3671 14.4245C31.9679 14.2498 31.6684 14.1 31.6933 14.1C31.7433 14.0501 33.2156 14.4744 33.7896 14.7239C34.663 15.0733 34.8128 15.0983 34.9126 15.0733C34.9875 14.9984 35.0374 14.7988 35.0623 14.1749Z" fill="#FF007A"/>
        <path d="M17.4937 17.8929C16.4456 16.4455 15.7718 14.1995 15.9215 12.5275L15.9714 12.0034L16.221 12.0533C16.6702 12.1282 17.4438 12.4277 17.8181 12.6523C18.8164 13.2512 19.2656 14.0747 19.6898 16.1211C19.8146 16.72 19.9893 17.4187 20.0641 17.6433C20.1889 18.0177 20.6631 18.8911 21.0623 19.4401C21.3369 19.8394 21.1622 20.0391 20.5383 19.9892C19.59 19.8893 18.3172 19.0159 17.4937 17.8929Z" fill="#FF007A"/>
        <path d="M33.7897 28.7487C28.8486 26.7522 27.1017 25.0303 27.1017 22.1105C27.1017 21.6863 27.1266 21.3369 27.1266 21.3369C27.1516 21.3369 27.3263 21.4866 27.5509 21.6613C28.5491 22.4599 29.6721 22.8093 32.7915 23.2585C34.6133 23.533 35.6614 23.7326 36.6097 24.0571C39.6293 25.0553 41.501 27.1016 41.9502 29.8717C42.0749 30.6702 42.0001 32.1925 41.8004 32.9911C41.6257 33.615 41.1266 34.7629 41.0019 34.7879C40.9769 34.7879 40.927 34.6631 40.927 34.4635C40.8771 33.4153 40.353 32.4171 39.4796 31.6435C38.4315 30.7451 37.0839 30.0713 33.7897 28.7487Z" fill="#FF007A"/>
        <path d="M30.296 29.5724C30.2461 29.198 30.1213 28.7239 30.0464 28.5242L29.9216 28.1499L30.1462 28.4244C30.4707 28.7987 30.7202 29.2479 30.9448 29.8718C31.1195 30.346 31.1195 30.4957 31.1195 31.2693C31.1195 32.018 31.0946 32.1927 30.9448 32.6169C30.6953 33.2907 30.3958 33.7649 29.8967 34.2889C28.9983 35.2123 27.8254 35.7114 26.1534 35.936C25.8539 35.961 25.0054 36.0358 24.2568 36.0857C22.3851 36.1856 21.1373 36.3852 20.0143 36.7845C19.8646 36.8344 19.7149 36.8843 19.6899 36.8593C19.64 36.8094 20.4136 36.3602 21.0375 36.0608C21.911 35.6365 22.8093 35.4119 24.7808 35.0626C25.7541 34.9128 26.7523 34.7132 27.0019 34.6134C29.4724 33.8397 30.6953 31.9182 30.296 29.5724Z" fill="#FF007A"/>
        <path d="M32.5669 33.5897C31.9181 32.1672 31.7684 30.8196 32.1177 29.5469C32.1677 29.4221 32.2176 29.2974 32.2675 29.2974C32.3174 29.2974 32.4671 29.3722 32.6169 29.4721C32.9163 29.6717 33.5402 30.0211 35.1374 30.8945C37.1587 31.9926 38.3067 32.841 39.1053 33.8143C39.804 34.6628 40.2283 35.636 40.4279 36.8339C40.5527 37.5077 40.4778 39.1298 40.3031 39.8036C39.7541 41.9248 38.5063 43.6218 36.6846 44.595C36.4101 44.7448 36.1855 44.8446 36.1605 44.8446C36.1356 44.8446 36.2354 44.595 36.3851 44.2956C36.9841 43.0229 37.0589 41.8 36.6097 40.4275C36.3352 39.579 35.7612 38.5558 34.6133 36.8339C33.2407 34.8375 32.9163 34.3134 32.5669 33.5897Z" fill="#FF007A"/>
        <path d="M13.975 41.2262C15.8217 39.679 18.0926 38.581 20.1889 38.2316C21.0873 38.0819 22.5846 38.1318 23.4081 38.3564C24.7308 38.7057 25.9286 39.4544 26.5525 40.3778C27.1515 41.2762 27.426 42.0498 27.7005 43.7717C27.8003 44.4455 27.9251 45.1442 27.95 45.294C28.1497 46.1924 28.549 46.8911 29.0481 47.2655C29.8217 47.8394 31.1693 47.8644 32.4919 47.3653C32.7165 47.2904 32.9162 47.2155 32.9162 47.2405C32.9661 47.2904 32.2923 47.7396 31.8431 47.9642C31.2192 48.2886 30.7201 48.3884 30.0463 48.3884C28.8484 48.3884 27.8253 47.7646 27.0017 46.5168C26.827 46.2672 26.4777 45.5435 26.1782 44.8697C25.3048 42.8483 24.8556 42.2494 23.8324 41.5756C22.934 41.0016 21.786 40.8769 20.9126 41.3011C19.7647 41.8501 19.4652 43.3225 20.2638 44.2209C20.5882 44.5952 21.1871 44.8947 21.6862 44.9696C22.6096 45.0943 23.4081 44.3706 23.4081 43.4473C23.4081 42.8483 23.1835 42.499 22.5846 42.2245C21.786 41.8751 20.9126 42.2744 20.9376 43.048C20.9376 43.3724 21.0873 43.572 21.4117 43.7218C21.6114 43.8216 21.6114 43.8216 21.4616 43.7966C20.7379 43.6469 20.5632 42.7485 21.1372 42.1745C21.836 41.4758 23.3083 41.7753 23.8074 42.7485C24.0071 43.1478 24.032 43.9464 23.8573 44.4455C23.4331 45.5435 22.2352 46.1175 21.0124 45.7931C20.1889 45.5685 19.8395 45.3439 18.8413 44.3207C17.0944 42.5239 16.4206 42.1745 13.9251 41.8002L13.4509 41.7253L13.975 41.2262Z" fill="#FF007A"/>
        <path fill-rule="evenodd" clip-rule="evenodd" d="M0.848374 1.07308C6.66299 8.13547 15.622 19.1159 16.0712 19.7148C16.4455 20.2139 16.2958 20.6881 15.6719 21.0374C15.3225 21.2371 14.5988 21.4367 14.2494 21.4367C13.8502 21.4367 13.376 21.2371 13.0516 20.9127C12.827 20.6881 11.8537 19.2656 9.65764 15.8467C7.98563 13.2264 6.56317 11.0553 6.53821 11.0303C6.43839 10.9804 6.43839 10.9804 9.48295 16.4207C11.4045 19.8396 12.0284 21.0624 12.0284 21.2121C12.0284 21.5365 11.9286 21.7112 11.5293 22.1604C10.8555 22.9091 10.556 23.7576 10.3314 25.5294C10.0819 27.5009 9.40809 28.8984 7.48652 31.2692C6.36353 32.6667 6.18884 32.9162 5.91433 33.4902C5.56495 34.1889 5.46513 34.5882 5.41522 35.4866C5.36531 36.4349 5.46513 37.0339 5.73964 37.9323C5.98919 38.7308 6.2637 39.2549 6.9375 40.2781C7.51148 41.1765 7.86085 41.8503 7.86085 42.0998C7.86085 42.2995 7.91076 42.2995 8.80916 42.0998C10.9553 41.6007 12.7272 40.7522 13.7004 39.7041C14.2994 39.0553 14.4491 38.7059 14.4491 37.8075C14.4491 37.2335 14.4241 37.1087 14.2744 36.7594C14.0248 36.2103 13.5507 35.7611 12.5275 35.0624C11.1799 34.139 10.606 33.3904 10.4562 32.3922C10.3314 31.5437 10.4812 30.9697 11.2298 29.3975C12.0035 27.7754 12.2031 27.1016 12.3279 25.4545C12.4027 24.4064 12.5275 23.9822 12.827 23.6578C13.1514 23.3084 13.4259 23.1836 14.1995 23.0838C15.4723 22.9091 16.2958 22.5847 16.9446 21.9608C17.5186 21.4367 17.7682 20.9127 17.7931 20.139L17.8181 19.5651L17.4937 19.2157C16.3207 17.8681 0.0747556 0 -0.000110673 0C-0.0250661 0 0.374221 0.474153 0.848374 1.07308ZM8.50969 36.5597C8.7842 36.0856 8.63447 35.4866 8.18527 35.1872C7.76103 34.9127 7.11219 35.0374 7.11219 35.4118C7.11219 35.5116 7.1621 35.6114 7.31183 35.6613C7.53643 35.7861 7.56139 35.9109 7.3867 36.1854C7.21201 36.4599 7.21201 36.7094 7.43661 36.8841C7.78599 37.1586 8.26014 37.0089 8.50969 36.5597Z" fill="#FF007A"/>
        <path fill-rule="evenodd" clip-rule="evenodd" d="M18.6167 23.4331C18.0178 23.6078 17.4438 24.2566 17.2691 24.9054C17.1693 25.3047 17.2192 26.0284 17.3939 26.253C17.6684 26.6024 17.918 26.7022 18.6167 26.7022C19.9893 26.7022 21.1622 26.1033 21.287 25.3796C21.4117 24.7807 20.8877 23.9571 20.164 23.5828C19.7896 23.3832 19.016 23.3083 18.6167 23.4331ZM20.2139 24.6808C20.4135 24.3814 20.3387 24.057 19.9643 23.8324C19.2905 23.4081 18.2674 23.7575 18.2674 24.4063C18.2674 24.7308 18.7914 25.0801 19.2905 25.0801C19.615 25.0801 20.0641 24.8805 20.2139 24.6808Z" fill="#FF007A"/>
    </g>
    <defs>
        <clipPath id="clip0_5868_1233">
            <rect width="42" height="48.3636" fill="white"/>
        </clipPath>
    </defs>
</svg>
