<svg width="66" height="66" viewBox="0 0 66 66" fill="none" xmlns="http://www.w3.org/2000/svg">
    <path d="M16.2581 24.6411C16.2581 24.006 16.2581 23.3709 16.2581 22.6088C16.2581 16.131 18.1633 10.4153 21.3387 6.47779C24.3871 2.41328 28.3246 0.254002 32.5161 0.254002C36.5806 0.254002 40.5181 2.41328 43.5665 6.47779C46.7419 10.4153 48.7742 16.131 48.7742 22.6088C48.7742 23.3709 48.6472 24.006 48.6472 24.6411H16.2581ZM45.4718 2.41328C57.1573 6.60481 62.619 15.877 64.3972 22.3548C64.7782 23.625 63.8891 24.6411 62.619 24.6411H52.7117C52.7117 24.006 52.8387 23.3709 52.8387 22.6088C52.8387 14.6068 49.9173 7.23989 45.4718 2.41328ZM19.4335 2.41328C14.9879 7.23989 12.1935 14.4798 12.1935 22.6088C12.1935 23.3709 12.1935 24.006 12.1935 24.6411H2.28629C1.14315 24.6411 0.127016 23.625 0.508065 22.3548C2.28629 15.877 7.875 6.60481 19.4335 2.41328Z" fill="#000000"/>
    <path opacity="0.4" d="M3.04839 24.6411H8.6371L23.879 41.5342C24.6411 41.1532 25.5302 40.8992 26.4194 40.8992H30.4839V24.6411H34.5484V40.8992H38.6129C39.502 40.8992 40.2641 41.1532 41.0262 41.5342L56.2681 24.6411H61.8569L43.9476 44.3286C44.4556 45.0907 44.7097 46.1068 44.7097 46.9959V59.1895C44.7097 62.6189 41.9153 65.2863 38.6129 65.2863H26.4194C22.9899 65.2863 20.3226 62.6189 20.3226 59.1895V46.9959C20.3226 46.1068 20.4496 45.0907 20.9577 44.3286L3.04839 24.6411Z" fill="#000000"/>
</svg>
