<svg width="66" height="66" viewBox="0 0 66 66" fill="none" xmlns="http://www.w3.org/2000/svg">
    <path d="M34.8024 1.0161L37.0887 2.54029C37.8508 3.04836 38.7399 3.17537 39.629 3.17537L42.2964 3.04836C43.9476 2.92134 45.5988 3.81045 46.3609 5.33465L47.504 7.74795C47.8851 8.63707 48.6472 9.27215 49.4093 9.6532L51.8226 10.9234C53.3468 11.5584 54.2359 13.2096 54.1089 14.8609L53.9819 17.5282C53.9819 18.4173 54.1089 19.3064 54.6169 20.0685L56.1411 22.3548C57.0302 23.752 57.0302 25.6572 56.1411 27.0544L54.6169 29.3407C54.1089 30.1028 53.8548 30.9919 53.9819 31.881L54.1089 34.5484C54.2359 36.1996 53.3468 37.8508 51.8226 38.6129L49.4093 39.756C48.5202 40.1371 47.8851 40.7721 47.504 41.6613L46.2339 44.0746C45.5988 45.5988 43.9476 46.4879 42.2964 46.3609L39.629 46.2338C38.7399 46.1068 37.8508 46.3609 37.0887 46.8689L34.8024 48.3931C33.4052 49.2822 31.5 49.2822 30.1028 48.3931L27.8165 46.8689C27.1815 46.3609 26.1653 46.1068 25.2762 46.2338L22.6089 46.3609C20.9577 46.4879 19.3065 45.5988 18.6714 44.0746L17.4012 41.6613C17.0202 40.7721 16.3851 40.1371 15.496 39.756L13.0827 38.4859C11.5585 37.7238 10.6694 36.1996 10.7964 34.5484L10.9234 31.881C11.0504 30.8649 10.7964 29.9758 10.2883 29.2137L8.76411 27.0544C7.875 25.6572 7.875 23.752 8.76411 22.3548L10.2883 20.0685C10.7964 19.3064 11.0504 18.4173 10.9234 17.5282L10.7964 14.8609C10.6694 13.2096 11.5585 11.5584 13.0827 10.7963L15.496 9.6532C16.3851 9.27215 17.0202 8.51005 17.4012 7.74795L18.6714 5.33465C19.4335 3.81045 20.9577 2.92134 22.6089 3.04836L25.2762 3.17537C26.2923 3.17537 27.1815 3.04836 27.9435 2.54029L30.1028 1.0161C31.5 0.126985 33.4052 0.126985 34.8024 1.0161ZM32.5161 14.4798C28.8327 14.4798 25.5302 16.5121 23.625 19.5605C21.8468 22.7359 21.8468 26.6734 23.625 29.7217C25.5302 32.8971 28.8327 34.8024 32.5161 34.8024C36.0726 34.8024 39.375 32.8971 41.2802 29.7217C43.0585 26.6734 43.0585 22.7359 41.2802 19.5605C39.375 16.5121 36.0726 14.4798 32.5161 14.4798Z"
          fill="#000000"/>
    <path opacity="0.4"
          d="M15.2419 39.629H15.369L15.496 39.756C16.3851 40.1371 17.0202 40.7721 17.4012 41.6613L18.6714 44.0746C19.4335 45.5988 20.9577 46.4879 22.6089 46.3609L25.2762 46.2338C26.2923 46.1068 27.1815 46.3609 27.9435 46.8689L30.1028 48.3931C30.6109 48.6471 31.119 48.9012 31.5 49.0282L25.1492 64.1431C24.8952 64.7782 24.2601 65.2863 23.498 65.2863C22.7359 65.4133 21.9738 65.0322 21.5927 64.3971L17.5282 58.1734L10.4153 59.1895C9.65323 59.3165 8.89113 59.0625 8.51008 58.4274C8.00202 57.9193 8.00202 57.1572 8.25605 56.3951L15.2419 39.629ZM33.4052 49.0282C33.9133 48.9012 34.2944 48.6471 34.8024 48.3931L37.0887 46.8689C37.8508 46.3609 38.7399 46.1068 39.629 46.2338L42.2964 46.3609C43.9476 46.4879 45.5988 45.5988 46.3609 44.0746L47.504 41.6613C47.8851 40.7721 48.5202 40.1371 49.4093 39.756L49.6633 39.629L56.6492 56.3951C57.0302 57.1572 56.9032 57.9193 56.3952 58.4274C56.0141 59.0625 55.252 59.3165 54.4899 59.1895L47.377 58.1734L43.3125 64.3971C42.9315 65.0322 42.1694 65.4133 41.4073 65.2863C40.6452 65.2863 40.0101 64.7782 39.756 64.1431L33.4052 49.0282Z"
          fill="#000000"/>
</svg>
