<svg width="66" height="66" viewBox="0 0 66 66" fill="none" xmlns="http://www.w3.org/2000/svg">
    <path d="M57.9194 3.16128V7.22579H61.9839C63.6351 7.22579 65.0323 8.62297 65.0323 10.2742C65.0323 12.0524 63.6351 13.3226 61.9839 13.3226H57.9194V17.3871C57.9194 19.1653 56.5222 20.4355 54.871 20.4355C53.0927 20.4355 51.8226 19.1653 51.8226 17.3871V13.3226H47.7581C45.9798 13.3226 44.7097 12.0524 44.7097 10.2742C44.7097 8.62297 45.9798 7.22579 47.7581 7.22579H51.8226V3.16128C51.8226 1.51007 53.0927 0.112888 54.871 0.112888C56.5222 0.112888 57.9194 1.51007 57.9194 3.16128Z"
          fill="#000000"/>
    <path opacity="0.4"
          d="M29.4677 17.133C31.373 16.2439 33.5323 16.2439 35.4375 17.133L63.254 29.9617C64.2702 30.4697 65.0323 31.4859 65.0323 32.629C65.0323 33.8992 64.2702 34.9153 63.254 35.4234L35.4375 48.252C33.5323 49.1411 31.373 49.1411 29.4677 48.252L1.65121 35.4234C0.635083 34.9153 1.90735e-06 33.8992 1.90735e-06 32.629C1.90735e-06 31.4859 0.635083 30.4697 1.65121 29.9617L29.4677 17.133ZM56.3952 43.0443L63.254 46.2197C64.2702 46.7278 65.0323 47.7439 65.0323 48.8871C65.0323 50.1572 64.2702 51.1734 63.254 51.6814L35.4375 64.5101C33.5323 65.3992 31.373 65.3992 29.4677 64.5101L1.65121 51.6814C0.635083 51.1734 1.90735e-06 50.1572 1.90735e-06 48.8871C1.90735e-06 47.7439 0.635083 46.7278 1.65121 46.2197L8.51008 43.0443L27.8165 51.9355C30.7379 53.3326 34.1673 53.3326 37.0887 51.9355L56.3952 43.0443Z"
          fill="#000000"/>
</svg>
